<svg xmlns="http://www.w3.org/2000/svg" viewBox="0 0 1920 1096"><defs><style>.cls-1{fill:#c9eff4;}.cls-2{fill:#322d63;}.cls-3{fill:#9b5825;}.cls-4{fill:#7c441d;}.cls-5{fill:#6d6e70;}.cls-6{fill:#42b0a7;}.cls-7{fill:#bbbdbf;}.cls-8{fill:#929497;}.cls-34,.cls-9{fill:#fff;}.cls-10{fill:#18283c;}.cls-11{fill:#b7e4f7;}.cls-12{fill:#f6b47d;}.cls-13{fill:#f48046;}.cls-14{fill:#59c1ee;}.cls-15{fill:#2a374b;}.cls-16{fill:#7a5649;}.cls-17{fill:#da5a4c;}.cls-18{fill:#e6e7e8;}.cls-19{fill:#999;}.cls-20{fill:#ccc;}.cls-21{fill:#808184;}.cls-22{fill:#ad6629;}.cls-23{fill:#8e4e21;}.cls-24{fill:#0277bf;}.cls-25{fill:#0189d1;}.cls-26{fill:#dff2fc;}.cls-27{fill:#3bb2e6;}.cls-28{fill:#f89d4d;}.cls-29{fill:#f87f38;}.cls-30{fill:#6e4d41;}.cls-31{fill:#dd5650;}.cls-32{fill:#253238;}.cls-33{fill:#414c5f;}.cls-34{stroke:#231f20;stroke-miterlimit:10;}.cls-35{fill:#c93d3d;}</style></defs><title>ეკონომიკური ძალადობა</title><g id="Layer_1" data-name="Layer 1"><rect class="cls-1" x="10" y="15" width="1900" height="1071"/><path class="cls-2" d="M1900,20V1071H20V20H1900m20-20H0V1091H1920V0Z" transform="translate(0 5)"/></g><g id="Layer_2" data-name="Layer 2"><rect class="cls-3" x="628.34" y="822.74" width="25.34" height="260.79"/><rect class="cls-4" x="653.68" y="822.74" width="14.65" height="260.79"/><rect class="cls-5" x="875.51" y="772.09" width="44.96" height="115.89"/><path class="cls-5" d="M951.87,625.39H847.39c-12.88,0-23.23,9.94-23.23,22.12V745c0,12.26,10.43,22.12,23.23,22.12H951.87c12.88,0,23.23-9.94,23.23-22.12V647.59C975.1,635.33,964.66,625.39,951.87,625.39Z" transform="translate(0 5)"/><path class="cls-6" d="M936.63,625.39H832.07c-12.88,0-23.24,9.94-23.24,22.12V745c0,12.26,10.44,22.12,23.24,22.12H936.55c12.88,0,23.23-9.94,23.23-22.12V647.59C959.86,635.33,949.43,625.39,936.63,625.39Z" transform="translate(0 5)"/><path class="cls-7" d="M908.85,1049.12H819.52c-15.82,0-28.7,12.26-28.7,27.33v2.08H937.56v-2.08C937.56,1061.3,924.76,1049.12,908.85,1049.12Z" transform="translate(0 5)"/><path class="cls-6" d="M973.25,914H790.82V882.9H942.94c16.76,0,30.31,12.9,30.31,28.85Z" transform="translate(0 5)"/><rect class="cls-5" x="790.82" y="918.99" width="182.43" height="16.03"/><rect class="cls-8" x="849.5" y="935.1" width="33" height="119.02"/><rect class="cls-7" x="866" y="935.1" width="9.51" height="84.55"/><rect class="cls-7" x="866" y="1025.83" width="9.51" height="16.51"/><ellipse class="cls-9" cx="897.15" cy="1065.66" rx="6.99" ry="6.65"/><path class="cls-10" d="M705.2,1035.41H634.48V849c0-17.23,14.73-31.26,32.83-31.26h5.06c18.1,0,32.83,14,32.83,31.26Z" transform="translate(0 5)"/><rect class="cls-10" x="668.32" y="822.74" width="134.03" height="65.16"/><path class="cls-11" d="M924.84,788.65H735.34V655.13c0-46.25,39.4-83.75,88-83.75h13.56c48.57,0,88,37.5,88,83.75V788.65Z" transform="translate(0 5)"/><path class="cls-12" d="M798.73,582v5.61h47.06V556.79A76.45,76.45,0,0,1,798.73,582Z" transform="translate(0 5)"/><path class="cls-13" d="M798.73,467.19V582a76.45,76.45,0,0,0,47.06-25.16v-89.6Z" transform="translate(0 5)"/><polygon class="cls-12" points="798.73 592.56 845.79 592.56 822.3 608.83 798.73 592.56"/><path class="cls-14" d="M882.5,788.65h2.35c22.15,0,40-17.07,40-38.07h0v38.07Z" transform="translate(0 5)"/><path class="cls-15" d="M826.18,1035.41H755.46V849c0-17.23,14.73-31.26,32.83-31.26h5.05c18.1,0,32.84,14,32.84,31.26Z" transform="translate(0 5)"/><path class="cls-15" d="M861.28,883H790.82V817.82h134v4.65C924.84,855.81,896.39,883,861.28,883Z" transform="translate(0 5)"/><path class="cls-10" d="M826.18,1078.53H709.32v-3.12c0-22.12,18.86-40.08,42.1-40.08h74.76Z" transform="translate(0 5)"/><path class="cls-10" d="M705.2,1078.53H588.35v-3.12c0-22.12,18.85-40.08,42.09-40.08H705.2Z" transform="translate(0 5)"/><path class="cls-16" d="M860.61,509.9a14.65,14.65,0,0,0,9.26-11.14,23.34,23.34,0,0,1-7.16,2A56,56,0,0,1,860.61,509.9Z" transform="translate(0 5)"/><path class="cls-16" d="M742.75,377.34c7.49,29.58,35.44,50.82,67.85,50.82h18.61v46.08c0,7,5.89,12.58,13.21,12.58V457.49h21.13v.24a23.66,23.66,0,0,1,6.66,2V387.84c0-19.87-16.93-35.9-37.72-35.9h-97.4c-17.52,0-31.66,13.46-31.66,30.13h0a451.36,451.36,0,0,0,8.08,85.12V414.77C711.51,396.58,724.81,381.27,742.75,377.34Z" transform="translate(0 5)"/><path class="cls-12" d="M870.12,459.73a22.74,22.74,0,0,0-6.65-2v-.24H842.34v29.33c-7.32,0-13.22-5.61-13.22-12.58V428.16h-18.6c-32.42,0-60.37-21.24-67.86-50.82-17.85,4-31.15,19.24-31.15,37.43v52.5h0v23.8c0,37.11,31.57,67.16,70.55,67.16h10.86c32.08,0,59.1-20.36,67.69-48.25a65.8,65.8,0,0,0,2.1-9.13,23.34,23.34,0,0,0,7.16-2,21.69,21.69,0,0,0,12.8-19.55h0A21.58,21.58,0,0,0,870.12,459.73Zm-10.19,29.42h-5.21V469.27h5.21a10,10,0,1,1,0,19.88Z" transform="translate(0 5)"/><path class="cls-17" d="M859.93,469.27h-5.21v19.88h5.21a10,10,0,1,0,0-19.88Z" transform="translate(0 5)"/><path class="cls-18" d="M741,788.65H536a7.9,7.9,0,0,1-8.08-7.7v-1.2a7.89,7.89,0,0,1,8.08-7.69H741Z" transform="translate(0 5)"/><path class="cls-7" d="M847.48,788.65H734.16a7.9,7.9,0,0,1-8.08-7.7v-1.2a7.89,7.89,0,0,1,8.08-7.69H847.48a7.89,7.89,0,0,1,8.08,7.69V781A7.9,7.9,0,0,1,847.48,788.65Z" transform="translate(0 5)"/><path class="cls-19" d="M740.47,765.57,668.83,633.25a4.72,4.72,0,0,0-4.21-2.41h-7a4.88,4.88,0,0,1,4.21,2.41l71.65,132.32a4.48,4.48,0,0,1-4.21,6.49h7A4.48,4.48,0,0,0,740.47,765.57Z" transform="translate(0 5)"/><path class="cls-20" d="M733.49,765.57,661.84,633.25a4.72,4.72,0,0,0-4.21-2.41H466.28a4.48,4.48,0,0,0-4.21,6.49l71.64,132.32a4.72,4.72,0,0,0,4.21,2.41H729.28A4.48,4.48,0,0,0,733.49,765.57Z" transform="translate(0 5)"/><path class="cls-9" d="M605.86,706.82c2.86,10.34-3.71,18.67-14.48,18.67s-22-8.41-24.75-18.67,3.7-18.67,14.48-18.67S603,696.48,605.86,706.82Z" transform="translate(0 5)"/><path class="cls-21" d="M807.07,779.51H743.5a1.69,1.69,0,1,0,0,3.37h63.57a1.69,1.69,0,1,0,0-3.37Z" transform="translate(0 5)"/><rect class="cls-3" x="741.74" y="822.74" width="25.34" height="260.79"/><rect class="cls-4" x="767.08" y="822.74" width="14.65" height="260.79"/><rect class="cls-3" x="915.84" y="822.74" width="25.34" height="260.79"/><rect class="cls-4" x="941.18" y="822.74" width="14.65" height="260.79"/><rect class="cls-3" x="454.24" y="822.74" width="25.34" height="260.79"/><rect class="cls-4" x="479.49" y="822.74" width="14.65" height="260.79"/><rect class="cls-22" x="430.33" y="793.65" width="346.6" height="29.09"/><rect class="cls-23" x="776.93" y="793.65" width="196.32" height="29.09"/><path class="cls-16" d="M742.49,444.19,722.88,452a4.82,4.82,0,0,1-6.23-2.41h0a4.43,4.43,0,0,1,2.52-5.93l19.62-7.85a4.83,4.83,0,0,1,6.23,2.4h0A4.44,4.44,0,0,1,742.49,444.19Z" transform="translate(0 5)"/><path class="cls-16" d="M767.83,444.19l29.55,11.86a4.82,4.82,0,0,0,6.23-2.41h0a4.43,4.43,0,0,0-2.52-5.93l-29.55-11.86a4.83,4.83,0,0,0-6.23,2.4h0A4.37,4.37,0,0,0,767.83,444.19Z" transform="translate(0 5)"/><ellipse class="cls-16" cx="730.88" cy="466.02" rx="6.57" ry="6.25"/><ellipse class="cls-16" cx="780.29" cy="466.02" rx="6.57" ry="6.25"/><path class="cls-17" d="M757.39,498.76c-13.63,0-24.83,9.7-26.51,22.28h53C782.23,508.46,771,498.76,757.39,498.76Z" transform="translate(0 5)"/><rect class="cls-24" x="811.11" y="608.83" width="22.31" height="17.47"/><polygon class="cls-25" points="841.25 738.59 822.3 752.37 803.28 738.59 811.11 626.3 833.42 626.3 841.25 738.59"/><polygon class="cls-26" points="798.73 592.56 822.3 608.83 798.73 631.84 798.73 592.56"/><polygon class="cls-26" points="845.79 592.56 822.3 608.83 845.79 631.84 845.79 592.56"/><path class="cls-27" d="M882.08,753.78h-85a3.21,3.21,0,1,1,0-6.41h81.49V651.28a3.37,3.37,0,0,1,6.74,0v99.3A3.17,3.17,0,0,1,882.08,753.78Z" transform="translate(0 5)"/><path class="cls-12" d="M808.08,766.21c0-16.35-14-29.66-31.15-29.66s-31.15,13.31-31.15,29.66a32.67,32.67,0,0,0,.59,5.85h61.12A34.42,34.42,0,0,0,808.08,766.21Z" transform="translate(0 5)"/><polygon class="cls-10" points="1091.36 443.02 1116.68 479.93 873.24 631.32 847.91 594.42 1091.36 443.02"/><path class="cls-28" d="M1131.69,430.16V451.4h59.69V403.87A95.11,95.11,0,0,1,1131.69,430.16Z" transform="translate(0 5)"/><path class="cls-29" d="M1131.69,367.73v62.43a95.3,95.3,0,0,0,59.69-26.29V367.73Z" transform="translate(0 5)"/><path class="cls-30" d="M1046.33,231.64h0c21.13,0,38.3,16.35,38.3,36.47V304h-38.3c-21,0-38-16.19-38-36.14h0C1008.36,247.83,1025.36,231.64,1046.33,231.64Z" transform="translate(0 5)"/><path class="cls-28" d="M1124.79,187h0c-51.61,0-93.45,39.83-93.45,89V320.6c0,49.13,41.84,89,93.45,89h0c51.6,0,93.45-39.83,93.45-89V276C1218.24,226.83,1176.39,187,1124.79,187Z" transform="translate(0 5)"/><path class="cls-28" d="M1213.6,298.32h-15.82v48.09h15.82c14,0,25.26-10.74,25.26-24.05h0C1238.86,309.06,1227.5,298.32,1213.6,298.32Z" transform="translate(0 5)"/><path class="cls-31" d="M1212,332.78V312h1.51a10.43,10.43,0,1,1,0,20.83Z" transform="translate(0 5)"/><path class="cls-30" d="M1218.4,231.64h0c-21.13,0-38.3,16.35-38.3,36.47v55.06c0,9.29,7.91,16.75,17.59,16.75V304h20.71c21,0,38-16.19,38-36.14h0C1256.46,247.83,1239.45,231.64,1218.4,231.64Z" transform="translate(0 5)"/><path class="cls-30" d="M1146.84,274.6l-41.58,11.14a7.63,7.63,0,0,1-9.35-5h0a7.17,7.17,0,0,1,5.22-8.9l41.59-11.14a7.62,7.62,0,0,1,9.34,5h0A7.09,7.09,0,0,1,1146.84,274.6Z" transform="translate(0 5)"/><path class="cls-30" d="M1040,279.81l22.14,5.93a7.63,7.63,0,0,0,9.35-5h0a7.17,7.17,0,0,0-5.22-8.9l-22.14-5.93a7.63,7.63,0,0,0-9.35,5h0A7.1,7.1,0,0,0,1040,279.81Z" transform="translate(0 5)"/><ellipse class="cls-32" cx="1054.91" cy="304.36" rx="8.42" ry="8.01"/><ellipse class="cls-32" cx="1118.64" cy="304.36" rx="8.42" ry="8.01"/><path class="cls-30" d="M1104.75,326.85h-27.36c-14.9,0-26.94,11.46-26.94,25.65h81.24C1131.69,338.39,1119.65,326.85,1104.75,326.85Z" transform="translate(0 5)"/><path class="cls-15" d="M1283.9,736.55H1030.5a1047.31,1047.31,0,0,1,31.57-255l5.22-20.84c4.46-17.87,21.3-30.45,40.58-30.45h134.19c23.07,0,41.76,17.79,41.76,39.75V736.55Z" transform="translate(0 5)"/><polygon class="cls-10" points="1258.39 741.55 1181.44 741.55 1107.53 741.55 1030.5 741.55 1030.5 798.14 1030.5 1040.41 1107.53 1040.41 1107.53 798.14 1181.44 798.14 1181.44 1040.41 1258.39 1040.41 1258.39 798.14 1283.9 741.55 1258.39 741.55"/><path class="cls-10" d="M975.1,1078.53h132.34v-43.12h-87c-25.09,0-45.38,19.32-45.38,43.12Z" transform="translate(0 5)"/><path class="cls-10" d="M1125.8,1078.53h132.34l.17-43.12h-87.14c-25.08,0-45.37,19.32-45.37,43.12Z" transform="translate(0 5)"/><path class="cls-15" d="M1381.89,571.29,1274.47,444.43c-8-9.46-22.56-11-32.58-3.37a21.4,21.4,0,0,0-3.53,31l95.38,112.76-74.17,83.67,34.94,28.93,87-98.09A21.3,21.3,0,0,0,1381.89,571.29Z" transform="translate(0 5)"/><polygon class="cls-9" points="1259.57 673.51 1290.89 699.56 1277.42 712.94 1246.78 686.33 1259.57 673.51"/><path class="cls-28" d="M1277.42,707.94l-30.73-26.61-6.9-5.37a14.53,14.53,0,0,0-18.44.57l-8.08,7.29a12,12,0,0,0-.51,17.71l11.45,11.54a13.61,13.61,0,0,0,18.52.48l4-3.52h0a25,25,0,0,0,30.06-1.53Z" transform="translate(0 5)"/><polygon class="cls-9" points="847.98 594.41 869.87 626.3 855.89 635.2 833.42 602.58 847.98 594.41"/><path class="cls-28" d="M833.42,597.58l-50.1,31.26a6.12,6.12,0,0,0-1.93,8.65h0a6.72,6.72,0,0,0,9,1.85l18.43-11.14,14.48,14.74a11,11,0,0,0,14.48,1l18-13.71Z" transform="translate(0 5)"/><polygon class="cls-18" points="1127.82 435.16 1124.79 631.27 1195.34 435.16 1127.82 435.16"/><polygon class="cls-9" points="1127.82 435.16 1139.77 456.4 1155.18 435.16 1127.82 424.26 1127.82 435.16"/><polygon class="cls-9" points="1155.18 435.16 1170.59 456.4 1195.34 435.16 1195.34 424.26 1155.18 435.16"/><path class="cls-33" d="M1127.82,430.16l-30.39,40.39a10.87,10.87,0,0,0,2.35,15.39l5.73,4.25-13.72,11.62a10.79,10.79,0,0,0-3.46,11.62l36.46,112.84Z" transform="translate(0 5)"/><path class="cls-34" d="M1195.34,430.16" transform="translate(0 5)"/><path class="cls-33" d="M1195.34,430.16l-70.47,196.11,86.71-95.37a10.8,10.8,0,0,0-.08-14.74l-16.16-17.48,20.37-7.37a11,11,0,0,0,6.15-15.95Z" transform="translate(0 5)"/><ellipse class="cls-10" cx="1126.89" cy="659.89" rx="8.25" ry="7.85"/><ellipse class="cls-10" cx="1126.89" cy="699.64" rx="8.25" ry="7.85"/><ellipse class="cls-33" cx="1124.79" cy="659.89" rx="8.25" ry="7.85"/><ellipse class="cls-33" cx="1124.79" cy="699.64" rx="8.25" ry="7.85"/><polygon class="cls-35" points="1155.18 435.16 1144.49 449.91 1144.49 461.93 1164.44 461.93 1166.04 450.07 1155.18 435.16"/><polygon class="cls-31" points="1144.49 461.93 1126.39 530.05 1124.79 631.27 1161.58 529.09 1164.44 461.93 1144.49 461.93"/></g><g id="Layer_3" data-name="Layer 3"><path class="cls-2" d="M1896,19V1062H24V19H1896m24-24H0V1086H1920V-5Z" transform="translate(0 5)"/></g></svg>