<svg xmlns="http://www.w3.org/2000/svg" viewBox="0 0 1920 1096"><defs><style>.cls-1{fill:#c9eff4;}.cls-2{fill:#322d63;}.cls-3{fill:#643d98;}.cls-38,.cls-4{fill:none;stroke:#643d98;}.cls-36,.cls-38,.cls-4{stroke-miterlimit:10;}.cls-4{stroke-width:18px;}.cls-5{fill:#9b5825;}.cls-6{fill:#7c441d;}.cls-7{fill:#6d6e70;}.cls-8{fill:#42b0a7;}.cls-9{fill:#bbbdbf;}.cls-10{fill:#929497;}.cls-11,.cls-36,.cls-39{fill:#fff;}.cls-12{fill:#18283c;}.cls-13{fill:#b7e4f7;}.cls-14{fill:#f6b47d;}.cls-15{fill:#f48046;}.cls-16{fill:#59c1ee;}.cls-17{fill:#2a374b;}.cls-18{fill:#7a5649;}.cls-19{fill:#da5a4c;}.cls-20{fill:#e6e7e8;}.cls-21{fill:#999;}.cls-22{fill:#ccc;}.cls-23{fill:#808184;}.cls-24{fill:#ad6629;}.cls-25{fill:#8e4e21;}.cls-26{fill:#0277bf;}.cls-27{fill:#0189d1;}.cls-28{fill:#dff2fc;}.cls-29{fill:#3bb2e6;}.cls-30{fill:#f89d4d;}.cls-31{fill:#f87f38;}.cls-32{fill:#6e4d41;}.cls-33{fill:#dd5650;}.cls-34{fill:#253238;}.cls-35{fill:#414c5f;}.cls-36{stroke:#231f20;}.cls-37{fill:#c93d3d;}.cls-38{stroke-width:14px;}.cls-39{font-size:45px;font-family:DejaVuSans-BoldOblique, DejaVu Sans;font-weight:700;font-style:oblique;}</style></defs><title>ეკონომიკური ძალადობა </title><g id="Layer_1" data-name="Layer 1"><g id="Layer_1-2" data-name="Layer 1"><rect class="cls-1" x="10" y="15" width="1900" height="1071"/><path class="cls-2" d="M1900,25V1076H20V25H1900m20-20H0V1096H1920Z"/></g><g id="Layer_3" data-name="Layer 3"><path class="cls-2" d="M1896,24V1067H24V24H1896m24-24H0V1091H1920Z"/></g><ellipse class="cls-3" cx="960" cy="553.64" rx="266.84" ry="272.68"/><ellipse class="cls-4" cx="960" cy="550.5" rx="266.84" ry="272.68"/></g><g id="Layer_3-2" data-name="Layer 3"><rect class="cls-5" x="874.44" y="704.84" width="11.09" height="96.09"/><rect class="cls-6" x="885.54" y="704.84" width="6.41" height="96.09"/><rect class="cls-7" x="982.66" y="686.17" width="19.68" height="42.7"/><path class="cls-7" d="M1016.09,634H970.35c-5.64,0-10.17,3.66-10.17,8.15V678c0,4.52,4.57,8.15,10.17,8.15h45.74c5.64,0,10.18-3.66,10.18-8.15V642.15C1026.27,637.63,1021.7,634,1016.09,634Z"/><path class="cls-8" d="M1009.42,634H963.64c-5.64,0-10.17,3.66-10.17,8.15V678c0,4.52,4.57,8.15,10.17,8.15h45.75c5.64,0,10.17-3.66,10.17-8.15V642.15C1019.6,637.63,1015,634,1009.42,634Z"/><path class="cls-9" d="M997.26,790.09H958.15c-6.93,0-12.57,4.51-12.57,10.07v.76h64.25v-.76C1009.83,794.58,1004.23,790.09,997.26,790.09Z"/><path class="cls-8" d="M1025.46,740.3H945.58V728.84h66.61c7.33,0,13.27,4.76,13.27,10.63Z"/><rect class="cls-7" x="945.58" y="740.3" width="79.88" height="5.91"/><rect class="cls-10" x="971.27" y="746.24" width="14.45" height="43.85"/><rect class="cls-9" x="978.5" y="746.24" width="4.17" height="31.15"/><rect class="cls-9" x="978.5" y="779.66" width="4.17" height="6.08"/><ellipse class="cls-11" cx="992.14" cy="794.34" rx="3.06" ry="2.45"/><path class="cls-12" d="M908.09,785h-31V716.35c0-6.35,6.45-11.51,14.38-11.51h2.21c7.92,0,14.37,5.16,14.37,11.51Z"/><rect class="cls-12" x="891.95" y="704.84" width="58.68" height="24.01"/><path class="cls-13" d="M1004.26,694.12h-83v-49.2c0-17,17.25-30.86,38.52-30.86h5.93c21.27,0,38.52,13.82,38.52,30.86v49.2Z"/><path class="cls-14" d="M949.05,618V620h20.6V608.69A35.71,35.71,0,0,1,949.05,618Z"/><path class="cls-15" d="M949.05,575.68V618a35.71,35.71,0,0,0,20.6-9.27v-33Z"/><polygon class="cls-14" points="949.05 620.03 969.65 620.03 959.37 626.02 949.05 620.03"/><path class="cls-16" d="M985.72,694.12h1c9.7,0,17.51-6.29,17.51-14h0v14Z"/><path class="cls-17" d="M961.06,785h-31V716.35c0-6.35,6.45-11.51,14.38-11.51h2.21c7.92,0,14.37,5.16,14.37,11.51Z"/><path class="cls-17" d="M976.43,728.87H945.58v-24h58.68v1.71C1004.26,718.86,991.8,728.87,976.43,728.87Z"/><path class="cls-12" d="M961.06,800.92H909.9v-1.15c0-8.15,8.26-14.76,18.43-14.76h32.73Z"/><path class="cls-12" d="M908.09,800.92H856.93v-1.15c0-8.15,8.26-14.76,18.43-14.76h32.73Z"/><path class="cls-18" d="M976.14,591.42a5.74,5.74,0,0,0,4.05-4.11,12,12,0,0,1-3.13.74A18.09,18.09,0,0,1,976.14,591.42Z"/><path class="cls-18" d="M924.53,542.57c3.28,10.9,15.52,18.73,29.71,18.73h8.15v17c0,2.57,2.58,4.64,5.79,4.64V572.1h9.25v.09a12.07,12.07,0,0,1,2.91.74V546.44c0-7.32-7.41-13.23-16.51-13.23H921.18c-7.67,0-13.86,5-13.86,11.11h0a140.87,140.87,0,0,0,3.54,31.36V556.36C910.86,549.66,916.68,544,924.53,542.57Z"/><path class="cls-14" d="M980.3,572.93a11.61,11.61,0,0,0-2.91-.74v-.09h-9.25v10.81c-3.21,0-5.79-2.07-5.79-4.64v-17h-8.14c-14.19,0-26.43-7.83-29.71-18.73-7.82,1.48-13.64,7.09-13.64,13.79v19.35h0v8.77c0,13.67,13.82,24.74,30.89,24.74h4.75c14,0,25.88-7.5,29.64-17.78a21.39,21.39,0,0,0,.92-3.36,12,12,0,0,0,3.13-.74c3.32-1.3,5.61-4.05,5.61-7.2h0C985.83,577,983.58,574.26,980.3,572.93Zm-4.46,10.84h-2.28v-7.33h2.28c2.51,0,4.57,1.66,4.57,3.67S978.35,583.77,975.84,583.77Z"/><path class="cls-19" d="M975.84,576.44h-2.28v7.33h2.28c2.51,0,4.57-1.66,4.57-3.66S978.35,576.44,975.84,576.44Z"/><path class="cls-20" d="M923.76,694.12H834c-2,0-3.54-1.27-3.54-2.84v-.44c0-1.57,1.58-2.84,3.54-2.84h89.75Z"/><path class="cls-9" d="M970.39,694.12H920.77c-1.95,0-3.53-1.27-3.53-2.84v-.44c0-1.57,1.58-2.84,3.53-2.84h49.62c2,0,3.54,1.27,3.54,2.84v.44C973.93,692.85,972.34,694.12,970.39,694.12Z"/><path class="cls-21" d="M923.54,685.61l-31.37-48.75a2.18,2.18,0,0,0-1.84-.89h-3.06a2.26,2.26,0,0,1,1.84.89l31.37,48.75c.7,1.1-.3,2.39-1.84,2.39h3.06C923.24,688,924.24,686.71,923.54,685.61Z"/><path class="cls-22" d="M920.48,685.61l-31.37-48.75a2.18,2.18,0,0,0-1.84-.89H803.48c-1.54,0-2.54,1.3-1.84,2.4L833,687.12a2.17,2.17,0,0,0,1.84.88h83.79C920.18,688,921.18,686.71,920.48,685.61Z"/><path class="cls-11" d="M864.6,664c1.25,3.81-1.62,6.88-6.34,6.88s-9.62-3.1-10.84-6.88,1.62-6.88,6.34-6.88S863.35,660.16,864.6,664Z"/><path class="cls-23" d="M952.7,690.75H924.87a.64.64,0,1,0,0,1.24H952.7a.63.63,0,1,0,0-1.24Z"/><rect class="cls-5" x="924.09" y="704.84" width="11.09" height="96.09"/><rect class="cls-6" x="935.19" y="704.84" width="6.41" height="96.09"/><rect class="cls-5" x="1000.32" y="704.84" width="11.09" height="96.09"/><rect class="cls-6" x="1011.41" y="704.84" width="6.41" height="96.09"/><path class="cls-5" d="M809.31,787.54v-82.7h-11.1v79.47A30.36,30.36,0,0,1,809.31,787.54Z"/><path class="cls-6" d="M815.69,791.55V704.84h-6.42v82.68A40.88,40.88,0,0,1,815.69,791.55Z"/><rect class="cls-24" x="787.75" y="694.12" width="151.75" height="10.72"/><rect class="cls-25" x="939.5" y="694.12" width="85.96" height="10.72"/><path class="cls-18" d="M924.42,567.2l-8.59,2.9a2.28,2.28,0,0,1-2.72-.89h0a1.56,1.56,0,0,1,1.1-2.19l8.59-2.89a2.29,2.29,0,0,1,2.73.89h0A1.56,1.56,0,0,1,924.42,567.2Z"/><path class="cls-18" d="M935.52,567.2l12.94,4.37a2.27,2.27,0,0,0,2.72-.88h0a1.56,1.56,0,0,0-1.1-2.19l-12.94-4.37a2.29,2.29,0,0,0-2.73.89h0A1.54,1.54,0,0,0,935.52,567.2Z"/><ellipse class="cls-18" cx="919.34" cy="573.4" rx="2.88" ry="2.3"/><ellipse class="cls-18" cx="940.97" cy="573.4" rx="2.88" ry="2.3"/><path class="cls-19" d="M931,587.31c-6,0-10.88,3.57-11.61,8.21h23.22C941.82,590.88,936.88,587.31,931,587.31Z"/><rect class="cls-26" x="954.46" y="626.02" width="9.77" height="6.44"/><polygon class="cls-27" points="967.66 673.83 959.37 678.91 951.04 673.83 954.47 632.46 964.23 632.46 967.66 673.83"/><polygon class="cls-28" points="949.05 620.03 959.37 626.02 949.05 634.5 949.05 620.03"/><polygon class="cls-28" points="969.65 620.03 959.37 626.02 969.65 634.5 969.65 620.03"/><path class="cls-29" d="M985.54,681.27H948.35a1.21,1.21,0,1,1,0-2.36H984V643.5a1.51,1.51,0,0,1,3,0v36.59A1.3,1.3,0,0,1,985.54,681.27Z"/><path class="cls-14" d="M953.14,685.85c0-6-6.12-10.93-13.64-10.93s-13.64,4.91-13.64,10.93a10,10,0,0,0,.26,2.15h26.76A10.2,10.2,0,0,0,953.14,685.85Z"/><polygon class="cls-12" points="1077.17 564.93 1088.26 578.53 981.67 634.31 970.58 620.71 1077.17 564.93"/><path class="cls-30" d="M1094.83,562v7.83H1121V552.35A45.64,45.64,0,0,1,1094.83,562Z"/><path class="cls-31" d="M1094.83,539v23a45.74,45.74,0,0,0,26.13-9.68V539Z"/><path class="cls-32" d="M1057.45,488.89h0c9.25,0,16.77,6,16.77,13.44v13.23h-16.77c-9.18,0-16.62-6-16.62-13.32h0C1040.83,494.86,1048.27,488.89,1057.45,488.89Z"/><path class="cls-30" d="M1091.81,472.44h0c-22.6,0-40.92,14.68-40.92,32.78v16.45c0,18.1,18.32,32.78,40.92,32.78h0c22.59,0,40.91-14.68,40.91-32.78V505.22C1132.72,487.12,1114.4,472.44,1091.81,472.44Z"/><path class="cls-30" d="M1130.69,513.46h-6.93v17.72h6.93c6.12,0,11.06-4,11.06-8.86h0C1141.75,517.42,1136.78,513.46,1130.69,513.46Z"/><path class="cls-33" d="M1130,526.16v-7.68h.67c2.65,0,4.79,1.71,4.79,3.84s-2.14,3.84-4.79,3.84Z"/><path class="cls-32" d="M1132.79,488.89h0c-9.25,0-16.77,6-16.77,13.44v20.28c0,3.43,3.47,6.17,7.71,6.17V515.56h9.06c9.18,0,16.63-6,16.63-13.32h0C1149.46,494.86,1142,488.89,1132.79,488.89Z"/><path class="cls-32" d="M1101.46,504.72l-18.21,4.1c-1.77.39-3.61-.41-4.09-1.83h0c-.48-1.42.52-2.89,2.29-3.28l18.21-4.1c1.77-.38,3.61.41,4.09,1.83h0C1104.26,502.86,1103.23,504.33,1101.46,504.72Z"/><path class="cls-32" d="M1054.69,506.64l9.69,2.18c1.77.39,3.61-.41,4.09-1.83h0c.48-1.42-.51-2.89-2.28-3.28l-9.7-2.18c-1.77-.38-3.61.41-4.09,1.83h0C1051.89,504.78,1052.92,506.25,1054.69,506.64Z"/><ellipse class="cls-34" cx="1061.21" cy="513.84" rx="3.69" ry="2.95"/><ellipse class="cls-34" cx="1089.12" cy="513.84" rx="3.69" ry="2.95"/><path class="cls-32" d="M1083,524h-12c-6.52,0-11.79,4.22-11.79,9.45h35.57C1094.83,528.22,1089.56,524,1083,524Z"/><path class="cls-17" d="M1161.47,674.92h-111a328.5,328.5,0,0,1,13.82-94l2.29-7.68c1.95-6.58,9.33-11.22,17.77-11.22h58.75c10.1,0,18.28,6.56,18.28,14.65v98.21Z"/><path class="cls-12" d="M1116.61,781.82c5.85-3.39,11.67-6.81,17.27-10.58a76,76,0,0,0,14.35-11.91c.7-.77,1.39-1.55,2.07-2.33V695.77l11.17-20.85h-111V785h33.73V695.77h32.36Z"/><path class="cls-12" d="M1026.27,800.92h57.94V785h-38.07c-11,0-19.87,7.11-19.87,15.88Z"/><path class="cls-12" d="M1099.63,791.91c3.73-2.36,7.54-4.61,11.36-6.83-10.45.47-18.74,7.38-18.74,15.84h1.41A12.33,12.33,0,0,1,1099.63,791.91Z"/><path class="cls-17" d="M1204.38,614l-47-46.74c-3.5-3.48-9.88-4-14.26-1.24s-5,7.91-1.55,11.43L1183.29,619l-32.47,30.82,15.3,10.66,38.11-36.14A7,7,0,0,0,1204.38,614Z"/><polygon class="cls-11" points="1150.82 649.85 1164.53 659.45 1158.63 664.38 1145.22 654.58 1150.82 649.85"/><path class="cls-30" d="M1158.63,664.38l-13.45-9.8-3-2a7.29,7.29,0,0,0-8.08.21l-3.53,2.68a4,4,0,0,0-.23,6.53l5,4.25a6.81,6.81,0,0,0,8.11.18l1.73-1.3h0a12.63,12.63,0,0,0,13.16-.56Z"/><polygon class="cls-11" points="970.61 620.71 980.19 632.46 974.07 635.74 964.23 623.72 970.61 620.71"/><path class="cls-30" d="M964.23,623.72,942.3,635.24a2.07,2.07,0,0,0-.85,3.19h0a3.31,3.31,0,0,0,3.95.67l8.07-4.1,6.34,5.43a5.48,5.48,0,0,0,6.34.36l7.89-5Z"/><polygon class="cls-20" points="1093.13 562.03 1091.81 634.29 1122.69 562.03 1093.13 562.03"/><polygon class="cls-11" points="1093.13 562.03 1098.37 569.86 1105.11 562.03 1093.13 558.02 1093.13 562.03"/><polygon class="cls-11" points="1105.11 562.03 1111.86 569.86 1122.69 562.03 1122.69 558.02 1105.11 562.03"/><path class="cls-35" d="M1093.13,562l-13.3,14.89c-1.63,1.8-1.15,4.31,1,5.67l2.5,1.56-6,4.28a3.61,3.61,0,0,0-1.51,4.28l16,41.58Z"/><path class="cls-36" d="M1122.69,562"/><path class="cls-35" d="M1122.69,562l-30.85,72.26,38-35.14a3.54,3.54,0,0,0,0-5.43l-7.08-6.44,8.92-2.72c3-.88,4.21-3.66,2.7-5.87Z"/><ellipse class="cls-12" cx="1092.73" cy="644.83" rx="3.61" ry="2.89"/><ellipse class="cls-12" cx="1092.73" cy="659.48" rx="3.61" ry="2.89"/><ellipse class="cls-35" cx="1091.81" cy="644.83" rx="3.61" ry="2.89"/><ellipse class="cls-35" cx="1091.81" cy="659.48" rx="3.61" ry="2.89"/><polygon class="cls-37" points="1105.11 562.03 1100.43 567.47 1100.43 571.9 1109.17 571.9 1109.87 567.53 1105.11 562.03"/><polygon class="cls-33" points="1100.43 571.9 1092.51 597 1091.81 634.29 1107.91 596.64 1109.17 571.9 1100.43 571.9"/><ellipse class="cls-38" cx="960" cy="565.44" rx="266.84" ry="270.03"/></g><g id="Layer_2" data-name="Layer 2"><rect class="cls-3" x="676.03" y="162.72" width="542.72" height="2.34"/><rect class="cls-3" x="665.89" y="980.3" width="542.72" height="2.34"/><text class="cls-39" transform="translate(810.31 394.02) scale(1.02 1)">ეკონომიკურ<tspan x="6.99" y="68.84">ძალადობას</tspan></text></g></svg>