<svg xmlns="http://www.w3.org/2000/svg" viewBox="0 0 551.68 573.65"><defs><style>.cls-1{fill:#643d98;}.cls-2,.cls-35{fill:none;stroke:#643d98;stroke-miterlimit:10;}.cls-2{stroke-width:18px;}.cls-3{fill:#9b5825;}.cls-4{fill:#7c441d;}.cls-5{fill:#6d6e70;}.cls-6{fill:#42b0a7;}.cls-7{fill:#bbbdbf;}.cls-8{fill:#929497;}.cls-37,.cls-9{fill:#fff;}.cls-10{fill:#18283c;}.cls-11{fill:#b7e4f7;}.cls-12{fill:#f6b47d;}.cls-13{fill:#f48046;}.cls-14{fill:#59c1ee;}.cls-15{fill:#2a374b;}.cls-16{fill:#7a5649;}.cls-17{fill:#da5a4c;}.cls-18{fill:#e6e7e8;}.cls-19{fill:#999;}.cls-20{fill:#ccc;}.cls-21{fill:#808184;}.cls-22{fill:#ad6629;}.cls-23{fill:#8e4e21;}.cls-24{fill:#0277bf;}.cls-25{fill:#0189d1;}.cls-26{fill:#dff2fc;}.cls-27{fill:#3bb2e6;}.cls-28{fill:#f89d4d;}.cls-29{fill:#f87f38;}.cls-30{fill:#6e4d41;}.cls-31{fill:#dd5650;}.cls-32{fill:#253238;}.cls-33{fill:#414c5f;}.cls-34{fill:#c93d3d;}.cls-35{stroke-width:14px;}.cls-36,.cls-37{isolation:isolate;}.cls-37{font-size:45px;font-family:DejaVuSans, DejaVu Sans;}</style></defs><title>Asset 2</title><g id="Layer_2" data-name="Layer 2"><g id="Layer_1-2" data-name="Layer 1"><ellipse class="cls-1" cx="275.84" cy="284.82" rx="266.84" ry="272.68"/><ellipse class="cls-2" cx="275.84" cy="281.68" rx="266.84" ry="272.68"/><g id="Layer_3-2" data-name="Layer 3-2"><rect class="cls-3" x="190.28" y="436.02" width="11.09" height="96.09"/><rect class="cls-4" x="201.38" y="436.02" width="6.41" height="96.09"/><rect class="cls-5" x="298.5" y="417.35" width="19.68" height="42.7"/><path class="cls-5" d="M331.93,365.18H286.19c-5.64,0-10.17,3.66-10.17,8.15v35.85c0,4.52,4.57,8.15,10.17,8.15h45.74c5.64,0,10.18-3.66,10.18-8.15V373.33C342.11,368.81,337.54,365.18,331.93,365.18Z"/><path class="cls-6" d="M325.26,365.18H279.48c-5.64,0-10.17,3.66-10.17,8.15v35.85c0,4.52,4.57,8.15,10.17,8.15h45.75c5.64,0,10.17-3.66,10.17-8.15V373.33C335.44,368.81,330.84,365.18,325.26,365.18Z"/><path class="cls-7" d="M313.1,521.27H274c-6.93,0-12.57,4.51-12.57,10.07v.76h64.25v-.76C325.67,525.76,320.07,521.27,313.1,521.27Z"/><path class="cls-6" d="M341.3,471.48H261.42V460H328c7.33,0,13.27,4.76,13.27,10.63Z"/><rect class="cls-5" x="261.42" y="471.48" width="79.88" height="5.91"/><rect class="cls-8" x="287.11" y="477.42" width="14.45" height="43.85"/><rect class="cls-7" x="294.34" y="477.42" width="4.17" height="31.15"/><rect class="cls-7" x="294.34" y="510.84" width="4.17" height="6.08"/><ellipse class="cls-9" cx="307.98" cy="525.52" rx="3.06" ry="2.45"/><path class="cls-10" d="M223.93,516.18h-31V447.53c0-6.35,6.45-11.51,14.38-11.51h2.21c7.92,0,14.37,5.16,14.37,11.51Z"/><rect class="cls-10" x="207.79" y="436.02" width="58.68" height="24.01"/><path class="cls-11" d="M320.1,425.3h-83V376.1c0-17,17.25-30.86,38.52-30.86h5.93c21.27,0,38.52,13.82,38.52,30.86v49.2Z"/><path class="cls-12" d="M264.89,349.18v2h20.6V339.87A35.74,35.74,0,0,1,264.89,349.18Z"/><path class="cls-13" d="M264.89,306.86v42.32a35.69,35.69,0,0,0,20.6-9.27v-33Z"/><polygon class="cls-12" points="264.89 351.21 285.49 351.21 275.21 357.2 264.89 351.21"/><path class="cls-14" d="M301.56,425.3h1c9.7,0,17.51-6.29,17.51-14h0v14Z"/><path class="cls-15" d="M276.9,516.18h-31V447.53c0-6.35,6.45-11.51,14.38-11.51h2.21c7.92,0,14.37,5.16,14.37,11.51Z"/><path class="cls-15" d="M292.27,460.05H261.42v-24H320.1v1.71C320.1,450,307.64,460.05,292.27,460.05Z"/><path class="cls-10" d="M276.9,532.1H225.74V531c0-8.15,8.26-14.76,18.43-14.76H276.9Z"/><path class="cls-10" d="M223.93,532.1H172.77V531c0-8.15,8.26-14.76,18.43-14.76h32.73Z"/><path class="cls-16" d="M292,322.6a5.73,5.73,0,0,0,4-4.11,12.1,12.1,0,0,1-3.13.74A18.67,18.67,0,0,1,292,322.6Z"/><path class="cls-16" d="M240.37,273.75c3.28,10.9,15.52,18.73,29.71,18.73h8.15v17c0,2.57,2.58,4.64,5.79,4.64V303.28h9.25v.09a11.74,11.74,0,0,1,2.91.74V277.62c0-7.32-7.41-13.23-16.51-13.23H237c-7.67,0-13.86,5-13.86,11.11h0a140.86,140.86,0,0,0,3.54,31.36V287.54C226.7,280.84,232.52,275.18,240.37,273.75Z"/><path class="cls-12" d="M296.14,304.11a11.63,11.63,0,0,0-2.91-.74v-.09H284v10.81c-3.21,0-5.79-2.07-5.79-4.64v-17h-8.14c-14.19,0-26.43-7.83-29.71-18.73-7.82,1.48-13.64,7.09-13.64,13.79v19.35h0v8.77c0,13.67,13.82,24.74,30.89,24.74h4.75c14,0,25.88-7.5,29.64-17.78a20.63,20.63,0,0,0,.92-3.36,12.1,12.1,0,0,0,3.13-.74c3.32-1.3,5.61-4.05,5.61-7.2h0C301.67,308.18,299.42,305.44,296.14,304.11ZM291.68,315H289.4v-7.33h2.28c2.51,0,4.57,1.66,4.57,3.67s-2.06,3.66-4.57,3.66Z"/><path class="cls-17" d="M291.68,307.62H289.4V315h2.28c2.51,0,4.57-1.66,4.57-3.66S294.19,307.62,291.68,307.62Z"/><path class="cls-18" d="M239.6,425.3H149.84c-2,0-3.54-1.27-3.54-2.84V422c0-1.57,1.58-2.84,3.54-2.84h89.75Z"/><path class="cls-7" d="M286.23,425.3H236.61c-2,0-3.53-1.27-3.53-2.84V422c0-1.57,1.58-2.84,3.53-2.84h49.62c2,0,3.54,1.27,3.54,2.84v.44C289.77,424,288.18,425.3,286.23,425.3Z"/><path class="cls-19" d="M239.38,416.79,208,368a2.19,2.19,0,0,0-1.84-.89h-3.06A2.28,2.28,0,0,1,205,368l31.37,48.75c.7,1.1-.3,2.39-1.84,2.39h3.06C239.08,419.18,240.08,417.89,239.38,416.79Z"/><path class="cls-20" d="M236.32,416.79,205,368a2.19,2.19,0,0,0-1.84-.89H119.32c-1.54,0-2.54,1.3-1.84,2.4l31.36,48.75a2.18,2.18,0,0,0,1.84.88h83.79C236,419.18,237,417.89,236.32,416.79Z"/><path class="cls-9" d="M180.44,395.18c1.25,3.81-1.62,6.88-6.34,6.88s-9.62-3.1-10.84-6.88,1.62-6.88,6.34-6.88S179.19,391.34,180.44,395.18Z"/><path class="cls-21" d="M268.54,421.93H240.71a.64.64,0,0,0-.32,1.24.58.58,0,0,0,.32,0h27.83a.63.63,0,0,0,.73-.51.63.63,0,0,0-.51-.73Z"/><rect class="cls-3" x="239.93" y="436.02" width="11.09" height="96.09"/><rect class="cls-4" x="251.03" y="436.02" width="6.41" height="96.09"/><rect class="cls-3" x="316.16" y="436.02" width="11.09" height="96.09"/><rect class="cls-4" x="327.25" y="436.02" width="6.41" height="96.09"/><path class="cls-3" d="M125.15,518.72V436h-11.1v79.47A30.42,30.42,0,0,1,125.15,518.72Z"/><path class="cls-4" d="M131.53,522.73V436h-6.42V518.7A40.69,40.69,0,0,1,131.53,522.73Z"/><rect class="cls-22" x="103.59" y="425.3" width="151.75" height="10.72"/><rect class="cls-23" x="255.34" y="425.3" width="85.96" height="10.72"/><path class="cls-16" d="M240.26,298.38l-8.59,2.9a2.28,2.28,0,0,1-2.72-.89h0a1.55,1.55,0,0,1,.75-2.07,1.12,1.12,0,0,1,.35-.12l8.59-2.89a2.29,2.29,0,0,1,2.73.89h0a1.56,1.56,0,0,1-.77,2.07A1.35,1.35,0,0,1,240.26,298.38Z"/><path class="cls-16" d="M251.36,298.38l12.94,4.37a2.26,2.26,0,0,0,2.72-.88h0a1.55,1.55,0,0,0-.75-2.07,1.12,1.12,0,0,0-.35-.12L253,295.31a2.29,2.29,0,0,0-2.73.89h0a1.53,1.53,0,0,0,.72,2.05A1.49,1.49,0,0,0,251.36,298.38Z"/><ellipse class="cls-16" cx="235.18" cy="304.58" rx="2.88" ry="2.3"/><ellipse class="cls-16" cx="256.81" cy="304.58" rx="2.88" ry="2.3"/><path class="cls-17" d="M246.84,318.49c-6,0-10.88,3.57-11.61,8.21h23.22C257.66,322.06,252.72,318.49,246.84,318.49Z"/><rect class="cls-24" x="270.3" y="357.2" width="9.77" height="6.44"/><polygon class="cls-25" points="283.5 405.01 275.21 410.09 266.88 405.01 270.31 363.64 280.07 363.64 283.5 405.01"/><polygon class="cls-26" points="264.89 351.21 275.21 357.2 264.89 365.68 264.89 351.21"/><polygon class="cls-26" points="285.49 351.21 275.21 357.2 285.49 365.68 285.49 351.21"/><path class="cls-27" d="M301.38,412.45H264.19a1.21,1.21,0,0,1-.54-2.36,1.23,1.23,0,0,1,.54,0h35.65V374.68a1.51,1.51,0,0,1,3,0v36.59a1.3,1.3,0,0,1-1.4,1.19Z"/><path class="cls-12" d="M269,417c0-6-6.12-10.93-13.64-10.93S241.7,411,241.7,417a10.44,10.44,0,0,0,.26,2.15h26.76A10.44,10.44,0,0,0,269,417Z"/><polygon class="cls-10" points="393.01 296.11 404.1 309.71 297.51 365.49 286.42 351.89 393.01 296.11"/><path class="cls-28" d="M410.67,293.18V301h26.17V283.53A45.64,45.64,0,0,1,410.67,293.18Z"/><path class="cls-29" d="M410.67,270.18v23a45.72,45.72,0,0,0,26.13-9.68V270.18Z"/><path class="cls-30" d="M373.29,220.07h0c9.25,0,16.77,6,16.77,13.44v13.23H373.29c-9.18,0-16.62-6-16.62-13.32h0C356.67,226,364.11,220.07,373.29,220.07Z"/><path class="cls-28" d="M407.65,203.62h0c-22.6,0-40.92,14.68-40.92,32.78v16.45c0,18.1,18.32,32.78,40.92,32.78h0c22.59,0,40.91-14.68,40.91-32.78V236.4C448.56,218.3,430.24,203.62,407.65,203.62Z"/><path class="cls-28" d="M446.53,244.64H439.6v17.72h6.93c6.12,0,11.06-4,11.06-8.86h0C457.59,248.6,452.62,244.64,446.53,244.64Z"/><path class="cls-31" d="M445.84,257.34v-7.68h.67c2.65,0,4.79,1.71,4.79,3.84s-2.14,3.84-4.79,3.84Z"/><path class="cls-30" d="M448.63,220.07h0c-9.25,0-16.77,6-16.77,13.44v20.28c0,3.43,3.47,6.17,7.71,6.17V246.74h9.06c9.18,0,16.63-6,16.63-13.32h0C465.3,226,457.84,220.07,448.63,220.07Z"/><path class="cls-30" d="M417.3,235.9,399.09,240c-1.77.39-3.61-.41-4.09-1.83h0c-.48-1.42.52-2.89,2.29-3.28l18.21-4.1c1.77-.38,3.61.41,4.09,1.83h0C420.1,234,419.07,235.51,417.3,235.9Z"/><path class="cls-30" d="M370.53,237.82l9.69,2.18c1.77.39,3.61-.41,4.09-1.83h0c.48-1.42-.51-2.89-2.28-3.28l-9.7-2.18c-1.77-.38-3.61.41-4.09,1.83h0C367.73,236,368.76,237.43,370.53,237.82Z"/><ellipse class="cls-32" cx="377.05" cy="245.02" rx="3.69" ry="2.95"/><ellipse class="cls-32" cx="404.96" cy="245.02" rx="3.69" ry="2.95"/><path class="cls-30" d="M398.84,255.18h-12c-6.52,0-11.79,4.22-11.79,9.45h35.57C410.67,259.4,405.4,255.18,398.84,255.18Z"/><path class="cls-15" d="M477.31,406.1h-111a328.51,328.51,0,0,1,13.82-94l2.29-7.68c1.95-6.58,9.33-11.22,17.77-11.22h58.75c10.1,0,18.28,6.56,18.28,14.65v98.21Z"/><path class="cls-10" d="M432.45,513c5.85-3.39,11.67-6.81,17.27-10.58a76.56,76.56,0,0,0,14.35-11.91c.7-.77,1.39-1.55,2.07-2.33V427l11.17-20.85h-111V516.18H400V427H432.4Z"/><path class="cls-10" d="M342.11,532.1h57.94V516.18H362c-11,0-19.87,7.11-19.87,15.88Z"/><path class="cls-10" d="M415.47,523.09c3.73-2.36,7.54-4.61,11.36-6.83-10.45.47-18.74,7.38-18.74,15.84h1.41A12.33,12.33,0,0,1,415.47,523.09Z"/><path class="cls-15" d="M520.22,345.18l-47-46.74c-3.5-3.48-9.88-4-14.26-1.24s-5,7.91-1.55,11.43l41.72,41.55L466.66,381,482,391.66l38.11-36.14a7,7,0,0,0,.6-9.88C520.52,345.48,520.38,345.33,520.22,345.18Z"/><polygon class="cls-9" points="466.66 381.03 480.37 390.63 474.47 395.56 461.06 385.76 466.66 381.03"/><path class="cls-28" d="M474.47,395.56,461,385.76l-3-2a7.29,7.29,0,0,0-8.08.21l-3.53,2.68a4,4,0,0,0-1.15,5.54,3.93,3.93,0,0,0,.92,1l5,4.25a6.81,6.81,0,0,0,8.11.18l1.73-1.3h0a12.62,12.62,0,0,0,13.16-.56Z"/><polygon class="cls-9" points="286.45 351.89 296.03 363.64 289.91 366.92 280.07 354.9 286.45 351.89"/><path class="cls-28" d="M280.07,354.9l-21.93,11.52a2.06,2.06,0,0,0-1.13,2.7,2,2,0,0,0,.28.49h0a3.3,3.3,0,0,0,3.95.67l8.07-4.1,6.34,5.43A5.48,5.48,0,0,0,282,372l7.89-5Z"/><polygon class="cls-18" points="408.97 293.21 407.65 365.47 438.53 293.21 408.97 293.21"/><polygon class="cls-9" points="408.97 293.21 414.21 301.04 420.95 293.21 408.97 289.2 408.97 293.21"/><polygon class="cls-9" points="420.95 293.21 427.7 301.04 438.53 293.21 438.53 289.2 420.95 293.21"/><path class="cls-33" d="M409,293.18l-13.3,14.89c-1.63,1.8-1.15,4.31,1,5.67l2.5,1.56-6,4.28a3.61,3.61,0,0,0-1.51,4.28l16,41.58Z"/><path class="cls-33" d="M438.53,293.18l-30.85,72.26,38-35.14a3.54,3.54,0,0,0,.44-5,3.05,3.05,0,0,0-.44-.44l-7.08-6.44,8.92-2.72c3-.88,4.21-3.66,2.7-5.87Z"/><ellipse class="cls-10" cx="408.57" cy="376.01" rx="3.61" ry="2.89"/><ellipse class="cls-10" cx="408.57" cy="390.66" rx="3.61" ry="2.89"/><ellipse class="cls-33" cx="407.65" cy="376.01" rx="3.61" ry="2.89"/><ellipse class="cls-33" cx="407.65" cy="390.66" rx="3.61" ry="2.89"/><polygon class="cls-34" points="420.95 293.21 416.27 298.65 416.27 303.08 425.01 303.08 425.71 298.71 420.95 293.21"/><polygon class="cls-31" points="416.27 303.08 408.35 328.18 407.65 365.47 423.75 327.82 425.01 303.08 416.27 303.08"/><ellipse class="cls-35" cx="275.84" cy="296.62" rx="266.84" ry="270.03"/></g><g class="cls-36"><text class="cls-37" transform="translate(126.15 125.2) scale(1.02 1)">ეკონომიკურ</text><text class="cls-37" transform="translate(133.28 194.04) scale(1.02 1)">ძალადობას</text></g></g></g></svg>