<svg xmlns="http://www.w3.org/2000/svg" viewBox="0 0 551.68 563.36"><defs><style>.cls-1{fill:#643d98;}.cls-10,.cls-2{fill:none;stroke:#643d98;stroke-miterlimit:10;}.cls-2{stroke-width:18px;}.cls-3{fill:#d5593f;}.cls-4{fill:#c6422c;}.cls-5{fill:#af3222;}.cls-6{fill:#cead8d;}.cls-7{fill:#c69263;}.cls-8{fill:#e0bf9b;}.cls-9{fill:#d1a579;}.cls-10{stroke-width:14px;}.cls-11,.cls-12{isolation:isolate;}.cls-12{font-size:45px;fill:#fff;font-family:DejaVuSans, DejaVu Sans;}</style></defs><title>Asset 1</title><g id="Layer_2" data-name="Layer 2"><g id="Layer_1-2" data-name="Layer 1"><ellipse class="cls-1" cx="275.84" cy="284.82" rx="266.84" ry="272.68"/><ellipse class="cls-2" cx="275.84" cy="281.68" rx="266.84" ry="272.68"/><g id="Layer_3-2" data-name="Layer 3-2"><path class="cls-3" d="M135.89,420.24l.12.07Z"/><path class="cls-3" d="M394.66,429.75c-6.58,15.25-39.48,6.19-62.29,14.77s0,102.49,0,102.49H200.78c-10.09-9.32,8.63-106.1-16.23-108.68-23.31-2.43-45.71-16.22-48.42-17.94,4.6,2.69,11.11,0,17.82-4.82,14-10.1,28.85-29.68,28.85-29.68,9.21,6.2,66.88,12.39,66.88,12.39a159.72,159.72,0,0,0,21.64,1.16c26.76-.15,58.33-4.71,73.5-7.18,5.66-.92,9-1.54,9-1.54C357.37,421.28,394.66,429.75,394.66,429.75Z"/><path class="cls-4" d="M271.32,399.44c-6.31,5-13.71,10.46-18.85,12.81-10.77,4.92-32-.26-47.93-1.83s-48.26,7.7-48.26,7.7-.9-1-2.33-2.55a102.67,102.67,0,0,0,12.23-10.69,212.8,212.8,0,0,0,16.62-19c9.21,6.2,66.87,12.39,66.87,12.39q3.78.51,7.92.78C261.94,399.35,266.55,399.47,271.32,399.44Z"/><path class="cls-5" d="M257.59,399.06c-11.26,3.06-37.91,4.69-52.08,3-13.18-1.62-31.34,1.35-39.33,2.87a212.8,212.8,0,0,0,16.62-19c9.21,6.2,66.87,12.39,66.87,12.39Q253.45,398.79,257.59,399.06Z"/><path class="cls-4" d="M394.66,429.75c-6.58,15.25-39.48,6.26-62.29,14.84a9.52,9.52,0,0,0-3.58,2.31c-16.62,17,3.58,100.11,3.58,100.11h-37c-2.21-14-1.48-31.66-2.17-53.31-1-30.38,12.06-60.76,32.3-60.23s41-4.19,32.4-11c-6-4.8-10.82-21.07-13.1-30.21,5.66-.92,9-1.54,9-1.54C357.37,421.28,394.66,429.75,394.66,429.75Z"/><path class="cls-6" d="M281.92,404.25c0,5-13.59,25.5-13.59,25.5s-12.34-9.5-16.94-17.16c-1.42-2.35-2.1-4.53-1.48-6.2,2.63-7.15,0-26.22,0-27.65,0,0,14.75-6.07,23-7.12,3.32-.42,5.6,0,5.48,1.88a16.64,16.64,0,0,0,0,1.73c.09,4.18,1.11,10.93,2,17A115.79,115.79,0,0,1,281.92,404.25Z"/><path class="cls-7" d="M280.42,392.18c-5.49,6.76-15.21,16.23-29,20.37-1.42-2.35-2.1-4.53-1.48-6.2,2.63-7.15,0-26.22,0-27.65,0,0,14.75-6.07,23-7.12a45.91,45.91,0,0,1,5.45,3.61C278.48,379.41,279.5,386.18,280.42,392.18Z"/><path class="cls-8" d="M237.18,341.56s-7,39.56,26.76,51.48c0,0,38.16-9.05,29.39-51.48s-22.1-45.29-27.72-42.9S237,323.23,237.18,341.56Z"/><path class="cls-9" d="M229.6,343.74s36.15,8,47.72-17.65-17.35-12-17.35-12Z"/><path d="M274.27,327.31s-16.17,14.55-33.89,12c0,0-4.11,18.31,1.71,35.29,0,0-43.09-62.5,1.45-84,0,0,23.66-9.67,34.58,3.6,0,0,8.29-4.46,16.52,3.92s12.45,60.79-5.52,76.53c0,0,6.9-26.63,2.08-32.68S274.91,333.41,274.27,327.31Z"/><path d="M258.57,376.67s.12-.24.36-.63a11,11,0,0,1,1.16-1.48,9.25,9.25,0,0,1,.91-.86,8.49,8.49,0,0,1,1.15-.81,6.77,6.77,0,0,1,1.37-.62,7.33,7.33,0,0,1,1.54-.28,5.83,5.83,0,0,1,1.55.19,6,6,0,0,1,1.41.57l.61.39c.19.14.36.3.54.44a7.57,7.57,0,0,1,.88.91l.36.43c.11.14.2.29.29.42a6.33,6.33,0,0,1,.44.7l.34.63-.49-.5a7.4,7.4,0,0,0-.56-.56c-.21-.22-.47-.45-.75-.69a4.82,4.82,0,0,0-.44-.35c-.16-.11-.31-.26-.49-.36s-.34-.23-.53-.33-.37-.21-.57-.3a6.74,6.74,0,0,0-1.24-.43,5.37,5.37,0,0,0-2.64.09,7.83,7.83,0,0,0-1.25.47,12.23,12.23,0,0,0-1.12.62l-1,.68A18,18,0,0,0,258.57,376.67Z"/><path class="cls-8" d="M392,429.75c-18.79,4.32-65.68-53.76-81.52-75.89-3.39-4.73-5.35-7.82-5.33-8.31.44-8.41,12.72-5.9,12.72-5.9,6.58,11,74.13,50.53,79.4,55.77,2.28,2.28,5.88,8,7.37,14.28C406.6,417.84,404.94,426.78,392,429.75Z"/><path class="cls-8" d="M285.72,290.54s.15,9.07,5,12.89,5.26,38,14.47,42.12,12.72-5.9,12.72-5.9S302.62,293,285.72,290.54Z"/><path class="cls-8" d="M230.6,345.55l-.77.72c-3.85,3.65-22,21.15-51.86,54.33-33.78,37.6-57.46,15.32-57.46,15.32a20.43,20.43,0,0,1-4.59-9.4c-2.48-12.46,6.54-26.22,15.55-29.33,11.41-3.94,79.4-42.78,86-43.74,5-.72,10.07,6.73,12.16,10.29C230.24,344.83,230.6,345.55,230.6,345.55Z"/><path class="cls-8" d="M230.6,345.55s8.18-5.57,6-27,6.81-26.82,7-28-23.65,1.78-26.09,42.92C217.45,333.46,219.37,346.48,230.6,345.55Z"/><path class="cls-8" d="M239.08,358.18s-9.8-13.1-9.47-3,6,20,13.12,20.5C242.73,375.75,242.84,362.49,239.08,358.18Z"/><path class="cls-8" d="M290.3,360.66s9.8-13.09,9.48-3-6,20-13.13,20.5C286.65,378.18,286.56,364.93,290.3,360.66Z"/><path class="cls-9" d="M229.84,346.27c-3.85,3.65-22,21.15-51.86,54.33-33.78,37.6-57.46,15.32-57.46,15.32a20.43,20.43,0,0,1-4.59-9.4c54.38,3.55,113.68-62.78,113.68-62.78S229.69,344.66,229.84,346.27Z"/><path class="cls-9" d="M392,429.75c-18.79,4.32-65.68-53.76-81.52-75.89,0,0,55.42,55,94.16,55.84C406.6,417.84,404.94,426.78,392,429.75Z"/><path class="cls-5" d="M332.37,547H308.29c0-24.85,1.65-91.35,20.5-100.17C312.17,463.81,332.37,547,332.37,547Z"/><ellipse class="cls-10" cx="275.84" cy="284.82" rx="266.84" ry="270.03"/><g class="cls-11"><text class="cls-12" transform="translate(171.68 160.46) scale(1.02 1)">ემოციურ</text><text class="cls-12" transform="translate(135.96 229.3) scale(1.02 1)">ძალადობას</text></g></g></g></g></svg>