<svg xmlns="http://www.w3.org/2000/svg" viewBox="0 0 1920 1096"><defs><style>.cls-1{fill:#c9eff4;}.cls-2{fill:#322d63;}.cls-3{fill:#643d98;}.cls-12,.cls-4{fill:none;stroke:#643d98;stroke-miterlimit:10;}.cls-4{stroke-width:18px;}.cls-5{fill:#d5593f;}.cls-6{fill:#c6422c;}.cls-7{fill:#af3222;}.cls-8{fill:#cead8d;}.cls-9{fill:#c69263;}.cls-10{fill:#e0bf9b;}.cls-11{fill:#d1a579;}.cls-12{stroke-width:14px;}.cls-13{font-size:45px;fill:#fff;font-family:DejaVuSans-BoldOblique, DejaVu Sans;font-weight:700;font-style:oblique;}</style></defs><title>ემოციური ძალადობა2</title><g id="Layer_1" data-name="Layer 1"><g id="Layer_1-2" data-name="Layer 1"><rect class="cls-1" x="10" y="15" width="1900" height="1071"/><path class="cls-2" d="M1900,25V1076H20V25H1900m20-20H0V1096H1920Z"/></g><g id="Layer_3" data-name="Layer 3"><path class="cls-2" d="M1896,24V1067H24V24H1896m24-24H0V1091H1920Z"/></g><ellipse class="cls-3" cx="960" cy="553.64" rx="266.84" ry="272.68"/><ellipse class="cls-4" cx="960" cy="550.5" rx="266.84" ry="272.68"/></g><g id="Layer_3-2" data-name="Layer 3"><path class="cls-5" d="M820.05,689.06l.12.07Z"/><path class="cls-5" d="M1078.82,698.57c-6.58,15.25-39.48,6.19-62.29,14.77s0,102.49,0,102.49H884.94c-10.09-9.32,8.63-106.1-16.23-108.68-23.31-2.43-45.71-16.22-48.42-17.94,4.6,2.69,11.11,0,17.82-4.82,14-10.1,28.85-29.68,28.85-29.68,9.21,6.2,66.88,12.39,66.88,12.39a159.45,159.45,0,0,0,21.64,1.16c26.76-.15,58.33-4.71,73.5-7.18,5.66-.92,9-1.54,9-1.54C1041.53,690.1,1078.82,698.57,1078.82,698.57Z"/><path class="cls-6" d="M955.48,668.26c-6.31,5-13.71,10.46-18.85,12.81-10.77,4.92-32-.26-47.93-1.83s-48.26,7.7-48.26,7.7-.9-1-2.33-2.55a102.72,102.72,0,0,0,12.23-10.69,210.92,210.92,0,0,0,16.62-19c9.21,6.2,66.87,12.39,66.87,12.39q3.78.51,7.92.78C946.1,668.17,950.71,668.29,955.48,668.26Z"/><path class="cls-7" d="M941.75,667.88c-11.26,3.06-37.91,4.69-52.08,3-13.18-1.62-31.34,1.35-39.33,2.87a210.92,210.92,0,0,0,16.62-19c9.21,6.2,66.87,12.39,66.87,12.39Q937.61,667.61,941.75,667.88Z"/><path class="cls-6" d="M1078.82,698.57c-6.58,15.25-39.48,6.26-62.29,14.84a9.47,9.47,0,0,0-3.58,2.31c-16.62,17,3.58,100.11,3.58,100.11h-37c-2.21-14-1.48-31.66-2.17-53.31-1-30.38,12.06-60.76,32.3-60.23s41-4.19,32.4-11c-6-4.8-10.82-21.07-13.1-30.21,5.66-.92,9-1.54,9-1.54C1041.53,690.1,1078.82,698.57,1078.82,698.57Z"/><path class="cls-8" d="M966.08,673.07c0,5-13.59,25.5-13.59,25.5s-12.34-9.5-16.94-17.16c-1.42-2.35-2.1-4.53-1.48-6.2,2.63-7.15,0-26.22,0-27.65,0,0,14.75-6.07,23-7.12,3.32-.42,5.6,0,5.48,1.88a16,16,0,0,0,0,1.73c.09,4.18,1.11,10.93,2,17A116.41,116.41,0,0,1,966.08,673.07Z"/><path class="cls-9" d="M964.58,661c-5.49,6.76-15.21,16.23-29,20.37-1.42-2.35-2.1-4.53-1.48-6.2,2.63-7.15,0-26.22,0-27.65,0,0,14.75-6.07,23-7.12a45.5,45.5,0,0,1,5.45,3.61C962.64,648.23,963.66,655,964.58,661Z"/><path class="cls-10" d="M921.34,610.38s-7,39.56,26.76,51.48c0,0,38.16-9.05,29.39-51.48s-22.1-45.29-27.72-42.9S921.18,592.05,921.34,610.38Z"/><path class="cls-11" d="M913.76,612.56s36.15,8,47.72-17.65-17.35-12-17.35-12Z"/><path d="M958.43,596.13s-16.17,14.55-33.89,12c0,0-4.11,18.31,1.71,35.29,0,0-43.09-62.5,1.45-84,0,0,23.66-9.67,34.58,3.6,0,0,8.29-4.46,16.52,3.92s12.45,60.79-5.52,76.53c0,0,6.9-26.63,2.08-32.68S959.07,602.23,958.43,596.13Z"/><path d="M942.73,645.49s.12-.24.36-.63a11.26,11.26,0,0,1,1.16-1.48,9.45,9.45,0,0,1,.91-.86,8.14,8.14,0,0,1,1.15-.81,6.82,6.82,0,0,1,1.37-.62,7.1,7.1,0,0,1,1.54-.28,5.78,5.78,0,0,1,1.55.19,5.63,5.63,0,0,1,1.41.57l.61.39c.19.14.36.3.54.44a7.46,7.46,0,0,1,.88.91l.36.43c.11.14.2.29.29.42a7,7,0,0,1,.44.7l.34.63-.49-.5a7.35,7.35,0,0,0-.56-.56c-.21-.22-.47-.45-.75-.69a4,4,0,0,0-.44-.35c-.16-.11-.31-.26-.49-.36s-.34-.23-.53-.33-.37-.21-.57-.3a6.49,6.49,0,0,0-1.24-.43,5.37,5.37,0,0,0-2.64.09,7.48,7.48,0,0,0-1.25.47,12,12,0,0,0-1.12.62c-.35.23-.67.46-1,.68A18.77,18.77,0,0,0,942.73,645.49Z"/><path class="cls-10" d="M1076.18,698.57c-18.79,4.32-65.68-53.76-81.52-75.89-3.39-4.73-5.35-7.82-5.33-8.31.44-8.41,12.72-5.9,12.72-5.9,6.58,11,74.13,50.53,79.4,55.77,2.28,2.28,5.88,8,7.37,14.28C1090.76,686.66,1089.1,695.6,1076.18,698.57Z"/><path class="cls-10" d="M969.88,559.36s.15,9.07,5,12.89,5.26,38,14.47,42.12,12.72-5.9,12.72-5.9S986.78,561.86,969.88,559.36Z"/><path class="cls-10" d="M914.76,614.37l-.77.72c-3.85,3.65-22,21.15-51.86,54.33-33.78,37.6-57.46,15.32-57.46,15.32a20.36,20.36,0,0,1-4.59-9.4c-2.48-12.46,6.54-26.22,15.55-29.33,11.41-3.94,79.4-42.78,86-43.74,5-.72,10.07,6.73,12.16,10.29C914.4,613.65,914.76,614.37,914.76,614.37Z"/><path class="cls-10" d="M914.76,614.37s8.18-5.57,6-27,6.81-26.82,7-28-23.65,1.78-26.09,42.92C901.61,602.28,903.53,615.3,914.76,614.37Z"/><path class="cls-10" d="M923.24,627s-9.8-13.1-9.47-3,6,20,13.12,20.5C926.89,644.57,927,631.31,923.24,627Z"/><path class="cls-10" d="M974.46,629.48s9.8-13.09,9.48-3-6,20-13.13,20.5C970.81,647,970.72,633.75,974.46,629.48Z"/><path class="cls-11" d="M914,615.09c-3.85,3.65-22,21.15-51.86,54.33-33.78,37.6-57.46,15.32-57.46,15.32a20.36,20.36,0,0,1-4.59-9.4c54.38,3.55,113.68-62.78,113.68-62.78S913.85,613.48,914,615.09Z"/><path class="cls-11" d="M1076.18,698.57c-18.79,4.32-65.68-53.76-81.52-75.89,0,0,55.42,55,94.16,55.84C1090.76,686.66,1089.1,695.6,1076.18,698.57Z"/><path class="cls-7" d="M1016.53,815.83H992.45c0-24.85,1.65-91.35,20.5-100.17C996.33,732.63,1016.53,815.83,1016.53,815.83Z"/><ellipse class="cls-12" cx="960" cy="553.64" rx="266.84" ry="270.03"/><text class="cls-13" transform="translate(855.84 429.28) scale(1.02 1)">ემოციურ<tspan x="-35.02" y="68.84">ძალადობას</tspan></text></g><g id="Layer_2" data-name="Layer 2"><rect class="cls-3" x="676.03" y="162.72" width="542.72" height="2.34"/><rect class="cls-3" x="665.89" y="980.3" width="542.72" height="2.34"/></g></svg>