<svg xmlns="http://www.w3.org/2000/svg" xmlns:xlink="http://www.w3.org/1999/xlink" viewBox="0 0 1920 1096"><defs><style>.cls-1{mask:url(#mask);}.cls-11,.cls-14,.cls-17,.cls-19,.cls-2,.cls-20,.cls-22,.cls-24,.cls-27,.cls-29,.cls-31,.cls-33,.cls-34,.cls-35,.cls-38,.cls-4,.cls-42,.cls-43,.cls-45,.cls-48,.cls-50,.cls-52,.cls-57,.cls-6,.cls-60{mix-blend-mode:multiply;}.cls-2{fill:url(#radial-gradient);}.cls-3{mask:url(#mask-2);}.cls-4{fill:url(#radial-gradient-2);}.cls-5{mask:url(#mask-3);}.cls-6{fill:url(#radial-gradient-3);}.cls-7{fill:none;}.cls-8{isolation:isolate;}.cls-9{fill:#c9eff4;}.cls-10{fill:#322d63;}.cls-11{fill:#7e8284;}.cls-11,.cls-17,.cls-19,.cls-48,.cls-50,.cls-52,.cls-57{opacity:0.4;}.cls-12{fill:#001c37;}.cls-13,.cls-14,.cls-50{fill:#123454;}.cls-14,.cls-24,.cls-29,.cls-33,.cls-34{opacity:0.5;}.cls-15{fill:#311e56;}.cls-16,.cls-17{fill:#503975;}.cls-18,.cls-19,.cls-20{fill:#9559a4;}.cls-20,.cls-31{opacity:0.7;}.cls-21,.cls-57{fill:#c46c45;}.cls-22{fill:#f6ba9e;}.cls-22,.cls-35,.cls-42,.cls-43,.cls-45{opacity:0.6;}.cls-23,.cls-47{fill:#532800;}.cls-25,.cls-34,.cls-45,.cls-48{fill:#dd8b5e;}.cls-26{fill:#3f1c00;}.cls-27,.cls-42{fill:#d38467;}.cls-28{mask:url(#mask-4);}.cls-29{fill:url(#radial-gradient-4);}.cls-30{mask:url(#mask-5);}.cls-31{fill:url(#radial-gradient-5);}.cls-32{mask:url(#mask-6);}.cls-33{fill:url(#radial-gradient-6);}.cls-35{fill:url(#radial-gradient-7);}.cls-36{clip-path:url(#clip-path);}.cls-37{fill:#fff;}.cls-38{fill:#d5d7d8;}.cls-39{fill:#703000;}.cls-40{fill:#8d4423;}.cls-41{fill:#380d00;}.cls-43{fill:url(#radial-gradient-8);}.cls-44{clip-path:url(#clip-path-2);}.cls-46,.cls-47{mix-blend-mode:screen;}.cls-49{fill:#00000e;}.cls-51{fill:#3b596f;}.cls-53{fill:#b35831;}.cls-54{fill:#a1a3a5;}.cls-55{fill:#bd1f37;}.cls-56{fill:#dadbdc;}.cls-58{fill:#d4effc;}.cls-59{fill:#dea67d;}.cls-61{fill:#888a8c;}.cls-62{filter:url(#luminosity-noclip-6);}.cls-63{filter:url(#luminosity-noclip-5);}.cls-64{filter:url(#luminosity-noclip-4);}.cls-65{filter:url(#luminosity-noclip-3);}.cls-66{filter:url(#luminosity-noclip-2);}.cls-67{filter:url(#luminosity-noclip);}</style><filter id="luminosity-noclip" x="1220.31" y="-8732" width="134.77" height="32766" filterUnits="userSpaceOnUse" color-interpolation-filters="sRGB"><feFlood flood-color="#fff" result="bg"/><feBlend in="SourceGraphic" in2="bg"/></filter><mask id="mask" x="1220.31" y="-8732" width="134.77" height="32766" maskUnits="userSpaceOnUse"><g class="cls-67"/></mask><radialGradient id="radial-gradient" cx="1445.24" cy="557.8" r="7.49" gradientTransform="matrix(4.48, 6.12, -8.32, 3.3, -541.02, -10123.09)" gradientUnits="userSpaceOnUse"><stop offset="0" stop-color="#fff"/><stop offset="0.12" stop-color="#fbfbfb"/><stop offset="0.25" stop-color="#efefef"/><stop offset="0.38" stop-color="#dadada"/><stop offset="0.5" stop-color="#bebebe"/><stop offset="0.63" stop-color="#999"/><stop offset="0.76" stop-color="#6c6c6c"/><stop offset="0.88" stop-color="#383838"/><stop offset="1"/></radialGradient><filter id="luminosity-noclip-2" x="1226.57" y="-8732" width="89.74" height="32766" filterUnits="userSpaceOnUse" color-interpolation-filters="sRGB"><feFlood flood-color="#fff" result="bg"/><feBlend in="SourceGraphic" in2="bg"/></filter><mask id="mask-2" x="1226.57" y="-8732" width="89.74" height="32766" maskUnits="userSpaceOnUse"><g class="cls-66"/></mask><radialGradient id="radial-gradient-2" cx="1442.32" cy="558.14" r="4.75" gradientTransform="matrix(4.48, 6.12, -8.32, 3.3, -541.02, -10123.09)" gradientUnits="userSpaceOnUse"><stop offset="0" stop-color="#fff"/><stop offset="0.13" stop-color="#fbfbfb"/><stop offset="0.25" stop-color="#efefef"/><stop offset="0.38" stop-color="#dbdbdb"/><stop offset="0.5" stop-color="silver"/><stop offset="0.63" stop-color="#9c9c9c"/><stop offset="0.75" stop-color="#707070"/><stop offset="0.88" stop-color="#3c3c3c"/><stop offset="1" stop-color="#010101"/><stop offset="1"/></radialGradient><filter id="luminosity-noclip-3" x="1246.56" y="-8732" width="73.42" height="32766" filterUnits="userSpaceOnUse" color-interpolation-filters="sRGB"><feFlood flood-color="#fff" result="bg"/><feBlend in="SourceGraphic" in2="bg"/></filter><mask id="mask-3" x="1246.56" y="-8732" width="73.42" height="32766" maskUnits="userSpaceOnUse"><g class="cls-65"/></mask><radialGradient id="radial-gradient-3" cx="1447.21" cy="559.35" r="3.89" gradientTransform="matrix(4.48, 6.12, -8.32, 3.3, -541.02, -10123.09)" gradientUnits="userSpaceOnUse"><stop offset="0" stop-color="#fff"/><stop offset="0.1" stop-color="#fafafa"/><stop offset="0.23" stop-color="#ececec"/><stop offset="0.36" stop-color="#d4d4d4"/><stop offset="0.5" stop-color="#b3b3b3"/><stop offset="0.65" stop-color="#888"/><stop offset="0.8" stop-color="#535353"/><stop offset="0.95" stop-color="#161616"/><stop offset="1"/></radialGradient><filter id="luminosity-noclip-4" x="1220.31" y="515.17" width="134.77" height="101.38" filterUnits="userSpaceOnUse" color-interpolation-filters="sRGB"><feFlood flood-color="#fff" result="bg"/><feBlend in="SourceGraphic" in2="bg"/></filter><mask id="mask-4" x="1220.31" y="520.17" width="134.77" height="101.38" maskUnits="userSpaceOnUse"><g class="cls-64"><g transform="translate(0 5)"><g class="cls-1"><path class="cls-2" d="M1332,534.43s-30-24.32-67.63-18.3-72.9,48.46-7.69,88S1392.69,580.85,1332,534.43Z"/></g></g></g></mask><radialGradient id="radial-gradient-4" cx="1445.24" cy="557.8" r="7.49" gradientTransform="matrix(4.48, 6.12, -8.32, 3.3, -541.02, -10123.09)" gradientUnits="userSpaceOnUse"><stop offset="0" stop-color="#ff476d"/><stop offset="0.15" stop-color="#ff4b70"/><stop offset="0.29" stop-color="#ff577a"/><stop offset="0.44" stop-color="#ff6c8a"/><stop offset="0.59" stop-color="#ff88a1"/><stop offset="0.74" stop-color="#ffadbe"/><stop offset="0.89" stop-color="#ffd9e1"/><stop offset="1" stop-color="#fff"/></radialGradient><filter id="luminosity-noclip-5" x="1226.57" y="516.17" width="89.74" height="66.08" filterUnits="userSpaceOnUse" color-interpolation-filters="sRGB"><feFlood flood-color="#fff" result="bg"/><feBlend in="SourceGraphic" in2="bg"/></filter><mask id="mask-5" x="1226.57" y="521.17" width="89.74" height="66.08" maskUnits="userSpaceOnUse"><g class="cls-63"><g transform="translate(0 5)"><g class="cls-3"><path class="cls-4" d="M1292.72,578.3c-21.84,8.65-49,2.63-60.77-13.43s-3.58-36.1,18.24-44.75,49-2.62,60.76,13.44S1314.51,569.65,1292.72,578.3Z"/></g></g></g></mask><radialGradient id="radial-gradient-5" cx="1442.32" cy="558.14" r="4.75" gradientTransform="matrix(4.48, 6.12, -8.32, 3.3, -541.02, -10123.09)" gradientUnits="userSpaceOnUse"><stop offset="0" stop-color="#994571"/><stop offset="0.15" stop-color="#9b4974"/><stop offset="0.3" stop-color="#a2557d"/><stop offset="0.44" stop-color="#ad698c"/><stop offset="0.59" stop-color="#bc84a1"/><stop offset="0.73" stop-color="#cfa8bd"/><stop offset="0.88" stop-color="#e7d3de"/><stop offset="1" stop-color="#fff"/></radialGradient><filter id="luminosity-noclip-6" x="1246.56" y="556.13" width="73.42" height="54.05" filterUnits="userSpaceOnUse" color-interpolation-filters="sRGB"><feFlood flood-color="#fff" result="bg"/><feBlend in="SourceGraphic" in2="bg"/></filter><mask id="mask-6" x="1246.56" y="561.13" width="73.42" height="54.05" maskUnits="userSpaceOnUse"><g class="cls-62"><g transform="translate(0 5)"><g class="cls-5"><path class="cls-6" d="M1300.68,607c-17.88,7.06-40.12,2.16-49.73-11s-2.94-29.54,14.94-36.61,40.1-2.16,49.72,11S1318.5,599.87,1300.68,607Z"/></g></g></g></mask><radialGradient id="radial-gradient-6" cx="1447.21" cy="559.35" r="3.89" gradientTransform="matrix(4.48, 6.12, -8.32, 3.3, -541.02, -10123.09)" gradientUnits="userSpaceOnUse"><stop offset="0" stop-color="#3c6a9f"/><stop offset="0.12" stop-color="#416ea1"/><stop offset="0.27" stop-color="#4f79a9"/><stop offset="0.42" stop-color="#678bb4"/><stop offset="0.58" stop-color="#88a4c5"/><stop offset="0.75" stop-color="#b3c5da"/><stop offset="0.93" stop-color="#e7ecf3"/><stop offset="1" stop-color="#fff"/></radialGradient><radialGradient id="radial-gradient-7" cx="2039.13" cy="-1126.58" r="5.63" gradientTransform="matrix(7.82, -3.9, 5.3, 5.76, -8715.44, 15043.72)" gradientUnits="userSpaceOnUse"><stop offset="0" stop-color="#ef7b63"/><stop offset="0.12" stop-color="#f2907c"/><stop offset="0.42" stop-color="#f7bfb4"/><stop offset="0.68" stop-color="#fbe2dd"/><stop offset="0.88" stop-color="#fef7f6"/><stop offset="1" stop-color="#fff"/></radialGradient><clipPath id="clip-path" transform="translate(0 5)"><path class="cls-7" d="M1249.35,543.31a34.79,34.79,0,0,0-11.48-2.07c-7.61-.06-17.94,4.16-22,9.24-10.08,12.74-5,30.94,3.77,43.7a32.36,32.36,0,0,0,18.76,12.53c4.2,1,12.14.22,17.53-1.08,2.84-.65,4.67-5.72,19.52-12.83.18-.33.94-1.73,1.11-2.06,5.58-11-.12-24.82-8.63-34.37C1263.52,551.39,1256.56,545.88,1249.35,543.31Z"/></clipPath><radialGradient id="radial-gradient-8" cx="2023.97" cy="-1135.61" r="5.11" xlink:href="#radial-gradient-7"/><clipPath id="clip-path-2" transform="translate(0 5)"><path class="cls-7" d="M1104.3,554a28.33,28.33,0,0,0-10-2.31c-6.57-.28-15.42,3.52-18.71,8.26-8.39,12-3.58,29.68,4.29,42.21a31.23,31.23,0,0,0,8.93,9,54.6,54.6,0,0,1,24.6,2.12c4.25-1.43,12.2-5.17,15.55-12.89,4.62-10.46-.71-23.88-8.3-33.32C1116.72,562.2,1110.58,556.7,1104.3,554Z"/></clipPath></defs><title>ფიზიკური</title><g class="cls-8"><g id="Layer_1" data-name="Layer 1"><rect class="cls-9" x="10" y="15" width="1900" height="1071"/><path class="cls-10" d="M1900,20V1071H20V20H1900m20-20H0V1091H1920V0Z" transform="translate(0 5)"/><path class="cls-11" d="M1539,978.62c0,41.72-147.48,75.55-329.45,75.55S880,1020.34,880,978.62s147.5-75.54,329.5-75.54S1539,936.89,1539,978.62Z" transform="translate(0 5)"/><path class="cls-12" d="M1239.28,831.87l-5-8.14s-74,32.1-88.17,75.5c0,0,13.81-.51,38.92-8.24S1243.84,851.29,1239.28,831.87Z" transform="translate(0 5)"/><path class="cls-13" d="M1405.61,876.34c1.88,2.68,35.48,77.93-72.86,99.22s-186.64-76.33-186.64-76.33,66.56-19.56,88.17-75.5L1332.75,887Z" transform="translate(0 5)"/><path class="cls-14" d="M1405.61,876.34c1.88,2.68,35.48,77.93-72.86,99.22s-186.64-76.33-186.64-76.33,66.56-19.56,88.17-75.5L1332.75,887Z" transform="translate(0 5)"/><path class="cls-12" d="M1332.75,887s33.4,17.65,44.55,38.63C1377.3,925.62,1347.17,896.26,1332.75,887Z" transform="translate(0 5)"/><path class="cls-15" d="M1213.48,794.42c-38.86-21.22-38.63-54.09-38.63-54.09C1220.63,766.85,1213.48,794.42,1213.48,794.42Z" transform="translate(0 5)"/><path class="cls-16" d="M1304.68,696.12c18.4,7,32,25.37-4.33,51.64s-86.87,46.66-86.87,46.66,7.15-27.57-38.63-54.09c0,0,22.87-8.81,53.77-22.06S1281.47,687.27,1304.68,696.12Z" transform="translate(0 5)"/><path class="cls-17" d="M1304.68,696.12c-8.83-3.35-17.44-2.87-26.46-.27-5.29,5.15-11.16,10-15,15.81a96.76,96.76,0,0,0-11,22c-5.17,15.15-9.29,30.7-7,46.35,16.84-8.28,37.64-19.57,55.12-32.23C1336.68,721.49,1323.08,703.13,1304.68,696.12Z" transform="translate(0 5)"/><path class="cls-18" d="M1259.08,873.72S1281,892.32,1361.77,889c75.13-3,111.2-13.87,111.2-13.87s-9.84-95.44-56.18-157.84c-37.35-50.33-131-57.61-149.48,7S1259.08,873.72,1259.08,873.72Z" transform="translate(0 5)"/><path class="cls-19" d="M1416.79,717.33c-31.66-42.66-103.73-54.37-136.24-17.63,2.69,10.4,7.83,21,17.62,28.21,7.49,5.48,19.6,5.73,29.74.14,3.41-1.89,6.78-6.36,8.83-9a9.08,9.08,0,0,0,.44-1.59c.5-2,4.57-1.12,4.21.85-4.47,19,15.18,37.05,32.1,49.28,16,11.53,28.24,23.44,37,38.7,8,13.89,13,29.51,12.35,44.65-.31,6.36-3.13,15.66-12.15,17.63-8.54,3.38-22.68,1.21-30.36-1.38-17.15-5.74-32-14.29-46.18-23.36-16.69-10.74-33-22.48-52.67-30.28-8.3-3.28-16.65-6.53-25.09-9.55a523.33,523.33,0,0,0,2.65,69.76S1281,892.32,1361.77,889c75.13-3,111.2-13.87,111.2-13.87S1463.13,779.73,1416.79,717.33Z" transform="translate(0 5)"/><path class="cls-20" d="M1283.63,696.22s18.94-19.55,49.07-19.62c0,0,19.2,39-10.41,46.9C1290.59,732,1283.63,696.22,1283.63,696.22Z" transform="translate(0 5)"/><path class="cls-21" d="M1325.52,668.22l-43.27,10.51c9.55,25.91,21.23,42.59,39.41,37.61S1325.52,668.22,1325.52,668.22Z" transform="translate(0 5)"/><path class="cls-22" d="M1314.72,689.82a69.32,69.32,0,0,0,14.55-6.83,126.45,126.45,0,0,0-3.75-14.77l-43.27,10.51a145.91,145.91,0,0,0,7.81,17.87C1298.63,695.51,1307.19,692.42,1314.72,689.82Z" transform="translate(0 5)"/><path class="cls-23" d="M1021.13,549.61s-11.17,3.15-17.56-5.66c-6.88-9.45,1.42-15.43,1.42-15.43s-19.14,5.62-33.23-5.64-3.1-22.77,9.59-26.89c0,0-21,6.71-31.9,2.75s14-15.58,14-15.58-36.16,8-41.34-24.41c-5.94-37.29,52.28-49.08,52.28-49.08s-20.13-.55-20.13-15.28,51.62-19.17,51.62-19.17-12.66-15.17,17.75-27.22,77.1-12.28,77.1-12.28-14.93-3.64-6.74-13.41,44.84-5.36,59.23,4.37c0,0-17.3-8.72-10.83-16.45s49.11-.82,68.66,12.22c0,0-12.33-9.89,8.15-16.55s64.5,5.41,85.09,18.77c0,0-13.17-8.7-2.41-15.28s75.8-7.65,155.2,75.84c0,0-.1-17,13.83-19.7s16.88,28.79,10.49,40.31c0,0,30.28-9.8,34.9,0s-39.19,15.09-39.19,15.09,29.78,6.53,48.92,30.2,2,25.89-18.56,15.57c0,0,26.67,17.34,31.16,41.15,3.26,17.49-13.49,12.13-24.34,2.11,0,0,13.27,15.48,12.88,35.92s-22.83,8-29-4.7c0,0,7.1,26.8-14.27,36.36-17.25,7.72-23.85-4.75-23.85-4.75s3.79,25.23-16.19,29.17c-25.36,5-31.46-9.22-31.46-9.22s-25.52,52.64-180.1,48.92S1049,558.77,1049,558.77s-5.88,11.27-20.94,8.59S1021.13,549.61,1021.13,549.61Z" transform="translate(0 5)"/><g class="cls-24"><path class="cls-23" d="M963.41,483.16s-24.86,11.58-14,15.58,31.9-2.75,31.9-2.75c-12.69,4.12-23.71,15.63-9.59,26.89s33.23,5.64,33.23,5.64-8.3,6-1.42,15.43c6.39,8.81,17.56,5.66,17.56,5.66s-8.11,15.08,6.93,17.75,20.94-8.59,20.94-8.59,28.73,79.16,183.31,82.89,180.1-48.92,180.1-48.92,6.1,14.22,31.46,9.22c20-3.94,16.19-29.17,16.19-29.17s6.6,12.47,23.85,4.75c21.37-9.56,14.27-36.36,14.27-36.36,6.12,12.69,28.59,25.14,29,4.7S1514.25,510,1514.25,510c10.85,10,27.6,15.38,24.34-2.11-4.49-23.81-31.16-41.15-31.16-41.15,20.61,10.32,37.7,8.09,18.56-15.57s-48.92-30.2-48.92-30.2,43.82-5.27,39.19-15.09-34.9,0-34.9,0c6.39-11.52,3.46-43-10.49-40.31s-13.83,19.7-13.83,19.7c-79.4-83.49-144.44-82.44-155.2-75.84s2.41,15.28,2.41,15.28c-20.59-13.36-64.6-25.46-85.09-18.77s-8.15,16.55-8.15,16.55c-19.55-13-62.19-20-68.66-12.22-4.6,5.51,2.85,11.54,7.49,14.51-16-8.33-48.24-11.53-55.89-2.43-8.19,9.77,6.74,13.41,6.74,13.41s-46.66.22-77.1,12.28-17.75,27.22-17.75,27.22-51.64,4.43-51.62,19.17,20.13,15.28,20.13,15.28-58.22,11.79-52.28,49.08C927.25,491.2,963.41,483.16,963.41,483.16ZM930,441.72c15.83-28.84,68.07-31.91,68.07-31.91s-30.22-4-31.9-14.86,32.1-20.6,70.73-8.05c0,0-27.06-9.08-19.94-25.51s55.89-26.32,110.88-12.9c0,0-24.52-8.6-21.64-20.05s37.16-5.1,54.91,9.66c0,0-17.35-15.15-3.55-22.37s48.32,3.78,57.79,16.57c0,0-8.39-12.52,8.18-18.1s60.1-2.89,92.67,24.55c0,0-13.39-17.39-3.44-25,18.77-14.39,103.08,28.48,147.43,85,0,0-4.57-23.92,9.07-22.88s13.66,25.47,2.14,33c0,0,31.58-7.27,33.22-1.7,2.2,7.44-30.17,11.15-45.6,11,0,0,27.23,5.76,36.83,21s-36.32,7.33-56.2-4.71c0,0,26.81,27.83,2.88,40.84s-53.29-12-53.29-12-1.87,38.34-22.07,33.54S1329,435.38,1329,435.38s-1.15,21.78-20,19.44-53.79-47.53-53.79-47.53,8.85,22.86-8.62,22.85S1229,415,1229,415s-3.27,32.79-31.17,31.41-20.88-29.57-20.88-29.57-11.4,20.26-25.24,20.31-9.75-22.62-9.75-22.62-16.92,26-32.72,23.61-11.32-19.81-11.32-19.81-12.65,27.16-32,28.07-17.77-14.34-17.77-14.34-24.62,34.26-47.24,34.66-5.6-17.63,15.82-23.27c0,0-25.36,2-51.89,20.78C945.09,478.16,915.92,467.41,930,441.72Z" transform="translate(0 5)"/></g><path class="cls-25" d="M1437,539.06c-23.19,4.25-24.27,30.87-24.27,30.87-1-40-3-96-91-155.89-69-47-206.19-52.58-280.55,12.75-29.86,26.28-33.9,72.63-6.58,104.29s2.67,41.16,17.77,82.93,116.2,103.35,230.19,78.11c91.53-20.3,129.34-85.73,129.34-85.73C1425,633,1463.3,622.4,1474,588S1460.21,534.8,1437,539.06Z" transform="translate(0 5)"/><path class="cls-21" d="M1131.24,668.79c-5.6-3.84-12-6.68-18.15-10-6.41-3.51-10.62-8.57-9.22-14.6,1.27-5.5,6.55-16.33-2.43-19.78-5.06-1.91-11.1-2-16.59-1.11-6.93,1.07-16.68,3.21-22.82,7.23,14.57,18.46,42,38,77.36,51.23A17.55,17.55,0,0,0,1131.24,668.79Z" transform="translate(0 5)"/><g class="cls-24"><path class="cls-25" d="M1034.62,531.08c27.34,31.64,2.67,41.16,17.77,82.93s116.2,103.35,230.19,78.11c91.53-20.3,129.34-85.73,129.34-85.73,9.07,18.38,30,19,45.72,6.4l-1.56-.08c-6.29-.78-8.67-6.9-8.75-10.74-.16-6.34,9.07-13,13.19-18,10.08-12.41,4.75-26.63-14.78-30.34-7.55-1.44-12-4.61-11.62-10.5a5.94,5.94,0,0,1,1.63-3.77c-22,5-23,30.58-23,30.58-1-40-3-96-91-155.89-69-47-206.19-52.58-280.55,12.75C1011.34,453.07,1007.3,499.42,1034.62,531.08Zm396.85,65.3c-.25-2.87-.3-8.47,4.73-9.43,4.6-.86,6.57,3.93,7.75,6.31a.47.47,0,0,1-.08.45,5,5,0,0,1,.27,1.85c-.05,2.16-2,4.39-4.29,5.73a6.17,6.17,0,0,1-5.81.32C1431.91,600.52,1431.64,598.12,1431.47,596.38Zm-389.73-64.16c-6-9.08-25.63-31.6-17-38.63,8.78-7.17,9.33,4.66,28.2,0,19.15-4.72,28.1-27,28.1-27s.59,14.32,19.5,14.19,26.16-22.65,26.16-22.65-2.36,10.42,15.35,11.52,23.23-8.39,23.23-8.39,8.07,22,31.22,21.12,39.08-22.61,39.08-22.61,9.45,15.79,22.08,16.23,11.9-10.85,11.9-10.85c16.53,31.83,37.27,33.64,58.33,36,23.64,2.66,55.13,39,50.81,85.89-5.35,57.16-94.5,132.61-208.13,100.47-120.13-33.93-120.3-80.11-118.71-112.62C1053.29,545.57,1047.78,541.3,1041.74,532.22Z" transform="translate(0 5)"/></g><path class="cls-23" d="M1405.61,559.32c-6.87-17-12.46-36.34-12.46-36.34s-6.39,11.52-27.58-9-33.69-47.37-33.69-47.37S1337.17,487,1317,485.7s-56.88-44.63-56.88-44.63,6.75,23.23-8.16,23-16.14-20.9-16.14-20.9-10.2,29.59-40.62,28.81-28-30.86-28-30.86-5.48,20.51-23.72,22.07-12.07-21.26-12.07-21.26-15.93,29-32.06,31.09-9.73-22.59-9.73-22.59-24.45,33.47-45.78,34.92-10.4-20.27-10.4-20.27-19.55,19.06-43.94,14.35-7.31-33.37,27.18-36c0,0-19.48-12.7-7.09-28.51s52.38-12.8,52.38-12.8-4.68-16.6,17.26-27.17,58.21-2,58.21-2,6.61-23.63,38.66-25.23,34.5,17.44,34.5,17.44,15.05-15.28,37.18-8.49,26.91,24.14,26.91,24.14,19.38-13.76,37.22-4.7,18.86,28.23,18.86,28.23,36.16-14.85,52.38,4.46c17.07,20.35,1.78,33.92,1.78,33.92s25.67.05,26,18.55c0,0,13.83-1.56,21,12.54,9.72,19.22-15.36,38.06-15.36,38.06C1433,563.61,1416.48,586.44,1405.61,559.32Z" transform="translate(0 5)"/><path class="cls-26" d="M1391.2,475.54s.66.75,1.88,2a15.77,15.77,0,0,1,2,2.32c.65.95,1.54,1.93,2.27,3.12a32.27,32.27,0,0,1,2.2,3.84,45.5,45.5,0,0,1,1.82,4.48,23.15,23.15,0,0,1,.75,2.36c.18.83.37,1.65.57,2.49a33.5,33.5,0,0,1,.61,5.1,28.74,28.74,0,0,1-.15,5.09,30.75,30.75,0,0,1-.87,4.9c-.21.78-.58,1.55-.79,2.3a9.18,9.18,0,0,1-.91,2.13,20.54,20.54,0,0,1-1,2c-.46.62-.86,1.21-1.28,1.78a9.59,9.59,0,0,1-1.38,1.53c-.46.45-.87.93-1.33,1.33-1,.71-1.88,1.4-2.69,1.86-1.73.82-2.73,1.31-2.73,1.31s1.09-.31,3.08-.93c.91-.4,1.91-1,3.15-1.63a24.34,24.34,0,0,0,3.36-2.78c.5-.59,1-1.17,1.53-1.78a24.46,24.46,0,0,0,1.38-2.05,22.14,22.14,0,0,0,2.25-4.61,23.88,23.88,0,0,0,1.19-5.14,31.27,31.27,0,0,0,.29-5.39,32.63,32.63,0,0,0-.79-5.33,31.32,31.32,0,0,0-4-9.62,28,28,0,0,0-2.74-3.84,24.57,24.57,0,0,0-2.87-3,20.13,20.13,0,0,0-2.48-2.1C1392.07,476.14,1391.2,475.54,1391.2,475.54Z" transform="translate(0 5)"/><g class="cls-24"><path class="cls-23" d="M1000.63,446.81a90.52,90.52,0,0,1,15.64-3.32,2.13,2.13,0,0,1,.39,0c-21.42,5.64-38.45,23.69-15.82,23.27s47.24-34.66,47.24-34.66-1.56,15.23,17.77,14.34,32-28.07,32-28.07-4.46,17.39,11.32,19.81,32.72-23.61,32.72-23.61-4.14,22.67,9.75,22.62,25.24-20.31,25.24-20.31-7.05,28.18,20.88,29.57S1229,415,1229,415s.11,15.11,17.57,15.13,8.62-22.85,8.62-22.85,34.94,45.17,53.79,47.53,20-19.44,20-19.44,19,55,38.24,61.49c29.37,10,22.07-33.54,22.07-33.54s22.58,19.19,44.27,15.14c4.17,17.51-17,33.45-17,33.45,16.43,51.69,0,74.52-10.92,47.4-6.87-17-12.46-36.34-12.46-36.34s-6.39,11.52-27.58-9-33.69-47.37-33.69-47.37S1337.17,487,1317,485.7s-56.88-44.63-56.88-44.63,6.75,23.23-8.16,23-16.14-20.9-16.14-20.9-10.2,29.59-40.62,28.81-28-30.86-28-30.86-5.48,20.51-23.72,22.07-12.07-21.26-12.07-21.26-15.93,29-32.06,31.09-9.73-22.59-9.73-22.59-24.45,33.47-45.78,34.92-10.4-20.27-10.4-20.27-19.55,19.06-43.94,14.35C969.31,475.52,977.57,455.15,1000.63,446.81Z" transform="translate(0 5)"/></g><path class="cls-27" d="M1427.43,601.66a34.64,34.64,0,0,1-.73-3.46,37,37,0,0,1-.6-4.51,35.44,35.44,0,0,1-.24-5.37,40.63,40.63,0,0,1,.51-6.07,35.42,35.42,0,0,1,4.64-13.1,29.21,29.21,0,0,1,5.27-6.19,22,22,0,0,1,8.44-4.57,17.51,17.51,0,0,1,10.36.14,12.9,12.9,0,0,1,5.94,4.21,12.75,12.75,0,0,1,2.09,4.46,16.22,16.22,0,0,1,.35,3.57,12.53,12.53,0,0,1-.22,2.25c-.09.5-.13.79-.13.79s-.06-.26-.14-.78a17,17,0,0,0-.52-2.2,22.23,22.23,0,0,0-1.24-3.27,15,15,0,0,0-2.72-3.77,12.36,12.36,0,0,0-5.13-3,12.76,12.76,0,0,0-7,.28,17.53,17.53,0,0,0-6.27,3.77,27.33,27.33,0,0,0-4.43,5.46,30.72,30.72,0,0,0-3,6.07c-.32.89-.63,1.79-.92,2.66.87.09,1.89.23,3.07.46a31.16,31.16,0,0,1,5.18,1.59,22.68,22.68,0,0,1,5,2.81,20.79,20.79,0,0,1,2,1.88,8.11,8.11,0,0,1,1.37,2,5.24,5.24,0,0,1,.73,2,5.08,5.08,0,0,1,.16,1.92,14.07,14.07,0,0,1-.29,1.58c-.19.44-.39.79-.55,1.1a7.61,7.61,0,0,1-.57,1,7.17,7.17,0,0,1-.43-1,6.73,6.73,0,0,1-.38-1.13c-.2-.37-.45-.8-.7-1.27a8.19,8.19,0,0,0-.89-1.42,11.37,11.37,0,0,0-1.18-1.51,15.53,15.53,0,0,0-1.46-1.47c-.49-.5-1.16-1-1.72-1.46a71.36,71.36,0,0,0-7.75-5c-.71-.4-1.37-.75-1.93-1.08-.23.78-.46,1.57-.66,2.34-.47,2-.84,4-1.14,5.84s-.52,3.62-.65,5.27c-.31,3.28-.52,6-.56,8s-.2,3-.2,3Z" transform="translate(0 5)"/><g class="cls-28"><path class="cls-29" d="M1332,534.43s-30-24.32-67.63-18.3-72.9,48.46-7.69,88S1392.69,580.85,1332,534.43Z" transform="translate(0 5)"/></g><g class="cls-30"><path class="cls-31" d="M1292.72,578.3c-21.84,8.65-49,2.63-60.77-13.43s-3.58-36.1,18.24-44.75,49-2.62,60.76,13.44S1314.51,569.65,1292.72,578.3Z" transform="translate(0 5)"/></g><g class="cls-32"><path class="cls-33" d="M1300.68,607c-17.88,7.06-40.12,2.16-49.73-11s-2.94-29.54,14.94-36.61,40.1-2.16,49.72,11S1318.5,599.87,1300.68,607Z" transform="translate(0 5)"/></g><path class="cls-34" d="M1246.49,620.14s13.29-28.07,56.91-33.87c0,0-12.24-1.63-22.17.31,1.8-3.45,7.22-11.85-9.19-34.22-15.81-21.56-54.78-19.57-63.37,3.06s8.71,60.07,40,53.77A15.77,15.77,0,0,0,1246.49,620.14Z" transform="translate(0 5)"/><path class="cls-35" d="M1270.65,597.58c-17.11,10.45-23.37,25.7-14,34.08s30.91,6.69,48.07-3.75,23.37-25.71,14-34.09S1287.78,587.14,1270.65,597.58Zm-2.86,19.95a5.79,5.79,0,0,1-.73,6.55c-1.55,2-5.28,3.47-7.93,1.95a5.1,5.1,0,0,1-1.91-7.16.82.82,0,0,1,.37-.41,4.66,4.66,0,0,1,3.07-2.66C1263.44,614.91,1266.65,615.64,1267.79,617.53Zm.77-8.24a.86.86,0,0,1,.12,1.5,6.35,6.35,0,0,1-.71,1.49,2.19,2.19,0,0,1-3,.46c-.7-.67-1.27-1.47-.85-2.39a3.39,3.39,0,0,1,.73-1,.7.7,0,0,1,.08-.29,1.41,1.41,0,0,1,.74-.68C1266.76,607.6,1268.81,608.12,1268.56,609.29Z" transform="translate(0 5)"/><g class="cls-36"><path class="cls-37" d="M1249.35,543.31a34.79,34.79,0,0,0-11.48-2.07c-7.61-.06-17.94,4.16-22,9.24-10.08,12.74-5,30.94,3.77,43.7a32.36,32.36,0,0,0,18.76,12.53c6.39,1.5,17.63-1.11,23.19-3.29,6.78-2.67,12.2-7.17,15-12.68,5.58-11-.12-24.81-8.63-34.37C1263.54,551.39,1256.56,545.88,1249.35,543.31Z" transform="translate(0 5)"/><path class="cls-38" d="M1212.23,574.54c-.57-10.22,2.75-20.9,15.08-26,17.71-7.31,34.16,1.84,44.92,13.38a47.66,47.66,0,0,0-4.26-5.57c-4.43-5-11.41-10.49-18.62-13.06a34.79,34.79,0,0,0-11.48-2.07c-7.61-.06-17.94,4.16-22,9.24-6.77,8.6-6.64,19.71-3.17,29.95C1212.49,578.39,1212.31,576.4,1212.23,574.54Z" transform="translate(0 5)"/><path class="cls-39" d="M1235.27,580.41c8.11,13.82,22.67,22,32.59,18.26s11.42-18,3.31-31.84-22.7-22-32.6-18.24S1227.19,566.57,1235.27,580.41Z" transform="translate(0 5)"/><path class="cls-40" d="M1237.89,579.27c6.63,11.38,18.64,18.11,26.79,15s9.35-14.8,2.72-26.17-18.65-18.09-26.83-15S1231.21,567.9,1237.89,579.27Z" transform="translate(0 5)"/><path class="cls-41" d="M1243.55,562.08c5.35-2.24,13.67,2,18.64,9.49s4.61,15.41-.75,17.64-13.68-2-18.62-9.48S1238.18,564.33,1243.55,562.08Z" transform="translate(0 5)"/><path class="cls-37" d="M1245.14,564.71c.23-3.46-1.74-6.22-4.39-6.22s-5,2.8-5.25,6.25,1.68,6.21,4.34,6.21S1244.86,568.16,1245.14,564.71Z" transform="translate(0 5)"/><path class="cls-37" d="M1242.38,576.93c-1.09-1.09-2.74-1.37-3.66-.61s-.83,2.29.26,3.37,2.74,1.38,3.66.61S1243.48,578,1242.38,576.93Z" transform="translate(0 5)"/></g><path class="cls-42" d="M1250.56,616.42a15.43,15.43,0,0,1,1.06-1.81,21.78,21.78,0,0,1,1.36-2c.54-.77,1.27-1.55,2-2.45s1.64-1.81,2.66-2.71,2.11-1.86,3.23-2.85,2.51-1.84,3.75-2.82c1.41-.85,2.72-1.85,4.22-2.64s2.88-1.76,4.45-2.47,3-1.61,4.54-2.21,3-1.33,4.33-2,2.85-1.1,4.08-1.63c2.5-1.09,4.71-1.75,6.21-2.41s2.37-1,2.37-1-1,.1-2.69.34c-.83.13-1.84.29-3,.46a31.66,31.66,0,0,0-3.86.77c-1.4.35-2.93.71-4.5,1.15s-3.23,1-4.89,1.64a44.73,44.73,0,0,0-5,2.11c-1.7.7-3.24,1.67-4.87,2.52s-3,2-4.43,3a43.93,43.93,0,0,0-3.77,3.25,23.94,23.94,0,0,0-3,3.37,24.85,24.85,0,0,0-2.12,3.2,17.24,17.24,0,0,0-1.89,5.12A9.11,9.11,0,0,0,1250.56,616.42Z" transform="translate(0 5)"/><path class="cls-34" d="M1074.69,616.06s24.32-8.89,51.21,4.36a12.87,12.87,0,0,0-6.15-6.87s19.14-6,15.3-30.25c-3.69-23.39-24.52-39.45-45.72-35.07-20.5,4.27-28.78,21.43-19.38,42.25,7.47,16.6,15.23,19.58,15.23,19.58S1077.86,612,1074.69,616.06Z" transform="translate(0 5)"/><path class="cls-43" d="M1101.12,612.34c-18.49-1.4-34.54,5.06-35.86,14.42s12.56,18.1,31.06,19.51,34.52-5.08,35.89-14.44S1119.6,613.76,1101.12,612.34Zm-17.93,10.83c-.87,1.75-3.19,3.16-5.72,3.67s-5.93-.27-6.21-2.4,1.84-4.38,4.68-5.22a1.62,1.62,0,0,1,.55-.09,6.12,6.12,0,0,1,4-.25C1082.82,619.61,1084.07,621.52,1083.19,623.17Zm7.19-4.66c0,.47-.35.89-1.16,1a9.67,9.67,0,0,1-1.65.55c-1,.32-2.26-.28-2.08-1.08a2.13,2.13,0,0,1,1.43-1.85,6,6,0,0,1,1.22-.24,1.27,1.27,0,0,1,.31-.16,1.58,1.58,0,0,1,.94,0C1090.68,616.67,1091.46,617.94,1090.38,618.51Z" transform="translate(0 5)"/><g class="cls-44"><path class="cls-37" d="M1104.3,554a28.33,28.33,0,0,0-10-2.31c-6.57-.28-15.42,3.52-18.71,8.26-8.39,12-3.58,29.68,4.29,42.21a30.59,30.59,0,0,0,16.5,12.57c5.56,1.61,15.2-.59,19.95-2.55A23,23,0,0,0,1129,600.44c4.56-10.46-.71-23.88-8.3-33.32C1116.74,562.2,1110.58,556.7,1104.3,554Z" transform="translate(0 5)"/><path class="cls-38" d="M1073,583.06c-.73-9.85,1.85-20,12.39-24.57,15.13-6.56,29.55,2.69,39.11,14.1a48.49,48.49,0,0,0-3.82-5.47c-3.94-4.92-10.1-10.42-16.38-13.08a28.33,28.33,0,0,0-10-2.31c-6.57-.28-15.42,3.52-18.71,8.26-5.66,8.12-5.3,18.8-2,28.76C1073.3,586.78,1073.11,584.88,1073,583.06Z" transform="translate(0 5)"/><path class="cls-39" d="M1089.68,587.28c3.83,14.3,15.31,24.23,25.72,22.2s15.77-15.32,12-29.61-15.3-24.23-25.74-22.18S1085.89,573,1089.68,587.28Z" transform="translate(0 5)"/><path class="cls-40" d="M1092.92,587.86c3.11,11.75,12.6,19.93,21.13,18.23s13-12.58,9.86-24.32-12.6-19.93-21.18-18.23S1089.78,576.1,1092.92,587.86Z" transform="translate(0 5)"/><path class="cls-41" d="M1103.27,571.27c5.69-1.32,12.36,4,15,11.77s.07,15.25-5.62,16.57-12.38-4-15-11.77S1097.56,572.61,1103.27,571.27Z" transform="translate(0 5)"/><path class="cls-37" d="M1106.27,574.38c1.18-3.2.12-6.15-2.38-6.54s-5.54,1.89-6.74,5.13-.13,6.13,2.38,6.52S1105.05,577.6,1106.27,574.38Z" transform="translate(0 5)"/><path class="cls-37" d="M1099.9,583.48a2.55,2.55,0,0,0-3.29-1.14,2.22,2.22,0,0,0-.68,3.23,2.62,2.62,0,0,0,3.33,1.13A2.25,2.25,0,0,0,1099.9,583.48Z" transform="translate(0 5)"/></g><path class="cls-42" d="M1081.87,613.74s.67-.11,1.82-.25,2.79-.27,4.65-.36c1,0,2-.1,3.08-.08s2.2,0,3.41,0c2.32.07,4.8.26,7.27.52,1.22.17,2.47.28,3.69.48s2.41.34,3.55.56,2.28.39,3.37.59,2,.43,3,.61c1.91.34,3.47.73,4.59.95s1.82.3,1.82.3-.46-.35-1.37-.91a31.66,31.66,0,0,0-4-2.11c-.89-.37-1.84-.81-2.86-1.2s-2.2-.75-3.38-1.1-2.47-.6-3.77-.87-2.66-.43-4-.65-2.75-.19-4.12-.26-2.68,0-4,.11a35.55,35.55,0,0,0-3.66.45c-1.19.16-2.22.47-3.2.67a28,28,0,0,0-4.46,1.65A11.43,11.43,0,0,0,1081.87,613.74Z" transform="translate(0 5)"/><path class="cls-42" d="M1153.35,616.85a14.78,14.78,0,0,0,4.76-1.84,17.65,17.65,0,0,0,2-1.32,15.11,15.11,0,0,0,1.84-1.74,12.92,12.92,0,0,0,2.64-4.4,11.85,11.85,0,0,0,.5-2.42c0-.81,0-1.6,0-2.38s-.36-1.46-.56-2.14a13,13,0,0,0-2.65-4.36,8.42,8.42,0,0,0-.84-.88s0,.4,0,1.08a26.82,26.82,0,0,1,.07,2.71,14.75,14.75,0,0,1,0,1.76c0,.61-.09,1.23-.11,1.88s-.21,1.3-.31,2-.29,1.33-.56,2a19,19,0,0,1-1.7,3.77,27.29,27.29,0,0,1-2.18,3.19A37.46,37.46,0,0,1,1153.35,616.85Z" transform="translate(0 5)"/><path class="cls-42" d="M1164.64,621.42s-.12-.19-.37-.55a7.37,7.37,0,0,0-1.37-1.45,17,17,0,0,0-7-3.67,26,26,0,0,0-5.73-.94,36.57,36.57,0,0,0-6.69.23c-.53.12-1,.15-1.64.3a12.19,12.19,0,0,0-1.91.61,11.15,11.15,0,0,0-3.22,1.87,8.65,8.65,0,0,0-3,5.48c-.43,3.84,1.31,7.42,3.82,10.26a20.54,20.54,0,0,0,9.5,5.84,20,20,0,0,0,4.79.83,21.6,21.6,0,0,0,3.73-.11,24.71,24.71,0,0,0,3.07-.6h-.83c-.52,0-1.29,0-2.26,0a20.35,20.35,0,0,1-3.4-.48,18.92,18.92,0,0,1-11.24-7,13.07,13.07,0,0,1-2.13-4.08,8.82,8.82,0,0,1-.51-4.34,6,6,0,0,1,1.87-3.65,6.83,6.83,0,0,1,1.91-1.18c.37-.18.69-.23,1-.38s1-.22,1.47-.35c.7-.11,1.86-.29,2.75-.38s1.87-.17,2.76-.17a31.87,31.87,0,0,1,5.07.24,24.29,24.29,0,0,1,7.15,2.19A13.62,13.62,0,0,1,1164.64,621.42Z" transform="translate(0 5)"/><path class="cls-45" d="M1137.53,619.77c-4,5.34,6.59,11.8,25.31,6.59s6,15.91-13.85,12.68S1136.21,621,1137.53,619.77Z" transform="translate(0 5)"/><g class="cls-46"><path class="cls-25" d="M1151.17,618.9c2.09.87,2.8,2.47,1.43,4s-3.63,2-5.81,2.25c-3.4.45-7.71-3.36-4.62-5.48C1144.3,618.17,1148.66,617.81,1151.17,618.9Z" transform="translate(0 5)"/></g><path class="cls-47" d="M1449.73,399s-.34-.52-.94-1.51-1.45-2.47-2.72-4.31a147.54,147.54,0,0,0-11.22-14.73c-2.53-3-5.41-6.11-8.65-9.37s-6.71-6.63-10.59-9.95-8-6.79-12.41-10.05-9.06-6.49-13.89-9.59-9.91-6-15-8.67a164.43,164.43,0,0,0-15.86-7.21,101.48,101.48,0,0,0-16.33-5c-5.48-1.13-11.19-1.84-16.74-.51-2.72.65-5.27,2.14-6.42,3.93a8.33,8.33,0,0,0-1.36,5.08,17.79,17.79,0,0,0,2.35,7.42,33.62,33.62,0,0,0,2.71,4.34c.7,1,1,1.46,1,1.46s-.19-.55-.58-1.61a46.76,46.76,0,0,1-1.43-4.57,18.11,18.11,0,0,1-.55-6.94,6.51,6.51,0,0,1,1.64-3.53,7,7,0,0,1,4.09-1.87c3.63-.54,8.4.3,13.14,1.6a114.73,114.73,0,0,1,14.48,5.37c4.89,2.14,9.72,4.7,14.62,7.3s9.63,5.51,14.27,8.49,9.28,6,13.65,9.13,8.62,6.21,12.6,9.35,7.77,6.17,11.26,9.14,6.78,5.81,9.73,8.5c5.92,5.33,10.65,9.93,13.94,13.18S1449.73,399,1449.73,399Z" transform="translate(0 5)"/><path class="cls-47" d="M1319.12,347.19s-.31-.29-.85-.83S1317,345,1315.8,344a82,82,0,0,0-10-7.62c-2.22-1.46-4.67-3-7.42-4.52s-5.64-3.1-8.8-4.55-6.46-3-10-4.28-7.14-2.58-10.8-3.77-7.51-2.1-11.34-2.88a90.24,90.24,0,0,0-11.5-1.75,51.67,51.67,0,0,0-11.19,0,23.89,23.89,0,0,0-9.68,2.86c-.6.41-1.26.8-1.77,1.23s-.92,1-1.35,1.43a9,9,0,0,0-1.41,2.91,6.59,6.59,0,0,0-.35,2.6,7.81,7.81,0,0,0,.21,2.16,12,12,0,0,0,.89,2.9l.41,1a9.9,9.9,0,0,0-.08-1,19.94,19.94,0,0,1,0-2.92,9.8,9.8,0,0,1,.32-2,7.46,7.46,0,0,1,.84-2.21,8.53,8.53,0,0,1,4.36-4,23.13,23.13,0,0,1,8.08-1.6,55.33,55.33,0,0,1,9.94.57c3.46.41,7,1.2,10.57,2s7.14,1.84,10.72,2.89,7.06,2.22,10.44,3.47,6.74,2.49,9.89,3.8,6.18,2.63,9,3.91,5.47,2.57,7.87,3.8,4.55,2.36,6.44,3.42,3.48,2,4.86,2.79C1317.6,346.27,1319.12,347.19,1319.12,347.19Z" transform="translate(0 5)"/><path class="cls-47" d="M1212.34,332.56a60.65,60.65,0,0,0-9.95-6.85c-1.62-.94-3.43-1.88-5.4-2.84s-4.14-1.89-6.49-2.75a66,66,0,0,0-7.53-2.27,54.53,54.53,0,0,0-8.54-1.23c-1.49-.05-3,.05-4.54.12a45.68,45.68,0,0,0-4.56.82l-.94.27-1.16.43a15.13,15.13,0,0,0-2.09,1.07,8,8,0,0,0-3,3.12,7.06,7.06,0,0,0,.3,6.43,17.23,17.23,0,0,0,3.19,4.57,37.81,37.81,0,0,0,6.5,5.59c1.75,1.21,2.86,1.82,2.86,1.82s-.75-.88-1.9-2.36a59.46,59.46,0,0,1-4.37-6.28,19.64,19.64,0,0,1-1.89-4.23,5,5,0,0,1,.31-4,4.33,4.33,0,0,1,1.54-1.37c.39-.15.79-.37,1.18-.5l.6-.19.93-.25c.92-.24,2.14-.32,3.19-.52,1.17,0,2.31-.05,3.49,0a49.69,49.69,0,0,1,7.18.94c2.4.49,4.78,1.05,7,1.71s4.44,1.35,6.47,2.06,4,1.41,5.74,2.09c3.55,1.33,6.49,2.5,8.56,3.36Z" transform="translate(0 5)"/><path class="cls-47" d="M1224.62,410.09l-1.21,2.74c-.78,1.74-1.89,4.19-3.32,7.06a71.34,71.34,0,0,1-5.74,9.41,33.74,33.74,0,0,1-4.17,4.6,18.14,18.14,0,0,1-5.37,3.45,14.86,14.86,0,0,1-3.11.94l-1.59.2h-.84l-.43,0h-.23c.11,0-.31,0,.27,0h-.08l-.11,0-2-.19c-.31-.05-.71-.05-1-.11L1195,438c-.42-.15-.9-.2-1.34-.37l-1.38-.58a13.54,13.54,0,0,1-4.31-3.49,20,20,0,0,1-2.66-4.22,39.06,39.06,0,0,1-2.4-7.14c-.42-1.79-.57-2.84-.57-2.84a20.35,20.35,0,0,0-.66,2.87,22.07,22.07,0,0,0,.23,7.71,15.27,15.27,0,0,0,2,5.17,14.34,14.34,0,0,0,5.14,5.12l2,1a18.17,18.17,0,0,0,2.37.81l1.24.34c.42.08.71.09,1,.15l2,.26.15,0h.06l.35,0h2.22c.83-.07,1.68-.14,2.53-.26a23.05,23.05,0,0,0,4.75-1.33,23.86,23.86,0,0,0,7-4.7,27.42,27.42,0,0,0,4.33-5.54,38,38,0,0,0,4.3-10.47A35.54,35.54,0,0,0,1224.62,410.09Z" transform="translate(0 5)"/><path class="cls-47" d="M1333.4,417.77a90.6,90.6,0,0,0,1.72,16.3,104.6,104.6,0,0,0,4.34,16.51,86,86,0,0,0,8.79,18.34,59.38,59.38,0,0,0,7.12,8.63,37.31,37.31,0,0,0,10,6.87,26,26,0,0,0,6.2,2.11,14.58,14.58,0,0,0,7.26-.28,9.88,9.88,0,0,0,4.8-3.45,13.81,13.81,0,0,0,2-3.9,24.73,24.73,0,0,0,1.09-6.82c0-2-.14-3.77-.26-5.2a35.3,35.3,0,0,0-.77-4.48s-.06,1.65-.39,4.48a35.94,35.94,0,0,1-2.93,11.31c-1,2.12-2.78,4.42-5.23,5.06s-5.78-.44-8.83-2a31.82,31.82,0,0,1-8.17-6.23,50,50,0,0,1-6.3-8,110.15,110.15,0,0,1-9.07-17.45c-2.42-5.76-4.41-11.22-6.09-15.92C1335.39,424.15,1333.4,417.77,1333.4,417.77Z" transform="translate(0 5)"/><path class="cls-47" d="M1259.45,401.45a84.24,84.24,0,0,0,8,13.5c1.43,1.95,3,4.09,4.77,6.25s3.73,4.47,6,6.71a66.59,66.59,0,0,0,16.78,12.8,34.21,34.21,0,0,0,12.09,3.71,28.18,28.18,0,0,0,3.44.11c.64,0,1,0,1.84-.11l1.43-.22A20.68,20.68,0,0,0,1320,442a16,16,0,0,0,6.74-7.29,22.52,22.52,0,0,0,2-7.29,36.39,36.39,0,0,0-.38-10.8,33.28,33.28,0,0,0-1-4s0,1.49-.27,4a51.43,51.43,0,0,1-1.93,10.37,28.17,28.17,0,0,1-2.78,6.38,15,15,0,0,1-5.66,5.38,15.21,15.21,0,0,1-4,1.25l-1.43.14c-.13,0-.71.06-1,.07a15,15,0,0,1-2.4-.13,29.32,29.32,0,0,1-9.51-3.07,54.88,54.88,0,0,1-8.51-5.37c-2.66-2-5.15-4-7.45-6.13s-4.52-4.13-6.49-6.16-3.85-3.92-5.54-5.72C1263.7,406.44,1259.45,401.45,1259.45,401.45Z" transform="translate(0 5)"/><path class="cls-47" d="M1004.43,413.14s-2.07-.07-5.67.11a138.71,138.71,0,0,0-14.93,1.49,121.88,121.88,0,0,0-20.42,4.84c-7.22,2.37-14.63,5.8-20.53,10.56-.73.66-1.45,1.18-2.13,1.89s-1.25,1.16-1.89,1.89a32.52,32.52,0,0,0-3.27,4.18,24.27,24.27,0,0,0-3.7,8.93,17,17,0,0,0,.61,8.78,14.49,14.49,0,0,0,5.11,7,15.8,15.8,0,0,0,8.28,3,19.83,19.83,0,0,0,6.76-.73,22.79,22.79,0,0,0,3.77-1.48c.78-.39,1.2-.62,1.2-.62l-1.35.41a29.66,29.66,0,0,1-3.94.84,19.34,19.34,0,0,1-6.05-.09,12.2,12.2,0,0,1-6.06-3,11.82,11.82,0,0,1-3.31-6,16.25,16.25,0,0,1,.27-7.47,23,23,0,0,1,3.67-7.61,22.59,22.59,0,0,1,2.92-3.54,19.42,19.42,0,0,1,1.76-1.75c.53-.51,1.27-1.06,1.85-1.58,5.11-4.24,11.83-7.42,18.4-10a162.16,162.16,0,0,1,19-5.9c5.76-1.42,10.69-2.45,14.16-3.13S1004.43,413.14,1004.43,413.14Z" transform="translate(0 5)"/><path class="cls-47" d="M1035.73,389.67a73.3,73.3,0,0,0-12.51-4.29,92.75,92.75,0,0,0-13.93-2.51,69.38,69.38,0,0,0-16.75.23,42.54,42.54,0,0,0-8.35,2l-2.05.75c-.56.27-1.08.48-1.81.85a14.32,14.32,0,0,0-3.43,2.46,7,7,0,0,0-2.28,6.49,9.34,9.34,0,0,0,3.12,5.11,20.05,20.05,0,0,0,8.6,4.39,22.34,22.34,0,0,0,2.8.47l1,.07a21,21,0,0,1-3.18-1.41,18.07,18.07,0,0,1-6.13-5.06,6.92,6.92,0,0,1-1.42-3.88,4.69,4.69,0,0,1,1.86-3.63,11.05,11.05,0,0,1,2.28-1.38c.37-.2,1-.45,1.56-.69l1.55-.55a53.2,53.2,0,0,1,7.09-1.62,84.78,84.78,0,0,1,15.06-.73c4.94.16,9.58.61,13.59,1C1030.34,388.72,1035.73,389.67,1035.73,389.67Z" transform="translate(0 5)"/><path class="cls-47" d="M1095,415.56l-6.25,6.75c-1.9,2-4.16,4.23-6.67,6.48a42.87,42.87,0,0,1-8.67,6.09,22.27,22.27,0,0,1-5,1.83,17.55,17.55,0,0,1-5.09.43,9.45,9.45,0,0,1-7.13-3.79,18.35,18.35,0,0,1-2.79-5.26,16.32,16.32,0,0,1-.65-2.19,9.9,9.9,0,0,0-.53,2.27,12.14,12.14,0,0,0,.83,6.18,10,10,0,0,0,3,4,13.66,13.66,0,0,0,6.34,2.66,23.51,23.51,0,0,0,7.58-.08,26.17,26.17,0,0,0,6.9-2.3,33.7,33.7,0,0,0,9.58-7.42,37.67,37.67,0,0,0,5.4-7.64A28.49,28.49,0,0,0,1095,415.56Z" transform="translate(0 5)"/><path class="cls-16" d="M1344.7,698.75c-5,14.29,2.16,29.43,13.53,41a90.28,90.28,0,0,0,11.32,9.76c7.24,5.13,15.53,10.45,26.37,9.46,18.65-1.74,27-21.42,28.17-32.92,1.53-13.81-9-25.95-20.41-36.19-6.16-5.56-13.6-9.84-23.47-10.75-9-.86-19.72,1.33-26,6.5A29.56,29.56,0,0,0,1344.7,698.75Z" transform="translate(0 5)"/><path class="cls-15" d="M1361.69,697.29c-5.41,7.52-5.64,15.78-3.22,24,4.37,14.72,16.91,32.94,34.87,37.75.86,0,1.71,0,2.58,0,18.65-1.74,27-21.42,28.17-32.92a23.26,23.26,0,0,0-.21-6.83l-.39-.21a1.13,1.13,0,0,1-.09-2c-2.63-10.11-10.93-19.21-19.72-27.13-.21-.17-.44-.39-.66-.56a30.88,30.88,0,0,0-4.88-2.23C1385.16,682.35,1368.3,688.16,1361.69,697.29Z" transform="translate(0 5)"/><path class="cls-48" d="M1224.06,522.41c8.91-.23,17.6-.35,26.48.17a64.63,64.63,0,0,1,27.29,7.87c1.12-.49,1.91-1.09,1.91-1.64-.3-9.45-8.8-13.09-25.07-15.93-23.67-4.15-45.85-.94-66-11.55C1161.74,522.81,1212.08,522.74,1224.06,522.41Z" transform="translate(0 5)"/><path class="cls-48" d="M1182,520.53c-2.24-2.14-6.13-3.11-8.68-5.17a24.28,24.28,0,0,1-3.33-3.57c-.78-1-.85-2-1.74-2.89-.46-.45-1.13.52-1.11.8.32,3-1,6.12,1.54,9S1175,525,1180.14,524C1181.71,523.63,1183.1,521.57,1182,520.53Z" transform="translate(0 5)"/><path class="cls-48" d="M1116.14,522.58a12.3,12.3,0,0,1-.81,5.14c-.83,2,1.33,4.43,3.63,2.16,2.61-2.56,1.39-6.46-.23-9.13C1117.78,519.2,1116.14,522,1116.14,522.58Z" transform="translate(0 5)"/><path class="cls-49" d="M1302.25,831.87l-5-8.14s-74,32.1-88.16,75.5c0,0,13.78-.51,38.92-8.24S1306.78,851.29,1302.25,831.87Z" transform="translate(0 5)"/><path class="cls-13" d="M1468.53,876.34c1.9,2.68,35.51,77.93-72.83,99.22s-186.64-76.33-186.64-76.33,66.53-19.56,88.16-75.5L1395.7,887l41.08-4.78Z" transform="translate(0 5)"/><path class="cls-50" d="M1468.53,876.34l-31.75,5.87L1395.7,887l-98.48-63.26c-6.58,17-17.32,30.67-29.08,41.43a66.69,66.69,0,0,1,7.22,1.2c11.36,2.55,22.26,5.95,33.2,9.19,10.77,3.2,21.57,6.39,32.21,9.85q14.2,4.14,28.28,8.4c-6.41-7.83-19.14-25.77-17.36-24.71,24.8,14.73,99.64,67.47,91.2,75.53-9.28,8.91-26.12,15.17-40.58,18.07a298.47,298.47,0,0,1-66.48,5,160.24,160.24,0,0,1-57.76-12.49c31.42,17.13,71.82,29.38,117.63,20.36C1504,954.27,1470.43,879,1468.53,876.34Z" transform="translate(0 5)"/><path class="cls-51" d="M1432.72,905a108.1,108.1,0,0,0,12.06,22.54c5.6-5,5.35-13.15,6.85-19.15,2.42-9.8,4.21-19.53,2.23-29.33l-17.08,3.17-7.85.91C1428.28,890.47,1429.77,897.71,1432.72,905Z" transform="translate(0 5)"/><path class="cls-48" d="M1106,516c-17.46,12.82-54.29,15.46-54.56,35.86l.15,0A159.54,159.54,0,0,1,1094.93,536c8.29-1.6,14-5.38,16.5-11C1111.89,521.26,1111,517.84,1106,516Z" transform="translate(0 5)"/><path class="cls-12" d="M1395.7,887s33.4,17.65,44.52,38.63C1440.22,925.62,1410.11,896.26,1395.7,887Z" transform="translate(0 5)"/><path class="cls-21" d="M1200,759.92c-5.66-6.94-10.06-9.1-13.37-11.93-15.49,6.38-59.73,20.13-68.89,24.73-.19,8.89,7.09,27.65,11.78,27.19,21-5.48,60.72-13.61,83.07-19.58-2.15-5.17-3.4-8.49-6.51-13C1204.23,764.81,1202,762.38,1200,759.92Z" transform="translate(0 5)"/><g class="cls-52"><path class="cls-21" d="M1206.31,782c2.21-.58,4.31-1.09,6.28-1.63-2.15-5.17-3.4-8.49-6.51-13-1.85-2.56-4.07-5-6.08-7.45-5.66-6.94-10.06-9.1-13.37-11.93-2.34,1-5.4,2.13-8.88,3.39C1191.34,759.34,1200.91,769.88,1206.31,782Z" transform="translate(0 5)"/></g><path class="cls-25" d="M1126.57,800.35s-16.15-.88-20.72-15.2S1090,681,1090,681l36.68,1.67s26.78,91.83,21.85,104.21S1126.57,800.35,1126.57,800.35Z" transform="translate(0 5)"/><path class="cls-21" d="M1116,696.81c4.35-.59,9.55-1,14-2.16-2.06-7.31-3.39-11.94-3.39-11.94L1090,681s1,7.41,2.38,18.29C1100.29,700,1107.93,698,1116,696.81Z" transform="translate(0 5)"/><path class="cls-21" d="M1127.29,772.72c-9.78,0-17,3-22.6,7.84.44,1.91.79,3.49,1.16,4.59,4.57,14.32,20.72,15.2,20.72,15.2s17-1,22-13.43c.66-1.65.74-4.7.42-8.75A49.81,49.81,0,0,0,1127.29,772.72Z" transform="translate(0 5)"/><path class="cls-25" d="M1085.24,694.33c-14.42-1-30.31-5.25-40.59-13.8,0-.06-.11-.07-.18-.1a36.72,36.72,0,0,1-9.61-14.43c-5-13.72-6.43-18.64,1.54-29.55s16.43-8.91,13.21,7.14c9.1-13.65,26.17-20.31,23.43-12.46,7.49-8.22,16.07-4.86,15.89,0,11.5-11.9,17.22-1.71,13.17,6.15s-6.39,20.77,5.75,26.12c20.32,8.28,32,19.18,21.91,27.65C1115.45,693.89,1099.77,695.36,1085.24,694.33Z" transform="translate(0 5)"/><path class="cls-53" d="M1050.5,642.1a15.13,15.13,0,0,0-2.72,4.46,17.66,17.66,0,0,0-.7,10.8c.23,1,.69,1.93,1,2.9s1,1.77,1.43,2.64,1.17,1.61,1.71,2.35a19.56,19.56,0,0,0,1.88,2,24.12,24.12,0,0,0,3.17,2.65c.82.56,1.29.91,1.29.91s-.28-.46-.85-1.2c-.27-.36-.63-.8-1-1.29s-.73-1.11-1.16-1.74a24.3,24.3,0,0,1-1.36-2l-1.27-2.33a31,31,0,0,1-2-5.22,26.8,26.8,0,0,1-.79-5.37,28.28,28.28,0,0,1,.28-4.77A20,20,0,0,1,1050.5,642.1Z" transform="translate(0 5)"/><path class="cls-53" d="M1071.44,634.26a10.73,10.73,0,0,0-1.37,1.2,21.88,21.88,0,0,0-2.72,3.54,19.42,19.42,0,0,0-2.32,5.56,23.83,23.83,0,0,0-.66,6.64,31,31,0,0,0,1.3,6.56,29.23,29.23,0,0,0,2.5,5.43,37.47,37.47,0,0,0,2.48,3.63c.66.86,1.07,1.33,1.07,1.33a10.75,10.75,0,0,0-.51-1.5,32.59,32.59,0,0,1-1.41-3.83c-.3-.82-.57-1.68-.88-2.56s-.46-1.9-.72-2.9-.36-2-.56-3.06a28.42,28.42,0,0,1-.32-3.2,26.13,26.13,0,0,1,0-3.19c.13-1,.08-2.07.31-3.09a28.23,28.23,0,0,1,1.34-5.4,27.61,27.61,0,0,1,1.64-3.78A15.27,15.27,0,0,1,1071.44,634.26Z" transform="translate(0 5)"/><path class="cls-53" d="M1089.41,631.55a7.89,7.89,0,0,0-1.08,1.07,11.58,11.58,0,0,0-1.08,1.4,13,13,0,0,0-1.16,1.91,19.41,19.41,0,0,0-1.86,5,12.93,12.93,0,0,0-.61,2.89c-.11,1-.2,2-.28,3a30.9,30.9,0,0,0,.29,5.89,18.77,18.77,0,0,0,1.07,5.06c.89,2.92,1.68,4.81,1.68,4.81s.11-2,0-4.95c0-.75-.12-1.52-.17-2.4s0-1.71,0-2.62a22.12,22.12,0,0,0,0-2.82,16.44,16.44,0,0,1,.1-2.89,48.36,48.36,0,0,1,.51-5.67c.16-.91.2-1.8.39-2.6s.41-1.59.56-2.32.41-1.35.56-2a8.58,8.58,0,0,1,.56-1.47A7.93,7.93,0,0,1,1089.41,631.55Z" transform="translate(0 5)"/><path class="cls-25" d="M1229.41,821s-78.29-62.72-120.31-35-30.47,228-30.47,228,18.1,8.49,46.32,5.85l26.74-169.19,30.83,20.35S1214.49,852.45,1229.41,821Z" transform="translate(0 5)"/><path class="cls-21" d="M1137.19,874.48c-4.21,24-7.24,48.18-10.87,72.27-1.85,12.17-2.73,24.54-4.93,36.63-1,5.52-2,13.38-8.67,16.9-4.71,2.51-12.49-4.43-16.36-5.26a37.37,37.37,0,0,0-18.5.88c.39,11.24.77,18,.77,18s18.1,8.49,46.32,5.85l26.74-169.19.22.11c-1.2-14.46-4.28-28.76-11.76-42.25C1143.79,830.43,1141,852.59,1137.19,874.48Z" transform="translate(0 5)"/><path class="cls-54" d="M1145.23,1029.34c-.06,5.87-3.42,7.63-7.92,10.27-6.88,4.07-92.1,26.27-163.48,5.21-2.86-.84-4.05-5.27-2.37-10.52,18,6.06,48.42,12.93,90,10.35C1105.75,1041.9,1131.92,1034.47,1145.23,1029.34Z" transform="translate(0 5)"/><path class="cls-55" d="M1028.22,1012c21.29-1.61,39.23-2,41.45-3.52,3.16-2.11.8-10,13.75-11.72,14.59-1.27,24.2,10.79,24.2,10.79,17.19.81,20.59-8.44,20.59-8.44s8-1.5,14.12,16.56c2.12,6.3,3,10.58,2.9,13.72-13.31,5.13-39.48,12.56-83.76,15.31-2.32.13-4.62.24-6.87.32C1050.08,1025.19,1038.54,1016.09,1028.22,1012Z" transform="translate(0 5)"/><path class="cls-56" d="M1001,1014.69c9.1-1.22,18.44-2.07,27.22-2.74,10.32,4.14,21.86,13.24,26.38,33-38.1,1.47-66.15-5-83.14-10.67C973.93,1026.62,982.51,1017.18,1001,1014.69Z" transform="translate(0 5)"/><g class="cls-46"><path class="cls-37" d="M1086,1021.68c.08,0,.17,0,.27-.07.79-.24,1.18-.9.85-1.5-6.39-11.69-16.78-12.8-17.21-12.82-.87-.08-1.66.35-1.74,1s.45,1.21,1.33,1.28c.37.07,9,1.07,14.7,11.41A1.76,1.76,0,0,0,1086,1021.68Z" transform="translate(0 5)"/><path class="cls-37" d="M1074.49,1024.7c.8-.11,1.34-.72,1.21-1.32-2.82-11.38-13.21-14.57-13.64-14.71a1.84,1.84,0,0,0-2.07.66c-.31.57.09,1.25.91,1.48h0a18.44,18.44,0,0,1,11.7,13,1.6,1.6,0,0,0,1.85,1Z" transform="translate(0 5)"/><path class="cls-37" d="M1063.62,1025.27c.82-.14,1.38-.74,1.22-1.37-2.58-10.12-12.9-14.27-13.34-14.44a1.87,1.87,0,0,0-2.12.45c-.43.59-.13,1.28.63,1.6.09,0,9.42,3.81,11.72,12.85a1.61,1.61,0,0,0,1.84.91Z" transform="translate(0 5)"/></g><path class="cls-57" d="M1175.59,788.72c-20.13,9.31-29,32.49-32.46,48.17-3.58,16.27-4.22,32.76-4.24,49.24,0,11.91-.88,24.12,1.51,36l11.29-71.51,30.83,20.35s32-18.49,46.89-50C1229.41,821,1204.69,801.17,1175.59,788.72Z" transform="translate(0 5)"/><path class="cls-25" d="M1294,831.2s-78.29-62.73-120.34-35-30.43,228-30.43,228,18.08,8.49,46.29,5.85l26.77-169.19,30.81,20.37S1279.06,862.67,1294,831.2Z" transform="translate(0 5)"/><path class="cls-21" d="M1201.76,884.73c-4.2,24-7.24,48.16-10.88,72.23-1.85,12.18-2.68,24.55-4.9,36.66-1,5.51-2,13.36-8.67,16.91-4.72,2.51-12.48-4.43-16.36-5.26a37.14,37.14,0,0,0-18.48.85c.34,11.25.75,18,.75,18s18.08,8.49,46.29,5.85l26.77-169.19.19.12c-1.19-14.46-4.28-28.75-11.74-42.24C1208.36,840.69,1205.61,862.83,1201.76,884.73Z" transform="translate(0 5)"/><path class="cls-54" d="M1209.85,1039.56c-.1,5.89-3.48,7.64-8,10.28-6.88,4.08-92.1,26.27-163.48,5.22-2.86-.85-4-5.29-2.37-10.52,18,6.07,48.41,12.9,90,10.34C1170.31,1052.13,1196.48,1044.73,1209.85,1039.56Z" transform="translate(0 5)"/><path class="cls-55" d="M1092.83,1022.18c21.26-1.61,39.19-2,41.42-3.52,3.17-2.08.8-10,13.75-11.73,14.56-1.24,24.21,10.82,24.21,10.82,17.19.79,20.57-8.45,20.57-8.45s8-1.49,14.12,16.54c2.16,6.3,3,10.58,2.95,13.72-13.37,5.17-39.54,12.57-83.8,15.32-2.32.12-4.62.24-6.88.32C1114.65,1035.42,1103.1,1026.31,1092.83,1022.18Z" transform="translate(0 5)"/><path class="cls-56" d="M1065.57,1024.92c9.09-1.23,18.43-2.08,27.26-2.74,10.27,4.13,21.82,13.24,26.34,33-38.09,1.47-66.14-5-83.13-10.66C1038.5,1036.85,1047.11,1027.41,1065.57,1024.92Z" transform="translate(0 5)"/><g class="cls-46"><path class="cls-37" d="M1150.56,1031.9a.65.65,0,0,0,.25-.05c.79-.24,1.23-.92.87-1.51-6.41-11.71-16.81-12.77-17.23-12.83a1.59,1.59,0,0,0-1.76,1c-.11.61.46,1.21,1.33,1.3.39,0,9,1.06,14.72,11.39A1.71,1.71,0,0,0,1150.56,1031.9Z" transform="translate(0 5)"/><path class="cls-37" d="M1139.08,1035c.82-.14,1.34-.72,1.19-1.35-2.81-11.36-13.2-14.56-13.62-14.71a1.82,1.82,0,0,0-2.05.65c-.36.61,0,1.28.86,1.52h0a18.47,18.47,0,0,1,11.73,13,1.6,1.6,0,0,0,1.82.93Z" transform="translate(0 5)"/><path class="cls-37" d="M1128.19,1035.49c.83-.12,1.37-.72,1.22-1.34-2.57-10.14-12.88-14.3-13.35-14.47a2,2,0,0,0-2.13.48,1.07,1.07,0,0,0,.65,1.59c.09,0,9.44,3.82,11.72,12.82a1.57,1.57,0,0,0,1.83.92Z" transform="translate(0 5)"/></g><path class="cls-58" d="M1293.76,579.91c-.83-1.77-3-3-6.68-3a30,30,0,0,0-12.63,3.05c-3.61,1.75-10,6.32-4.83,9.57,1.76,1.11,4.68,1.37,6.9,1.44,5.4.16,11.76-1.68,15.26-4.75C1294,584.27,1294.7,581.79,1293.76,579.91Z" transform="translate(0 5)"/><path class="cls-37" d="M1279.3,582.5a2.43,2.43,0,0,0-2.41-1.09,10.77,10.77,0,0,0-4.58,1.1c-1.29.64-3.63,2.3-1.76,3.47a5.22,5.22,0,0,0,2.49.53,8.71,8.71,0,0,0,5.51-1.72A2,2,0,0,0,1279.3,582.5Z" transform="translate(0 5)"/><path class="cls-58" d="M1307.89,579.85a6.8,6.8,0,0,0-3.87,1.85c-.77.76-1.43,2.07-.79,3,.76,1.14,2.35,1.33,3.94,1.39,2.93.11,6.66-2.49,7-4.57C1314.64,578.72,1310.25,578.85,1307.89,579.85Z" transform="translate(0 5)"/><path class="cls-37" d="M1309.45,581.88a1.36,1.36,0,0,0-1.3-.58,5.78,5.78,0,0,0-2.4.59c-.69.33-1.9,1.21-.9,1.81a2.84,2.84,0,0,0,1.32.28,4.42,4.42,0,0,0,2.87-.91A1,1,0,0,0,1309.45,581.88Z" transform="translate(0 5)"/><path class="cls-58" d="M1072.21,620.3c4.4-.22,9.11-2.4,11.54-5.08,1-1.09,2.18-2.61,2.07-4-.41-4-7.54-3.18-10.87-2.28a20.38,20.38,0,0,0-8.77,4.62c-1.79,1.73-1.72,3.41-.57,4.64S1069.4,620.42,1072.21,620.3Z" transform="translate(0 5)"/><path class="cls-37" d="M1077.26,613.22a6.55,6.55,0,0,0,4.19-1.82,2.19,2.19,0,0,0,.75-1.45c-.13-1.47-2.74-1.17-3.92-.81a7.21,7.21,0,0,0-3.18,1.65c-.65.64-.63,1.23-.2,1.69A3.09,3.09,0,0,0,1077.26,613.22Z" transform="translate(0 5)"/><path class="cls-58" d="M1057.23,628.82c2,.82,6.14.3,7.46-1.2.72-.78,1.31-1.63.66-2.54a4,4,0,0,0-3.08-1.07,6.25,6.25,0,0,0-3.5,1C1056.75,625.62,1054.52,627.68,1057.23,628.82Z" transform="translate(0 5)"/><path class="cls-37" d="M1061.11,627.08a3.25,3.25,0,0,0,2.18-1,1.1,1.1,0,0,0,.38-.75c-.05-.77-1.41-.6-2.05-.42a3.71,3.71,0,0,0-1.66.86c-.36.34-.33.66-.12.9A1.63,1.63,0,0,0,1061.11,627.08Z" transform="translate(0 5)"/><path class="cls-23" d="M1103.61,515.17c-17,12.11-52.85,14.58-53.11,33.85,0,0,.13,0,.14,0a158,158,0,0,1,42.27-15c8-1.51,13.56-5.09,16-10.41C1109.38,520.17,1108.53,516.93,1103.61,515.17Z" transform="translate(0 5)"/><path class="cls-23" d="M1226,519.78c8.75-.25,17.28-.4,26,.08a62,62,0,0,1,26.7,7.77c1.08-.5,1.91-1.1,1.9-1.64-.26-9.46-8.54-13-24.51-15.82-23.19-4.06-47.68,1.68-67.34-8.84C1169.71,517.38,1214.23,520.17,1226,519.78Z" transform="translate(0 5)"/><path class="cls-37" d="M1249.17,682.32c-5.13-3.41-21.53-2.48-28.82-1.3-5.13.82-17.49,4.8-13,7.82.15.3.54.51,1.25.6a3.65,3.65,0,0,0,1.36,0c7.28-.24,13.38-2,20.53-2.59,5.79-.51,13.58-.29,17.65-2.56C1248.84,683.87,1250,682.88,1249.17,682.32Z" transform="translate(0 5)"/><path class="cls-21" d="M1360.86,677.42s-11.53,48.24,11.57,65.81c20.08,15.28,45.53,9.2,45.53-32.57,0-24.21-10.83-37-10.83-37Z" transform="translate(0 5)"/><path class="cls-59" d="M1460.75,639.51c-1.6-.88-6.79.31-11.28,3.55a300.81,300.81,0,0,0-29.31,23.47c3.64-11.43,27.84-43,20.22-49.18-3.42-2.74-7.23-3.22-11.21-.83a31.15,31.15,0,0,0-9.24,9,54.11,54.11,0,0,0-3.89,6.56c-3.54,7-14,21.18-20.34,28.68,4.41-17.1,15-63.84,1-63.9-10.08,0-14.41,19.1-15.7,24.21s-8,33.73-9.11,38.79c-2-12.79-4-41.6-6.42-54.68-1.45-7.52-8-12.43-15.92-6.81-10.23,7.21,2.88,63.49,0,74.38-16.22,7.93-35.38-11.34-47.17-13.31-8.34-1.38-25,6.93-17.57,17.15,2.48,3.32,23.28,5.83,34.57,12.74,10.89,6.64,19,15,28,22.84,23.11,20.33,66.92,24.87,87-.17a32.09,32.09,0,0,0,6.78-22c-.82-8.62-4.54-12.51,1.45-20,4.33-5.43,9.13-10.62,14.11-15.76C1467.28,643.3,1464.06,641.32,1460.75,639.51Z" transform="translate(0 5)"/><path class="cls-25" d="M1407.49,721.64c-20.19,3.23-43,1.81-57.17-10.8-7.83-7-13.12-15.56-22.37-21.7-10.56-7-21.9-6.81-33.93-10.94-5.45-1.88-9.49-5.41-10.76-9.06a7.93,7.93,0,0,0,1.5,7.44c2.48,3.32,23.28,5.83,34.57,12.74,10.89,6.64,19,15,28,22.84,23.11,20.33,66.92,24.87,87-.17a31.91,31.91,0,0,0,6.3-14C1433.81,708.94,1425.77,718.73,1407.49,721.64Z" transform="translate(0 5)"/><path class="cls-25" d="M1448,660.57c-3.32,3.16-13.88,13.56-20.74,8.34-2.41-1.83-2.72-4.26-2.14-6.75-1.58,1.37-3.23,2.8-5,4.37,1.73-5.39,8-15.29,13.38-24.87-3.8,5.92-8.46,12.85-15.67,16.52-5.46,2.77-13,1.54-14.15-4a20.63,20.63,0,0,1-.39-3.07c-2.74,3.61-5.45,7-7.63,9.62,1.2-4.69,2.9-11.66,4.41-19.26a25.42,25.42,0,0,1-1.15,2.68c-1.94,3.83-6.11,11.34-13.06,11.34-8.14,0-9.11-8.45-9.44-12.76-.07-.74-.11-1.49-.13-2.26-2,8.45-3.95,16.85-4.49,19.36-.8-5.11-1.6-12.79-2.43-21-.21,1.16-.42,2.32-.65,3.48-.81,3.69-2.67,13.86-10.1,14.21-5.37.22-8.34-3.08-10.18-6.61.71,6.63,1.35,12.65,1.41,17.05h.08c5.66-1.12,11.43-1.77,17.25-2.35,9.94-1,20-.22,29.8,1,14.94,1.94,29.43,4.4,42.66,9.37a15.35,15.35,0,0,1,2.84-5c4.33-5.43,9.13-10.62,14.11-15.76.84-.85,1.54-1.61,2.19-2.36A130,130,0,0,0,1448,660.57Z" transform="translate(0 5)"/><path class="cls-22" d="M1394.66,713s-7.09-29.49-44.34-33.19C1350.32,679.83,1386.16,691.46,1394.66,713Z" transform="translate(0 5)"/><g class="cls-60"><path class="cls-61" d="M1352.41,688.91c-3.71-.61-8.29-.16-10.46-2.94-1.6-2-.31-6.38,5.06-4.33,1.23.48,2.4,1,3.63,1.55.53.23,1.21-.35,1.11-.72l0-.19a.3.3,0,0,0-.29-.2c-2.15-2.3-4.08-4.15-8.2-3.45-3.49.59-5.24,4.12-5.66,6.34-.71,3.73,2.65,5.79,7.09,6.6s8.29.86,12.46,2.43c6.78,2.54-4.49,8.83-8,4-.89-1.23-3.85.91-3.05,2,1.6,2.17,6,3.54,9.3,2.76a10.39,10.39,0,0,0,8.11-7.44C1364.66,691.22,1355.9,689.51,1352.41,688.91Z" transform="translate(0 5)"/><path class="cls-61" d="M1380.37,671.86c-2.71-.9-7.32.84-9.85,1.45-5.2,1.25-10.14,2.94-15.08,4.62-1.36.21-2.09,2.32-.73,2.09,4.18-.71,8.1-2.08,12.14-3.16a1.72,1.72,0,0,0,.29-.05c0,7.32,3.7,14.93,5.31,22.11.42,1.85,4.36-.66,3.48-1.78-.26-4.06-2.19-7.93-3.35-11.89-.86-2.85-1.18-6.32-3.2-9,3-.63,6-1.06,9-1.7a1.36,1.36,0,0,0,.87-.16,4.39,4.39,0,0,0,.73-.41C1380.75,673.59,1381.62,672.29,1380.37,671.86Z" transform="translate(0 5)"/><path class="cls-61" d="M1407.3,678.14c-1.43-3.61-5.46-5-10-5-3.89-2.14-11.75.71-14.81,3.1-6.53,5.12-7.08,13.24.69,17.8,8.07,4.76,18.33.37,22.4-5.37C1407.62,685.66,1408.6,681.41,1407.3,678.14Zm-3.64,6.75c-1.1,6-8.84,9.46-16.2,6.62-6-2.25-7.6-8-4.73-12.16,1.5-2.13,6-4.38,10.12-4.68.05.17.17.31.48.42,1.73.51,3.55.79,5.35,1.2a.08.08,0,0,0,.07,0,19.41,19.41,0,0,1,2.5.77C1404.49,678.45,1404.06,682.64,1403.66,684.89Z" transform="translate(0 5)"/><path class="cls-61" d="M1427.26,674.29a36.68,36.68,0,0,0-12-1.61.68.68,0,0,0-.67,0s-.06.05-.08.07a18.89,18.89,0,0,0-5.12.87c-.81.25-1,1-.56,1.15l0,0a31.34,31.34,0,0,0,4.21.79c-.92,2.81-.92,5.78-1.37,8.64-.1.55-.08,1.12-.16,1.68-.82.38-2.57,2.06-1,2.25.27,0,.54,0,.79.08-.19,2.76-.25,5.51-.18,8.28,0,0,0,0,0,0,.21,1.5,3-.19,3.3-1.16.67-2.1.48-4.51.35-6.82,7.55.32,18.15-.48,19-6.64C1434.23,678.14,1431.64,675.81,1427.26,674.29Zm0,10.21a20.89,20.89,0,0,1-4.57.63c-2.72.19-5.42-.07-8.06.14v-.16c.2-3,0-6.22.3-9.31,4.73.49,9.52.78,13.23,3.42C1430.36,680.76,1430.24,683.56,1427.29,684.5Z" transform="translate(0 5)"/></g><path class="cls-22" d="M1373.59,663.06c.93,0,1.85.07,2.76.08,1.81,0,3.65.09,5.44.19,5.3.23,10.57.52,15.82,1a145.58,145.58,0,0,1,29.82,6.11c-8.15-6.18-23.48-8.16-34.24-9.41-13.78-1.6-24.68-.1-37.6,3-.35.07-.81.55-.75.81C1361.11,664.27,1367.2,663,1373.59,663.06Z" transform="translate(0 5)"/></g><g id="Layer_3" data-name="Layer 3"><path class="cls-10" d="M1896,19V1062H24V19H1896m24-24H0V1086H1920V-5Z" transform="translate(0 5)"/></g></g></svg>