<svg xmlns="http://www.w3.org/2000/svg" xmlns:xlink="http://www.w3.org/1999/xlink" viewBox="0 0 1920 1096"><defs><style>.cls-1{mask:url(#mask);filter:url(#luminosity-noclip-4);}.cls-13,.cls-16,.cls-19,.cls-2,.cls-21,.cls-22,.cls-24,.cls-26,.cls-29,.cls-31,.cls-33,.cls-35,.cls-36,.cls-37,.cls-4,.cls-40,.cls-44,.cls-45,.cls-47,.cls-50,.cls-52,.cls-54,.cls-59,.cls-6,.cls-62{mix-blend-mode:multiply;}.cls-2{fill:url(#radial-gradient);}.cls-3{mask:url(#mask-2);filter:url(#luminosity-noclip-5);}.cls-4{fill:url(#radial-gradient-2);}.cls-5{mask:url(#mask-3);filter:url(#luminosity-noclip-6);}.cls-6{fill:url(#radial-gradient-3);}.cls-12,.cls-64,.cls-7{fill:none;}.cls-8{isolation:isolate;}.cls-9{fill:#c9eff4;}.cls-10{fill:#322d63;}.cls-11{fill:#643d98;}.cls-12,.cls-64{stroke:#643d98;stroke-miterlimit:10;}.cls-12{stroke-width:18px;}.cls-13{fill:#7e8284;}.cls-13,.cls-19,.cls-21,.cls-50,.cls-52,.cls-54,.cls-59{opacity:0.4;}.cls-14{fill:#001c37;}.cls-15,.cls-16,.cls-52{fill:#123454;}.cls-16,.cls-26,.cls-31,.cls-35,.cls-36{opacity:0.5;}.cls-17{fill:#311e56;}.cls-18,.cls-19{fill:#503975;}.cls-20,.cls-21,.cls-22{fill:#9559a4;}.cls-22,.cls-33{opacity:0.7;}.cls-23,.cls-59{fill:#c46c45;}.cls-24{fill:#f6ba9e;}.cls-24,.cls-37,.cls-44,.cls-45,.cls-47{opacity:0.6;}.cls-25,.cls-49{fill:#532800;}.cls-27,.cls-36,.cls-47,.cls-50{fill:#dd8b5e;}.cls-28{fill:#3f1c00;}.cls-29,.cls-44{fill:#d38467;}.cls-30{mask:url(#mask-4);}.cls-31{fill:url(#radial-gradient-4);}.cls-32{mask:url(#mask-5);}.cls-33{fill:url(#radial-gradient-5);}.cls-34{mask:url(#mask-6);}.cls-35{fill:url(#radial-gradient-6);}.cls-37{fill:url(#radial-gradient-7);}.cls-38{clip-path:url(#clip-path);}.cls-39,.cls-65{fill:#fff;}.cls-40{fill:#d5d7d8;}.cls-41{fill:#703000;}.cls-42{fill:#8d4423;}.cls-43{fill:#380d00;}.cls-45{fill:url(#radial-gradient-8);}.cls-46{clip-path:url(#clip-path-2);}.cls-48,.cls-49{mix-blend-mode:screen;}.cls-51{fill:#00000e;}.cls-53{fill:#3b596f;}.cls-55{fill:#b35831;}.cls-56{fill:#a1a3a5;}.cls-57{fill:#bd1f37;}.cls-58{fill:#dadbdc;}.cls-60{fill:#d4effc;}.cls-61{fill:#dea67d;}.cls-63{fill:#888a8c;}.cls-64{stroke-width:14px;}.cls-65{font-size:45px;font-family:DejaVuSans-BoldOblique, DejaVu Sans;font-weight:700;font-style:oblique;}.cls-66{filter:url(#luminosity-noclip-3);}.cls-67{filter:url(#luminosity-noclip-2);}.cls-68{filter:url(#luminosity-noclip);}</style><filter id="luminosity-noclip" x="994.75" y="-8739" width="44.63" height="32766" filterUnits="userSpaceOnUse" color-interpolation-filters="sRGB"><feFlood flood-color="#fff" result="bg"/><feBlend in="SourceGraphic" in2="bg"/></filter><mask id="mask" x="994.75" y="-8739" width="44.63" height="32766" maskUnits="userSpaceOnUse"><g class="cls-68"/></mask><radialGradient id="radial-gradient" cx="784.32" cy="1110.25" r="7.49" gradientTransform="matrix(1.48, 2.39, -2.75, 1.29, 2912.69, -2682.54)" gradientUnits="userSpaceOnUse"><stop offset="0" stop-color="#fff"/><stop offset="0.12" stop-color="#fbfbfb"/><stop offset="0.25" stop-color="#efefef"/><stop offset="0.38" stop-color="#dadada"/><stop offset="0.5" stop-color="#bebebe"/><stop offset="0.63" stop-color="#999"/><stop offset="0.76" stop-color="#6c6c6c"/><stop offset="0.88" stop-color="#383838"/><stop offset="1"/></radialGradient><filter id="luminosity-noclip-2" x="996.82" y="-8739" width="29.71" height="32766" filterUnits="userSpaceOnUse" color-interpolation-filters="sRGB"><feFlood flood-color="#fff" result="bg"/><feBlend in="SourceGraphic" in2="bg"/></filter><mask id="mask-2" x="996.82" y="-8739" width="29.71" height="32766" maskUnits="userSpaceOnUse"><g class="cls-67"/></mask><radialGradient id="radial-gradient-2" cx="781.39" cy="1110.59" r="4.75" gradientTransform="matrix(1.48, 2.39, -2.75, 1.29, 2912.69, -2682.54)" gradientUnits="userSpaceOnUse"><stop offset="0" stop-color="#fff"/><stop offset="0.13" stop-color="#fbfbfb"/><stop offset="0.25" stop-color="#efefef"/><stop offset="0.38" stop-color="#dbdbdb"/><stop offset="0.5" stop-color="silver"/><stop offset="0.63" stop-color="#9c9c9c"/><stop offset="0.75" stop-color="#707070"/><stop offset="0.88" stop-color="#3c3c3c"/><stop offset="1" stop-color="#010101"/><stop offset="1"/></radialGradient><filter id="luminosity-noclip-3" x="1003.44" y="-8739" width="24.31" height="32766" filterUnits="userSpaceOnUse" color-interpolation-filters="sRGB"><feFlood flood-color="#fff" result="bg"/><feBlend in="SourceGraphic" in2="bg"/></filter><mask id="mask-3" x="1003.44" y="-8739" width="24.31" height="32766" maskUnits="userSpaceOnUse"><g class="cls-66"/></mask><radialGradient id="radial-gradient-3" cx="786.29" cy="1111.8" r="3.89" gradientTransform="matrix(1.48, 2.39, -2.75, 1.29, 2912.69, -2682.54)" gradientUnits="userSpaceOnUse"><stop offset="0" stop-color="#fff"/><stop offset="0.1" stop-color="#fafafa"/><stop offset="0.23" stop-color="#ececec"/><stop offset="0.36" stop-color="#d4d4d4"/><stop offset="0.5" stop-color="#b3b3b3"/><stop offset="0.65" stop-color="#888"/><stop offset="0.8" stop-color="#535353"/><stop offset="0.95" stop-color="#161616"/><stop offset="1"/></radialGradient><filter id="luminosity-noclip-4" x="994.75" y="602.05" width="44.63" height="39.59" filterUnits="userSpaceOnUse" color-interpolation-filters="sRGB"><feFlood flood-color="#fff" result="bg"/><feBlend in="SourceGraphic" in2="bg"/></filter><mask id="mask-4" x="994.75" y="602.05" width="44.63" height="39.59" maskUnits="userSpaceOnUse"><g class="cls-1"><path class="cls-2" d="M1031.72,609.57s-9.92-9.5-22.39-7.15-24.14,18.93-2.55,34.35S1051.83,627.7,1031.72,609.57Z"/></g></mask><radialGradient id="radial-gradient-4" cx="784.32" cy="1110.25" r="7.49" gradientTransform="matrix(1.48, 2.39, -2.75, 1.29, 2912.69, -2682.54)" gradientUnits="userSpaceOnUse"><stop offset="0" stop-color="#ff476d"/><stop offset="0.15" stop-color="#ff4b70"/><stop offset="0.29" stop-color="#ff577a"/><stop offset="0.44" stop-color="#ff6c8a"/><stop offset="0.59" stop-color="#ff88a1"/><stop offset="0.74" stop-color="#ffadbe"/><stop offset="0.89" stop-color="#ffd9e1"/><stop offset="1" stop-color="#fff"/></radialGradient><filter id="luminosity-noclip-5" x="996.82" y="602.44" width="29.71" height="25.8" filterUnits="userSpaceOnUse" color-interpolation-filters="sRGB"><feFlood flood-color="#fff" result="bg"/><feBlend in="SourceGraphic" in2="bg"/></filter><mask id="mask-5" x="996.82" y="602.44" width="29.71" height="25.8" maskUnits="userSpaceOnUse"><g class="cls-3"><path class="cls-4" d="M1018.73,626.7c-7.24,3.38-16.23,1-20.13-5.24s-1.18-14.1,6-17.48,16.24-1,20.12,5.25S1025.94,623.33,1018.73,626.7Z"/></g></mask><radialGradient id="radial-gradient-5" cx="781.39" cy="1110.59" r="4.75" gradientTransform="matrix(1.48, 2.39, -2.75, 1.29, 2912.69, -2682.54)" gradientUnits="userSpaceOnUse"><stop offset="0" stop-color="#994571"/><stop offset="0.15" stop-color="#9b4974"/><stop offset="0.3" stop-color="#a2557d"/><stop offset="0.44" stop-color="#ad698c"/><stop offset="0.59" stop-color="#bc84a1"/><stop offset="0.73" stop-color="#cfa8bd"/><stop offset="0.88" stop-color="#e7d3de"/><stop offset="1" stop-color="#fff"/></radialGradient><filter id="luminosity-noclip-6" x="1003.44" y="618.04" width="24.31" height="21.11" filterUnits="userSpaceOnUse" color-interpolation-filters="sRGB"><feFlood flood-color="#fff" result="bg"/><feBlend in="SourceGraphic" in2="bg"/></filter><mask id="mask-6" x="1003.44" y="618.04" width="24.31" height="21.11" maskUnits="userSpaceOnUse"><g class="cls-5"><path class="cls-6" d="M1021.36,637.89c-5.92,2.76-13.28.84-16.47-4.28s-1-11.54,5-14.3,13.28-.85,16.46,4.29S1027.26,635.13,1021.36,637.89Z"/></g></mask><radialGradient id="radial-gradient-6" cx="786.29" cy="1111.8" r="3.89" gradientTransform="matrix(1.48, 2.39, -2.75, 1.29, 2912.69, -2682.54)" gradientUnits="userSpaceOnUse"><stop offset="0" stop-color="#3c6a9f"/><stop offset="0.12" stop-color="#416ea1"/><stop offset="0.27" stop-color="#4f79a9"/><stop offset="0.42" stop-color="#678bb4"/><stop offset="0.58" stop-color="#88a4c5"/><stop offset="0.75" stop-color="#b3c5da"/><stop offset="0.93" stop-color="#e7ecf3"/><stop offset="1" stop-color="#fff"/></radialGradient><radialGradient id="radial-gradient-7" cx="1562.53" cy="-1831.51" r="5.63" gradientTransform="matrix(2.59, -1.52, 1.75, 2.25, 175.43, 7134.79)" gradientUnits="userSpaceOnUse"><stop offset="0" stop-color="#ef7b63"/><stop offset="0.12" stop-color="#f2907c"/><stop offset="0.42" stop-color="#f7bfb4"/><stop offset="0.68" stop-color="#fbe2dd"/><stop offset="0.88" stop-color="#fef7f6"/><stop offset="1" stop-color="#fff"/></radialGradient><clipPath id="clip-path"><path class="cls-7" d="M1004.36,613a9.18,9.18,0,0,0-11.07,2.8c-3.33,5-1.65,12.08,1.25,17.06a10.8,10.8,0,0,0,6.21,4.89,13.14,13.14,0,0,0,5.81-.42c.94-.25,1.54-2.23,6.46-5l.37-.8c1.84-4.31,0-9.69-2.86-13.42A16.45,16.45,0,0,0,1004.36,613Z"/></clipPath><radialGradient id="radial-gradient-8" cx="1547.38" cy="-1840.54" r="5.11" xlink:href="#radial-gradient-7"/><clipPath id="clip-path-2"><path class="cls-7" d="M956.33,617.23a8.15,8.15,0,0,0-3.3-.9,7.65,7.65,0,0,0-6.2,3.22c-2.78,4.69-1.18,11.59,1.42,16.48a11.59,11.59,0,0,0,3,3.52,15.6,15.6,0,0,1,8.15.83,9,9,0,0,0,5.15-5c1.53-4.09-.24-9.33-2.75-13A16,16,0,0,0,956.33,617.23Z"/></clipPath></defs><title>ფიზიკური ძალადობა2 </title><g class="cls-8"><g id="Layer_1" data-name="Layer 1"><g id="Layer_1-2" data-name="Layer 1"><rect class="cls-9" x="10" y="15" width="1900" height="1071"/><path class="cls-10" d="M1900,25V1076H20V25H1900m20-20H0V1096H1920Z"/></g><g id="Layer_3" data-name="Layer 3"><path class="cls-10" d="M1896,24V1067H24V24H1896m24-24H0V1091H1920Z"/></g><ellipse class="cls-11" cx="960" cy="553.64" rx="266.84" ry="272.68"/><ellipse class="cls-12" cx="960" cy="550.5" rx="266.84" ry="272.68"/></g><g id="Layer_3-2" data-name="Layer 3"><path class="cls-13" d="M1100.26,783c0,16.29-48.83,29.5-109.09,29.5S882.06,799.32,882.06,783s48.84-29.5,109.11-29.5S1100.26,766.74,1100.26,783Z"/><path class="cls-14" d="M1001,725.72l-1.65-3.17s-24.53,12.53-29.2,29.48c0,0,4.57-.2,12.89-3.22S1002.54,733.31,1001,725.72Z"/><path class="cls-15" d="M1056.11,743.09c.62,1,11.75,30.43-24.13,38.75S970.18,752,970.18,752s22-7.64,29.2-29.48l32.6,24.7Z"/><path class="cls-16" d="M1056.11,743.09c.62,1,11.75,30.43-24.13,38.75S970.18,752,970.18,752s22-7.64,29.2-29.48l32.6,24.7Z"/><path class="cls-14" d="M1032,747.25s11.06,6.89,14.75,15.09C1046.73,762.34,1036.75,750.87,1032,747.25Z"/><path class="cls-17" d="M992.49,711.1C979.62,702.81,979.7,690,979.7,690,994.85,700.33,992.49,711.1,992.49,711.1Z"/><path class="cls-18" d="M1022.68,672.71c6.1,2.74,10.6,9.91-1.43,20.17s-28.76,18.22-28.76,18.22,2.36-10.77-12.79-21.13c0,0,7.57-3.43,17.8-8.61S1015,669.26,1022.68,672.71Z"/><path class="cls-19" d="M1022.68,672.71a11.41,11.41,0,0,0-8.76-.1,39.18,39.18,0,0,0-5,6.17,40.5,40.5,0,0,0-3.64,8.58c-1.71,5.92-3.08,12-2.31,18.11a127.5,127.5,0,0,0,18.25-12.59C1033.28,682.62,1028.78,675.45,1022.68,672.71Z"/><path class="cls-20" d="M1007.59,742.07s7.24,7.26,34,6c24.88-1.19,36.82-5.42,36.82-5.42s-3.26-37.27-18.6-61.63c-12.37-19.66-43.37-22.5-49.5,2.71S1007.59,742.07,1007.59,742.07Z"/><path class="cls-21" d="M1059.81,681c-10.48-16.66-34.35-21.24-45.11-6.89.89,4.06,2.59,8.22,5.83,11,2.48,2.14,6.49,2.23,9.85,0a13,13,0,0,0,2.92-3.53,4,4,0,0,0,.15-.62c.16-.79,1.51-.44,1.39.33-1.48,7.4,5,14.47,10.63,19.25,5.28,4.5,9.35,9.15,12.27,15.11a37.06,37.06,0,0,1,4.08,17.43c-.1,2.49-1,6.12-4,6.89-2.83,1.32-7.51.47-10-.54a65.17,65.17,0,0,1-15.29-9.12c-5.53-4.19-10.94-8.78-17.44-11.82-2.75-1.29-5.52-2.56-8.31-3.73a241.62,241.62,0,0,0,.88,27.24s7.24,7.26,34,6c24.88-1.19,36.82-5.42,36.82-5.42S1075.15,705.36,1059.81,681Z"/><path class="cls-22" d="M1015.71,672.75s6.28-7.63,16.25-7.66c0,0,6.36,15.23-3.44,18.32C1018,686.72,1015.71,672.75,1015.71,672.75Z"/><path class="cls-23" d="M1029.59,661.82l-14.33,4.1c3.16,10.12,7,16.63,13,14.69S1029.59,661.82,1029.59,661.82Z"/><path class="cls-24" d="M1026,670.25a21.7,21.7,0,0,0,4.82-2.67,56.64,56.64,0,0,0-1.24-5.76l-14.33,4.1a62.72,62.72,0,0,0,2.58,7A36.87,36.87,0,0,0,1026,670.25Z"/><path class="cls-25" d="M928.79,615.5a5.05,5.05,0,0,1-5.81-2.21c-2.28-3.69.47-6,.47-6s-6.34,2.2-11-2.2-1-8.89,3.17-10.5c0,0-7,2.62-10.56,1.07s4.62-6.08,4.62-6.08-12,3.14-13.69-9.53c-2-14.57,17.32-19.17,17.32-19.17s-6.67-.21-6.67-6,17.09-7.48,17.09-7.48-4.19-5.93,5.88-10.63,25.53-4.8,25.53-4.8-4.94-1.42-2.23-5.24,14.85-2.09,19.61,1.71c0,0-5.73-3.4-3.59-6.42s16.27-.32,22.74,4.77c0,0-4.08-3.86,2.7-6.46s21.36,2.11,28.17,7.33c0,0-4.36-3.4-.79-6s25.1-3,51.39,29.62c0,0,0-6.64,4.58-7.7s5.59,11.25,3.47,15.74c0,0,10-3.82,11.56,0s-13,5.9-13,5.9A31.14,31.14,0,0,1,1096,577c6.34,9.24.68,10.11-6.15,6.08,0,0,8.84,6.77,10.32,16.07,1.08,6.83-4.46,4.74-8.06.82a25.58,25.58,0,0,1,4.27,14c-.12,8-7.56,3.12-9.59-1.83,0,0,2.35,10.46-4.73,14.19-5.71,3-7.89-1.85-7.89-1.85s1.25,9.85-5.36,11.39c-8.4,1.95-10.42-3.6-10.42-3.6s-8.45,20.56-59.64,19.11S938,619.08,938,619.08a6.13,6.13,0,0,1-6.93,3.35C926.11,621.39,928.79,615.5,928.79,615.5Z"/><g class="cls-26"><path class="cls-25" d="M909.68,589.55s-8.23,4.52-4.62,6.08,10.56-1.07,10.56-1.07c-4.2,1.61-7.85,6.1-3.17,10.5s11,2.2,11,2.2-2.75,2.34-.47,6a5.05,5.05,0,0,0,5.81,2.21s-2.68,5.89,2.3,6.93a6.13,6.13,0,0,0,6.93-3.35s9.51,30.91,60.7,32.37,59.64-19.11,59.64-19.11,2,5.55,10.42,3.6c6.61-1.54,5.36-11.39,5.36-11.39s2.18,4.87,7.89,1.85c7.08-3.73,4.73-14.19,4.73-14.19,2,4.95,9.47,9.81,9.59,1.83a25.58,25.58,0,0,0-4.27-14c3.6,3.92,9.14,6,8.06-.82-1.48-9.3-10.32-16.07-10.32-16.07,6.83,4,12.49,3.16,6.15-6.08a31.14,31.14,0,0,0-16.2-11.79s14.51-2.06,13-5.9-11.56,0-11.56,0c2.12-4.49,1.14-16.79-3.47-15.74s-4.58,7.7-4.58,7.7c-26.29-32.61-47.83-32.2-51.39-29.62s.79,6,.79,6c-6.81-5.22-21.39-9.95-28.17-7.33s-2.7,6.46-2.7,6.46c-6.47-5.09-20.6-7.8-22.74-4.77-1.52,2.15,1,4.5,2.48,5.66-5.28-3.25-16-4.5-18.5-.95-2.71,3.82,2.23,5.24,2.23,5.24s-15.45.09-25.53,4.8-5.88,10.63-5.88,10.63-17.1,1.72-17.09,7.48,6.67,6,6.67,6S894,565.45,896,580C897.71,592.69,909.68,589.55,909.68,589.55Zm-11-16.19c5.24-11.26,22.54-12.46,22.54-12.46s-10-1.55-10.56-5.8,10.62-8,23.42-3.14c0,0-9-3.55-6.61-10s18.51-10.27,36.72-5c0,0-8.12-3.36-7.17-7.83s12.31-2,18.19,3.77c0,0-5.75-5.91-1.18-8.74s16,1.48,19.14,6.48c0,0-2.78-4.89,2.71-7.07s19.9-1.13,30.68,9.58c0,0-4.43-6.79-1.14-9.77,6.22-5.62,34.13,11.12,48.82,33.2,0,0-1.51-9.34,3-8.93s4.53,10,.71,12.88c0,0,10.46-2.84,11-.67.73,2.91-10,4.36-15.1,4.3,0,0,9,2.25,12.2,8.2s-12,2.87-18.61-1.83c0,0,8.88,10.86.95,15.94s-17.64-4.67-17.64-4.67-.62,15-7.31,13.1-12.67-24-12.67-24-.38,8.5-6.62,7.59-17.81-18.56-17.81-18.56,2.93,8.93-2.86,8.92-5.81-5.9-5.81-5.9-1.09,12.8-10.33,12.26-6.91-11.55-6.91-11.55-3.77,7.91-8.36,7.93-3.23-8.83-3.23-8.83S963.19,572.91,958,572s-3.75-7.74-3.75-7.74-4.19,10.61-10.61,11-5.88-5.61-5.88-5.61-8.16,13.39-15.64,13.54-1.86-6.88,5.23-9.09c0,0-8.39.79-17.18,8.12C903.61,587.6,894,583.4,898.63,573.36Z"/></g><path class="cls-27" d="M1066.51,611.38c-7.68,1.66-8,12-8,12-.35-15.63-1-37.48-30.13-60.87-22.86-18.34-68.28-20.54-92.9,5-9.89,10.27-11.23,28.37-2.18,40.73s.88,16.08,5.88,32.39,38.48,40.36,76.23,30.5c30.31-7.93,42.83-33.48,42.83-33.48,4.34,10.41,17,6.25,20.57-7.17S1074.19,609.72,1066.51,611.38Z"/><path class="cls-23" d="M965.26,662a66,66,0,0,0-6-3.91c-2.12-1.37-3.51-3.34-3-5.7.42-2.14,2.17-6.38-.8-7.72a9.53,9.53,0,0,0-5.5-.44c-2.29.42-5.52,1.26-7.55,2.83,4.82,7.21,13.91,14.83,25.61,20A7.1,7.1,0,0,0,965.26,662Z"/><g class="cls-26"><path class="cls-27" d="M933.26,608.26c9,12.36.88,16.08,5.88,32.39s38.48,40.36,76.23,30.5c30.31-7.93,42.83-33.48,42.83-33.48,3,7.18,9.94,7.43,15.14,2.5l-.52,0c-2.08-.31-2.87-2.7-2.9-4.2-.05-2.47,3-5.05,4.37-7,3.34-4.84,1.57-10.4-4.9-11.85-2.49-.56-4-1.79-3.84-4.1a2.57,2.57,0,0,1,.54-1.47c-7.27,2-7.62,11.94-7.62,11.94-.35-15.63-1-37.48-30.13-60.87-22.86-18.34-68.28-20.54-92.9,5C925.55,577.8,924.21,595.9,933.26,608.26Zm131.41,25.5c-.08-1.12-.1-3.31,1.57-3.68,1.52-.34,2.17,1.53,2.56,2.46a.22.22,0,0,1,0,.18,2.45,2.45,0,0,1,.09.72,3.15,3.15,0,0,1-1.42,2.24,1.78,1.78,0,0,1-1.93.13A2.52,2.52,0,0,1,1064.67,633.76ZM935.62,608.7c-2-3.54-8.49-12.33-5.64-15.08s3.09,1.82,9.34,0,9.31-10.53,9.31-10.53.2,5.59,6.46,5.54,8.66-8.85,8.66-8.85-.78,4.07,5.08,4.5,7.69-3.27,7.69-3.27,2.68,8.57,10.34,8.24,12.94-8.83,12.94-8.83,3.13,6.17,7.31,6.34,3.94-4.24,3.94-4.24c5.48,12.43,12.35,13.14,19.32,14.07,7.83,1,18.25,15.23,16.82,33.54-1.77,22.32-31.29,51.78-68.91,39.23-39.78-13.25-39.84-31.28-39.31-44C939.44,613.92,937.62,612.25,935.62,608.7Z"/></g><path class="cls-25" d="M1056.11,619.29c-2.28-6.65-4.13-14.19-4.13-14.19s-2.11,4.5-9.13-3.5-11.16-18.5-11.16-18.5,1.75,7.94-4.94,7.44-18.83-17.43-18.83-17.43,2.23,9.07-2.71,9-5.34-8.17-5.34-8.17-3.38,11.56-13.45,11.25-9.26-12-9.26-12-1.82,8-7.86,8.62-4-8.3-4-8.3-5.27,11.31-10.61,12.14-3.22-8.82-3.22-8.82-8.1,13.07-15.16,13.64-3.45-7.92-3.45-7.92-6.47,7.44-14.55,5.6-2.42-13,9-14c0,0-6.45-5-2.34-11.13s17.34-5,17.34-5-1.55-6.48,5.72-10.61,19.27-.77,19.27-.77a13.65,13.65,0,0,1,12.8-9.85c10.6-.64,11.43,6.81,11.43,6.81s5-6,12.31-3.32a14.33,14.33,0,0,1,8.91,9.43s6.42-5.37,12.32-1.84,6.25,11,6.25,11,12-5.8,17.34,1.74c5.66,8,.59,13.24.59,13.24s8.5,0,8.62,7.25c0,0,4.57-.61,6.94,4.9,3.22,7.5-5.09,14.86-5.09,14.86C1065.16,621,1059.71,629.88,1056.11,619.29Z"/><path class="cls-28" d="M1051.34,586.57s.21.29.62.79a6,6,0,0,1,.67.9c.22.37.51.76.75,1.22a13.11,13.11,0,0,1,.73,1.5c.2.56.44,1.13.6,1.75.09.31.19.6.25.92s.12.65.19,1a14.89,14.89,0,0,1,.2,2,15.74,15.74,0,0,1-.34,3.9c-.07.3-.19.6-.26.89a3.36,3.36,0,0,1-.3.84,8,8,0,0,1-.34.78l-.42.69a4,4,0,0,1-.46.6c-.15.17-.29.36-.44.52-.34.27-.62.54-.89.72-.58.32-.91.52-.91.52l1-.37c.29-.16.63-.38,1-.64a8,8,0,0,0,1.11-1.08l.51-.7c.17-.25.29-.52.46-.8a9.88,9.88,0,0,0,.74-1.79,11.11,11.11,0,0,0,.39-2,12.22,12.22,0,0,0-.16-4.18,10.71,10.71,0,0,0-.55-2,9.88,9.88,0,0,0-.78-1.78,11.45,11.45,0,0,0-.9-1.5,10,10,0,0,0-1-1.17,7.19,7.19,0,0,0-.83-.83Z"/><g class="cls-26"><path class="cls-25" d="M922,575.35a25.6,25.6,0,0,1,5.17-1.29l.13,0c-7.09,2.21-12.73,9.26-5.23,9.09s15.64-13.54,15.64-13.54-.52,6,5.88,5.61,10.61-11,10.61-11S952.73,571,958,572s10.83-9.22,10.83-9.22-1.37,8.85,3.23,8.83,8.36-7.93,8.36-7.93-2.33,11,6.91,11.55,10.33-12.26,10.33-12.26,0,5.89,5.81,5.9,2.86-8.92,2.86-8.92,11.57,17.64,17.81,18.56,6.62-7.59,6.62-7.59,6.28,21.46,12.67,24c9.72,3.89,7.31-13.1,7.31-13.1s7.47,7.5,14.66,5.92c1.38,6.83-5.64,13.06-5.64,13.06,5.44,20.18,0,29.1-3.61,18.51-2.28-6.65-4.13-14.19-4.13-14.19s-2.11,4.5-9.13-3.5-11.16-18.5-11.16-18.5,1.75,7.94-4.94,7.44-18.83-17.43-18.83-17.43,2.23,9.07-2.71,9-5.34-8.17-5.34-8.17-3.38,11.56-13.45,11.25-9.26-12-9.26-12-1.82,8-7.86,8.62-4-8.3-4-8.3-5.27,11.31-10.61,12.14-3.22-8.82-3.22-8.82-8.1,13.07-15.16,13.64-3.45-7.92-3.45-7.92-6.47,7.44-14.55,5.6C911.64,586.56,914.37,578.61,922,575.35Z"/></g><path class="cls-29" d="M1063.33,635.83c-.08-.38-.17-.83-.24-1.36a15.65,15.65,0,0,1-.2-1.76,17.4,17.4,0,0,1-.08-2.09,19.58,19.58,0,0,1,.17-2.37,15.92,15.92,0,0,1,.52-2.54,15,15,0,0,1,1-2.58,10.72,10.72,0,0,1,1.74-2.42,7,7,0,0,1,2.8-1.78,5,5,0,0,1,3.43.05,4.47,4.47,0,0,1,2,1.64,5.66,5.66,0,0,1,.69,1.75,7.28,7.28,0,0,1,.11,1.39,5.88,5.88,0,0,1-.07.88c0,.2,0,.31,0,.31s0-.1-.05-.31-.07-.5-.17-.86a10.68,10.68,0,0,0-.41-1.27,5.94,5.94,0,0,0-.9-1.47,4.08,4.08,0,0,0-1.7-1.17,3.69,3.69,0,0,0-2.31.12,5.59,5.59,0,0,0-2.07,1.47,10.1,10.1,0,0,0-1.47,2.13,12.75,12.75,0,0,0-1,2.37c-.11.35-.22.7-.31,1a8.53,8.53,0,0,1,1,.18,9.41,9.41,0,0,1,1.71.62,6.89,6.89,0,0,1,1.67,1.1,5.57,5.57,0,0,1,.65.73,3.19,3.19,0,0,1,.46.79,2.52,2.52,0,0,1,.24.8,2.39,2.39,0,0,1,0,.75,4.74,4.74,0,0,1-.1.62,3.73,3.73,0,0,1-.18.43,2.66,2.66,0,0,1-.19.38s-.06-.14-.14-.38a3.72,3.72,0,0,1-.13-.45c-.06-.14-.14-.31-.23-.49a3,3,0,0,0-.29-.56,4.53,4.53,0,0,0-.39-.58,6.29,6.29,0,0,0-.49-.58,7.66,7.66,0,0,0-.57-.57,23,23,0,0,0-2.56-1.94l-.64-.42c-.08.31-.15.61-.22.92-.16.78-.28,1.55-.37,2.28s-.18,1.41-.22,2.06c-.1,1.27-.17,2.36-.19,3.1s-.06,1.2-.06,1.2S1063.51,636.56,1063.33,635.83Z"/><g class="cls-30"><path class="cls-31" d="M1031.72,609.57s-9.92-9.5-22.39-7.15-24.14,18.93-2.55,34.35S1051.83,627.7,1031.72,609.57Z"/></g><g class="cls-32"><path class="cls-33" d="M1018.73,626.7c-7.24,3.38-16.23,1-20.13-5.24s-1.18-14.1,6-17.48,16.24-1,20.12,5.25S1025.94,623.33,1018.73,626.7Z"/></g><g class="cls-34"><path class="cls-35" d="M1021.36,637.89c-5.92,2.76-13.28.84-16.47-4.28s-1-11.54,5-14.3,13.28-.85,16.46,4.29S1027.26,635.13,1021.36,637.89Z"/></g><path class="cls-36" d="M1003.42,643s4.4-11,18.84-13.23a22.85,22.85,0,0,0-7.34.13c.6-1.35,2.39-4.63-3-13.37-5.24-8.42-18.14-7.64-21,1.2s2.89,23.46,13.24,21A7,7,0,0,0,1003.42,643Z"/><path class="cls-37" d="M1011.42,634.23c-5.67,4.08-7.74,10-4.63,13.31s10.23,2.61,15.91-1.47,7.74-10,4.63-13.31S1017.09,630.15,1011.42,634.23Zm-.95,7.79a2.6,2.6,0,0,1-.24,2.56,2,2,0,0,1-2.63.76,2.2,2.2,0,0,1-.63-2.8.3.3,0,0,1,.12-.15,1.71,1.71,0,0,1,1-1A1.91,1.91,0,0,1,1010.47,642Zm.26-3.21a.36.36,0,0,1,0,.58,2.07,2.07,0,0,1-.23.58.65.65,0,0,1-1,.18.87.87,0,0,1-.28-.93,1.23,1.23,0,0,1,.24-.38.25.25,0,0,1,0-.12.53.53,0,0,1,.25-.26C1010.13,638.14,1010.81,638.35,1010.73,638.81Z"/><g class="cls-38"><path class="cls-39" d="M1004.36,613a9.18,9.18,0,0,0-11.07,2.8c-3.33,5-1.65,12.08,1.25,17.06a10.8,10.8,0,0,0,6.21,4.89c2.12.59,5.84-.43,7.68-1.28a9.85,9.85,0,0,0,5-5c1.84-4.31,0-9.69-2.86-13.42A16.45,16.45,0,0,0,1004.36,613Z"/><path class="cls-40" d="M992.07,625.23c-.18-4,.92-8.16,5-10.14,5.86-2.86,11.31.71,14.87,5.22a18.38,18.38,0,0,0-1.41-2.17,16.45,16.45,0,0,0-6.17-5.1,9.18,9.18,0,0,0-11.07,2.8c-2.24,3.36-2.2,7.69-1,11.69C992.16,626.73,992.1,626,992.07,625.23Z"/><path class="cls-41" d="M999.7,627.53c2.69,5.39,7.51,8.59,10.79,7.12s3.79-7,1.1-12.43-7.52-8.58-10.8-7.12S997,622.12,999.7,627.53Z"/><path class="cls-42" d="M1000.57,627.08c2.19,4.44,6.17,7.07,8.87,5.87s3.1-5.78.9-10.22-6.18-7.07-8.88-5.86S998.36,622.64,1000.57,627.08Z"/><path class="cls-43" d="M1002.45,620.37c1.77-.88,4.52.78,6.17,3.7s1.52,6-.25,6.89-4.53-.77-6.17-3.7S1000.67,621.25,1002.45,620.37Z"/><path class="cls-39" d="M1003,621.39c.08-1.35-.58-2.43-1.45-2.43s-1.66,1.1-1.74,2.45.55,2.42,1.44,2.42S1002.88,622.74,1003,621.39Z"/><path class="cls-39" d="M1002.06,626.17a.86.86,0,0,0-1.22-.24,1,1,0,0,0,.09,1.31.84.84,0,0,0,1.21.24A1,1,0,0,0,1002.06,626.17Z"/></g><path class="cls-44" d="M1004.77,641.59a5.26,5.26,0,0,1,.34-.71c.12-.22.26-.48.46-.78s.42-.6.65-1,.54-.71.88-1.06.7-.73,1.07-1.11.83-.72,1.24-1.11.9-.72,1.4-1,1-.68,1.47-1,1-.63,1.5-.86l1.44-.76,1.35-.64c.83-.43,1.56-.69,2.06-.94l.78-.38s-.33,0-.89.14l-1,.18a8.18,8.18,0,0,0-1.28.29c-.46.14-1,.28-1.49.45s-1.07.41-1.62.64a13.41,13.41,0,0,0-1.65.83,16.45,16.45,0,0,0-1.61,1c-.53.35-1,.78-1.47,1.16a14.91,14.91,0,0,0-1.25,1.27,10.25,10.25,0,0,0-1,1.31,10.8,10.8,0,0,0-.7,1.26,7.83,7.83,0,0,0-.63,2A4.23,4.23,0,0,0,1004.77,641.59Z"/><path class="cls-36" d="M946.53,641.45a20,20,0,0,1,17,1.7,4.94,4.94,0,0,0-2-2.68s6.34-2.37,5.07-11.82c-1.23-9.13-8.12-15.4-15.14-13.69-6.79,1.67-9.53,8.37-6.42,16.5,2.47,6.48,5,7.64,5,7.64A7.41,7.41,0,0,0,946.53,641.45Z"/><path class="cls-45" d="M955.28,640c-6.12-.54-11.44,2-11.87,5.63s4.16,7.07,10.28,7.63,11.43-2,11.88-5.64S961.4,640.55,955.28,640Zm-5.94,4.23a2.71,2.71,0,0,1-1.89,1.44c-.84.21-2-.11-2.06-.94a2.11,2.11,0,0,1,1.55-2,.46.46,0,0,1,.19,0,1.73,1.73,0,0,1,1.32-.09A1.28,1.28,0,0,1,949.34,644.22Zm2.38-1.82a.4.4,0,0,1-.38.4,2.89,2.89,0,0,1-.54.21c-.33.13-.75-.11-.69-.42a.81.81,0,0,1,.47-.72,1.37,1.37,0,0,1,.4-.09l.1-.07a.58.58,0,0,1,.32,0C951.82,641.69,952.08,642.18,951.72,642.4Z"/><g class="cls-46"><path class="cls-39" d="M956.33,617.23a8.15,8.15,0,0,0-3.3-.9,7.65,7.65,0,0,0-6.2,3.22c-2.78,4.69-1.18,11.59,1.42,16.48a10.49,10.49,0,0,0,5.47,4.91c1.84.63,5-.23,6.61-1a8.36,8.36,0,0,0,4.18-4.6c1.51-4.09-.24-9.33-2.75-13A16,16,0,0,0,956.33,617.23Z"/><path class="cls-40" d="M946,628.56c-.24-3.85.61-7.82,4.1-9.6,5-2.56,9.79,1,12.95,5.51a20.39,20.39,0,0,0-1.26-2.14,16,16,0,0,0-5.43-5.1,8.15,8.15,0,0,0-3.3-.9,7.65,7.65,0,0,0-6.2,3.22c-1.87,3.17-1.75,7.34-.67,11.23C946.07,630,946,629.27,946,628.56Z"/><path class="cls-41" d="M951.49,630.21c1.27,5.58,5.07,9.46,8.52,8.67s5.22-6,4-11.56-5.07-9.47-8.52-8.67S950.24,624.62,951.49,630.21Z"/><path class="cls-42" d="M952.57,630.44c1,4.58,4.17,7.78,7,7.11s4.3-4.91,3.27-9.49-4.18-7.79-7-7.12S951.53,625.84,952.57,630.44Z"/><path class="cls-43" d="M956,624c1.89-.52,4.1,1.54,5,4.59s0,6-1.86,6.47-4.11-1.54-5-4.59S954.1,624.48,956,624Z"/><path class="cls-39" d="M957,625.17c.39-1.25,0-2.4-.79-2.55s-1.84.74-2.23,2-.05,2.39.78,2.55S956.58,626.43,957,625.17Z"/><path class="cls-39" d="M954.88,628.72a.8.8,0,0,0-1.09-.44,1,1,0,0,0-.23,1.26.81.81,0,0,0,1.11.44A1,1,0,0,0,954.88,628.72Z"/></g><path class="cls-44" d="M948.91,640.54l.6-.1c.38,0,.92-.1,1.54-.14.32,0,.66,0,1,0s.73,0,1.13,0c.77,0,1.59.1,2.4.2.41.07.82.11,1.23.19s.8.13,1.17.22l1.12.23,1,.24c.63.13,1.15.28,1.52.37l.6.12a5.43,5.43,0,0,0-.45-.36,11,11,0,0,0-1.31-.83c-.3-.14-.61-.31-1-.46s-.73-.3-1.12-.43a11.4,11.4,0,0,0-1.25-.34c-.43-.13-.88-.17-1.32-.26l-1.36-.1c-.45,0-.89,0-1.33,0a10.69,10.69,0,0,0-1.21.17c-.39.06-.73.19-1.06.26a8.81,8.81,0,0,0-1.48.65A4.08,4.08,0,0,0,948.91,640.54Z"/><path class="cls-44" d="M972.58,641.76a4.45,4.45,0,0,0,1.57-.72,5.69,5.69,0,0,0,.65-.52,5.77,5.77,0,0,0,.61-.68,5.17,5.17,0,0,0,.87-1.72,5.32,5.32,0,0,0,.17-.94c0-.32,0-.63,0-.93s-.12-.57-.18-.84a4.2,4.2,0,0,0-.28-.71,4.07,4.07,0,0,0-.6-1,3.11,3.11,0,0,0-.28-.34s0,.15,0,.42.06.63,0,1.06a5.14,5.14,0,0,1,0,.68c0,.24,0,.48,0,.74s-.07.51-.11.77-.09.52-.18.77a7.46,7.46,0,0,1-.57,1.47,9.14,9.14,0,0,1-.72,1.25C973,641.26,972.58,641.76,972.58,641.76Z"/><path class="cls-44" d="M976.31,643.54a2.12,2.12,0,0,0-.12-.22,2.77,2.77,0,0,0-.45-.56,5.42,5.42,0,0,0-2.33-1.43,7.12,7.12,0,0,0-1.89-.37,10.58,10.58,0,0,0-2.22.09c-.18.05-.33.06-.54.11a4.6,4.6,0,0,0-.63.24,3.83,3.83,0,0,0-1.07.73,3.62,3.62,0,0,0-1,2.14,5.84,5.84,0,0,0,1.26,4,6.75,6.75,0,0,0,3.15,2.28,5.84,5.84,0,0,0,2.82.28,7.42,7.42,0,0,0,1-.23H974a6.83,6.83,0,0,1-.74,0,5.71,5.71,0,0,1-1.13-.18,5.65,5.65,0,0,1-1.33-.51,6.19,6.19,0,0,1-2.39-2.21,5.39,5.39,0,0,1-.71-1.59,4,4,0,0,1-.17-1.7,2.53,2.53,0,0,1,.62-1.43,2.62,2.62,0,0,1,.63-.46c.13-.07.23-.09.35-.15s.33-.08.49-.13.61-.12.9-.15.62-.07.92-.07a9.09,9.09,0,0,1,1.68.1,7.14,7.14,0,0,1,2.37.85A4.12,4.12,0,0,1,976.31,643.54Z"/><path class="cls-47" d="M967.34,642.9c-1.31,2.08,2.18,4.6,8.38,2.57s2,6.21-4.59,4.95S966.9,643.37,967.34,642.9Z"/><g class="cls-48"><path class="cls-27" d="M971.86,642.56a1,1,0,0,1,.47,1.55,2.9,2.9,0,0,1-1.93.87c-1.12.18-2.55-1.31-1.52-2.13A3.12,3.12,0,0,1,971.86,642.56Z"/></g><path class="cls-49" d="M1070.72,556.69l-.31-.59c-.21-.39-.48-1-.9-1.68a59.62,59.62,0,0,0-3.72-5.75c-.84-1.16-1.79-2.39-2.87-3.66s-2.22-2.59-3.5-3.89-2.64-2.65-4.11-3.92-3-2.54-4.6-3.75-3.28-2.33-5-3.38a51.29,51.29,0,0,0-5.25-2.82,30.22,30.22,0,0,0-5.41-1.94,10.85,10.85,0,0,0-5.54-.2,3.56,3.56,0,0,0-2.13,1.54,3.69,3.69,0,0,0-.45,2,7.72,7.72,0,0,0,.78,2.89,12.93,12.93,0,0,0,.9,1.7c.23.37.34.57.34.57s-.06-.21-.19-.63-.29-1-.47-1.78a8.33,8.33,0,0,1-.19-2.71,2.71,2.71,0,0,1,.55-1.38,2.16,2.16,0,0,1,1.35-.73,9.81,9.81,0,0,1,4.35.62,35.22,35.22,0,0,1,4.8,2.1c1.61.84,3.21,1.83,4.84,2.85s3.19,2.15,4.72,3.32,3.07,2.34,4.52,3.56,2.86,2.43,4.17,3.65,2.58,2.41,3.73,3.57,2.25,2.27,3.22,3.32c2,2.08,3.53,3.88,4.62,5.15Z"/><path class="cls-49" d="M1027.47,536.45s-.11-.11-.28-.32-.44-.54-.82-.92a28.74,28.74,0,0,0-3.31-3c-.74-.57-1.55-1.18-2.46-1.77s-1.87-1.21-2.92-1.78-2.13-1.16-3.3-1.67-2.36-1-3.57-1.47-2.49-.82-3.76-1.13a27.66,27.66,0,0,0-3.81-.68,14.78,14.78,0,0,0-3.7,0,7,7,0,0,0-3.2,1.12,5.85,5.85,0,0,0-.59.48l-.45.56a4.12,4.12,0,0,0-.47,1.13,3.09,3.09,0,0,0-.11,1,3.8,3.8,0,0,0,.07.85,5.63,5.63,0,0,0,.29,1.13l.14.39a3.9,3.9,0,0,0,0-.4,10.63,10.63,0,0,1,0-1.14,4.82,4.82,0,0,1,.11-.79,3.14,3.14,0,0,1,.28-.87,3.06,3.06,0,0,1,1.44-1.55,6.86,6.86,0,0,1,2.67-.62,15.78,15.78,0,0,1,3.3.22,34.09,34.09,0,0,1,3.5.78c1.2.3,2.36.72,3.55,1.13s2.34.86,3.46,1.35,2.23,1,3.27,1.49,2.05,1,3,1.52,1.81,1,2.61,1.49,1.51.92,2.13,1.33,1.15.79,1.61,1.09Z"/><path class="cls-49" d="M992.11,530.74a21,21,0,0,0-3.29-2.68c-.54-.36-1.14-.73-1.79-1.11s-1.37-.74-2.15-1.07a19.31,19.31,0,0,0-2.5-.89,15.81,15.81,0,0,0-2.82-.48c-.5,0-1,0-1.51,0a12.35,12.35,0,0,0-1.51.32l-.31.1-.38.17a4.22,4.22,0,0,0-.69.42,2.9,2.9,0,0,0-1,1.22,3.2,3.2,0,0,0,.1,2.51,6.82,6.82,0,0,0,1.06,1.78,13.56,13.56,0,0,0,2.15,2.19c.58.47.95.71.95.71s-.25-.35-.63-.93a22.08,22.08,0,0,1-1.45-2.45,8.55,8.55,0,0,1-.63-1.65,2.31,2.31,0,0,1,.11-1.58,1.51,1.51,0,0,1,.51-.53,3.49,3.49,0,0,1,.39-.19l.2-.08.3-.1c.31-.09.71-.12,1.06-.2s.77,0,1.16,0a15,15,0,0,1,2.38.36c.79.2,1.58.41,2.32.67s1.47.53,2.14.81l1.9.81c1.18.52,2.15,1,2.83,1.31Z"/><path class="cls-49" d="M996.18,561l-.41,1.07c-.25.68-.62,1.64-1.1,2.76a27.67,27.67,0,0,1-1.9,3.68,11.57,11.57,0,0,1-1.38,1.79,6.17,6.17,0,0,1-1.77,1.35,4.55,4.55,0,0,1-1,.37l-.53.07h-.47l-.68-.07a3.26,3.26,0,0,1-.33,0l-.21-.07a3.73,3.73,0,0,1-.44-.14l-.46-.23a4.64,4.64,0,0,1-1.43-1.36,8.25,8.25,0,0,1-.88-1.65,16.73,16.73,0,0,1-.79-2.78c-.14-.7-.19-1.12-.19-1.12a8.71,8.71,0,0,0-.22,1.13,10.09,10.09,0,0,0,.08,3,6.7,6.7,0,0,0,.66,2,5.33,5.33,0,0,0,1.7,2l.66.39a5.92,5.92,0,0,0,.79.31l.41.13a2.57,2.57,0,0,0,.35.06l.66.1h.93a8.15,8.15,0,0,0,.83-.1,6.37,6.37,0,0,0,1.58-.52,7.78,7.78,0,0,0,2.32-1.83,10.47,10.47,0,0,0,1.44-2.17,17.62,17.62,0,0,0,1.81-8.18Z"/><path class="cls-49" d="M1032.2,564a40.5,40.5,0,0,0,.57,6.37,47.15,47.15,0,0,0,1.43,6.44,36.72,36.72,0,0,0,2.91,7.17,23,23,0,0,0,2.36,3.37,12.48,12.48,0,0,0,3.3,2.68,7.8,7.8,0,0,0,2,.83,4.12,4.12,0,0,0,2.4-.12,3.32,3.32,0,0,0,1.59-1.34,5.71,5.71,0,0,0,.66-1.53,11.31,11.31,0,0,0,.36-2.66c0-.79,0-1.47-.09-2a16.27,16.27,0,0,0-.25-1.75s0,.65-.13,1.75a16.33,16.33,0,0,1-1,4.42,3.22,3.22,0,0,1-1.73,2,3.94,3.94,0,0,1-2.93-.79,11,11,0,0,1-2.7-2.44,18.64,18.64,0,0,1-2.09-3.14,45.58,45.58,0,0,1-3-6.81c-.8-2.25-1.46-4.38-2-6.22C1032.85,566.5,1032.2,564,1032.2,564Z"/><path class="cls-49" d="M1007.71,557.64a34.11,34.11,0,0,0,2.64,5.27c.47.76,1,1.6,1.58,2.44a31.29,31.29,0,0,0,2,2.62,22.93,22.93,0,0,0,5.55,5,10.08,10.08,0,0,0,4,1.45,8.69,8.69,0,0,0,1.14,0c.21,0,.34,0,.6,0l.48-.09a6.21,6.21,0,0,0,2.06-.86,6,6,0,0,0,2.23-2.85,9.79,9.79,0,0,0,.68-2.85,16.59,16.59,0,0,0-.12-4.21c-.17-1-.33-1.56-.33-1.56s0,.58-.09,1.57a23.28,23.28,0,0,1-.64,4,12.39,12.39,0,0,1-.92,2.49,5.56,5.56,0,0,1-1.87,2.1,4.67,4.67,0,0,1-1.33.49l-.48,0-.34,0a5.37,5.37,0,0,1-.8,0,8.9,8.9,0,0,1-3.15-1.2,18.52,18.52,0,0,1-2.81-2.1,31.19,31.19,0,0,1-2.47-2.39c-.76-.82-1.5-1.61-2.15-2.41s-1.27-1.53-1.84-2.23C1009.11,559.59,1007.71,557.64,1007.71,557.64Z"/><path class="cls-49" d="M923.26,562.2s-.68,0-1.87,0a38.18,38.18,0,0,0-4.95.58,35.76,35.76,0,0,0-6.76,1.89,20.71,20.71,0,0,0-6.8,4.12c-.24.26-.48.46-.7.74s-.42.45-.63.74a12.42,12.42,0,0,0-1.08,1.63,10.57,10.57,0,0,0-1.23,3.49,7.75,7.75,0,0,0,.21,3.43,5.74,5.74,0,0,0,1.69,2.75,4.78,4.78,0,0,0,2.74,1.16,5.67,5.67,0,0,0,2.24-.29,6.88,6.88,0,0,0,1.25-.58l.39-.24-.44.16a9,9,0,0,1-1.31.33,5.43,5.43,0,0,1-2,0,3.78,3.78,0,0,1-2-1.17,5,5,0,0,1-1.1-2.35,7.42,7.42,0,0,1,.1-2.92,9.79,9.79,0,0,1,1.21-3,8.18,8.18,0,0,1,1-1.38,5.9,5.9,0,0,1,.58-.69c.18-.2.42-.41.61-.61a21.85,21.85,0,0,1,6.1-3.91,47.15,47.15,0,0,1,6.28-2.31c1.91-.55,3.54-.95,4.69-1.22S923.26,562.2,923.26,562.2Z"/><path class="cls-49" d="M933.63,553a22.39,22.39,0,0,0-4.14-1.68,27.75,27.75,0,0,0-4.62-1,19.5,19.5,0,0,0-5.54.09,12.37,12.37,0,0,0-2.77.78l-.68.29c-.18.11-.36.19-.6.33a4.82,4.82,0,0,0-1.13,1,3,3,0,0,0-.76,2.54,3.84,3.84,0,0,0,1,2,6.32,6.32,0,0,0,2.85,1.71,5.84,5.84,0,0,0,.93.19l.33,0a7,7,0,0,1-3.08-2.53,3,3,0,0,1-.47-1.52,2,2,0,0,1,.61-1.41,3.85,3.85,0,0,1,.76-.54,4.86,4.86,0,0,1,.52-.27l.51-.21a14.76,14.76,0,0,1,2.35-.64,23.25,23.25,0,0,1,5-.28c1.64.06,3.18.23,4.5.41C931.84,552.67,933.63,553,933.63,553Z"/><path class="cls-49" d="M953.26,563.15l-2.06,2.63c-.63.77-1.38,1.66-2.21,2.54a15,15,0,0,1-2.87,2.38,7.21,7.21,0,0,1-1.65.71,5,5,0,0,1-1.69.16,3,3,0,0,1-1.39-.47,3.59,3.59,0,0,1-1-1,7.17,7.17,0,0,1-.92-2.05,6.27,6.27,0,0,1-.22-.85,4,4,0,0,0-.17.88,5.45,5.45,0,0,0,.27,2.42,3.9,3.9,0,0,0,1,1.55,4.12,4.12,0,0,0,2.1,1,6.57,6.57,0,0,0,2.5,0,8.11,8.11,0,0,0,2.29-.9,11.61,11.61,0,0,0,3.17-2.9,15,15,0,0,0,1.79-3A12.45,12.45,0,0,0,953.26,563.15Z"/><path class="cls-18" d="M1035.94,673.74c-1.67,5.58.71,11.49,4.48,16a31.44,31.44,0,0,0,3.75,3.82c2.4,2,5.14,4.08,8.73,3.69,6.17-.68,8.92-8.36,9.33-12.86.5-5.39-3-10.13-6.76-14.13a12.35,12.35,0,0,0-7.77-4.2c-3-.33-6.53.53-8.62,2.54A11.71,11.71,0,0,0,1035.94,673.74Z"/><path class="cls-17" d="M1041.57,673.17a11.81,11.81,0,0,0-1.07,9.36c1.45,5.75,5.6,12.86,11.55,14.74a8.1,8.1,0,0,0,.85,0c6.17-.68,8.92-8.36,9.33-12.86a11.23,11.23,0,0,0-.07-2.66l-.13-.08a.48.48,0,0,1,0-.79c-.87-4-3.62-7.5-6.53-10.6l-.22-.22a9.7,9.7,0,0,0-1.62-.87C1049.33,667.33,1043.75,669.6,1041.57,673.17Z"/><path class="cls-50" d="M996,604.88c3-.09,5.83-.14,8.77.06a19.09,19.09,0,0,1,9,3.08c.37-.2.63-.43.63-.65-.1-3.69-2.92-5.11-8.3-6.21-7.84-1.63-15.19-.37-21.85-4.52C975.35,605,992,605,996,604.88Z"/><path class="cls-50" d="M982.08,604.14c-.75-.84-2-1.21-2.88-2a9.08,9.08,0,0,1-1.1-1.39c-.26-.38-.28-.79-.58-1.13-.15-.18-.37.2-.36.31.1,1.18-.32,2.39.51,3.51s2.06,2.48,3.78,2.06C982,605.35,982.43,604.55,982.08,604.14Z"/><path class="cls-50" d="M960.26,604.94a6,6,0,0,1-.27,2c-.28.78.44,1.73,1.2.84s.46-2.52-.08-3.56C960.8,603.62,960.26,604.7,960.26,604.94Z"/><path class="cls-51" d="M1021.88,725.72l-1.66-3.17S995.7,735.08,991,752c0,0,4.57-.2,12.89-3.22S1023.38,733.31,1021.88,725.72Z"/><path class="cls-15" d="M1076.94,743.09c.63,1,11.76,30.43-24.11,38.75S991,752,991,752s22-7.64,29.2-29.48l32.61,24.7,13.6-1.87Z"/><path class="cls-52" d="M1076.94,743.09l-10.51,2.29-13.6,1.87-32.61-24.7a43.77,43.77,0,0,1-9.63,16.17,19.41,19.41,0,0,1,2.39.47c3.76,1,7.37,2.32,11,3.59s7.14,2.5,10.67,3.85q4.69,1.62,9.36,3.28c-2.12-3.06-6.34-10.06-5.75-9.65,8.21,5.75,33,26.35,30.2,29.49-3.07,3.49-8.65,5.93-13.44,7.06a84.1,84.1,0,0,1-22,2,46.2,46.2,0,0,1-19.12-4.88c10.4,6.7,23.78,11.48,38.95,8C1088.7,773.52,1077.57,744.14,1076.94,743.09Z"/><path class="cls-53" d="M1065.09,754.27a44.12,44.12,0,0,0,4,8.81c1.85-2,1.77-5.14,2.27-7.48.8-3.83,1.39-7.63.73-11.46l-5.65,1.24-2.6.36A21,21,0,0,0,1065.09,754.27Z"/><path class="cls-50" d="M956.88,602.36c-5.78,5-18,6-18.06,14h0a47.91,47.91,0,0,1,14.36-6.19c2.75-.62,4.64-2.1,5.46-4.3A3,3,0,0,0,956.88,602.36Z"/><path class="cls-14" d="M1052.83,747.25s11.06,6.89,14.74,15.09C1067.57,762.34,1057.6,750.87,1052.83,747.25Z"/><path class="cls-23" d="M988,697.63A24.47,24.47,0,0,0,983.6,693c-5.13,2.49-19.78,7.86-22.81,9.65-.07,3.48,2.34,10.8,3.9,10.62,7-2.14,20.1-5.31,27.5-7.64a25,25,0,0,0-2.15-5.06C989.42,699.54,988.69,698.59,988,697.63Z"/><g class="cls-54"><path class="cls-23" d="M990.11,706.23c.73-.22,1.43-.42,2.08-.63a25,25,0,0,0-2.15-5.06c-.62-1-1.35-1.95-2-2.91A24.47,24.47,0,0,0,983.6,693c-.78.38-1.79.83-2.94,1.32A25.38,25.38,0,0,1,990.11,706.23Z"/></g><path class="cls-27" d="M963.71,713.41a7.94,7.94,0,0,1-6.86-5.93c-1.51-5.59-5.25-40.66-5.25-40.66l12.14.65s8.87,35.87,7.24,40.7S963.71,713.41,963.71,713.41Z"/><path class="cls-23" d="M960.22,673a34.12,34.12,0,0,0,4.64-.84c-.68-2.86-1.12-4.67-1.12-4.67l-12.14-.65s.31,2.9.78,7.15C955,674.23,957.54,673.42,960.22,673Z"/><path class="cls-23" d="M964,702.62a10.13,10.13,0,0,0-7.49,3.07c.15.74.26,1.36.39,1.79a7.94,7.94,0,0,0,6.86,5.93s5.63-.39,7.27-5.24a10.6,10.6,0,0,0,.13-3.42A14.54,14.54,0,0,0,964,702.62Z"/><path class="cls-27" d="M950,672c-4.77-.39-10-2-13.44-5.39,0,0,0,0-.06,0a14.8,14.8,0,0,1-3.18-5.64c-1.64-5.36-2.13-7.28.51-11.54s5.44-3.48,4.37,2.79c3-5.33,8.67-7.93,7.76-4.87,2.48-3.21,5.32-1.9,5.26,0,3.81-4.65,5.71-.67,4.36,2.4s-2.11,8.12,1.91,10.2c6.73,3.24,10.59,7.49,7.25,10.8A48,48,0,0,1,950,672Z"/><path class="cls-55" d="M938.52,651.62a6.12,6.12,0,0,0-.9,1.74,7.65,7.65,0,0,0-.39,1.94,7.4,7.4,0,0,0,.16,2.28c.07.37.23.75.33,1.13s.33.69.47,1,.39.63.57.92a6.81,6.81,0,0,0,.62.76,9.11,9.11,0,0,0,1,1l.43.35s-.1-.18-.29-.47a5.62,5.62,0,0,0-.34-.5c-.13-.19-.24-.44-.38-.68a8.45,8.45,0,0,1-.45-.8l-.42-.91a14.3,14.3,0,0,1-.65-2,12.82,12.82,0,0,1-.26-2.1,13.47,13.47,0,0,1,.09-1.86A9,9,0,0,1,938.52,651.62Z"/><path class="cls-55" d="M945.45,648.56a3.49,3.49,0,0,0-.45.46,8.7,8.7,0,0,0-.9,1.38,8.32,8.32,0,0,0-.77,2.18,11,11,0,0,0-.22,2.59,14,14,0,0,0,.43,2.56,13,13,0,0,0,.83,2.12,15.46,15.46,0,0,0,.82,1.42l.35.52a5.08,5.08,0,0,0-.16-.59,11.69,11.69,0,0,1-.47-1.49c-.1-.32-.19-.66-.29-1s-.15-.74-.24-1.13-.12-.8-.18-1.2a10.37,10.37,0,0,1-.11-1.25c0-.41,0-.83,0-1.24s0-.81.1-1.21a13.89,13.89,0,0,1,.45-2.11,13.39,13.39,0,0,1,.54-1.48C945.33,648.75,945.45,648.56,945.45,648.56Z"/><path class="cls-55" d="M951.4,647.5a3.36,3.36,0,0,0-.35.41,4.38,4.38,0,0,0-.36.55,5.78,5.78,0,0,0-.39.75,9,9,0,0,0-.61,1.93,5.35,5.35,0,0,0-.2,1.13c0,.38-.07.77-.1,1.17a14.55,14.55,0,0,0,.1,2.3,8.56,8.56,0,0,0,.35,2c.3,1.14.56,1.88.56,1.88s0-.79,0-1.93c0-.3,0-.6,0-.94s0-.67,0-1a10.07,10.07,0,0,0,0-1.1,7.08,7.08,0,0,1,0-1.13,22.22,22.22,0,0,1,.17-2.22c.05-.35.06-.7.12-1s.14-.62.19-.91.14-.53.19-.76a3.52,3.52,0,0,1,.18-.57A3.09,3.09,0,0,1,951.4,647.5Z"/><path class="cls-27" d="M997.76,721.46S971.84,697,957.92,707.78s-10.08,89-10.08,89,6,3.32,15.33,2.29L972,733l10.2,8S992.82,733.76,997.76,721.46Z"/><path class="cls-23" d="M967.23,742.36c-1.4,9.4-2.4,18.82-3.61,28.22-.61,4.76-.9,9.59-1.63,14.31-.32,2.16-.66,5.23-2.87,6.6-1.56,1-4.14-1.73-5.41-2a10.58,10.58,0,0,0-6.13.34c.13,4.39.26,7,.26,7s6,3.32,15.33,2.29L972,733l.07.05a45.77,45.77,0,0,0-3.9-16.5C969.41,725.16,968.48,733.81,967.23,742.36Z"/><path class="cls-56" d="M969.89,802.84c0,2.29-1.14,3-2.63,4-2.27,1.59-30.49,10.26-54.13,2-1-.33-1.34-2.06-.78-4.12,5.95,2.37,16,5.05,29.8,4.05C956.81,807.74,965.48,804.84,969.89,802.84Z"/><path class="cls-57" d="M931.14,796.05c7.05-.63,13-.8,13.73-1.38,1-.82.26-3.91,4.55-4.57,4.83-.5,8,4.21,8,4.21,5.7.32,6.82-3.3,6.82-3.3s2.64-.58,4.68,6.47a19.13,19.13,0,0,1,1,5.36c-4.41,2-13.08,4.9-27.74,6l-2.27.12C938.38,801.22,934.56,797.66,931.14,796.05Z"/><path class="cls-58" d="M922.13,797.12c3-.48,6.1-.81,9-1.07,3.42,1.61,7.24,5.17,8.74,12.89a66.23,66.23,0,0,1-27.53-4.17C913.16,801.77,916,798.09,922.13,797.12Z"/><g class="cls-48"><path class="cls-39" d="M950.27,799.85s.05,0,.08,0a.44.44,0,0,0,.29-.59c-2.12-4.56-5.56-5-5.7-5a.49.49,0,0,0-.58.39.45.45,0,0,0,.44.5c.12,0,3,.42,4.87,4.45A.56.56,0,0,0,950.27,799.85Z"/><path class="cls-39" d="M946.46,801a.46.46,0,0,0,.4-.52,7.64,7.64,0,0,0-4.51-5.74.56.56,0,0,0-.69.25.43.43,0,0,0,.3.58h0a6.75,6.75,0,0,1,3.88,5.06.5.5,0,0,0,.61.37Z"/><path class="cls-39" d="M942.86,801.25a.47.47,0,0,0,.41-.54,8.47,8.47,0,0,0-4.42-5.63.55.55,0,0,0-.7.17.44.44,0,0,0,.21.63,7.63,7.63,0,0,1,3.88,5,.52.52,0,0,0,.61.36Z"/></g><path class="cls-59" d="M979.94,708.87c-6.66,3.64-9.62,12.69-10.75,18.82a104,104,0,0,0-1.4,19.22c0,4.65-.3,9.42.5,14.05L972,733l10.2,8s10.59-7.22,15.53-19.52A86.57,86.57,0,0,0,979.94,708.87Z"/><path class="cls-27" d="M1019.15,725.46S993.22,701,979.3,711.78s-10.08,89-10.08,89,6,3.31,15.33,2.28L993.41,737l10.21,8S1014.2,737.75,1019.15,725.46Z"/><path class="cls-23" d="M988.6,746.37c-1.38,9.39-2.39,18.8-3.6,28.2-.61,4.76-.89,9.59-1.62,14.32-.33,2.15-.67,5.22-2.87,6.6-1.56,1-4.13-1.73-5.42-2a10.47,10.47,0,0,0-6.12.33c.12,4.39.25,7.05.25,7.05s6,3.31,15.33,2.28L993.41,737l.07,0a46,46,0,0,0-3.89-16.49C990.79,729.17,989.88,737.81,988.6,746.37Z"/><path class="cls-56" d="M991.28,806.83c0,2.3-1.15,3-2.63,4-2.28,1.59-30.5,10.25-54.14,2-.94-.33-1.33-2.06-.78-4.1,6,2.37,16,5,29.81,4C978.19,811.74,986.86,808.85,991.28,806.83Z"/><path class="cls-57" d="M952.54,800c7-.62,13-.79,13.71-1.37,1-.81.27-3.92,4.56-4.58,4.82-.49,8,4.22,8,4.22,5.69.31,6.81-3.3,6.81-3.3s2.65-.58,4.68,6.46a19.23,19.23,0,0,1,1,5.36c-4.42,2-13.09,4.91-27.74,6-.77.05-1.53.1-2.28.13C959.76,805.21,955.94,801.66,952.54,800Z"/><path class="cls-58" d="M943.51,801.11c3-.48,6.1-.81,9-1.07,3.4,1.62,7.22,5.17,8.72,12.9a66.66,66.66,0,0,1-27.53-4.16C934.55,805.77,937.4,802.08,943.51,801.11Z"/><g class="cls-48"><path class="cls-39" d="M971.65,803.84l.08,0a.43.43,0,0,0,.29-.59c-2.12-4.57-5.56-5-5.7-5a.51.51,0,0,0-.58.4.45.45,0,0,0,.44.5c.12,0,3,.42,4.87,4.45A.53.53,0,0,0,971.65,803.84Z"/><path class="cls-39" d="M967.85,805a.47.47,0,0,0,.4-.53,7.69,7.69,0,0,0-4.52-5.74.55.55,0,0,0-.67.25.43.43,0,0,0,.28.6h0a6.74,6.74,0,0,1,3.89,5.06.51.51,0,0,0,.6.36Z"/><path class="cls-39" d="M964.24,805.24a.46.46,0,0,0,.41-.52,8.47,8.47,0,0,0-4.42-5.65.58.58,0,0,0-.71.18.45.45,0,0,0,.22.62,7.67,7.67,0,0,1,3.88,5,.51.51,0,0,0,.61.36Z"/></g><path class="cls-60" d="M1019.07,627.33a2.13,2.13,0,0,0-2.21-1.17,8.85,8.85,0,0,0-4.18,1.19c-1.2.69-3.31,2.47-1.6,3.74a4.31,4.31,0,0,0,2.28.56,7.09,7.09,0,0,0,5-1.85A2.34,2.34,0,0,0,1019.07,627.33Z"/><path class="cls-39" d="M1014.28,628.34a.76.76,0,0,0-.8-.42,3,3,0,0,0-1.51.43c-.43.25-1.21.89-.59,1.35a1.6,1.6,0,0,0,.83.21,2.57,2.57,0,0,0,1.82-.67A.85.85,0,0,0,1014.28,628.34Z"/><path class="cls-60" d="M1023.75,627.31a2.11,2.11,0,0,0-1.28.72,1.08,1.08,0,0,0-.26,1.17,1.42,1.42,0,0,0,1.3.55,2.6,2.6,0,0,0,2.32-1.79C1026,626.87,1024.53,626.92,1023.75,627.31Z"/><path class="cls-39" d="M1024.27,628.1a.44.44,0,0,0-.43-.23,1.89,1.89,0,0,0-.8.23c-.23.13-.63.48-.3.71a.82.82,0,0,0,.44.11,1.31,1.31,0,0,0,1-.36A.44.44,0,0,0,1024.27,628.1Z"/><path class="cls-60" d="M945.71,643.1a5.59,5.59,0,0,0,3.82-2,2.54,2.54,0,0,0,.68-1.57c-.13-1.57-2.49-1.24-3.59-.89a6.58,6.58,0,0,0-2.91,1.81,1.33,1.33,0,0,0-.19,1.81A2.64,2.64,0,0,0,945.71,643.1Z"/><path class="cls-39" d="M947.38,640.34a2,2,0,0,0,1.39-.71.89.89,0,0,0,.24-.57c0-.57-.9-.46-1.29-.32a2.4,2.4,0,0,0-1.06.65.49.49,0,0,0-.06.66A.93.93,0,0,0,947.38,640.34Z"/><path class="cls-60" d="M940.75,646.43a2.42,2.42,0,0,0,2.47-.47c.24-.3.43-.63.22-1a1.23,1.23,0,0,0-1-.42,1.82,1.82,0,0,0-1.16.38C940.59,645.18,939.85,646,940.75,646.43Z"/><path class="cls-39" d="M942,645.75a1,1,0,0,0,.73-.38.48.48,0,0,0,.12-.29c0-.3-.47-.23-.68-.16a1.1,1.1,0,0,0-.55.33.26.26,0,0,0,0,.35A.5.5,0,0,0,942,645.75Z"/><path class="cls-25" d="M956.1,602.05c-5.63,4.73-17.5,5.69-17.58,13.22,0,0,0,0,.05,0a47.34,47.34,0,0,1,14-5.83,6.89,6.89,0,0,0,5.31-4.07A2.82,2.82,0,0,0,956.1,602.05Z"/><path class="cls-25" d="M996.62,603.85a85,85,0,0,1,8.6,0,18.25,18.25,0,0,1,8.84,3c.36-.19.64-.42.63-.64-.08-3.69-2.82-5.09-8.12-6.17-7.67-1.59-15.78.65-22.29-3.46C978,602.91,992.74,604,996.62,603.85Z"/><path class="cls-39" d="M1004.31,667.32c-1.7-1.33-7.14-1-9.55-.51-1.7.33-5.79,1.88-4.32,3.06a.49.49,0,0,0,.42.23.93.93,0,0,0,.44,0c2.42-.09,4.44-.77,6.8-1,1.92-.2,4.5-.11,5.85-1C1004.2,667.93,1004.58,667.54,1004.31,667.32Z"/><path class="cls-23" d="M1041.29,665.41s-3.82,18.84,3.83,25.7c6.65,6,15.08,3.59,15.08-12.72,0-9.46-3.59-14.44-3.59-14.44Z"/><path class="cls-61" d="M1074.37,650.61c-.53-.35-2.25.11-3.74,1.38a104.54,104.54,0,0,0-9.71,9.17c1.21-4.47,9.23-16.8,6.7-19.21a2.67,2.67,0,0,0-3.71-.32,11.11,11.11,0,0,0-3.06,3.51,21.9,21.9,0,0,0-1.29,2.56,83.65,83.65,0,0,1-6.73,11.2c1.45-6.68,5-24.93.31-24.95-3.34,0-4.77,7.45-5.2,9.45s-2.65,13.17-3,15.15c-.66-5-1.33-16.25-2.13-21.36-.48-2.93-2.64-4.85-5.27-2.65-3.39,2.81,1,24.79,0,29-5.37,3.1-11.72-4.43-15.62-5.2-2.76-.53-8.29,2.71-5.82,6.7.82,1.3,7.71,2.28,11.45,5s6.29,5.84,9.25,8.92c7.66,7.94,22.17,9.71,28.81-.07a14.1,14.1,0,0,0,2.25-8.58c-.27-3.36-1.5-4.88.48-7.8,1.43-2.12,3-4.15,4.67-6.15C1076.53,652.08,1075.46,651.31,1074.37,650.61Z"/><path class="cls-27" d="M1056.73,682.68c-6.69,1.26-14.25.7-18.93-4.22-2.59-2.73-4.34-6.08-7.41-8.48-3.5-2.72-7.25-2.65-11.23-4.27a6,6,0,0,1-3.57-3.53,3.54,3.54,0,0,0,.5,2.9c.82,1.3,7.71,2.28,11.45,5s6.29,5.84,9.25,8.92c7.66,7.94,22.17,9.71,28.81-.07a13.57,13.57,0,0,0,2.09-5.46C1065.44,677.72,1062.78,681.54,1056.73,682.68Z"/><path class="cls-27" d="M1070.15,658.83c-1.11,1.23-4.6,5.3-6.87,3.26a2.61,2.61,0,0,1-.71-2.64c-.53.53-1.07,1.09-1.65,1.71.58-2.11,2.66-6,4.44-9.71-1.26,2.31-2.81,5-5.19,6.45-1.81,1.08-4.3.6-4.69-1.56a9.78,9.78,0,0,1-.13-1.2c-.91,1.41-1.8,2.75-2.52,3.76.39-1.83,1-4.55,1.45-7.52a10.14,10.14,0,0,1-.38,1c-.64,1.49-2,4.42-4.32,4.42-2.69,0-3-3.3-3.13-5,0-.29,0-.58,0-.88-.65,3.3-1.31,6.58-1.48,7.56-.27-2-.53-5-.81-8.2l-.21,1.36c-.27,1.44-.89,5.41-3.35,5.54-1.78.09-2.76-1.2-3.37-2.58.24,2.59.45,4.94.47,6.66h0a52,52,0,0,1,5.72-.92,36.59,36.59,0,0,1,9.86.41,55.49,55.49,0,0,1,14.13,3.66,6.48,6.48,0,0,1,.94-2c1.43-2.12,3-4.15,4.67-6.15.28-.33.51-.63.73-.93A44.59,44.59,0,0,0,1070.15,658.83Z"/><path class="cls-24" d="M1052.48,679.31s-2.35-11.51-14.68-13C1037.8,666.35,1049.67,670.89,1052.48,679.31Z"/><g class="cls-62"><path class="cls-63" d="M1038.49,669.9c-1.23-.24-2.75-.07-3.46-1.15-.53-.78-.1-2.49,1.67-1.69.41.19.8.4,1.21.6.17.09.4-.14.36-.28v-.07a.09.09,0,0,0-.09-.08c-.71-.9-1.35-1.62-2.71-1.35-1.16.23-1.74,1.61-1.88,2.48-.23,1.45.88,2.26,2.35,2.57a19.54,19.54,0,0,1,4.12,1c2.25,1-1.48,3.45-2.64,1.54-.3-.47-1.28.36-1,.78a3,3,0,0,0,3.08,1.08,3.73,3.73,0,0,0,2.68-2.9C1042.55,670.8,1039.65,670.13,1038.49,669.9Z"/><path class="cls-63" d="M1047.75,663.24c-.9-.35-2.42.33-3.26.56a50.42,50.42,0,0,0-5,1.81c-.44.08-.69.9-.24.82a39.75,39.75,0,0,0,4-1.24l.1,0c0,2.86,1.23,5.83,1.76,8.64.14.72,1.44-.26,1.15-.7a26.3,26.3,0,0,0-1.11-4.64,11.51,11.51,0,0,0-1.06-3.5c1-.25,2-.42,3-.67a.39.39,0,0,0,.29-.06,1.25,1.25,0,0,0,.24-.16C1047.88,663.92,1048.16,663.4,1047.75,663.24Z"/><path class="cls-63" d="M1056.67,665.69c-.48-1.41-1.81-2-3.33-2-1.29-.83-3.89.28-4.91,1.21-2.16,2-2.34,5.17.23,7s6.07.15,7.42-2.09A5.29,5.29,0,0,0,1056.67,665.69Zm-1.21,2.63a3.69,3.69,0,0,1-5.36,2.59,3.33,3.33,0,0,1-1.57-4.75,4.81,4.81,0,0,1,3.35-1.82.25.25,0,0,0,.16.16c.58.2,1.18.31,1.77.47h0a5.42,5.42,0,0,1,.82.3C1055.74,665.81,1055.59,667.45,1055.46,668.32Z"/><path class="cls-63" d="M1063.28,664.19a10.49,10.49,0,0,0-4-.63.19.19,0,0,0-.23,0l0,0a5.33,5.33,0,0,0-1.7.35c-.27.09-.32.38-.18.44l0,0a10.53,10.53,0,0,0,1.4.3,24.09,24.09,0,0,0-.46,3.38c0,.21,0,.43,0,.65-.27.15-.85.81-.32.88l.26,0c-.07,1.08-.08,2.16-.06,3.24v0c.07.58,1-.07,1.1-.45a8.75,8.75,0,0,0,.11-2.67c2.5.13,6-.18,6.29-2.59C1065.59,665.69,1064.73,664.78,1063.28,664.19Zm0,4a6,6,0,0,1-1.52.25c-.9.07-1.79,0-2.67.05v-.06c.07-1.16,0-2.43.1-3.63,1.57.19,3.15.3,4.38,1.33A1.17,1.17,0,0,1,1063.29,668.17Z"/></g><path class="cls-24" d="M1045.5,659.8c.31,0,.62,0,.92,0,.6,0,1.21,0,1.8.08,1.75.09,3.5.2,5.24.4a41.64,41.64,0,0,1,9.87,2.38c-2.7-2.41-7.77-3.18-11.33-3.67a28.28,28.28,0,0,0-12.46,1.18c-.11,0-.27.21-.25.31A48,48,0,0,1,1045.5,659.8Z"/><ellipse class="cls-64" cx="960" cy="565.44" rx="266.84" ry="270.03"/></g><g id="Layer_2" data-name="Layer 2"><rect class="cls-11" x="676.03" y="162.72" width="542.72" height="2.34"/><rect class="cls-11" x="665.89" y="980.3" width="542.72" height="2.34"/><text class="cls-65" transform="translate(859.15 416.71) scale(1.02 1)">ფიზიკურ<tspan x="-35.87" y="68.84">ძალადობას</tspan></text></g></g></svg>