<svg xmlns="http://www.w3.org/2000/svg" xmlns:xlink="http://www.w3.org/1999/xlink" viewBox="0 0 551.68 573.65"><defs><style>.cls-1,.cls-3,.cls-49{fill:none;}.cls-2{fill:#643d98;}.cls-3,.cls-49{stroke:#643d98;stroke-miterlimit:10;}.cls-3{stroke-width:18px;}.cls-4{fill:#7e8284;}.cls-10,.cls-12,.cls-36,.cls-38,.cls-4,.cls-40,.cls-45{opacity:0.4;}.cls-10,.cls-12,.cls-13,.cls-15,.cls-21,.cls-22,.cls-23,.cls-24,.cls-25,.cls-32,.cls-33,.cls-35,.cls-36,.cls-38,.cls-4,.cls-45,.cls-50,.cls-51,.cls-7{isolation:isolate;}.cls-5{fill:#001c37;}.cls-38,.cls-6,.cls-7{fill:#123454;}.cls-17,.cls-21,.cls-23,.cls-24,.cls-7{opacity:0.5;}.cls-8{fill:#311e56;}.cls-10,.cls-9{fill:#503975;}.cls-11,.cls-12,.cls-13{fill:#9559a4;}.cls-13,.cls-22{opacity:0.7;}.cls-14,.cls-45{fill:#c46c45;}.cls-15{fill:#f6ba9e;}.cls-15,.cls-25,.cls-32,.cls-33,.cls-35{opacity:0.6;}.cls-16{fill:#532800;}.cls-18,.cls-24,.cls-35,.cls-36{fill:#dd8b5e;}.cls-19{fill:#3f1c00;}.cls-20,.cls-32{fill:#d38467;}.cls-21{fill:url(#radial-gradient);}.cls-22{fill:url(#radial-gradient-2);}.cls-23{fill:url(#radial-gradient-3);}.cls-25{fill:url(#radial-gradient-4);}.cls-26{clip-path:url(#clip-path);}.cls-27,.cls-51{fill:#fff;}.cls-28{fill:#d5d7d8;}.cls-29{fill:#703000;}.cls-30{fill:#8d4423;}.cls-31{fill:#380d00;}.cls-33{fill:url(#radial-gradient-5);}.cls-34{clip-path:url(#clip-path-2);}.cls-37{fill:#00000e;}.cls-39{fill:#3b596f;}.cls-41{fill:#b35831;}.cls-42{fill:#a1a3a5;}.cls-43{fill:#bd1f37;}.cls-44{fill:#dadbdc;}.cls-46{fill:#d4effc;}.cls-47{fill:#dea67d;}.cls-48{fill:#888a8c;}.cls-49{stroke-width:14px;}.cls-51{font-size:45px;font-family:DejaVuSans, DejaVu Sans;}</style><radialGradient id="radial-gradient" cx="474.63" cy="-452.31" r="7.49" gradientTransform="matrix(1.48, 2.39, 2.75, -1.29, 877.54, -1362.48)" gradientUnits="userSpaceOnUse"><stop offset="0" stop-color="#ff476d"/><stop offset="0.15" stop-color="#ff4b70"/><stop offset="0.29" stop-color="#ff577a"/><stop offset="0.44" stop-color="#ff6c8a"/><stop offset="0.59" stop-color="#ff88a1"/><stop offset="0.74" stop-color="#ffadbe"/><stop offset="0.89" stop-color="#ffd9e1"/><stop offset="1" stop-color="#fff"/></radialGradient><radialGradient id="radial-gradient-2" cx="471.7" cy="-452.65" r="4.75" gradientTransform="matrix(1.48, 2.39, 2.75, -1.29, 877.54, -1362.48)" gradientUnits="userSpaceOnUse"><stop offset="0" stop-color="#994571"/><stop offset="0.15" stop-color="#9b4974"/><stop offset="0.3" stop-color="#a2557d"/><stop offset="0.44" stop-color="#ad698c"/><stop offset="0.59" stop-color="#bc84a1"/><stop offset="0.73" stop-color="#cfa8bd"/><stop offset="0.88" stop-color="#e7d3de"/><stop offset="1" stop-color="#fff"/></radialGradient><radialGradient id="radial-gradient-3" cx="476.6" cy="-453.86" r="3.89" gradientTransform="matrix(1.48, 2.39, 2.75, -1.29, 877.54, -1362.48)" gradientUnits="userSpaceOnUse"><stop offset="0" stop-color="#3c6a9f"/><stop offset="0.12" stop-color="#416ea1"/><stop offset="0.27" stop-color="#4f79a9"/><stop offset="0.42" stop-color="#678bb4"/><stop offset="0.58" stop-color="#88a4c5"/><stop offset="0.75" stop-color="#b3c5da"/><stop offset="0.93" stop-color="#e7ecf3"/><stop offset="1" stop-color="#fff"/></radialGradient><radialGradient id="radial-gradient-4" cx="1226.32" cy="2707.72" r="5.63" gradientTransform="matrix(2.59, -1.52, -1.75, -2.25, 1895.41, 8326.4)" gradientUnits="userSpaceOnUse"><stop offset="0" stop-color="#ef7b63"/><stop offset="0.12" stop-color="#f2907c"/><stop offset="0.42" stop-color="#f7bfb4"/><stop offset="0.68" stop-color="#fbe2dd"/><stop offset="0.88" stop-color="#fef7f6"/><stop offset="1" stop-color="#fff"/></radialGradient><clipPath id="clip-path"><path class="cls-1" d="M320.2,344.18a9.19,9.19,0,0,0-11.07,2.8c-3.33,5-1.65,12.08,1.25,17.06a10.82,10.82,0,0,0,6.21,4.89,13.13,13.13,0,0,0,5.81-.42c.94-.25,1.54-2.23,6.46-5l.37-.8c1.84-4.31,0-9.69-2.86-13.42A16.36,16.36,0,0,0,320.2,344.18Z"/></clipPath><radialGradient id="radial-gradient-5" cx="863.22" cy="2667.72" r="5.11" gradientTransform="matrix(1, 0, 0, -1, 0, 558.36)" xlink:href="#radial-gradient-4"/><clipPath id="clip-path-2"><path class="cls-1" d="M272.17,348.41a8.09,8.09,0,0,0-3.3-.9,7.65,7.65,0,0,0-6.2,3.22c-2.78,4.69-1.18,11.59,1.42,16.48a11.53,11.53,0,0,0,3,3.52,15.62,15.62,0,0,1,8.15.83,9,9,0,0,0,5.15-5c1.53-4.09-.24-9.33-2.75-13A16,16,0,0,0,272.17,348.41Z"/></clipPath></defs><title>Asset 3</title><g id="Layer_2" data-name="Layer 2"><g id="Layer_1-2" data-name="Layer 1"><ellipse class="cls-2" cx="275.84" cy="284.82" rx="266.84" ry="272.68"/><ellipse class="cls-3" cx="275.84" cy="281.68" rx="266.84" ry="272.68"/><g id="Layer_3-2" data-name="Layer 3-2"><path class="cls-4" d="M416.1,514.18c0,16.29-48.83,29.5-109.09,29.5S197.9,530.5,197.9,514.18s48.84-29.5,109.11-29.5S416.1,497.92,416.1,514.18Z"/><path class="cls-5" d="M316.84,456.9l-1.65-3.17s-24.53,12.53-29.2,29.48c0,0,4.57-.2,12.89-3.22S318.38,464.49,316.84,456.9Z"/><path class="cls-6" d="M372,474.27c.62,1,11.75,30.43-24.13,38.75S286,483.18,286,483.18s22-7.64,29.2-29.48l32.6,24.7Z"/><path class="cls-7" d="M372,474.27c.62,1,11.75,30.43-24.13,38.75S286,483.18,286,483.18s22-7.64,29.2-29.48l32.6,24.7Z"/><path class="cls-5" d="M347.84,478.43s11.06,6.89,14.75,15.09C362.57,493.52,352.59,482.05,347.84,478.43Z"/><path class="cls-8" d="M308.33,442.28c-12.87-8.29-12.79-21.1-12.79-21.1C310.69,431.51,308.33,442.28,308.33,442.28Z"/><path class="cls-9" d="M338.52,403.89c6.1,2.74,10.6,9.91-1.43,20.17s-28.76,18.22-28.76,18.22,2.36-10.77-12.79-21.13c0,0,7.57-3.43,17.8-8.61S330.84,400.44,338.52,403.89Z"/><path class="cls-10" d="M338.52,403.89a11.42,11.42,0,0,0-8.76-.1,39,39,0,0,0-5,6.17,40.52,40.52,0,0,0-3.64,8.58c-1.71,5.92-3.08,12-2.31,18.11a127.55,127.55,0,0,0,18.25-12.59C349.12,413.8,344.62,406.63,338.52,403.89Z"/><path class="cls-11" d="M323.43,473.25s7.24,7.26,34,6c24.88-1.19,36.82-5.42,36.82-5.42s-3.26-37.27-18.6-61.63c-12.37-19.66-43.37-22.5-49.5,2.71S323.43,473.25,323.43,473.25Z"/><path class="cls-12" d="M375.65,412.18c-10.48-16.66-34.35-21.24-45.11-6.89.89,4.06,2.59,8.22,5.83,11,2.48,2.14,6.49,2.23,9.85,0a13.08,13.08,0,0,0,2.92-3.53,3.3,3.3,0,0,0,.15-.62c.16-.79,1.51-.44,1.39.33-1.48,7.4,5,14.47,10.63,19.25,5.28,4.5,9.35,9.15,12.27,15.11a37.15,37.15,0,0,1,4.08,17.43c-.1,2.49-1,6.12-4,6.89-2.83,1.32-7.51.47-10-.54a65.22,65.22,0,0,1-15.29-9.12c-5.53-4.19-10.94-8.78-17.44-11.82-2.75-1.29-5.52-2.56-8.31-3.73a240.48,240.48,0,0,0,.88,27.24s7.24,7.26,34,6c24.88-1.19,36.82-5.42,36.82-5.42S391,436.54,375.65,412.18Z"/><path class="cls-13" d="M331.55,403.93s6.28-7.63,16.25-7.66c0,0,6.36,15.23-3.44,18.32C333.84,417.9,331.55,403.93,331.55,403.93Z"/><path class="cls-14" d="M345.43,393l-14.33,4.1c3.16,10.12,7,16.63,13,14.69S345.43,393,345.43,393Z"/><path class="cls-15" d="M341.84,401.43a21.84,21.84,0,0,0,4.82-2.67,56.78,56.78,0,0,0-1.24-5.76l-14.33,4.1a62.46,62.46,0,0,0,2.58,7A36.69,36.69,0,0,0,341.84,401.43Z"/><path class="cls-16" d="M244.63,346.68a5.06,5.06,0,0,1-5.81-2.21c-2.28-3.69.47-6,.47-6s-6.34,2.2-11-2.2-1-8.89,3.17-10.5c0,0-7,2.62-10.56,1.07s4.62-6.08,4.62-6.08-12,3.14-13.69-9.53c-2-14.57,17.32-19.17,17.32-19.17s-6.67-.21-6.67-6,17.09-7.48,17.09-7.48-4.19-5.93,5.88-10.63,25.53-4.8,25.53-4.8-4.94-1.42-2.23-5.24,14.85-2.09,19.61,1.71c0,0-5.73-3.4-3.59-6.42s16.27-.32,22.74,4.77c0,0-4.08-3.86,2.7-6.46s21.36,2.11,28.17,7.33c0,0-4.36-3.4-.79-6s25.1-3,51.39,29.62c0,0,0-6.64,4.58-7.7S399.15,286,397,290.5c0,0,10-3.82,11.56,0s-13,5.9-13,5.9a31.18,31.18,0,0,1,16.25,11.78c6.34,9.24.68,10.11-6.15,6.08,0,0,8.84,6.77,10.32,16.07,1.08,6.83-4.46,4.74-8.06.82a25.56,25.56,0,0,1,4.27,14c-.12,8-7.56,3.12-9.59-1.83,0,0,2.35,10.46-4.73,14.19-5.71,3-7.89-1.85-7.89-1.85s1.25,9.85-5.36,11.39c-8.4,1.95-10.42-3.6-10.42-3.6s-8.45,20.56-59.64,19.11-60.75-32.3-60.75-32.3a6.13,6.13,0,0,1-6.93,3.35C242,352.57,244.63,346.68,244.63,346.68Z"/><g class="cls-17"><path class="cls-16" d="M225.52,320.73s-8.23,4.52-4.62,6.08,10.56-1.07,10.56-1.07c-4.2,1.61-7.85,6.1-3.17,10.5s11,2.2,11,2.2-2.75,2.34-.47,6a5.06,5.06,0,0,0,5.81,2.21s-2.68,5.89,2.3,6.93a6.13,6.13,0,0,0,6.93-3.35s9.51,30.91,60.7,32.37,59.64-19.11,59.64-19.11,2,5.55,10.42,3.6c6.61-1.54,5.36-11.39,5.36-11.39s2.18,4.87,7.89,1.85c7.08-3.73,4.73-14.19,4.73-14.19,2,4.95,9.47,9.81,9.59,1.83a25.56,25.56,0,0,0-4.27-14c3.6,3.92,9.14,6,8.06-.82-1.48-9.3-10.32-16.07-10.32-16.07,6.83,4,12.49,3.16,6.15-6.08a31.13,31.13,0,0,0-16.2-11.79s14.51-2.06,13-5.9-11.56,0-11.56,0c2.12-4.49,1.14-16.79-3.47-15.74s-4.58,7.7-4.58,7.7c-26.29-32.61-47.83-32.2-51.39-29.62s.79,6,.79,6c-6.81-5.22-21.39-10-28.17-7.33s-2.7,6.46-2.7,6.46c-6.47-5.09-20.6-7.8-22.74-4.77-1.52,2.15,1,4.5,2.48,5.66-5.28-3.25-16-4.5-18.5-.95-2.71,3.82,2.23,5.24,2.23,5.24s-15.45.09-25.53,4.8-5.88,10.63-5.88,10.63-17.1,1.72-17.09,7.48,6.67,6,6.67,6-19.33,4.54-17.33,19.09C213.55,323.87,225.52,320.73,225.52,320.73Zm-11-16.19c5.24-11.26,22.54-12.46,22.54-12.46s-10-1.55-10.56-5.8,10.62-8,23.42-3.14c0,0-9-3.55-6.61-10s18.51-10.27,36.72-5c0,0-8.12-3.36-7.17-7.83s12.31-2,18.19,3.77c0,0-5.75-5.91-1.18-8.74s16,1.48,19.14,6.48c0,0-2.78-4.89,2.71-7.07s19.9-1.13,30.68,9.58c0,0-4.43-6.79-1.14-9.77,6.22-5.62,34.13,11.12,48.82,33.2,0,0-1.51-9.34,3-8.93s4.53,10,.71,12.88c0,0,10.46-2.84,11-.67.73,2.91-10,4.36-15.1,4.3,0,0,9,2.25,12.2,8.2s-12,2.87-18.61-1.83c0,0,8.88,10.86,1,15.94S366.59,313,366.59,313s-.62,15-7.31,13.1-12.67-24-12.67-24-.38,8.5-6.62,7.59-17.81-18.56-17.81-18.56,2.93,8.93-2.86,8.92-5.81-5.9-5.81-5.9-1.09,12.8-10.33,12.26-6.91-11.55-6.91-11.55-3.77,7.91-8.36,7.93-3.23-8.83-3.23-8.83-5.65,10.15-10.84,9.24-3.75-7.74-3.75-7.74-4.19,10.61-10.61,11-5.88-5.61-5.88-5.61-8.16,13.39-15.64,13.54-1.86-6.88,5.23-9.09c0,0-8.39.79-17.18,8.12-6.56,5.38-16.17,1.18-11.54-8.86Z"/></g><path class="cls-18" d="M382.35,342.56c-7.68,1.66-8,12-8,12-.35-15.63-1-37.48-30.13-60.87-22.86-18.34-68.28-20.54-92.9,5-9.89,10.27-11.23,28.37-2.18,40.73S250,355.5,255,371.81s38.48,40.36,76.23,30.5c30.31-7.93,42.83-33.48,42.83-33.48,4.34,10.41,17,6.25,20.57-7.17S390,340.9,382.35,342.56Z"/><path class="cls-14" d="M281.1,393.18a65.61,65.61,0,0,0-6-3.91c-2.12-1.37-3.51-3.34-3-5.7.42-2.14,2.17-6.38-.8-7.72a9.48,9.48,0,0,0-5.5-.44c-2.29.42-5.52,1.26-7.55,2.83,4.82,7.21,13.91,14.83,25.61,20A7.1,7.1,0,0,0,281.1,393.18Z"/><g class="cls-17"><path class="cls-18" d="M249.1,339.44c9,12.36.88,16.08,5.88,32.39s38.48,40.36,76.23,30.5C361.52,394.4,374,368.85,374,368.85c3,7.18,9.94,7.43,15.14,2.5h-.52c-2.08-.31-2.87-2.7-2.9-4.2-.05-2.47,3-5,4.37-7,3.34-4.84,1.57-10.4-4.9-11.85-2.49-.56-4-1.79-3.84-4.1a2.55,2.55,0,0,1,.54-1.47c-7.27,2-7.62,11.94-7.62,11.94-.35-15.63-1-37.48-30.13-60.87-22.86-18.34-68.28-20.54-92.9,5C241.39,309,240.05,327.08,249.1,339.44Zm131.41,25.5c-.08-1.12-.1-3.31,1.57-3.68s2.17,1.53,2.56,2.46a.19.19,0,0,1,0,.18,2.19,2.19,0,0,1,.09.72,3.14,3.14,0,0,1-1.42,2.24,1.78,1.78,0,0,1-1.93.13A2.54,2.54,0,0,1,380.51,364.94Zm-129-25.06c-2-3.54-8.49-12.33-5.64-15.08s3.09,1.82,9.34,0,9.31-10.53,9.31-10.53.2,5.59,6.46,5.54,8.66-8.85,8.66-8.85-.78,4.07,5.08,4.5,7.69-3.27,7.69-3.27,2.68,8.57,10.34,8.24,12.94-8.83,12.94-8.83,3.13,6.17,7.31,6.34,3.94-4.24,3.94-4.24c5.48,12.43,12.35,13.14,19.32,14.07,7.83,1,18.25,15.23,16.82,33.54-1.77,22.32-31.29,51.78-68.91,39.23-39.78-13.25-39.84-31.28-39.31-44C255.28,345.1,253.46,343.43,251.46,339.88Z"/></g><path class="cls-16" d="M372,350.47c-2.28-6.65-4.13-14.19-4.13-14.19s-2.11,4.5-9.13-3.5-11.16-18.5-11.16-18.5,1.75,7.94-4.94,7.44-18.83-17.43-18.83-17.43,2.23,9.07-2.71,9-5.34-8.17-5.34-8.17-3.38,11.56-13.45,11.25-9.26-12-9.26-12-1.82,8-7.86,8.62-4-8.3-4-8.3-5.27,11.31-10.61,12.14-3.22-8.82-3.22-8.82-8.1,13.07-15.16,13.64-3.45-7.92-3.45-7.92-6.47,7.44-14.55,5.6-2.42-13,9-14c0,0-6.45-5-2.34-11.13s17.34-5,17.34-5-1.55-6.48,5.72-10.61,19.27-.77,19.27-.77a13.65,13.65,0,0,1,12.8-9.85c10.6-.64,11.43,6.81,11.43,6.81s5-6,12.31-3.32a14.36,14.36,0,0,1,8.91,9.43s6.42-5.37,12.32-1.84,6.25,11,6.25,11,12-5.8,17.34,1.74c5.66,8,.59,13.24.59,13.24s8.5,0,8.62,7.25c0,0,4.57-.61,6.94,4.9,3.22,7.5-5.09,14.86-5.09,14.86C381,352.18,375.55,361.06,372,350.47Z"/><path class="cls-19" d="M367.18,317.75s.21.29.62.79a5.84,5.84,0,0,1,.67.9c.22.37.51.76.75,1.22a13,13,0,0,1,.73,1.5c.2.56.44,1.13.6,1.75.09.31.19.6.25.92s.12.65.19,1a14.89,14.89,0,0,1,.2,2,15.48,15.48,0,0,1-.34,3.9c-.07.3-.19.6-.26.89a3.25,3.25,0,0,1-.3.84,6.81,6.81,0,0,1-.34.78l-.42.69a3.82,3.82,0,0,1-.46.6c-.15.17-.29.36-.44.52-.34.27-.62.54-.89.72-.58.32-.91.52-.91.52l1-.37a11.37,11.37,0,0,0,1-.64,7.55,7.55,0,0,0,1.11-1.08l.51-.7c.17-.25.29-.52.46-.8a10.38,10.38,0,0,0,.74-1.79,11.23,11.23,0,0,0,.39-2,12.23,12.23,0,0,0-.16-4.18,10.78,10.78,0,0,0-.55-2,9.71,9.71,0,0,0-.78-1.78,11.45,11.45,0,0,0-.9-1.5,9.35,9.35,0,0,0-1-1.17,6.51,6.51,0,0,0-.83-.83Z"/><g class="cls-17"><path class="cls-16" d="M237.84,306.53a25.57,25.57,0,0,1,5.17-1.29h.13c-7.09,2.21-12.73,9.26-5.23,9.09s15.64-13.54,15.64-13.54-.52,6,5.88,5.61,10.61-11,10.61-11-1.47,6.78,3.8,7.78S284.67,294,284.67,294s-1.37,8.85,3.23,8.83,8.36-7.93,8.36-7.93-2.33,11,6.91,11.55,10.33-12.26,10.33-12.26,0,5.89,5.81,5.9,2.86-8.92,2.86-8.92,11.57,17.64,17.81,18.56,6.62-7.59,6.62-7.59,6.28,21.46,12.67,24C369,330,366.58,313,366.58,313s7.47,7.5,14.66,5.92c1.38,6.83-5.64,13.06-5.64,13.06,5.44,20.18,0,29.1-3.61,18.51-2.28-6.65-4.13-14.19-4.13-14.19s-2.11,4.5-9.13-3.5-11.16-18.5-11.16-18.5,1.75,7.94-4.94,7.44-18.83-17.43-18.83-17.43,2.23,9.07-2.71,9-5.34-8.17-5.34-8.17-3.38,11.56-13.45,11.25-9.26-12-9.26-12-1.82,8-7.86,8.62-4-8.3-4-8.3-5.27,11.31-10.61,12.14-3.22-8.82-3.22-8.82-8.1,13.07-15.16,13.64-3.45-7.92-3.45-7.92-6.47,7.44-14.55,5.6C227.48,317.74,230.21,309.79,237.84,306.53Z"/></g><path class="cls-20" d="M379.17,367c-.08-.38-.17-.83-.24-1.36a14.81,14.81,0,0,1-.2-1.76,16.16,16.16,0,0,1-.08-2.09,21,21,0,0,1,.17-2.37,15.68,15.68,0,0,1,.52-2.54,15,15,0,0,1,1-2.58,10.62,10.62,0,0,1,1.74-2.42,7,7,0,0,1,2.8-1.78,5,5,0,0,1,3.43.05,4.51,4.51,0,0,1,2,1.64,5.52,5.52,0,0,1,.69,1.75,7.18,7.18,0,0,1,.11,1.39,5.22,5.22,0,0,1-.07.88v.31a1.52,1.52,0,0,0-.05-.31c-.05-.21-.07-.5-.17-.86a11.06,11.06,0,0,0-.41-1.27,6,6,0,0,0-.9-1.47,4.1,4.1,0,0,0-1.7-1.17,3.66,3.66,0,0,0-2.31.12,5.61,5.61,0,0,0-2.07,1.47,10.1,10.1,0,0,0-1.47,2.13,12.66,12.66,0,0,0-1,2.37l-.31,1a8.37,8.37,0,0,1,1,.18,9.44,9.44,0,0,1,1.71.62A6.62,6.62,0,0,1,385,360a5,5,0,0,1,.65.73,3.14,3.14,0,0,1,.46.79,2.47,2.47,0,0,1,.24.8,2.36,2.36,0,0,1,0,.75,4.22,4.22,0,0,1-.1.62,3.25,3.25,0,0,1-.18.43,2.69,2.69,0,0,1-.19.38s-.06-.14-.14-.38a3.81,3.81,0,0,1-.13-.45c-.06-.14-.14-.31-.23-.49a3,3,0,0,0-.29-.56,4.52,4.52,0,0,0-.39-.58,6.82,6.82,0,0,0-.49-.58,7.66,7.66,0,0,0-.57-.57,23,23,0,0,0-2.56-1.94l-.64-.42c-.08.31-.15.61-.22.92-.16.78-.28,1.55-.37,2.28s-.18,1.41-.22,2.06c-.1,1.27-.17,2.36-.19,3.1s-.06,1.2-.06,1.2S379.35,367.74,379.17,367Z"/><path class="cls-21" d="M347.56,340.75s-9.92-9.5-22.39-7.15S301,352.53,322.62,368,367.67,358.88,347.56,340.75Z"/><path class="cls-22" d="M334.57,357.88c-7.24,3.38-16.23,1-20.13-5.24s-1.18-14.1,6-17.48,16.24-1,20.12,5.25S341.78,354.51,334.57,357.88Z"/><path class="cls-23" d="M337.2,369.07c-5.92,2.76-13.28.84-16.47-4.28s-1-11.54,5-14.3,13.28-.85,16.46,4.29S343.1,366.31,337.2,369.07Z"/><path class="cls-24" d="M319.26,374.18s4.4-11,18.84-13.23a22.88,22.88,0,0,0-7.34.13c.6-1.35,2.39-4.63-3-13.37-5.24-8.42-18.14-7.64-21,1.2s2.89,23.46,13.24,21A7,7,0,0,0,319.26,374.18Z"/><path class="cls-25" d="M327.26,365.41c-5.67,4.08-7.74,10-4.63,13.31s10.23,2.61,15.91-1.47,7.74-10,4.63-13.31S332.93,361.33,327.26,365.41Zm-.95,7.79a2.58,2.58,0,0,1-.24,2.56,2,2,0,0,1-2.63.76,2.21,2.21,0,0,1-.63-2.8.29.29,0,0,1,.12-.15,1.7,1.7,0,0,1,1-1,1.92,1.92,0,0,1,2.38.61Zm.26-3.21a.36.36,0,0,1,.08.5.3.3,0,0,1-.08.08,2.07,2.07,0,0,1-.23.58.65.65,0,0,1-.88.26l-.12-.08a.88.88,0,0,1-.28-.93,1.36,1.36,0,0,1,.24-.38.24.24,0,0,1,0-.12.53.53,0,0,1,.25-.26c.42-.32,1.1-.11,1,.35Z"/><g class="cls-26"><path class="cls-27" d="M320.2,344.18a9.19,9.19,0,0,0-11.07,2.8c-3.33,5-1.65,12.08,1.25,17.06a10.82,10.82,0,0,0,6.21,4.89c2.12.59,5.84-.43,7.68-1.28a9.83,9.83,0,0,0,5-5c1.84-4.31,0-9.69-2.86-13.42A16.49,16.49,0,0,0,320.2,344.18Z"/><path class="cls-28" d="M307.91,356.41c-.18-4,.92-8.16,5-10.14,5.86-2.86,11.31.71,14.87,5.22a18.32,18.32,0,0,0-1.41-2.17,16.51,16.51,0,0,0-6.17-5.1,9.19,9.19,0,0,0-11.07,2.8c-2.24,3.36-2.2,7.69-1,11.69A18.42,18.42,0,0,1,307.91,356.41Z"/><path class="cls-29" d="M315.54,358.71c2.69,5.39,7.51,8.59,10.79,7.12s3.79-7,1.1-12.43-7.52-8.58-10.8-7.12S312.84,353.3,315.54,358.71Z"/><path class="cls-30" d="M316.41,358.26c2.19,4.44,6.17,7.07,8.87,5.87s3.1-5.78.9-10.22-6.18-7.07-8.88-5.86S314.2,353.82,316.41,358.26Z"/><path class="cls-31" d="M318.29,351.55c1.77-.88,4.52.78,6.17,3.7s1.52,6-.25,6.89-4.53-.77-6.17-3.7S316.51,352.43,318.29,351.55Z"/><path class="cls-27" d="M318.84,352.57c.08-1.35-.58-2.43-1.45-2.43s-1.66,1.1-1.74,2.45.55,2.42,1.44,2.42S318.72,353.92,318.84,352.57Z"/><path class="cls-27" d="M317.9,357.35a.86.86,0,0,0-1.19-.26l0,0a1,1,0,0,0,.09,1.31.84.84,0,0,0,1.16.28l.05,0A1,1,0,0,0,317.9,357.35Z"/></g><path class="cls-32" d="M320.61,372.77a6.59,6.59,0,0,1,.34-.71c.12-.22.26-.48.46-.78s.42-.6.65-1a5.45,5.45,0,0,1,.88-1.06l1.07-1.11c.37-.38.83-.72,1.24-1.11a7,7,0,0,1,1.4-1c.5-.28,1-.68,1.47-1a10.73,10.73,0,0,1,1.5-.86l1.44-.76,1.35-.64c.83-.43,1.56-.69,2.06-.94l.78-.38a4.08,4.08,0,0,0-.89.14l-1,.18a8.16,8.16,0,0,0-1.28.29c-.46.14-1,.28-1.49.45s-1.07.41-1.62.64a14.14,14.14,0,0,0-1.65.83,16.63,16.63,0,0,0-1.61,1c-.53.35-1,.78-1.47,1.16a15,15,0,0,0-1.25,1.27,10.55,10.55,0,0,0-1,1.31,11,11,0,0,0-.7,1.26,7.88,7.88,0,0,0-.63,2A4.52,4.52,0,0,0,320.61,372.77Z"/><path class="cls-24" d="M262.37,372.63a20,20,0,0,1,17,1.7,4.89,4.89,0,0,0-2-2.68s6.34-2.37,5.07-11.82c-1.23-9.13-8.12-15.4-15.14-13.69-6.79,1.67-9.53,8.37-6.42,16.5,2.47,6.48,5,7.64,5,7.64A7.45,7.45,0,0,0,262.37,372.63Z"/><path class="cls-33" d="M271.12,371.18c-6.12-.54-11.44,2-11.87,5.63s4.16,7.07,10.28,7.63,11.43-2,11.88-5.64S277.24,371.73,271.12,371.18Zm-5.94,4.23a2.68,2.68,0,0,1-1.89,1.44c-.84.21-2-.11-2.06-.94a2.12,2.12,0,0,1,1.55-2,.61.61,0,0,1,.19,0,1.73,1.73,0,0,1,1.32-.09,1.28,1.28,0,0,1,.89,1.58h0Zm2.38-1.82a.4.4,0,0,1-.38.4,2.52,2.52,0,0,1-.54.21c-.33.13-.75-.11-.69-.42a.82.82,0,0,1,.47-.72,1.37,1.37,0,0,1,.4-.09l.1-.07a.58.58,0,0,1,.32,0c.42,0,.68.46.32.68Z"/><g class="cls-34"><path class="cls-27" d="M272.17,348.41a8.09,8.09,0,0,0-3.3-.9,7.65,7.65,0,0,0-6.2,3.22c-2.78,4.69-1.18,11.59,1.42,16.48a10.47,10.47,0,0,0,5.47,4.91c1.84.63,5-.23,6.61-1a8.38,8.38,0,0,0,4.18-4.6c1.51-4.09-.24-9.33-2.75-13A15.91,15.91,0,0,0,272.17,348.41Z"/><path class="cls-28" d="M261.84,359.74c-.24-3.85.61-7.82,4.1-9.6,5-2.56,9.79,1,12.95,5.51a21.82,21.82,0,0,0-1.26-2.14,16,16,0,0,0-5.43-5.1,8.09,8.09,0,0,0-3.3-.9,7.65,7.65,0,0,0-6.2,3.22c-1.87,3.17-1.75,7.34-.67,11.23A14.58,14.58,0,0,1,261.84,359.74Z"/><path class="cls-29" d="M267.33,361.39c1.27,5.58,5.07,9.46,8.52,8.67s5.22-6,4-11.56-5.07-9.47-8.52-8.67S266.08,355.8,267.33,361.39Z"/><path class="cls-30" d="M268.41,361.62c1,4.58,4.17,7.78,7,7.11s4.3-4.91,3.27-9.49-4.18-7.79-7-7.12S267.37,357,268.41,361.62Z"/><path class="cls-31" d="M271.84,355.18c1.89-.52,4.1,1.54,5,4.59s0,6-1.86,6.47-4.11-1.54-5-4.59S269.94,355.66,271.84,355.18Z"/><path class="cls-27" d="M272.84,356.35c.39-1.25,0-2.4-.79-2.55s-1.84.74-2.23,2-.05,2.39.78,2.55S272.42,357.61,272.84,356.35Z"/><path class="cls-27" d="M270.72,359.9a.8.8,0,0,0-1-.46l-.06,0a1,1,0,0,0-.23,1.26.81.81,0,0,0,1.05.47l.06,0A1,1,0,0,0,270.72,359.9Z"/></g><path class="cls-32" d="M264.75,371.72l.6-.1c.38,0,.92-.1,1.54-.14H269a20.08,20.08,0,0,1,2.4.2c.41.07.82.11,1.23.19s.8.13,1.17.22l1.12.23,1,.24c.63.13,1.15.28,1.52.37l.6.12a3.94,3.94,0,0,0-.45-.36,11.13,11.13,0,0,0-1.31-.83c-.3-.14-.61-.31-1-.46s-.73-.3-1.12-.43a11,11,0,0,0-1.25-.34c-.43-.13-.88-.17-1.32-.26l-1.36-.1h-1.33a9.79,9.79,0,0,0-1.21.17c-.39.06-.73.19-1.06.26a8.86,8.86,0,0,0-1.48.65A3.7,3.7,0,0,0,264.75,371.72Z"/><path class="cls-32" d="M288.42,372.94a4.49,4.49,0,0,0,1.57-.72,5.49,5.49,0,0,0,.65-.52,6.57,6.57,0,0,0,.61-.68,5.08,5.08,0,0,0,.87-1.72,6,6,0,0,0,.17-.94v-.93a3.8,3.8,0,0,0-.18-.84,4.76,4.76,0,0,0-.28-.71,3.91,3.91,0,0,0-.6-1c-.09-.12-.18-.23-.28-.34V365a6.17,6.17,0,0,1,0,1.06c0,.23,0,.45,0,.68v.74a5.1,5.1,0,0,1-.11.77,4.1,4.1,0,0,1-.18.77,7.71,7.71,0,0,1-.57,1.47,10.37,10.37,0,0,1-.72,1.25C288.84,372.44,288.42,372.94,288.42,372.94Z"/><path class="cls-32" d="M292.15,374.72l-.12-.22a3.07,3.07,0,0,0-.45-.56,5.37,5.37,0,0,0-2.33-1.43,7.2,7.2,0,0,0-1.89-.37,10.3,10.3,0,0,0-2.22.09c-.18,0-.33.06-.54.11a3.41,3.41,0,0,0-.63.24,3.76,3.76,0,0,0-1.07.73,3.59,3.59,0,0,0-1,2.14,5.85,5.85,0,0,0,1.26,4,6.72,6.72,0,0,0,3.15,2.28,5.87,5.87,0,0,0,2.82.28,6.9,6.9,0,0,0,1-.23h-.29c-.25,0-.49,0-.74,0a5.43,5.43,0,0,1-1.13-.18,5.38,5.38,0,0,1-1.33-.51,6.19,6.19,0,0,1-2.39-2.21,5.42,5.42,0,0,1-.71-1.59,3.93,3.93,0,0,1-.17-1.7,2.54,2.54,0,0,1,.62-1.43,2.83,2.83,0,0,1,.63-.46c.13-.07.23-.09.35-.15a4.29,4.29,0,0,1,.49-.13,6.69,6.69,0,0,1,.9-.15c.29,0,.62-.07.92-.07a8.62,8.62,0,0,1,1.68.1,7.16,7.16,0,0,1,2.37.85A4.29,4.29,0,0,1,292.15,374.72Z"/><path class="cls-35" d="M283.18,374.08c-1.31,2.08,2.18,4.6,8.38,2.57s2,6.21-4.59,5S282.74,374.55,283.18,374.08Z"/><path class="cls-18" d="M287.7,373.74a1,1,0,0,1,.62,1.27,1.25,1.25,0,0,1-.15.28,2.93,2.93,0,0,1-1.93.87c-1.12.18-2.55-1.31-1.52-2.13A3.11,3.11,0,0,1,287.7,373.74Z"/><path class="cls-16" d="M386.56,287.87l-.31-.59c-.21-.39-.48-1-.9-1.68a58.78,58.78,0,0,0-3.72-5.75c-.84-1.16-1.79-2.39-2.87-3.66s-2.22-2.59-3.5-3.89-2.64-2.65-4.11-3.92-3-2.54-4.6-3.75-3.28-2.33-5-3.38a51.91,51.91,0,0,0-5.25-2.82,29.83,29.83,0,0,0-5.41-1.94,10.85,10.85,0,0,0-5.54-.2,3.54,3.54,0,0,0-2.13,1.54,3.66,3.66,0,0,0-.45,2,7.68,7.68,0,0,0,.78,2.89,13.12,13.12,0,0,0,.9,1.7c.23.37.34.57.34.57s-.06-.21-.19-.63-.29-1-.47-1.78a8.24,8.24,0,0,1-.19-2.71,2.69,2.69,0,0,1,.55-1.38,2.19,2.19,0,0,1,1.35-.73,9.91,9.91,0,0,1,4.35.62,35.25,35.25,0,0,1,4.8,2.1c1.61.84,3.21,1.83,4.84,2.85s3.19,2.15,4.72,3.32,3.07,2.34,4.52,3.56,2.86,2.43,4.17,3.65,2.58,2.41,3.73,3.57,2.25,2.27,3.22,3.32c2,2.08,3.53,3.88,4.62,5.15Z"/><path class="cls-16" d="M343.31,267.63s-.11-.11-.28-.32a11.3,11.3,0,0,0-.82-.92,28.54,28.54,0,0,0-3.31-3c-.74-.57-1.55-1.18-2.46-1.77s-1.87-1.21-2.92-1.78-2.13-1.16-3.3-1.67-2.36-1-3.57-1.47a30.17,30.17,0,0,0-3.76-1.13,27.4,27.4,0,0,0-3.81-.68,15.27,15.27,0,0,0-3.7,0,7.07,7.07,0,0,0-3.2,1.12,6.86,6.86,0,0,0-.59.48l-.45.56a4.16,4.16,0,0,0-.47,1.13,3.08,3.08,0,0,0-.11,1,3.45,3.45,0,0,0,.07.85,5.52,5.52,0,0,0,.29,1.13l.14.39a2.67,2.67,0,0,0,0-.4,10.84,10.84,0,0,1,0-1.14,4.18,4.18,0,0,1,.11-.79,3,3,0,0,1,.28-.87,3.06,3.06,0,0,1,1.44-1.55,6.86,6.86,0,0,1,2.67-.62,15.89,15.89,0,0,1,3.3.22,34.69,34.69,0,0,1,3.5.78c1.2.3,2.36.72,3.55,1.13s2.34.86,3.46,1.35,2.23,1,3.27,1.49,2.05,1,3,1.52,1.81,1,2.61,1.49,1.51.92,2.13,1.33,1.15.79,1.61,1.09Z"/><path class="cls-16" d="M308,261.92a21.17,21.17,0,0,0-3.29-2.68c-.54-.36-1.14-.73-1.79-1.11a18.73,18.73,0,0,0-2.15-1.07,20.08,20.08,0,0,0-2.5-.89,15.83,15.83,0,0,0-2.82-.48h-1.51a13.08,13.08,0,0,0-1.51.32l-.31.1-.38.17a4.89,4.89,0,0,0-.69.42,2.9,2.9,0,0,0-1,1.22,3.22,3.22,0,0,0,.1,2.51,7,7,0,0,0,1.06,1.78,13.5,13.5,0,0,0,2.15,2.19c.58.47.95.71.95.71s-.25-.35-.63-.93a20.76,20.76,0,0,1-1.45-2.45,8.25,8.25,0,0,1-.63-1.65,2.33,2.33,0,0,1,.11-1.58,1.44,1.44,0,0,1,.51-.53l.39-.19.2-.08.3-.1c.31-.09.71-.12,1.06-.2a5.62,5.62,0,0,1,1.16,0,15.9,15.9,0,0,1,2.38.36c.79.2,1.58.41,2.32.67s1.47.53,2.14.81l1.9.81c1.18.52,2.15,1,2.83,1.31Z"/><path class="cls-16" d="M312,292.18l-.41,1.07c-.25.68-.62,1.64-1.1,2.76a28.45,28.45,0,0,1-1.9,3.68,11.38,11.38,0,0,1-1.38,1.79,6.17,6.17,0,0,1-1.77,1.35,4.45,4.45,0,0,1-1,.37l-.53.07h-.47l-.68-.07h-.33l-.21-.07a3.22,3.22,0,0,1-.44-.14l-.46-.23a4.64,4.64,0,0,1-1.43-1.36,7.92,7.92,0,0,1-.88-1.65,16.65,16.65,0,0,1-.79-2.78c-.14-.7-.19-1.12-.19-1.12a8.67,8.67,0,0,0-.22,1.13,10.06,10.06,0,0,0,.08,3,6.72,6.72,0,0,0,.66,2,5.31,5.31,0,0,0,1.7,2l.66.39a5.88,5.88,0,0,0,.79.31l.41.13a2,2,0,0,0,.35.06l.66.1h.93a7.53,7.53,0,0,0,.83-.1,6.23,6.23,0,0,0,1.58-.52,7.93,7.93,0,0,0,2.32-1.83,10.49,10.49,0,0,0,1.44-2.17,17.69,17.69,0,0,0,1.81-8.18Z"/><path class="cls-16" d="M348,295.18a39.9,39.9,0,0,0,.57,6.37A47.15,47.15,0,0,0,350,308a36.29,36.29,0,0,0,2.91,7.17,22.41,22.41,0,0,0,2.36,3.37,12.38,12.38,0,0,0,3.3,2.68,7.62,7.62,0,0,0,2,.83,4.1,4.1,0,0,0,2.4-.12,3.26,3.26,0,0,0,1.59-1.34,5.76,5.76,0,0,0,.66-1.53,10.86,10.86,0,0,0,.36-2.66,13,13,0,0,0-.09-2,14.74,14.74,0,0,0-.25-1.75,16.56,16.56,0,0,1-.13,1.75,16.39,16.39,0,0,1-1,4.42,3.21,3.21,0,0,1-1.73,2,4,4,0,0,1-2.93-.79,11,11,0,0,1-2.7-2.44,18.84,18.84,0,0,1-2.09-3.14,45.41,45.41,0,0,1-3-6.81c-.8-2.25-1.46-4.38-2-6.22C348.69,297.68,348,295.18,348,295.18Z"/><path class="cls-16" d="M323.55,288.82a34.59,34.59,0,0,0,2.64,5.27c.47.76,1,1.6,1.58,2.44a31.79,31.79,0,0,0,2,2.62,22.8,22.8,0,0,0,5.55,5,10,10,0,0,0,4,1.45,7.23,7.23,0,0,0,1.14,0h.6l.48-.09a6.22,6.22,0,0,0,2.06-.86,6,6,0,0,0,2.23-2.85,9.65,9.65,0,0,0,.68-2.85,16.49,16.49,0,0,0-.12-4.21c-.17-1-.33-1.56-.33-1.56s0,.58-.09,1.57a23.48,23.48,0,0,1-.64,4,12.2,12.2,0,0,1-.92,2.49,5.56,5.56,0,0,1-1.87,2.1,4.53,4.53,0,0,1-1.33.49h-.82a5.34,5.34,0,0,1-.8,0,8.87,8.87,0,0,1-3.15-1.2,18.52,18.52,0,0,1-2.81-2.1,31,31,0,0,1-2.47-2.39c-.76-.82-1.5-1.61-2.15-2.41s-1.27-1.53-1.84-2.23C325,290.77,323.55,288.82,323.55,288.82Z"/><path class="cls-16" d="M239.1,293.38h-1.87a39.3,39.3,0,0,0-4.95.58,36.1,36.1,0,0,0-6.76,1.89,20.7,20.7,0,0,0-6.8,4.12c-.24.26-.48.46-.7.74s-.42.45-.63.74a12.78,12.78,0,0,0-1.08,1.63,10.54,10.54,0,0,0-1.23,3.49,7.66,7.66,0,0,0,.21,3.43,5.8,5.8,0,0,0,1.69,2.75,4.82,4.82,0,0,0,2.74,1.16,5.68,5.68,0,0,0,2.24-.29,7.45,7.45,0,0,0,1.25-.58l.39-.24-.44.16a10,10,0,0,1-1.31.33,5.6,5.6,0,0,1-2,0,3.79,3.79,0,0,1-2-1.17,4.91,4.91,0,0,1-1.1-2.35,7.37,7.37,0,0,1,.1-2.92,9.65,9.65,0,0,1,1.21-3,8,8,0,0,1,1-1.38,6.42,6.42,0,0,1,.58-.69c.18-.2.42-.41.61-.61a21.76,21.76,0,0,1,6.1-3.91,46.77,46.77,0,0,1,6.28-2.31c1.91-.55,3.54-.95,4.69-1.22S239.1,293.38,239.1,293.38Z"/><path class="cls-16" d="M249.47,284.18a22.18,22.18,0,0,0-4.14-1.68,28,28,0,0,0-4.62-1,19.77,19.77,0,0,0-5.54.09,12.15,12.15,0,0,0-2.77.78l-.68.29c-.18.11-.36.19-.6.33a4.69,4.69,0,0,0-1.13,1,3,3,0,0,0-.76,2.54,3.89,3.89,0,0,0,1,2,6.37,6.37,0,0,0,2.85,1.71,5.9,5.9,0,0,0,.93.19h.33a7,7,0,0,1-3.08-2.53,3,3,0,0,1-.47-1.52,2,2,0,0,1,.61-1.41,4,4,0,0,1,.76-.54,5.12,5.12,0,0,1,.52-.27l.51-.21a14.57,14.57,0,0,1,2.35-.64,23.25,23.25,0,0,1,5-.28c1.64.06,3.18.23,4.5.41C247.68,283.85,249.47,284.18,249.47,284.18Z"/><path class="cls-16" d="M269.1,294.33,267,297c-.63.77-1.38,1.66-2.21,2.54a14.89,14.89,0,0,1-2.87,2.38,7.54,7.54,0,0,1-1.65.71,5.06,5.06,0,0,1-1.69.16,3,3,0,0,1-1.39-.47,3.4,3.4,0,0,1-1-1,7.28,7.28,0,0,1-.92-2,6.24,6.24,0,0,1-.22-.85,3.8,3.8,0,0,0-.17.88,5.52,5.52,0,0,0,.27,2.42,3.88,3.88,0,0,0,1,1.55,4.08,4.08,0,0,0,2.1,1,6.57,6.57,0,0,0,2.5,0,8.22,8.22,0,0,0,2.29-.9,11.53,11.53,0,0,0,3.17-2.9,15.16,15.16,0,0,0,1.79-3A12.48,12.48,0,0,0,269.1,294.33Z"/><path class="cls-9" d="M351.78,404.92c-1.67,5.58.71,11.49,4.48,16a30.76,30.76,0,0,0,3.75,3.82c2.4,2,5.14,4.08,8.73,3.69,6.17-.68,8.92-8.36,9.33-12.86.5-5.39-3-10.13-6.76-14.13a12.32,12.32,0,0,0-7.77-4.2,11.23,11.23,0,0,0-8.62,2.54A11.66,11.66,0,0,0,351.78,404.92Z"/><path class="cls-8" d="M357.41,404.35a11.8,11.8,0,0,0-1.07,9.36c1.45,5.75,5.6,12.86,11.55,14.74h.85c6.17-.68,8.92-8.36,9.33-12.86a11.27,11.27,0,0,0-.07-2.66l-.13-.08a.48.48,0,0,1-.12-.67.34.34,0,0,1,.12-.12c-.87-4-3.62-7.5-6.53-10.6l-.22-.22a9.7,9.7,0,0,0-1.62-.87C365.17,398.51,359.59,400.78,357.41,404.35Z"/><path class="cls-36" d="M311.84,336.06c3-.09,5.83-.14,8.77.06a19.08,19.08,0,0,1,9,3.08c.37-.2.63-.43.63-.65-.1-3.69-2.92-5.11-8.3-6.21-7.84-1.63-15.19-.37-21.85-4.52C291.19,336.18,307.84,336.18,311.84,336.06Z"/><path class="cls-36" d="M297.92,335.32c-.75-.84-2-1.21-2.88-2a9.21,9.21,0,0,1-1.1-1.39c-.26-.38-.28-.79-.58-1.13-.15-.18-.37.2-.36.31.1,1.18-.32,2.39.51,3.51s2.06,2.48,3.78,2.06C297.84,336.53,298.27,335.73,297.92,335.32Z"/><path class="cls-36" d="M276.1,336.12a6.16,6.16,0,0,1-.27,2c-.28.78.44,1.73,1.2.84s.46-2.52-.08-3.56C276.64,334.8,276.1,335.88,276.1,336.12Z"/><path class="cls-37" d="M337.72,456.9l-1.66-3.17s-24.52,12.53-29.22,29.45c0,0,4.57-.2,12.89-3.22S339.22,464.49,337.72,456.9Z"/><path class="cls-6" d="M392.78,474.27c.63,1,11.76,30.43-24.11,38.75s-61.83-29.84-61.83-29.84,22-7.64,29.2-29.48l32.61,24.7,13.6-1.87Z"/><path class="cls-38" d="M392.78,474.27l-10.51,2.29-13.6,1.87-32.61-24.7a43.89,43.89,0,0,1-9.63,16.17,19.41,19.41,0,0,1,2.39.47c3.76,1,7.37,2.32,11,3.59s7.14,2.5,10.67,3.85q4.69,1.62,9.36,3.28c-2.12-3.06-6.34-10.06-5.75-9.65,8.21,5.75,33,26.35,30.2,29.49-3.07,3.49-8.65,5.93-13.44,7.06a84.28,84.28,0,0,1-22,2,46.27,46.27,0,0,1-19.12-4.88c10.4,6.7,23.78,11.48,38.95,8C404.54,504.7,393.41,475.32,392.78,474.27Z"/><path class="cls-39" d="M380.93,485.45a44.54,44.54,0,0,0,4,8.81c1.85-2,1.77-5.14,2.27-7.48.8-3.83,1.39-7.63.73-11.46l-5.65,1.24-2.6.36A21,21,0,0,0,380.93,485.45Z"/><path class="cls-36" d="M272.72,333.54c-5.78,5-18,6-18.06,14h0A47.82,47.82,0,0,1,269,341.35c2.75-.62,4.64-2.1,5.46-4.3A3,3,0,0,0,272.72,333.54Z"/><path class="cls-5" d="M368.67,478.43s11.06,6.89,14.74,15.09C383.41,493.52,373.44,482.05,368.67,478.43Z"/><path class="cls-14" d="M303.84,428.81a24.45,24.45,0,0,0-4.4-4.63c-5.13,2.49-19.78,7.86-22.81,9.65-.07,3.48,2.34,10.8,3.9,10.62,7-2.14,20.1-5.31,27.5-7.64a25.07,25.07,0,0,0-2.15-5.06C305.26,430.72,304.53,429.77,303.84,428.81Z"/><g class="cls-40"><path class="cls-14" d="M306,437.41c.73-.22,1.43-.42,2.08-.63a25.07,25.07,0,0,0-2.15-5.06c-.62-1-1.35-2-2-2.91a24.35,24.35,0,0,0-4.44-4.63c-.78.38-1.79.83-2.94,1.32A25.41,25.41,0,0,1,306,437.41Z"/></g><path class="cls-18" d="M279.55,444.59a7.94,7.94,0,0,1-6.86-5.93c-1.51-5.59-5.25-40.66-5.25-40.66l12.14.65s8.87,35.87,7.24,40.7S279.55,444.59,279.55,444.59Z"/><path class="cls-14" d="M276.06,404.18a33.45,33.45,0,0,0,4.64-.84c-.68-2.86-1.12-4.67-1.12-4.67L267.44,398s.31,2.9.78,7.15C270.84,405.41,273.38,404.6,276.06,404.18Z"/><path class="cls-14" d="M279.84,433.8a10.14,10.14,0,0,0-7.49,3.07c.15.74.26,1.36.39,1.79a7.94,7.94,0,0,0,6.86,5.93s5.63-.39,7.27-5.24a10.62,10.62,0,0,0,.13-3.42A14.51,14.51,0,0,0,279.84,433.8Z"/><path class="cls-18" d="M265.84,403.18c-4.77-.39-10-2-13.44-5.39h-.06a14.83,14.83,0,0,1-3.18-5.64c-1.64-5.36-2.13-7.28.51-11.54s5.44-3.48,4.37,2.79c3-5.33,8.67-7.93,7.76-4.87,2.48-3.21,5.32-1.9,5.26,0,3.81-4.65,5.71-.67,4.36,2.4s-2.11,8.12,1.91,10.2c6.73,3.24,10.59,7.49,7.25,10.8A47.79,47.79,0,0,1,265.84,403.18Z"/><path class="cls-41" d="M254.36,382.8a6.13,6.13,0,0,0-.9,1.74,8,8,0,0,0-.39,1.94,7.3,7.3,0,0,0,.16,2.28c.07.37.23.75.33,1.13a6.17,6.17,0,0,0,.47,1,8.77,8.77,0,0,0,.57.92,7.6,7.6,0,0,0,.62.76,9.44,9.44,0,0,0,1,1l.43.35s-.1-.18-.29-.47a5.5,5.5,0,0,0-.34-.5c-.13-.19-.24-.44-.38-.68s-.31-.53-.45-.8l-.42-.91a14.14,14.14,0,0,1-.65-2,13.39,13.39,0,0,1-.26-2.1,14.48,14.48,0,0,1,.09-1.86A8.54,8.54,0,0,1,254.36,382.8Z"/><path class="cls-41" d="M261.29,379.74a3.92,3.92,0,0,0-.45.46,9.09,9.09,0,0,0-.9,1.38,8.09,8.09,0,0,0-.77,2.18,10.72,10.72,0,0,0-.22,2.59,14,14,0,0,0,.43,2.56,12.43,12.43,0,0,0,.83,2.12,15.38,15.38,0,0,0,.82,1.42l.35.52a4,4,0,0,0-.16-.59,11.19,11.19,0,0,1-.47-1.49c-.1-.32-.19-.66-.29-1s-.15-.74-.24-1.13-.12-.8-.18-1.2a10.37,10.37,0,0,1-.11-1.25v-1.24a4.91,4.91,0,0,1,.1-1.21,15.23,15.23,0,0,1,.45-2.11,13.1,13.1,0,0,1,.54-1.48A4.46,4.46,0,0,1,261.29,379.74Z"/><path class="cls-41" d="M267.24,378.68a3.44,3.44,0,0,0-.35.41,5.21,5.21,0,0,0-.36.55,5.34,5.34,0,0,0-.39.75,8.84,8.84,0,0,0-.61,1.93,5.47,5.47,0,0,0-.2,1.13c0,.38-.07.77-.1,1.17a14.71,14.71,0,0,0,.1,2.3,8.47,8.47,0,0,0,.35,2c.3,1.14.56,1.88.56,1.88v-3.87a10.09,10.09,0,0,0,0-1.1,7.11,7.11,0,0,1,0-1.13c0-.74.08-1.48.17-2.22,0-.35.06-.7.12-1s.14-.62.19-.91.14-.53.19-.76a2.9,2.9,0,0,1,.18-.57A2.73,2.73,0,0,1,267.24,378.68Z"/><path class="cls-18" d="M313.6,452.64S287.68,428.18,273.76,439s-10.08,89-10.08,89,6,3.32,15.33,2.29l8.83-66.07,10.2,8S308.66,464.94,313.6,452.64Z"/><path class="cls-14" d="M283.07,473.54c-1.4,9.4-2.4,18.82-3.61,28.22-.61,4.76-.9,9.59-1.63,14.31-.32,2.16-.66,5.23-2.87,6.6-1.56,1-4.14-1.73-5.41-2a10.51,10.51,0,0,0-6.13.34c.13,4.39.26,7,.26,7s6,3.32,15.33,2.29l8.83-66.12.07.05a45.7,45.7,0,0,0-3.9-16.5C285.25,456.34,284.32,465,283.07,473.54Z"/><path class="cls-42" d="M285.73,534c0,2.29-1.14,3-2.63,4-2.27,1.59-30.49,10.26-54.13,2-1-.33-1.34-2.06-.78-4.12,5.95,2.37,16,5.05,29.8,4.05C272.65,538.92,281.32,536,285.73,534Z"/><path class="cls-43" d="M247,527.23c7.05-.63,13-.8,13.73-1.38,1-.82.26-3.91,4.55-4.57,4.83-.5,8,4.21,8,4.21,5.7.32,6.82-3.3,6.82-3.3s2.64-.58,4.68,6.47a19.17,19.17,0,0,1,1,5.36c-4.41,2-13.08,4.9-27.74,6l-2.27.12C254.22,532.4,250.4,528.84,247,527.23Z"/><path class="cls-44" d="M238,528.3c3-.48,6.1-.81,9-1.07,3.42,1.61,7.24,5.17,8.74,12.89A66.1,66.1,0,0,1,228.18,536C229,533,231.84,529.27,238,528.3Z"/><path class="cls-27" d="M266.11,531h.08a.45.45,0,0,0,.31-.54l0,0c-2.12-4.56-5.56-5-5.7-5a.5.5,0,0,0-.58.38h0a.45.45,0,0,0,.4.5h0c.12,0,3,.42,4.87,4.45A.57.57,0,0,0,266.11,531Z"/><path class="cls-27" d="M262.3,532.18a.46.46,0,0,0,.4-.51h0a7.63,7.63,0,0,0-4.51-5.74.57.57,0,0,0-.69.25.43.43,0,0,0,.24.56l.06,0h0a6.73,6.73,0,0,1,3.88,5.06.49.49,0,0,0,.6.37h0Z"/><path class="cls-27" d="M258.7,532.43a.46.46,0,0,0,.41-.52v0a8.47,8.47,0,0,0-4.42-5.63.55.55,0,0,0-.7.17.44.44,0,0,0,.16.6l0,0a7.63,7.63,0,0,1,3.88,5,.52.52,0,0,0,.61.36Z"/><path class="cls-45" d="M295.78,440.05c-6.66,3.64-9.62,12.69-10.75,18.82a104,104,0,0,0-1.4,19.22c0,4.65-.3,9.42.5,14.05l3.71-28,10.2,8s10.59-7.22,15.53-19.52A86.37,86.37,0,0,0,295.78,440.05Z"/><path class="cls-18" d="M335,456.64S309.06,432.18,295.14,443s-10.08,89-10.08,89,6,3.31,15.33,2.28l8.86-66.06,10.21,8S330,468.93,335,456.64Z"/><path class="cls-14" d="M304.44,477.55c-1.38,9.39-2.39,18.8-3.6,28.2-.61,4.76-.89,9.59-1.62,14.32-.33,2.15-.67,5.22-2.87,6.6-1.56,1-4.13-1.73-5.42-2a10.48,10.48,0,0,0-6.12.33c.12,4.39.25,7,.25,7s6,3.31,15.33,2.28l8.86-66.15h.07a45.84,45.84,0,0,0-3.89-16.49C306.63,460.35,305.72,469,304.44,477.55Z"/><path class="cls-42" d="M307.12,538c0,2.3-1.15,3-2.63,4-2.28,1.59-30.5,10.25-54.14,2-.94-.33-1.33-2.06-.78-4.1,6,2.37,16,5,29.81,4C294,542.92,302.7,540,307.12,538Z"/><path class="cls-43" d="M268.38,531.18c7-.62,13-.79,13.71-1.37,1-.81.27-3.92,4.56-4.58,4.82-.49,8,4.22,8,4.22,5.69.31,6.81-3.3,6.81-3.3s2.65-.58,4.68,6.46a19.17,19.17,0,0,1,1,5.36c-4.42,2-13.09,4.91-27.74,6-.77,0-1.53.1-2.28.13C275.6,536.39,271.78,532.84,268.38,531.18Z"/><path class="cls-44" d="M259.35,532.29c3-.48,6.1-.81,9-1.07,3.4,1.62,7.22,5.17,8.72,12.9A66.58,66.58,0,0,1,249.54,540C250.39,537,253.24,533.26,259.35,532.29Z"/><path class="cls-27" d="M287.49,535h.08a.43.43,0,0,0,.31-.52.19.19,0,0,0,0-.07c-2.12-4.57-5.56-5-5.7-5a.51.51,0,0,0-.58.4.45.45,0,0,0,.4.5h0c.12,0,3,.42,4.87,4.45A.52.52,0,0,0,287.49,535Z"/><path class="cls-27" d="M283.69,536.18a.46.46,0,0,0,.4-.53,7.68,7.68,0,0,0-4.52-5.74.55.55,0,0,0-.67.25.43.43,0,0,0,.2.57l.08,0h0a6.77,6.77,0,0,1,3.89,5.06.51.51,0,0,0,.6.36Z"/><path class="cls-27" d="M280.08,536.42a.46.46,0,0,0,.41-.5v0a8.45,8.45,0,0,0-4.42-5.65.57.57,0,0,0-.71.18.46.46,0,0,0,.19.61h0a7.66,7.66,0,0,1,3.88,5,.51.51,0,0,0,.61.36Z"/><path class="cls-46" d="M334.91,358.51a2.13,2.13,0,0,0-2.21-1.17,8.78,8.78,0,0,0-4.18,1.19c-1.2.69-3.31,2.47-1.6,3.74a4.31,4.31,0,0,0,2.28.56,7.1,7.1,0,0,0,5-1.85A2.33,2.33,0,0,0,334.91,358.51Z"/><path class="cls-27" d="M330.12,359.52a.77.77,0,0,0-.8-.42,3.1,3.1,0,0,0-1.51.43c-.43.25-1.21.89-.59,1.35a1.6,1.6,0,0,0,.83.21,2.6,2.6,0,0,0,1.82-.67A.85.85,0,0,0,330.12,359.52Z"/><path class="cls-46" d="M339.59,358.49a2.1,2.1,0,0,0-1.28.72,1.06,1.06,0,0,0-.26,1.17,1.42,1.42,0,0,0,1.3.55,2.59,2.59,0,0,0,2.32-1.79C341.84,358.05,340.37,358.1,339.59,358.49Z"/><path class="cls-27" d="M340.11,359.28a.42.42,0,0,0-.43-.23,1.89,1.89,0,0,0-.8.23c-.23.13-.63.48-.3.71a.76.76,0,0,0,.44.11,1.29,1.29,0,0,0,1-.36A.43.43,0,0,0,340.11,359.28Z"/><path class="cls-46" d="M261.55,374.28a5.59,5.59,0,0,0,3.82-2,2.55,2.55,0,0,0,.68-1.57c-.13-1.57-2.49-1.24-3.59-.89a6.61,6.61,0,0,0-2.91,1.81,1.33,1.33,0,0,0-.19,1.81A2.63,2.63,0,0,0,261.55,374.28Z"/><path class="cls-27" d="M263.22,371.52a2,2,0,0,0,1.39-.71.89.89,0,0,0,.24-.57c0-.57-.9-.46-1.29-.32a2.39,2.39,0,0,0-1.06.65.49.49,0,0,0-.06.66A1,1,0,0,0,263.22,371.52Z"/><path class="cls-46" d="M256.59,377.61a2.4,2.4,0,0,0,2.47-.47c.24-.3.43-.63.22-1a1.23,1.23,0,0,0-1-.42,1.8,1.8,0,0,0-1.16.38C256.43,376.36,255.69,377.18,256.59,377.61Z"/><path class="cls-27" d="M257.84,376.93a1,1,0,0,0,.73-.38.5.5,0,0,0,.12-.29c0-.3-.47-.23-.68-.16a1.12,1.12,0,0,0-.55.33.26.26,0,0,0,0,.35A.5.5,0,0,0,257.84,376.93Z"/><path class="cls-16" d="M271.94,333.23c-5.63,4.73-17.5,5.69-17.58,13.22h0a47.43,47.43,0,0,1,14-5.83,6.91,6.91,0,0,0,5.31-4.07A2.82,2.82,0,0,0,271.94,333.23Z"/><path class="cls-16" d="M312.46,335a82.23,82.23,0,0,1,8.6,0,18.28,18.28,0,0,1,8.84,3c.36-.19.64-.42.63-.64-.08-3.69-2.82-5.09-8.12-6.17-7.67-1.59-15.78.65-22.29-3.46C293.84,334.09,308.58,335.18,312.46,335Z"/><path class="cls-27" d="M320.15,398.5c-1.7-1.33-7.14-1-9.55-.51-1.7.33-5.79,1.88-4.32,3.06a.5.5,0,0,0,.42.23.82.82,0,0,0,.44,0c2.42-.09,4.44-.77,6.8-1,1.92-.2,4.5-.11,5.85-1C320,399.11,320.42,398.72,320.15,398.5Z"/><path class="cls-14" d="M357.13,396.59s-3.82,18.84,3.83,25.7c6.65,6,15.08,3.59,15.08-12.72,0-9.46-3.59-14.44-3.59-14.44Z"/><path class="cls-47" d="M390.21,381.79c-.53-.35-2.25.11-3.74,1.38a105.18,105.18,0,0,0-9.71,9.17c1.21-4.47,9.23-16.8,6.7-19.21a2.67,2.67,0,0,0-3.71-.32,11.08,11.08,0,0,0-3.06,3.51,20.44,20.44,0,0,0-1.29,2.56,84.14,84.14,0,0,1-6.73,11.2c1.45-6.68,5-24.93.31-24.95-3.34,0-4.77,7.45-5.2,9.45s-2.65,13.17-3,15.15c-.66-5-1.33-16.25-2.13-21.36-.48-2.93-2.64-4.85-5.27-2.65-3.39,2.81,1,24.79,0,29-5.37,3.1-11.72-4.43-15.62-5.2-2.76-.53-8.29,2.71-5.82,6.7.82,1.3,7.71,2.28,11.45,5s6.29,5.84,9.25,8.92c7.66,7.94,22.17,9.71,28.81-.07a14.13,14.13,0,0,0,2.25-8.58c-.27-3.36-1.5-4.88.48-7.8a75.42,75.42,0,0,1,4.67-6.15C392.37,383.26,391.3,382.49,390.21,381.79Z"/><path class="cls-18" d="M372.57,413.86c-6.69,1.26-14.25.7-18.93-4.22-2.59-2.73-4.34-6.08-7.41-8.48-3.5-2.72-7.25-2.65-11.23-4.27a6,6,0,0,1-3.57-3.53,3.55,3.55,0,0,0,.5,2.9c.82,1.3,7.71,2.28,11.45,5s6.29,5.84,9.25,8.92c7.66,7.94,22.17,9.71,28.81-.07a13.5,13.5,0,0,0,2.09-5.46C381.28,408.9,378.62,412.72,372.57,413.86Z"/><path class="cls-18" d="M386,390c-1.11,1.23-4.6,5.3-6.87,3.26a2.6,2.6,0,0,1-.71-2.64c-.53.53-1.07,1.09-1.65,1.71.58-2.11,2.66-6,4.44-9.71-1.26,2.31-2.81,5-5.19,6.45-1.81,1.08-4.3.6-4.69-1.56a9.78,9.78,0,0,1-.13-1.2c-.91,1.41-1.8,2.75-2.52,3.76.39-1.83,1-4.55,1.45-7.52-.11.34-.24.67-.38,1-.64,1.49-2,4.42-4.32,4.42-2.69,0-3-3.3-3.13-5v-.88c-.65,3.3-1.31,6.58-1.48,7.56-.27-2-.53-5-.81-8.2l-.21,1.36c-.27,1.44-.89,5.41-3.35,5.54-1.78.09-2.76-1.2-3.37-2.58.24,2.59.45,4.94.47,6.66h0a52.79,52.79,0,0,1,5.72-.92,36.61,36.61,0,0,1,9.86.41,55.28,55.28,0,0,1,14.13,3.66,6.43,6.43,0,0,1,.94-2,75.42,75.42,0,0,1,4.67-6.15c.28-.33.51-.63.73-.93A45.75,45.75,0,0,0,386,390Z"/><path class="cls-15" d="M368.32,410.49s-2.35-11.51-14.68-13C353.64,397.53,365.51,402.07,368.32,410.49Z"/><path class="cls-48" d="M354.33,401.08c-1.23-.24-2.75-.07-3.46-1.15-.53-.78-.1-2.49,1.67-1.69.41.19.8.4,1.21.6.17.09.4-.14.36-.28v-.07a.09.09,0,0,0-.09-.08c-.71-.9-1.35-1.62-2.71-1.35-1.16.23-1.74,1.61-1.88,2.48-.23,1.45.88,2.26,2.35,2.57a19.36,19.36,0,0,1,4.12,1c2.25,1-1.48,3.45-2.64,1.54-.3-.47-1.28.36-1,.78a3,3,0,0,0,3.08,1.08,3.75,3.75,0,0,0,2.68-2.9C358.39,402,355.49,401.31,354.33,401.08Z"/><path class="cls-48" d="M363.59,394.42c-.9-.35-2.42.33-3.26.56a48.85,48.85,0,0,0-5,1.81c-.44.08-.69.9-.24.82a40.19,40.19,0,0,0,4-1.24h.1c0,2.86,1.23,5.83,1.76,8.64.14.72,1.44-.26,1.15-.7a26.34,26.34,0,0,0-1.11-4.64,11.26,11.26,0,0,0-1.06-3.5c1-.25,2-.42,3-.67a.38.38,0,0,0,.29-.06,1,1,0,0,0,.24-.16C363.72,395.1,364,394.58,363.59,394.42Z"/><path class="cls-48" d="M372.51,396.87a3.21,3.21,0,0,0-3.33-2c-1.29-.83-3.89.28-4.91,1.21-2.16,2-2.34,5.17.23,7s6.07.15,7.42-2.09A5.32,5.32,0,0,0,372.51,396.87Zm-1.21,2.63a3.69,3.69,0,0,1-4.3,3,3.61,3.61,0,0,1-1.06-.37,3.33,3.33,0,0,1-1.76-4.37,2.69,2.69,0,0,1,.19-.38,4.82,4.82,0,0,1,3.35-1.82.22.22,0,0,0,.16.16c.58.2,1.18.31,1.77.47h0a5.73,5.73,0,0,1,.82.3c1.11.54,1,2.18.83,3.05Z"/><path class="cls-48" d="M379.12,395.37a10.49,10.49,0,0,0-4-.63.2.2,0,0,0-.23,0h0a5.21,5.21,0,0,0-1.7.35c-.27.09-.32.38-.18.44h0a11.26,11.26,0,0,0,1.4.3,23.89,23.89,0,0,0-.46,3.38v.65c-.27.15-.85.81-.32.88h.26c-.07,1.08-.08,2.16-.06,3.24h0c.07.58,1-.07,1.1-.45a8.86,8.86,0,0,0,.11-2.67c2.5.13,6-.18,6.29-2.59C381.43,396.87,380.57,396,379.12,395.37Zm0,4a6,6,0,0,1-1.52.25c-.9.07-1.79,0-2.67.05v-.06c.07-1.16,0-2.43.1-3.63,1.57.19,3.15.3,4.38,1.33a1.17,1.17,0,0,1-.28,2Z"/><path class="cls-15" d="M361.34,391h.92a13.48,13.48,0,0,1,1.8.08c1.75.09,3.5.2,5.24.4a41.94,41.94,0,0,1,9.87,2.38c-2.7-2.41-7.77-3.18-11.33-3.67a28.29,28.29,0,0,0-12.46,1.18c-.11,0-.27.21-.25.31A47.94,47.94,0,0,1,361.34,391Z"/><ellipse class="cls-49" cx="275.84" cy="296.62" rx="266.84" ry="270.03"/></g><g class="cls-50"><text class="cls-51" transform="translate(174.99 147.89) scale(1.02 1)">ფიზიკურ</text><text class="cls-51" transform="translate(138.4 216.73) scale(1.02 1)">ძალადობას</text></g></g></g></svg>