<svg xmlns="http://www.w3.org/2000/svg" xmlns:xlink="http://www.w3.org/1999/xlink" viewBox="0 0 1920 1096"><defs><style>.cls-1{fill:#c9eff4;}.cls-2{fill:#322d63;}.cls-3{fill:#de5e50;}.cls-4{fill:url(#linear-gradient);}.cls-5{fill:#eb8300;}.cls-6{fill:url(#linear-gradient-2);}.cls-7{fill:#e46832;}.cls-8{fill:url(#linear-gradient-3);}.cls-9{fill:url(#linear-gradient-4);}.cls-10{fill:#6aa8c6;}.cls-11{fill:url(#linear-gradient-5);}.cls-12{fill:url(#linear-gradient-6);}.cls-13{fill:url(#linear-gradient-7);}.cls-14{fill:url(#linear-gradient-8);}.cls-15{fill:url(#linear-gradient-9);}.cls-16{fill:url(#linear-gradient-10);}.cls-17{fill:url(#linear-gradient-11);}.cls-18{fill:url(#linear-gradient-12);}.cls-19{fill:#f0f0c8;}.cls-20{fill:#646195;}.cls-21{fill:#565a8b;}.cls-22{fill:url(#linear-gradient-13);}.cls-23{fill:url(#linear-gradient-14);}.cls-24{opacity:0.2;isolation:isolate;fill:url(#linear-gradient-15);}.cls-25{fill:url(#linear-gradient-16);}.cls-26{fill:url(#linear-gradient-17);}</style><linearGradient id="linear-gradient" x1="1157.42" y1="290.44" x2="1277.22" y2="221.66" gradientTransform="matrix(1, 0, 0, -1, 0, 1082)" gradientUnits="userSpaceOnUse"><stop offset="0" stop-color="#575581" stop-opacity="0"/><stop offset="1" stop-color="#130030"/></linearGradient><linearGradient id="linear-gradient-2" x1="1230.09" y1="523.12" x2="1490.68" y2="523.12" xlink:href="#linear-gradient"/><linearGradient id="linear-gradient-3" x1="1152.7" y1="177.1" x2="1377.32" y2="481.59" xlink:href="#linear-gradient"/><linearGradient id="linear-gradient-4" x1="1313.22" y1="130.64" x2="1172.52" y2="233.96" gradientTransform="matrix(1, 0, 0, -1, 0, 1082)" gradientUnits="userSpaceOnUse"><stop offset="0" stop-color="#575581" stop-opacity="0"/><stop offset="1" stop-color="#575581"/></linearGradient><linearGradient id="linear-gradient-5" x1="1502.67" y1="310.19" x2="1035.77" y2="102.12" xlink:href="#linear-gradient-4"/><linearGradient id="linear-gradient-6" x1="1434.88" y1="368.04" x2="1457.15" y2="538.76" xlink:href="#linear-gradient-4"/><linearGradient id="linear-gradient-7" x1="1643.39" y1="470.76" x2="1318.25" y2="-41.59" xlink:href="#linear-gradient-4"/><linearGradient id="linear-gradient-8" x1="1209.89" y1="404.92" x2="1603.38" y2="219.6" xlink:href="#linear-gradient-4"/><linearGradient id="linear-gradient-9" x1="1120.23" y1="221.08" x2="1515.33" y2="35" xlink:href="#linear-gradient-4"/><linearGradient id="linear-gradient-10" x1="1179.8" y1="243.26" x2="1421.52" y2="490.01" xlink:href="#linear-gradient-4"/><linearGradient id="linear-gradient-11" x1="1265.29" y1="325.98" x2="1325.87" y2="381.51" xlink:href="#linear-gradient"/><linearGradient id="linear-gradient-12" x1="1407.5" y1="439.03" x2="1471.72" y2="179.68" xlink:href="#linear-gradient-4"/><linearGradient id="linear-gradient-13" x1="1457.68" y1="182.38" x2="1340.35" y2="314.8" xlink:href="#linear-gradient"/><linearGradient id="linear-gradient-14" x1="1134.15" y1="239.23" x2="1170.87" y2="239.23" xlink:href="#linear-gradient-4"/><linearGradient id="linear-gradient-15" x1="1435.77" y1="722.11" x2="1407.27" y2="370.25" xlink:href="#linear-gradient-4"/><linearGradient id="linear-gradient-16" x1="1276.43" y1="695.56" x2="1524.92" y2="669.95" gradientTransform="matrix(1, 0, 0, -1, 0, 1082)" gradientUnits="userSpaceOnUse"><stop offset="0" stop-color="#f2f2f2" stop-opacity="0"/><stop offset="1" stop-color="#f2f2f2"/></linearGradient><linearGradient id="linear-gradient-17" x1="1440.71" y1="575.42" x2="1547.84" y2="575.42" xlink:href="#linear-gradient-16"/></defs><title>ფსიქოლოგიური</title><g id="Layer_1" data-name="Layer 1"><rect class="cls-1" x="10" y="15" width="1900" height="1071"/><path class="cls-2" d="M1900,20V1071H20V20H1900m20-20H0V1091H1920V0Z" transform="translate(0 5)"/></g><g id="Layer_2" data-name="Layer 2"><path class="cls-3" d="M1401.5,684.89s-131.16-130-165-99.16-77.65,57.48-75.77,99.16,24.45,246.49,16.93,264.62-30.1,27.18-56.44,29-54.56,18.12-56.44,29,43.27,13.3,53.31,10.88,55.18-7.25,71.48-4.83,51.74,3.62,57.22-10.88,2-33.83,0-58S1256,844.38,1261,794.85s23.83-101.5,23.83-101.5Z" transform="translate(0 5)"/><path class="cls-4" d="M1401.5,684.89s-131.16-130-165-99.16-77.65,57.48-75.77,99.16,24.45,246.49,16.93,264.62-30.1,27.18-56.44,29-54.56,18.12-56.44,29,43.27,13.3,53.31,10.88,55.18-7.25,71.48-4.83,51.74,3.62,57.22-10.88,2-33.83,0-58S1256,844.38,1261,794.85s23.83-101.5,23.83-101.5Z" transform="translate(0 5)"/><path class="cls-5" d="M1235.65,519.29s-22.23,67.54,22.22,105.42,61.56,56,83.78,21.42S1396.37,605,1422,609.89s63.27-31.3,68.4-59.3-63.27-42.83-92.33-74.13S1271.55,433.64,1235.65,519.29Z" transform="translate(0 5)"/><path class="cls-6" d="M1235.65,519.29s-22.23,67.54,22.22,105.42,61.56,56,83.78,21.42S1396.37,605,1422,609.89s63.27-31.3,68.4-59.3-63.27-42.83-92.33-74.13S1271.55,433.64,1235.65,519.29Z" transform="translate(0 5)"/><path class="cls-7" d="M1380.8,746.52S1211.49,583.4,1177.63,614.21s-39.51,90.62-37.63,132.31,24.46,246.48,16.93,264.61-30.1,27.19-56.43,29-54.56,18.12-56.44,29,43.27,13.29,53.3,10.87,55.19-7.25,71.49-4.83,51.73,3.62,57.22-10.88,2-33.83,0-58,25.56-91.83,30.57-141.36,7.52-110,7.52-110Z" transform="translate(0 5)"/><path class="cls-8" d="M1380.81,746.51,1305,752l-40.85,3s-2.51,60.4-7.52,109.95-32.6,117.2-30.57,141.37,5.49,43.5,0,58c-2,5.17-7.71,8.33-15,10.18-13.26,3.31-31.68,2.25-42.18.69-16.29-2.42-61.45,2.42-71.48,4.84s-55.18,0-53.3-10.89,30.09-27.18,56.44-29,48.9-10.87,56.43-29-15-222.92-16.93-264.61,3.76-101.49,37.63-132.3S1380.81,746.51,1380.81,746.51Z" transform="translate(0 5)"/><path class="cls-9" d="M1305,752l-40.85,3s-2.51,60.4-7.52,109.95-32.6,117.2-30.57,141.37,5.49,43.5,0,58c-2,5.17-7.71,8.33-15,10.18,14.21-20.64-7.23-76,1.39-101.1,9.8-28.56,6.14-218.53,6.14-218.53,27.35-29.65,82.1-18.77,85.49-6.53C1304.29,749.26,1304.62,750.5,1305,752Z" transform="translate(0 5)"/><path class="cls-10" d="M1699,803.16c0,79.07-33,201-53.57,221.83s-85.49,41.73-123.1,43.93-124.25,13.18-156.18,0-13.67,7.68-72.94-7.69c-42.83-11.1-41.61-52.58-37.64-83.45,1.52-11.86,3.45-22.15,3.45-28.56,0-23.06-18.24-36.24-41.36-57.11a46.06,46.06,0,0,1-14.74-25.33c-3.83-17.15-.49-38.32.24-65.81,1.08-40.59,6.26-79.22-3.88-95.28a18.27,18.27,0,0,0-1.81-2.45c-10.91-12.42-23.53-44.74-27.38-72.32a119.09,119.09,0,0,1-1.13-12c-1.14-29.47,29.63-37.53,67.51-33.15s60.16,42.83,71.55,65.89,67.26,99.94,52.37,77.64-18.74-83.12-15.83-87.39,13.63-25.38,45-68.21,63.62-61,94-69.18c0,0,42.18-4.4,118,69.18S1699,724.09,1699,803.16Z" transform="translate(0 5)"/><path class="cls-11" d="M1699,803.16c0,79.07-33,201-53.57,221.83s-85.49,41.73-123.1,43.93-124.25,13.18-156.18,0-13.67,7.68-72.94-7.69c-42.83-11.1-41.61-52.58-37.64-83.45,1.52-11.86,3.45-22.15,3.45-28.56,0-23.06-18.24-36.24-41.36-57.11a46.06,46.06,0,0,1-14.74-25.33c-3.83-17.15-.49-38.32.24-65.81,1.08-40.59,6.26-79.22-3.88-95.28a18.27,18.27,0,0,0-1.81-2.45c-10.91-12.42-23.53-44.74-27.38-72.32a119.09,119.09,0,0,1-1.13-12c-1.14-29.47,29.63-37.53,67.51-33.15s60.16,42.83,71.55,65.89,67.26,99.94,52.37,77.64-18.74-83.12-15.83-87.39,13.63-25.38,45-68.21,63.62-61,94-69.18c0,0,42.18-4.4,118,69.18S1699,724.09,1699,803.16Z" transform="translate(0 5)"/><path class="cls-12" d="M1699,803.16c0,79.07-33,201-53.57,221.83-7.91,8.06-22.45,16.11-39.48,23.08-27.1,11.1-60.52,19.5-83.62,20.85-37.62,2.2-124.25,13.18-156.18,0s-13.67,7.68-72.94-7.69c-42.83-11.1-41.61-52.58-37.64-83.45,1.52-11.86,3.45-22.15,3.45-28.56,0-23.06-18.24-36.24-41.36-57.11a46.06,46.06,0,0,1-14.74-25.33c-3.83-17.15-.49-38.32.24-65.81,1.08-40.59,6.26-79.22-3.88-95.28a18.27,18.27,0,0,0-1.81-2.45c-10.91-12.42-23.53-44.74-27.38-72.32a119.09,119.09,0,0,1-1.13-12c-1.14-29.47,29.63-37.53,67.51-33.15s60.16,42.83,71.55,65.89,67.26,99.94,52.37,77.64-18.74-83.12-15.83-87.39,13.63-25.38,45-68.21c12.63-17.28,25.44-30.54,38.19-40.77a149.93,149.93,0,0,1,55.85-28.41s42.18-4.4,118,69.18S1699,724.09,1699,803.16Z" transform="translate(0 5)"/><path class="cls-13" d="M1699,803.16c0,79.07-33,201-53.57,221.83-7.91,8.06-22.45,16.11-39.48,23.08,104.16-139.69,46.32-361.35,23.36-360-24.47,1.45,11.64,102.33-36.32,89.79-34.42-9-119.79-160.24-165.27-245a149.93,149.93,0,0,1,55.85-28.41s42.18-4.4,118,69.18S1699,724.09,1699,803.16Z" transform="translate(0 5)"/><path class="cls-10" d="M1297.54,748.32c-41.87-26.5-74.24-38.25-98.26-42.63a18.32,18.32,0,0,0-1.82-2.45c-10.9-12.42-23.52-44.74-27.37-72.32C1297.15,658.58,1388.54,805.93,1297.54,748.32Z" transform="translate(0 5)"/><path class="cls-10" d="M1508.22,990.53a427.92,427.92,0,0,1-252.65-12.75c1.52-11.86,3.45-22.15,3.45-28.56,0-23.06-18.24-36.24-41.36-57.11a46.06,46.06,0,0,1-14.74-25.33C1329.62,948.94,1508.22,990.53,1508.22,990.53Z" transform="translate(0 5)"/><path class="cls-14" d="M1297.54,748.32c-41.87-26.5-74.24-38.25-98.26-42.63a18.32,18.32,0,0,0-1.82-2.45c-10.9-12.42-23.52-44.74-27.37-72.32C1297.15,658.58,1388.54,805.93,1297.54,748.32Z" transform="translate(0 5)"/><path class="cls-15" d="M1508.22,990.53a427.92,427.92,0,0,1-252.65-12.75c1.52-11.86,3.45-22.15,3.45-28.56,0-23.06-18.24-36.24-41.36-57.11a46.06,46.06,0,0,1-14.74-25.33C1329.62,948.94,1508.22,990.53,1508.22,990.53Z" transform="translate(0 5)"/><path class="cls-7" d="M1300.62,726.3s-33.06,43.92-39.9,57.1-19.38,18.67-22.79,17.57-32.06-31.71-41.68-37.27S1155,735.08,1149,726.3s-6-15.35-6-15.35-18,21-14.57,45.08,6.26,30.91,21.37,51.1,32.38,44,45.82,64.48,30.84,48,52.49,48S1361,819.37,1381,789.86,1300.62,726.3,1300.62,726.3Z" transform="translate(0 5)"/><path class="cls-16" d="M1381,789.85c-16.16,23.9-79.06,94.19-113.89,120-8.17,6.07-14.79,9.69-18.91,9.69-21.65,0-39.07-27.46-52.49-48s-30.71-44.3-45.82-64.49-18-27-21.38-51.1a48.79,48.79,0,0,1,1.61-20.16,72.58,72.58,0,0,1,13-24.92c0,.21.05,6.72,5.93,15.35,6,8.78,37.62,31.84,47.24,37.41,5.22,3,16,13.39,25.36,22.44,6.55,6.32,12.38,12,15.06,14.05a.09.09,0,0,0,.07,0,4.73,4.73,0,0,0,1.18.73c3.42,1.1,16-4.4,22.81-17.58s39.89-57.09,39.89-57.09,11.23,3.81,25.42,10C1354.27,748.57,1394.26,770.2,1381,789.85Z" transform="translate(0 5)"/><path class="cls-17" d="M1381,789.85c-16.16,23.9-79.06,94.19-113.89,120-55.21-39.89-124.34-152.88-137-174a72.58,72.58,0,0,1,13-24.92c0,.21.05,6.72,5.93,15.35,6,8.78,37.62,31.84,47.24,37.41,5.22,3,16,13.39,25.36,22.43a50.52,50.52,0,0,0,15.06,14.05.09.09,0,0,0,.07,0c.4.27.79.5,1.18.73,40,23.34,70-22.31,88.12-64.69C1354.27,748.57,1394.26,770.2,1381,789.85Z" transform="translate(0 5)"/><path class="cls-10" d="M1475.58,713.12c-15.95,22,2.29,68.08-31.9,87.85-26.85,15.52-56.49-.76-82.33-21.22-7.08-5.61-13.88-11.55-20.26-17.21-29.65-26.36-42.18-17.58-48-40.64s20.63-50.52,33.15-59.61,50.17-76.57,50.17-76.57c18.89-10.8,41.44-2.17,61.65,12.79,18.82,13.92,35.6,33.32,45.5,47.62C1504.08,675.78,1491.55,691.15,1475.58,713.12Z" transform="translate(0 5)"/><path class="cls-18" d="M1475.58,713.12c-15.95,22,2.29,68.08-31.9,87.85-26.85,15.52-56.49-.76-82.33-21.22,6.53-17.54,18.55-34.23,40.15-43.7,43.22-18.94,41.22-95.51,36.57-137.54,18.82,13.92,35.6,33.32,45.5,47.62C1504.08,675.78,1491.55,691.15,1475.58,713.12Z" transform="translate(0 5)"/><path class="cls-19" d="M1672.79,604.72C1653.4,664.35,1561.07,653.82,1520,656s-62.69,35.14-94.61,31.84-35.9-15.37-81.76-38.41C1298.89,627,1277.14,530,1276.15,525.5c3.37,18.63-.1,41.59-17.15,54.74s-66.1,22-90.07-37.34c-6.32-15.67-6.6-32.4-3.18-49.11,9.54-46.57,47.88-93,64.34-115.62A55.11,55.11,0,0,1,1247,363.08c23.78-14,54.16-11.26,54.16-11.26,49.62-15.93,112.54,31.33,145.49,62.59,5.66,5.37,10.43,10.26,14.11,14.28,25.06,27.46,71.81,46.13,134.49,62.6,26.57,7,48,17.72,62.47,32.32C1677.34,543.42,1684,570.37,1672.79,604.72Z" transform="translate(0 5)"/><path class="cls-20" d="M1279.3,453.61l13.79,7.54L1280.7,544h-4S1272.23,474.14,1279.3,453.61Z" transform="translate(0 5)"/><path class="cls-21" d="M1400.57,803.3s82.68,189.33,228.74,233.51c0,0-17.39,9.19-27.77,13s-116.82-34.71-180.66-145.62c0,0-36.27-61.44-35.8-108.14C1385.08,796.06,1395.15,791.85,1400.57,803.3Z" transform="translate(0 5)"/><path class="cls-22" d="M1400.57,803.3s82.68,189.33,228.74,233.51c0,0-17.39,9.19-27.77,13s-116.82-34.71-180.66-145.62c0,0-36.27-61.44-35.8-108.14C1385.08,796.06,1395.15,791.85,1400.57,803.3Z" transform="translate(0 5)"/><path class="cls-7" d="M1144.42,802.05s-15.35,23.08-8.51,36.26-1.49,17.5,8.51,29.65,16.57,16.47,23.41,15.37,0-13.18,0-13.18l3-15.37-4-22.2Z" transform="translate(0 5)"/><path class="cls-23" d="M1144.42,802.05s-15.35,23.08-8.51,36.26-1.49,17.5,8.51,29.65,16.57,16.47,23.41,15.37,0-13.18,0-13.18l3-15.37-4-22.2Z" transform="translate(0 5)"/><path class="cls-24" d="M1672.79,604.72C1653.4,664.35,1561.07,653.82,1520,656s-62.69,35.14-94.61,31.84-35.9-15.37-81.76-38.41C1298.89,627,1277.14,530,1276.15,525.5c3.37,18.63-.1,41.59-17.15,54.74s-66.1,22-90.07-37.34c-6.32-15.67-6.6-32.4-3.18-49.11,4.43,16.46,15.44,31.73,37.17,42.52,61.88,30.75,74.4-74,74.4-74l15.78-1.21s-.47,44.43,18.92,90.55,71.81,46.13,121.94,23.06,75.25,22,150.48,30.74c55,6.43,73.08-41.81,73.3-81.88C1677.34,543.42,1684,570.37,1672.79,604.72Z" transform="translate(0 5)"/><path class="cls-25" d="M1385.07,429.68c-35.33-27.18-57-22.24-109.77-24.71-30.52-1.43-32.25-23.52-28.28-41.89,23.78-14,54.16-11.26,54.16-11.26,49.62-15.93,112.54,31.33,145.49,62.59C1463,449.56,1415.6,453.17,1385.07,429.68Z" transform="translate(0 5)"/><path class="cls-26" d="M1545.69,537c-8.26,13-38,9.94-66.38-6.83s-44.72-40.9-36.45-53.9,38-9.94,66.39,6.83S1554,524,1545.69,537Z" transform="translate(0 5)"/></g><g id="Layer_3" data-name="Layer 3"><path class="cls-2" d="M1896,19V1062H24V19H1896m24-24H0V1086H1920V-5Z" transform="translate(0 5)"/></g></svg>