<svg xmlns="http://www.w3.org/2000/svg" xmlns:xlink="http://www.w3.org/1999/xlink" viewBox="0 0 1920 1096"><defs><style>.cls-1{fill:#c9eff4;}.cls-2{fill:#322d63;}.cls-3{fill:#643d98;}.cls-4{font-size:45px;fill:#fff;font-family:DejaVuSans-BoldOblique, DejaVu Sans;font-weight:700;font-style:oblique;}.cls-5{fill:#de5e50;}.cls-6{fill:url(#linear-gradient);}.cls-7{fill:#eb8300;}.cls-8{fill:url(#linear-gradient-2);}.cls-9{fill:#e46832;}.cls-10{fill:url(#linear-gradient-3);}.cls-11{fill:url(#linear-gradient-4);}.cls-12{fill:#6aa8c6;}.cls-13{fill:url(#linear-gradient-5);}.cls-14{fill:url(#linear-gradient-6);}.cls-15{fill:url(#linear-gradient-7);}.cls-16{fill:url(#linear-gradient-8);}.cls-17{fill:url(#linear-gradient-9);}.cls-18{fill:url(#linear-gradient-10);}.cls-19{fill:url(#linear-gradient-11);}.cls-20{fill:url(#linear-gradient-12);}.cls-21{fill:#f0f0c8;}.cls-22{fill:#646195;}.cls-23{fill:#565a8b;}.cls-24{fill:url(#linear-gradient-13);}.cls-25{fill:url(#linear-gradient-14);}.cls-26{opacity:0.2;isolation:isolate;fill:url(#linear-gradient-15);}.cls-27{fill:url(#linear-gradient-16);}.cls-28{fill:url(#linear-gradient-17);}.cls-29{fill:none;stroke:#643d98;stroke-miterlimit:10;stroke-width:18px;}</style><linearGradient id="linear-gradient" x1="911.07" y1="387.96" x2="953.46" y2="363.62" gradientTransform="matrix(1, 0, 0, -1, 0, 1096)" gradientUnits="userSpaceOnUse"><stop offset="0" stop-color="#575581" stop-opacity="0"/><stop offset="1" stop-color="#130030"/></linearGradient><linearGradient id="linear-gradient-2" x1="937.25" y1="469.1" x2="1033.13" y2="469.1" xlink:href="#linear-gradient"/><linearGradient id="linear-gradient-3" x1="909.25" y1="348.05" x2="988.79" y2="455.87" xlink:href="#linear-gradient"/><linearGradient id="linear-gradient-4" x1="966.32" y1="332.63" x2="917.23" y2="368.68" gradientTransform="matrix(1, 0, 0, -1, 0, 1096)" gradientUnits="userSpaceOnUse"><stop offset="0" stop-color="#575581" stop-opacity="0"/><stop offset="1" stop-color="#575581"/></linearGradient><linearGradient id="linear-gradient-5" x1="1037.49" y1="395.76" x2="868.22" y2="320.33" xlink:href="#linear-gradient-4"/><linearGradient id="linear-gradient-6" x1="1012.55" y1="415.05" x2="1020.32" y2="474.66" xlink:href="#linear-gradient-4"/><linearGradient id="linear-gradient-7" x1="1087.34" y1="450.94" x2="974.54" y2="273.2" xlink:href="#linear-gradient-4"/><linearGradient id="linear-gradient-8" x1="929.9" y1="427.88" x2="1072.62" y2="360.66" xlink:href="#linear-gradient-4"/><linearGradient id="linear-gradient-9" x1="897.93" y1="365.74" x2="1042.07" y2="297.85" xlink:href="#linear-gradient-4"/><linearGradient id="linear-gradient-10" x1="919.8" y1="371.6" x2="1006.47" y2="460.08" xlink:href="#linear-gradient-4"/><linearGradient id="linear-gradient-11" x1="950.32" y1="401.35" x2="972.14" y2="421.36" xlink:href="#linear-gradient"/><linearGradient id="linear-gradient-12" x1="1002.92" y1="439.75" x2="1025.29" y2="349.42" xlink:href="#linear-gradient-4"/><linearGradient id="linear-gradient-13" x1="1022.07" y1="351.03" x2="980.1" y2="398.4" xlink:href="#linear-gradient"/><linearGradient id="linear-gradient-14" x1="901.95" y1="370.18" x2="915.46" y2="370.18" xlink:href="#linear-gradient-4"/><linearGradient id="linear-gradient-15" x1="1012.61" y1="538.13" x2="1002.71" y2="415.86" xlink:href="#linear-gradient-4"/><linearGradient id="linear-gradient-16" x1="954.33" y1="529.38" x2="1045.62" y2="519.97" gradientTransform="matrix(1, 0, 0, -1, 0, 1096)" gradientUnits="userSpaceOnUse"><stop offset="0" stop-color="#f2f2f2" stop-opacity="0"/><stop offset="1" stop-color="#f2f2f2"/></linearGradient><linearGradient id="linear-gradient-17" x1="1014.74" y1="487.32" x2="1054.16" y2="487.32" xlink:href="#linear-gradient-16"/></defs><title>ფსიქ ძალადობა2 </title><g id="Layer_1" data-name="Layer 1"><g id="Layer_1-2" data-name="Layer 1"><rect class="cls-1" x="10" y="15" width="1900" height="1071"/><path class="cls-2" d="M1900,25V1076H20V25H1900m20-20H0V1096H1920Z"/></g><g id="Layer_3" data-name="Layer 3"><path class="cls-2" d="M1896,24V1067H24V24H1896m24-24H0V1091H1920Z"/></g><ellipse class="cls-3" cx="960" cy="553.64" rx="266.84" ry="272.68"/><text/><text class="cls-4" transform="translate(767.05 446.4) scale(1.02 1)">ფსიქოლოგიურ<tspan x="39.32" y="68.84">ძალადობას</tspan></text><path class="cls-5" d="M1000.32,670.81s-48.26-45.29-60.72-34.55-28.57,20-27.88,34.55,9,85.89,6.23,92.2-11.08,9.48-20.77,10.11-20.07,6.31-20.76,10.1S892.34,787.86,896,787s20.3-2.52,26.3-1.68,19,1.26,21-3.79.75-11.79,0-20.21,3.41-34.94,5.25-52.21,8.77-35.36,8.77-35.36Z"/><path class="cls-6" d="M1000.32,670.81s-48.26-45.29-60.72-34.55-28.57,20-27.88,34.55,9,85.89,6.23,92.2-11.08,9.48-20.77,10.11-20.07,6.31-20.76,10.1S892.34,787.86,896,787s20.3-2.52,26.3-1.68,19,1.26,21-3.79.75-11.79,0-20.21,3.41-34.94,5.25-52.21,8.77-35.36,8.77-35.36Z"/><path class="cls-7" d="M939.29,613.11s-8.17,23.53,8.18,36.73,22.65,19.52,30.83,7.46,20.13-14.35,29.57-12.62S1031.14,633.77,1033,624s-23.28-14.92-34-25.83S952.51,583.26,939.29,613.11Z"/><path class="cls-8" d="M939.29,613.11s-8.17,23.53,8.18,36.73,22.65,19.52,30.83,7.46,20.13-14.35,29.57-12.62S1031.14,633.77,1033,624s-23.28-14.92-34-25.83S952.51,583.26,939.29,613.11Z"/><path class="cls-9" d="M992.7,692.28s-62.29-56.83-74.75-46.1-14.54,31.58-13.85,46.1,9,85.89,6.23,92.21-11.07,9.47-20.76,10.1-20.08,6.32-20.77,10.11,15.92,4.63,19.61,3.79,20.31-2.53,26.31-1.69,19,1.26,21-3.79.75-11.79,0-20.21,9.4-32,11.25-49.26,2.77-38.31,2.77-38.31Z"/><path class="cls-10" d="M992.7,692.28l-27.88,1.92-15,1s-.93,21-2.77,38.31-12,40.84-11.25,49.26,2,15.16,0,20.21c-.72,1.8-2.84,2.91-5.54,3.55-4.88,1.15-11.65.79-15.51.24-6-.84-22.61.84-26.31,1.69s-20.3,0-19.61-3.8,11.08-9.47,20.77-10.1,18-3.79,20.76-10.11-5.54-77.67-6.23-92.2,1.39-35.36,13.85-46.1S992.7,692.28,992.7,692.28Z"/><path class="cls-11" d="M964.82,694.2l-15,1s-.93,21-2.77,38.31-12,40.84-11.25,49.26,2,15.16,0,20.21c-.72,1.8-2.84,2.91-5.54,3.55,5.23-7.19-2.66-26.49.51-35.23,3.61-10,2.26-76.14,2.26-76.14,10.07-10.34,30.21-6.54,31.46-2.28Z"/><path class="cls-12" d="M1109.78,712c0,27.55-12.16,70-19.71,77.3s-31.46,14.54-45.3,15.31-45.71,4.59-57.46,0-5,2.67-26.83-2.69c-15.76-3.86-15.32-18.32-13.86-29.07.56-4.14,1.27-7.72,1.27-10,0-8-6.71-12.62-15.21-19.9a15.85,15.85,0,0,1-5.43-8.82c-1.41-6-.18-13.35.09-22.93.4-14.15,2.3-27.61-1.43-33.2a6.31,6.31,0,0,0-.66-.86c-4-4.32-8.66-15.59-10.08-25.19a39.89,39.89,0,0,1-.41-4.21c-.42-10.26,10.9-13.07,24.84-11.54s22.13,14.92,26.32,23,24.75,34.82,19.27,27-6.89-29-5.82-30.45a246.49,246.49,0,0,1,16.54-23.77c11.53-14.92,23.41-21.27,34.6-24.11,0,0,15.52-1.53,43.41,24.11S1109.78,684.47,1109.78,712Z"/><path class="cls-13" d="M1109.78,712c0,27.55-12.16,70-19.71,77.3s-31.46,14.54-45.3,15.31-45.71,4.59-57.46,0-5,2.67-26.83-2.69c-15.76-3.86-15.32-18.32-13.86-29.07.56-4.14,1.27-7.72,1.27-10,0-8-6.71-12.62-15.21-19.9a15.85,15.85,0,0,1-5.43-8.82c-1.41-6-.18-13.35.09-22.93.4-14.15,2.3-27.61-1.43-33.2a6.31,6.31,0,0,0-.66-.86c-4-4.32-8.66-15.59-10.08-25.19a39.89,39.89,0,0,1-.41-4.21c-.42-10.26,10.9-13.07,24.84-11.54s22.13,14.92,26.32,23,24.75,34.82,19.27,27-6.89-29-5.82-30.45a246.49,246.49,0,0,1,16.54-23.77c11.53-14.92,23.41-21.27,34.6-24.11,0,0,15.52-1.53,43.41,24.11S1109.78,684.47,1109.78,712Z"/><path class="cls-14" d="M1109.78,712c0,27.55-12.16,70-19.71,77.3-2.91,2.8-8.26,5.61-14.53,8-10,3.87-22.27,6.79-30.77,7.27-13.84.76-45.71,4.59-57.46,0s-5,2.67-26.83-2.69c-15.76-3.86-15.32-18.32-13.86-29.07.56-4.14,1.27-7.72,1.27-10,0-8-6.71-12.62-15.21-19.9a15.85,15.85,0,0,1-5.43-8.82c-1.41-6-.18-13.35.09-22.93.4-14.15,2.3-27.61-1.43-33.2a6.31,6.31,0,0,0-.66-.86c-4-4.32-8.66-15.59-10.08-25.19a39.89,39.89,0,0,1-.41-4.21c-.42-10.26,10.9-13.07,24.84-11.54s22.13,14.92,26.32,23,24.75,34.82,19.27,27-6.89-29-5.82-30.45a246.49,246.49,0,0,1,16.54-23.77A75.76,75.76,0,0,1,1010,617.84a56.48,56.48,0,0,1,20.54-9.9s15.52-1.53,43.41,24.11S1109.78,684.47,1109.78,712Z"/><path class="cls-15" d="M1109.78,712c0,27.55-12.16,70-19.71,77.3-2.91,2.8-8.26,5.61-14.53,8,38.33-48.67,17-125.91,8.6-125.44-9,.51,4.28,35.66-13.37,31.29-12.66-3.13-44.07-55.84-60.8-85.37a56.48,56.48,0,0,1,20.54-9.9s15.52-1.53,43.41,24.11S1109.78,684.47,1109.78,712Z"/><path class="cls-12" d="M962.07,692.91c-15.41-9.23-27.32-13.32-36.16-14.85a6.31,6.31,0,0,0-.66-.86c-4-4.32-8.66-15.59-10.08-25.19C961.92,661.64,995.55,713,962.07,692.91Z"/><path class="cls-12" d="M1039.58,777.31a165.86,165.86,0,0,1-93-4.44c.56-4.14,1.27-7.72,1.27-10,0-8-6.71-12.62-15.21-19.9a15.85,15.85,0,0,1-5.43-8.82C973.87,762.82,1039.58,777.31,1039.58,777.31Z"/><path class="cls-16" d="M962.07,692.91c-15.41-9.23-27.32-13.32-36.16-14.85a6.31,6.31,0,0,0-.66-.86c-4-4.32-8.66-15.59-10.08-25.19C961.92,661.64,995.55,713,962.07,692.91Z"/><path class="cls-17" d="M1039.58,777.31a165.86,165.86,0,0,1-93-4.44c.56-4.14,1.27-7.72,1.27-10,0-8-6.71-12.62-15.21-19.9a15.85,15.85,0,0,1-5.43-8.82C973.87,762.82,1039.58,777.31,1039.58,777.31Z"/><path class="cls-9" d="M963.2,685.24s-12.16,15.3-14.68,19.9-7.13,6.5-8.39,6.12-11.79-11-15.33-13-15.18-10-17.38-13a10.09,10.09,0,0,1-2.19-5.35s-6.62,7.32-5.36,15.71,2.3,10.77,7.86,17.8,11.92,15.33,16.86,22.47,11.35,16.71,19.32,16.71,41.52-34.91,48.86-45.19S963.2,685.24,963.2,685.24Z"/><path class="cls-18" d="M992.77,707.38c-5.95,8.33-29.09,32.82-41.91,41.83-3,2.11-5.44,3.37-7,3.37-8,0-14.38-9.57-19.32-16.71s-11.3-15.43-16.86-22.47-6.6-9.41-7.86-17.8a16.2,16.2,0,0,1,.59-7,24.91,24.91,0,0,1,4.78-8.68,10,10,0,0,0,2.18,5.35c2.2,3.06,13.84,11.09,17.38,13,1.92,1.05,5.89,4.67,9.33,7.82,2.41,2.21,4.55,4.19,5.54,4.9h0a1.9,1.9,0,0,0,.43.26c1.26.38,5.88-1.54,8.39-6.13s14.68-19.89,14.68-19.89,4.13,1.33,9.35,3.48C982.94,693,997.66,700.54,992.77,707.38Z"/><path class="cls-19" d="M992.77,707.38c-5.95,8.33-29.09,32.82-41.91,41.83-20.31-13.9-45.74-53.27-50.4-60.64a24.79,24.79,0,0,1,4.78-8.68,10,10,0,0,0,2.18,5.35c2.2,3.06,13.84,11.09,17.38,13,1.92,1.05,5.9,4.67,9.33,7.82a18.26,18.26,0,0,0,5.54,4.9h0a4.92,4.92,0,0,0,.43.26c14.71,8.13,25.75-7.78,32.42-22.54C982.94,693,997.66,700.54,992.77,707.38Z"/><path class="cls-12" d="M1027.57,680.65c-5.86,7.65.85,23.72-11.73,30.61-9.88,5.4-20.79-.27-30.29-7.4-2.61-2-5.11-4-7.46-6-10.91-9.19-15.52-6.13-17.66-14.16s7.59-17.61,12.2-20.78,18.46-26.67,18.46-26.67c6.95-3.77,15.25-.76,22.68,4.45a77,77,0,0,1,16.74,16.59C1038.06,667.64,1033.45,673,1027.57,680.65Z"/><path class="cls-20" d="M1027.57,680.65c-5.86,7.65.85,23.72-11.73,30.61-9.88,5.4-20.79-.27-30.29-7.4a26.26,26.26,0,0,1,14.77-15.22c15.9-6.6,15.16-33.28,13.45-47.93a77,77,0,0,1,16.74,16.59C1038.06,667.64,1033.45,673,1027.57,680.65Z"/><path class="cls-21" d="M1100.13,642.87c-7.13,20.78-41.1,17.11-56.2,17.88s-23.06,12.24-34.81,11.09-13.21-5.35-30.08-13.38c-16.48-7.84-24.48-41.61-24.84-43.19,1.24,6.49,0,14.49-6.31,19.07s-24.32,7.66-33.14-13c-2.33-5.46-2.43-11.29-1.17-17.11,3.51-16.22,17.61-32.4,23.67-40.28a19.87,19.87,0,0,1,6.23-5.26c8.75-4.88,19.93-3.93,19.93-3.93,18.25-5.55,41.4,10.92,53.53,21.81,2.08,1.87,3.83,3.58,5.19,5,9.22,9.57,26.42,16.07,49.48,21.81,9.78,2.43,17.68,6.18,23,11.26C1101.81,621.52,1104.24,630.91,1100.13,642.87Z"/><path class="cls-22" d="M955.36,590.22l5.07,2.63-4.56,28.87h-1.48S952.76,597.37,955.36,590.22Z"/><path class="cls-23" d="M1000,712.07s30.42,66,84.17,81.37c0,0-6.4,3.2-10.22,4.53s-43-12.1-66.47-50.74c0,0-13.35-21.41-13.18-37.68A4.5,4.5,0,0,1,1000,712.07Z"/><path class="cls-24" d="M1000,712.07s30.42,66,84.17,81.37c0,0-6.4,3.2-10.22,4.53s-43-12.1-66.47-50.74c0,0-13.35-21.41-13.18-37.68A4.5,4.5,0,0,1,1000,712.07Z"/><path class="cls-9" d="M905.73,711.63s-5.65,8-3.13,12.64-.55,6.1,3.13,10.33,6.09,5.74,8.61,5.36,0-4.6,0-4.6l1.12-5.35L914,722.27Z"/><path class="cls-25" d="M905.73,711.63s-5.65,8-3.13,12.64-.55,6.1,3.13,10.33,6.09,5.74,8.61,5.36,0-4.6,0-4.6l1.12-5.35L914,722.27Z"/><path class="cls-26" d="M1100.13,642.87c-7.13,20.78-41.1,17.11-56.2,17.88s-23.06,12.24-34.81,11.09-13.21-5.35-30.08-13.38c-16.48-7.84-24.48-41.61-24.84-43.19,1.24,6.49,0,14.49-6.31,19.07s-24.32,7.66-33.14-13c-2.33-5.46-2.43-11.29-1.17-17.11,1.63,5.74,5.68,11.06,13.67,14.82,22.77,10.71,27.38-25.77,27.38-25.77l5.8-.42a84.3,84.3,0,0,0,7,31.55c7.12,16.07,26.42,16.07,44.86,8s27.69,7.65,55.37,10.71c20.23,2.24,26.89-14.56,27-28.53C1101.81,621.52,1104.24,630.91,1100.13,642.87Z"/><path class="cls-27" d="M994.27,581.88c-13-9.47-21-7.74-40.39-8.61-11.23-.5-11.86-8.19-10.4-14.59,8.75-4.88,19.93-3.93,19.93-3.93,18.25-5.55,41.4,10.92,53.53,21.81C1022.94,588.81,1005.51,590.07,994.27,581.88Z"/><path class="cls-28" d="M1053.37,619.26c-3,4.53-14,3.46-24.43-2.38s-16.45-14.25-13.41-18.78,14-3.46,24.43,2.38S1056.41,614.73,1053.37,619.26Z"/><ellipse class="cls-29" cx="960" cy="550.5" rx="266.84" ry="272.68"/></g><g id="Layer_2" data-name="Layer 2"><rect class="cls-3" x="676.03" y="162.72" width="542.72" height="2.34"/><rect class="cls-3" x="665.89" y="980.3" width="542.72" height="2.34"/></g></svg>