<svg xmlns="http://www.w3.org/2000/svg" xmlns:xlink="http://www.w3.org/1999/xlink" viewBox="0 0 551.68 563.36"><defs><style>.cls-1{fill:#643d98;}.cls-2,.cls-25,.cls-3{isolation:isolate;}.cls-3{font-size:45px;fill:#fff;font-family:DejaVuSans, DejaVu Sans;}.cls-4{fill:#de5e50;}.cls-5{fill:url(#linear-gradient);}.cls-6{fill:#eb8300;}.cls-7{fill:url(#linear-gradient-2);}.cls-8{fill:#e46832;}.cls-9{fill:url(#linear-gradient-3);}.cls-10{fill:url(#linear-gradient-4);}.cls-11{fill:#6aa8c6;}.cls-12{fill:url(#linear-gradient-5);}.cls-13{fill:url(#linear-gradient-6);}.cls-14{fill:url(#linear-gradient-7);}.cls-15{fill:url(#linear-gradient-8);}.cls-16{fill:url(#linear-gradient-9);}.cls-17{fill:url(#linear-gradient-10);}.cls-18{fill:url(#linear-gradient-11);}.cls-19{fill:url(#linear-gradient-12);}.cls-20{fill:#f0f0c8;}.cls-21{fill:#646195;}.cls-22{fill:#565a8b;}.cls-23{fill:url(#linear-gradient-13);}.cls-24{fill:url(#linear-gradient-14);}.cls-25{opacity:0.2;fill:url(#linear-gradient-15);}.cls-26{fill:url(#linear-gradient-16);}.cls-27{fill:url(#linear-gradient-17);}.cls-28{fill:none;stroke:#643d98;stroke-miterlimit:10;stroke-width:18px;}</style><linearGradient id="linear-gradient" x1="226.91" y1="343.22" x2="269.3" y2="367.56" gradientTransform="translate(0 96)" gradientUnits="userSpaceOnUse"><stop offset="0" stop-color="#575581" stop-opacity="0"/><stop offset="1" stop-color="#130030"/></linearGradient><linearGradient id="linear-gradient-2" x1="253.09" y1="262.08" x2="348.94" y2="262.08" xlink:href="#linear-gradient"/><linearGradient id="linear-gradient-3" x1="225.09" y1="383.13" x2="304.63" y2="275.31" xlink:href="#linear-gradient"/><linearGradient id="linear-gradient-4" x1="282.18" y1="398.52" x2="233.09" y2="362.47" gradientTransform="translate(0 96)" gradientUnits="userSpaceOnUse"><stop offset="0" stop-color="#575581" stop-opacity="0"/><stop offset="1" stop-color="#575581"/></linearGradient><linearGradient id="linear-gradient-5" x1="353.32" y1="335.39" x2="184.05" y2="410.82" xlink:href="#linear-gradient-4"/><linearGradient id="linear-gradient-6" x1="328.38" y1="316.13" x2="336.15" y2="256.52" xlink:href="#linear-gradient-4"/><linearGradient id="linear-gradient-7" x1="403.16" y1="280.23" x2="290.36" y2="457.97" xlink:href="#linear-gradient-4"/><linearGradient id="linear-gradient-8" x1="245.74" y1="303.3" x2="388.46" y2="370.52" xlink:href="#linear-gradient-4"/><linearGradient id="linear-gradient-9" x1="213.76" y1="365.45" x2="357.9" y2="433.34" xlink:href="#linear-gradient-4"/><linearGradient id="linear-gradient-10" x1="235.63" y1="359.57" x2="322.3" y2="271.09" xlink:href="#linear-gradient-4"/><linearGradient id="linear-gradient-11" x1="266.16" y1="329.83" x2="287.98" y2="309.82" xlink:href="#linear-gradient"/><linearGradient id="linear-gradient-12" x1="318.76" y1="291.43" x2="341.13" y2="381.76" xlink:href="#linear-gradient-4"/><linearGradient id="linear-gradient-13" x1="337.93" y1="380.13" x2="295.96" y2="332.76" xlink:href="#linear-gradient"/><linearGradient id="linear-gradient-14" x1="217.79" y1="361" x2="231.3" y2="361" xlink:href="#linear-gradient-4"/><linearGradient id="linear-gradient-15" x1="328.45" y1="193.05" x2="318.55" y2="315.32" xlink:href="#linear-gradient-4"/><linearGradient id="linear-gradient-16" x1="270.17" y1="201.8" x2="361.46" y2="211.21" gradientTransform="translate(0 96)" gradientUnits="userSpaceOnUse"><stop offset="0" stop-color="#f2f2f2" stop-opacity="0"/><stop offset="1" stop-color="#f2f2f2"/></linearGradient><linearGradient id="linear-gradient-17" x1="330.58" y1="243.86" x2="370" y2="243.86" xlink:href="#linear-gradient-16"/></defs><title>Asset 4</title><g id="Layer_2" data-name="Layer 2"><g id="Layer_1-2" data-name="Layer 1"><ellipse class="cls-1" cx="275.84" cy="284.82" rx="266.84" ry="272.68"/><g class="cls-2"><text class="cls-3" transform="translate(82.89 177.58) scale(1.02 1)">ფსიქოლოგიურ</text><text class="cls-3" transform="translate(123 246.42) scale(1.02 1)">ძალადობას</text></g><path class="cls-4" d="M316.16,402s-48.26-45.29-60.72-34.55-28.57,20-27.88,34.55,9,85.89,6.23,92.2S222.71,503.67,213,504.3s-20.07,6.31-20.76,10.1,15.92,4.64,19.58,3.78,20.3-2.52,26.3-1.68,19,1.26,21-3.79.75-11.79,0-20.21,3.41-34.94,5.25-52.21,8.77-35.36,8.77-35.36Z"/><path class="cls-5" d="M316.16,402s-48.26-45.29-60.72-34.55-28.57,20-27.88,34.55,9,85.89,6.23,92.2S222.71,503.67,213,504.3s-20.07,6.31-20.76,10.1,15.92,4.64,19.58,3.78,20.3-2.52,26.3-1.68,19,1.26,21-3.79.75-11.79,0-20.21,3.41-34.94,5.25-52.21,8.77-35.36,8.77-35.36Z"/><path class="cls-6" d="M255.13,344.29S247,367.82,263.31,381s22.65,19.52,30.83,7.46,20.13-14.35,29.57-12.62S347,365,348.84,355.18s-23.28-14.92-34-25.83S268.35,314.44,255.13,344.29Z"/><path class="cls-7" d="M255.13,344.29S247,367.82,263.31,381s22.65,19.52,30.83,7.46,20.13-14.35,29.57-12.62S347,365,348.84,355.18s-23.28-14.92-34-25.83S268.35,314.44,255.13,344.29Z"/><path class="cls-8" d="M308.54,423.46s-62.29-56.83-74.75-46.1-14.54,31.58-13.85,46.1,9,85.89,6.23,92.21-11.07,9.47-20.76,10.1-20.08,6.32-20.77,10.11,15.92,4.63,19.61,3.79,20.31-2.53,26.31-1.69,19,1.26,21-3.79.75-11.79,0-20.21,9.4-32,11.25-49.26,2.77-38.31,2.77-38.31Z"/><path class="cls-9" d="M308.54,423.46l-27.88,1.92-15,1s-.93,21-2.77,38.31-12,40.84-11.25,49.26,2,15.16,0,20.21c-.72,1.8-2.84,2.91-5.54,3.55-4.88,1.15-11.65.79-15.51.24-6-.84-22.61.84-26.31,1.69s-20.3,0-19.61-3.8,11.08-9.47,20.77-10.1,18-3.79,20.76-10.11S220.66,438,220,423.43s1.39-35.36,13.85-46.1S308.54,423.46,308.54,423.46Z"/><path class="cls-10" d="M280.66,425.38l-15,1s-.93,21-2.77,38.31-12,40.84-11.25,49.26,2,15.16,0,20.21c-.72,1.8-2.84,2.91-5.54,3.55,5.23-7.19-2.66-26.49.51-35.23,3.61-10,2.26-76.14,2.26-76.14,10.07-10.34,30.21-6.54,31.46-2.28Z"/><path class="cls-11" d="M425.62,443.18c0,27.55-12.16,70-19.71,77.3s-31.46,14.54-45.3,15.31-45.71,4.59-57.46,0-5,2.67-26.83-2.69C260.56,529.24,261,514.78,262.46,504c.56-4.14,1.27-7.72,1.27-10,0-8-6.71-12.62-15.21-19.9a15.81,15.81,0,0,1-5.43-8.82c-1.41-6-.18-13.35.09-22.93.4-14.15,2.3-27.61-1.43-33.2a6.13,6.13,0,0,0-.66-.86c-4-4.32-8.66-15.59-10.08-25.19a39.72,39.72,0,0,1-.41-4.21c-.42-10.26,10.9-13.07,24.84-11.54s22.13,14.92,26.32,23,24.75,34.82,19.27,27-6.89-29-5.82-30.45a246.57,246.57,0,0,1,16.54-23.77c11.53-14.92,23.41-21.27,34.6-24.11,0,0,15.52-1.53,43.41,24.11S425.62,415.65,425.62,443.18Z"/><path class="cls-12" d="M425.62,443.18c0,27.55-12.16,70-19.71,77.3s-31.46,14.54-45.3,15.31-45.71,4.59-57.46,0-5,2.67-26.83-2.69C260.56,529.24,261,514.78,262.46,504c.56-4.14,1.27-7.72,1.27-10,0-8-6.71-12.62-15.21-19.9a15.81,15.81,0,0,1-5.43-8.82c-1.41-6-.18-13.35.09-22.93.4-14.15,2.3-27.61-1.43-33.2a6.13,6.13,0,0,0-.66-.86c-4-4.32-8.66-15.59-10.08-25.19a39.72,39.72,0,0,1-.41-4.21c-.42-10.26,10.9-13.07,24.84-11.54s22.13,14.92,26.32,23,24.75,34.82,19.27,27-6.89-29-5.82-30.45a246.57,246.57,0,0,1,16.54-23.77c11.53-14.92,23.41-21.27,34.6-24.11,0,0,15.52-1.53,43.41,24.11S425.62,415.65,425.62,443.18Z"/><path class="cls-13" d="M425.62,443.18c0,27.55-12.16,70-19.71,77.3-2.91,2.8-8.26,5.61-14.53,8-10,3.87-22.27,6.79-30.77,7.27-13.84.76-45.71,4.59-57.46,0s-5,2.67-26.83-2.69C260.56,529.2,261,514.74,262.46,504c.56-4.14,1.27-7.72,1.27-10,0-8-6.71-12.62-15.21-19.9a15.81,15.81,0,0,1-5.43-8.82c-1.41-6-.18-13.35.09-22.93.4-14.15,2.3-27.61-1.43-33.2a6.13,6.13,0,0,0-.66-.86c-4-4.32-8.66-15.59-10.08-25.19a39.72,39.72,0,0,1-.41-4.21c-.42-10.26,10.9-13.07,24.84-11.54s22.13,14.92,26.32,23,24.75,34.82,19.27,27-6.89-29-5.82-30.45a246.57,246.57,0,0,1,16.54-23.77A75.86,75.86,0,0,1,325.84,349a56.49,56.49,0,0,1,20.54-9.9s15.52-1.53,43.41,24.11S425.62,415.65,425.62,443.18Z"/><path class="cls-14" d="M425.62,443.18c0,27.55-12.16,70-19.71,77.3-2.91,2.8-8.26,5.61-14.53,8,38.33-48.67,17-125.91,8.6-125.44-9,.51,4.28,35.66-13.37,31.29C374,431.2,342.54,378.49,325.81,349a56.49,56.49,0,0,1,20.54-9.9s15.52-1.53,43.41,24.11S425.62,415.65,425.62,443.18Z"/><path class="cls-11" d="M277.91,424.09c-15.41-9.23-27.32-13.32-36.16-14.85a6.13,6.13,0,0,0-.66-.86c-4-4.32-8.66-15.59-10.08-25.19C277.76,392.82,311.39,444.18,277.91,424.09Z"/><path class="cls-11" d="M355.42,508.49a165.85,165.85,0,0,1-93-4.44c.56-4.14,1.27-7.72,1.27-10,0-8-6.71-12.62-15.21-19.9a15.81,15.81,0,0,1-5.43-8.82C289.71,494,355.42,508.49,355.42,508.49Z"/><path class="cls-15" d="M277.91,424.09c-15.41-9.23-27.32-13.32-36.16-14.85a6.13,6.13,0,0,0-.66-.86c-4-4.32-8.66-15.59-10.08-25.19C277.76,392.82,311.39,444.18,277.91,424.09Z"/><path class="cls-16" d="M355.42,508.49a165.85,165.85,0,0,1-93-4.44c.56-4.14,1.27-7.72,1.27-10,0-8-6.71-12.62-15.21-19.9a15.81,15.81,0,0,1-5.43-8.82C289.71,494,355.42,508.49,355.42,508.49Z"/><path class="cls-8" d="M279,416.42s-12.16,15.3-14.68,19.9-7.13,6.5-8.39,6.12-11.79-11-15.33-13-15.18-10-17.38-13a10,10,0,0,1-2.19-5.35s-6.62,7.32-5.36,15.71,2.3,10.77,7.86,17.8,11.92,15.33,16.86,22.47,11.35,16.71,19.32,16.71,41.52-34.91,48.86-45.19S279,416.42,279,416.42Z"/><path class="cls-17" d="M308.61,438.56c-5.95,8.33-29.09,32.82-41.91,41.83-3,2.11-5.44,3.37-7,3.37-8,0-14.38-9.57-19.32-16.71s-11.3-15.43-16.86-22.47-6.6-9.41-7.86-17.8a16.1,16.1,0,0,1,.59-7A25,25,0,0,1,221,411.1a9.94,9.94,0,0,0,2.18,5.35c2.2,3.06,13.84,11.09,17.38,13,1.92,1.05,5.89,4.67,9.33,7.82,2.41,2.21,4.55,4.19,5.54,4.9h0a1.9,1.9,0,0,0,.43.26c1.26.38,5.88-1.54,8.39-6.13S279,416.41,279,416.41s4.13,1.33,9.35,3.48C298.78,424.18,313.5,431.72,308.61,438.56Z"/><path class="cls-18" d="M308.61,438.56c-5.95,8.33-29.09,32.82-41.91,41.83-20.31-13.9-45.74-53.27-50.4-60.64a24.71,24.71,0,0,1,4.78-8.68,9.94,9.94,0,0,0,2.18,5.35c2.2,3.06,13.84,11.09,17.38,13,1.92,1.05,5.9,4.67,9.33,7.82a18.32,18.32,0,0,0,5.54,4.9h0c.14.09.28.18.43.26,14.71,8.13,25.75-7.78,32.42-22.54C298.78,424.18,313.5,431.72,308.61,438.56Z"/><path class="cls-11" d="M343.41,411.83c-5.86,7.65.85,23.72-11.73,30.61-9.88,5.4-20.79-.27-30.29-7.4-2.61-2-5.11-4-7.46-6-10.91-9.19-15.52-6.13-17.66-14.16s7.59-17.61,12.2-20.78,18.46-26.67,18.46-26.67c6.95-3.77,15.25-.76,22.68,4.45a77,77,0,0,1,16.74,16.59C353.9,398.82,349.29,404.18,343.41,411.83Z"/><path class="cls-19" d="M343.41,411.83c-5.86,7.65.85,23.72-11.73,30.61-9.88,5.4-20.79-.27-30.29-7.4a26.27,26.27,0,0,1,14.77-15.22c15.9-6.6,15.16-33.28,13.45-47.93a77,77,0,0,1,16.74,16.59C353.9,398.82,349.29,404.18,343.41,411.83Z"/><path class="cls-20" d="M416,374.05c-7.13,20.78-41.1,17.11-56.2,17.88S336.71,404.17,325,403s-13.21-5.35-30.08-13.38C278.4,381.8,270.4,348,270,346.45c1.24,6.49,0,14.49-6.31,19.07s-24.32,7.66-33.14-13c-2.33-5.46-2.43-11.29-1.17-17.11,3.51-16.22,17.61-32.4,23.67-40.28a19.73,19.73,0,0,1,6.23-5.26c8.75-4.88,19.93-3.93,19.93-3.93,18.25-5.55,41.4,10.92,53.53,21.81,2.08,1.87,3.83,3.58,5.19,5,9.22,9.57,26.42,16.07,49.48,21.81,9.78,2.43,17.68,6.18,23,11.26C417.65,352.7,420.08,362.09,416,374.05Z"/><path class="cls-21" d="M271.2,321.4l5.07,2.63-4.56,28.87h-1.48S268.6,328.55,271.2,321.4Z"/><path class="cls-22" d="M315.84,443.25s30.42,66,84.17,81.37c0,0-6.4,3.2-10.22,4.53s-43-12.1-66.47-50.74c0,0-13.35-21.41-13.18-37.68A4.51,4.51,0,0,1,315.84,443.25Z"/><path class="cls-23" d="M315.84,443.25s30.42,66,84.17,81.37c0,0-6.4,3.2-10.22,4.53s-43-12.1-66.47-50.74c0,0-13.35-21.41-13.18-37.68A4.51,4.51,0,0,1,315.84,443.25Z"/><path class="cls-8" d="M221.57,442.81s-5.65,8-3.13,12.64-.55,6.1,3.13,10.33,6.09,5.74,8.61,5.36,0-4.6,0-4.6l1.12-5.35-1.46-7.74Z"/><path class="cls-24" d="M221.57,442.81s-5.65,8-3.13,12.64-.55,6.1,3.13,10.33,6.09,5.74,8.61,5.36,0-4.6,0-4.6l1.12-5.35-1.46-7.74Z"/><path class="cls-25" d="M416,374.05c-7.13,20.78-41.1,17.11-56.2,17.88S336.71,404.17,325,403s-13.21-5.35-30.08-13.38C278.4,381.8,270.4,348,270,346.45c1.24,6.49,0,14.49-6.31,19.07s-24.32,7.66-33.14-13c-2.33-5.46-2.43-11.29-1.17-17.11,1.63,5.74,5.68,11.06,13.67,14.82,22.77,10.71,27.38-25.77,27.38-25.77l5.8-.42a84.3,84.3,0,0,0,7,31.55c7.12,16.07,26.42,16.07,44.86,8s27.69,7.65,55.37,10.71c20.23,2.24,26.89-14.56,27-28.53C417.65,352.7,420.08,362.09,416,374.05Z"/><path class="cls-26" d="M310.11,313.06c-13-9.47-21-7.74-40.39-8.61-11.23-.5-11.86-8.19-10.4-14.59,8.75-4.88,19.93-3.93,19.93-3.93,18.25-5.55,41.4,10.92,53.53,21.81C338.78,320,321.35,321.25,310.11,313.06Z"/><path class="cls-27" d="M369.21,350.44c-3,4.53-14,3.46-24.43-2.38s-16.45-14.25-13.41-18.78,14-3.46,24.43,2.38S372.25,345.91,369.21,350.44Z"/><ellipse class="cls-28" cx="275.84" cy="281.68" rx="266.84" ry="272.68"/></g></g></svg>