<svg xmlns="http://www.w3.org/2000/svg" xmlns:xlink="http://www.w3.org/1999/xlink" viewBox="0 0 1920 1096"><defs><style>.cls-1{mask:url(#mask);}.cls-2,.cls-4{mix-blend-mode:multiply;}.cls-2{fill:url(#linear-gradient);}.cls-3{mask:url(#mask-2);}.cls-4{fill:url(#linear-gradient-2);}.cls-5{fill:#c9eff4;}.cls-6{fill:#322d63;}.cls-7{fill:#282844;}.cls-8{fill:#fff;}.cls-9{fill:#fd6041;}.cls-10{fill:#e25340;}.cls-11{fill:#ea4e34;}.cls-12{fill:#f3b5aa;}.cls-13{fill:#7dc9d3;}.cls-14{fill:#8ad6e6;}.cls-15{fill:#54adbf;}.cls-16{fill:#ec919a;}.cls-17{fill:#a3784d;}.cls-18{fill:none;}.cls-19{fill:#19a4a7;}.cls-20{fill:#69c8b4;}.cls-21{fill:#fea289;}.cls-22{fill:#ff715a;}.cls-23{fill:#ffc36c;}.cls-24{fill:#ffd394;}.cls-25{opacity:0.43;}.cls-26{fill:#ff9378;opacity:0.35;}.cls-27{mask:url(#mask-3);}.cls-28{fill:url(#linear-gradient-3);}.cls-29{mask:url(#mask-4);}.cls-30{fill:url(#linear-gradient-4);}.cls-31{filter:url(#luminosity-noclip-4);}.cls-32{filter:url(#luminosity-noclip-3);}.cls-33{filter:url(#luminosity-noclip-2);}.cls-34{filter:url(#luminosity-noclip);}</style><filter id="luminosity-noclip" x="689.48" y="-8732" width="308.18" height="32766" filterUnits="userSpaceOnUse" color-interpolation-filters="sRGB"><feFlood flood-color="#fff" result="bg"/><feBlend in="SourceGraphic" in2="bg"/></filter><mask id="mask" x="689.48" y="-8732" width="308.18" height="32766" maskUnits="userSpaceOnUse"><g class="cls-34"/></mask><linearGradient id="linear-gradient" x1="1042.95" y1="382.46" x2="479.13" y2="395.91" gradientTransform="translate(-46.16 105.7) rotate(-7.25)" gradientUnits="userSpaceOnUse"><stop offset="0" stop-color="#fff"/><stop offset="0.13" stop-color="#fbfbfb"/><stop offset="0.26" stop-color="#efefef"/><stop offset="0.38" stop-color="#dcdcdc"/><stop offset="0.5" stop-color="silver"/><stop offset="0.63" stop-color="#9d9d9d"/><stop offset="0.75" stop-color="#717171"/><stop offset="0.87" stop-color="#3d3d3d"/><stop offset="0.99" stop-color="#030303"/><stop offset="1"/></linearGradient><filter id="luminosity-noclip-2" x="1003.78" y="-8732" width="111.33" height="32766" filterUnits="userSpaceOnUse" color-interpolation-filters="sRGB"><feFlood flood-color="#fff" result="bg"/><feBlend in="SourceGraphic" in2="bg"/></filter><mask id="mask-2" x="1003.78" y="-8732" width="111.33" height="32766" maskUnits="userSpaceOnUse"><g class="cls-33"/></mask><linearGradient id="linear-gradient-2" x1="1010.56" y1="485.02" x2="1236.91" y2="502.94" gradientTransform="matrix(1, 0, 0, 1, 0, 0)" xlink:href="#linear-gradient"/><filter id="luminosity-noclip-3" x="689.48" y="307.29" width="308.18" height="166.87" filterUnits="userSpaceOnUse" color-interpolation-filters="sRGB"><feFlood flood-color="#fff" result="bg"/><feBlend in="SourceGraphic" in2="bg"/></filter><mask id="mask-3" x="689.48" y="312.29" width="308.18" height="166.87" maskUnits="userSpaceOnUse"><g class="cls-32"><g transform="translate(0 5)"><g class="cls-1"><path class="cls-2" d="M689.48,390.82l134.85-7a7,7,0,0,0,6.49-5.79c1.6-8.68,7.19-26.44,26.83-44.4l24.66-25.19a3.81,3.81,0,0,1,6.35,1.41c1.75,4.92,2.71,12.93-3.6,22.15,0,0-11.14,14.78-9.94,27l52.2-11.64,29.95-6.22s15.84-4.76,23,2.16a4.06,4.06,0,0,1-1.31,6.65c-11.58,4.46-44.24,17.09-61.56,24.43l56.35-5.89s17-1.77,23.28,8.11a4,4,0,0,1-2.57,6.16l-43.7,7.86-30.3,2.67,32.09,3.4,20.88-.94s9.91-1.78,15.2,3.09a4,4,0,0,1-2.07,6.91L951,411.13l-30.85,3.22,24.39,4.26s14.6-.82,22.22,3.51a4,4,0,0,1-1,7.39L947,434a16.79,16.79,0,0,1-6.77.22l-28.63-4.88a19.33,19.33,0,0,0-7.54.2c-8.89,2-32.47,6.61-51.64,3.52a18.68,18.68,0,0,0-7.87.44l-147.54,40.7"/></g></g></g></mask><linearGradient id="linear-gradient-3" x1="1042.95" y1="382.46" x2="479.13" y2="395.91" gradientTransform="translate(-46.16 105.7) rotate(-7.25)" gradientUnits="userSpaceOnUse"><stop offset="0" stop-color="#282844"/><stop offset="0.99" stop-color="#282844"/><stop offset="1" stop-color="#282844"/></linearGradient><filter id="luminosity-noclip-4" x="1003.78" y="458.33" width="111.33" height="61.62" filterUnits="userSpaceOnUse" color-interpolation-filters="sRGB"><feFlood flood-color="#fff" result="bg"/><feBlend in="SourceGraphic" in2="bg"/></filter><mask id="mask-4" x="1003.78" y="463.33" width="111.33" height="61.62" maskUnits="userSpaceOnUse"><g class="cls-31"><g transform="translate(0 5)"><g class="cls-3"><path class="cls-4" d="M1114.32,491.36a9.26,9.26,0,0,0-6.32-6.68l-11.18-3.3-2.5-3.1a9,9,0,0,0-7.91-3.34l-6.39.66-2.73-3.07a8.91,8.91,0,0,0-8.41-2.89L1062.1,471l-2.55-2.63a8.93,8.93,0,0,0-7.34-2.7l-6.91.71-12.62-6.92a8.86,8.86,0,0,0-10,1l-17.27,14.34a4.58,4.58,0,0,0,.47,7.38c4.22,2.53,11.87,3.87,24.28-4.22l9-1.16-7.28,15a8.07,8.07,0,0,0,4.48,10.4s10.64,2.89,17.36-11.56c0,0-3.92,12.72,3.92,19.08,0,0,10.07,5.71,15.41-12.93-1.1,5.26-2.17,15.34,4.75,18.71,0,0,7.24,5.24,15.07-9.48a15.59,15.59,0,0,0-.25,11.14,4.29,4.29,0,0,0,7.22,1.36l13.8-15.16C1115.76,499.88,1115.24,495,1114.32,491.36Z"/></g></g></g></mask><linearGradient id="linear-gradient-4" x1="1010.56" y1="485.02" x2="1236.91" y2="502.94" gradientTransform="matrix(1, 0, 0, 1, 0, 0)" xlink:href="#linear-gradient-3"/></defs><title>სექსუალური ძალადობა</title><g id="Layer_1" data-name="Layer 1"><rect class="cls-5" x="10" y="15" width="1900" height="1071"/><path class="cls-6" d="M1900,20V1071H20V20H1900m20-20H0V1091H1920V0Z" transform="translate(0 5)"/></g><g id="Layer_2" data-name="Layer 2"><path class="cls-7" d="M929.59,859.62A380.57,380.57,0,0,1,776.4,827.71a391.89,391.89,0,0,1-125.12-87.1,405.94,405.94,0,0,1-84.37-129.16,420,420,0,0,1,0-316.28A405.94,405.94,0,0,1,651.28,166,391.73,391.73,0,0,1,776.4,78.91a383.64,383.64,0,0,1,306.37,0A391.78,391.78,0,0,1,1207.9,166a405.81,405.81,0,0,1,84.36,129.16,420,420,0,0,1,0,316.28,405.77,405.77,0,0,1-84.37,129.16,391.78,391.78,0,0,1-125.12,87.1A380.56,380.56,0,0,1,929.59,859.62Z" transform="translate(0 5)"/><path class="cls-8" d="M689.36,973.05a18.89,18.89,0,0,0-1.88,1.08,8,8,0,0,0-2.54,10.07,13.67,13.67,0,0,0,6.28,5.43c.6.29,1.22.54,1.84.77a21.42,21.42,0,0,0,6.52,1.26,23.05,23.05,0,0,0,5.1-.4l4-.74a136.54,136.54,0,0,1,17.26-2.24,308.5,308.5,0,0,1,12.48,33.13c2.11,6.77,4.05,13.75,5.6,20.07a2.23,2.23,0,0,0,3.74,1.11l0,0a2.38,2.38,0,0,0,.64-2.26c-1-3.91-2.18-8.39-3.32-12.43-.72-2.53-1.48-5.11-2.3-7.72a310.88,310.88,0,0,0-12.33-32.94c1.85-5.32,6.69-14.58,9.65-20.06.11-.2.21-.4.31-.61a23.47,23.47,0,0,0,2.37-13.66,15.57,15.57,0,0,0-1.77-5.61,11.5,11.5,0,0,0-1-1.43,7.2,7.2,0,0,0-10.07-1c-8.41,6.62-7.57,19.82-5.15,30.28q-5-10.27-11.3-21c2-5.34,6.5-14,9.37-19.36a23.64,23.64,0,0,0,2.77-14.28,14,14,0,0,0-2.76-7.17,7.19,7.19,0,0,0-10.07-1c-9.35,7.35-7.26,22.86-4.29,33.67-4.29-6.8-9-13.66-14.14-20.51,2-5.36,6.46-13.9,9.29-19.14a23.58,23.58,0,0,0,2.77-14.28,14,14,0,0,0-2.76-7.17,7.2,7.2,0,0,0-10.07-1c-10,7.86-6.93,25-3.68,35.81q-7.85-10-17-19.8c2.64-7.33,10.78-33.3-2.26-43.16a7.37,7.37,0,0,0-10,1,14.1,14.1,0,0,0-2.76,8,23.5,23.5,0,0,0,3.23,13.64,198.13,198.13,0,0,1,9.73,18.4q-7.44-7.79-15.77-15.38c-3-11.2-11.1-34.72-27.3-35.31a8.55,8.55,0,0,0-8.59,7.56,16,16,0,0,0,2.14,8.78,25.12,25.12,0,0,0,11.25,10.81c4.23,2.08,10.36,5.17,15.41,8.08q8,7,15.16,14.21c-9.15-5.51-21.94-10.71-30.82-4.05a7.94,7.94,0,0,0-2,10.43,13.75,13.75,0,0,0,6.58,5,21.49,21.49,0,0,0,13.35.85c5.72-1.42,15.15-3.61,20.69-4.12q8,8.64,14.92,17.41c-9.57-4.9-27-11.66-36.49-2.27-2.79,2.74-3.31,7.54-.77,10.53a13.4,13.4,0,0,0,7.16,4.09,21.61,21.61,0,0,0,13.49-1c5.5-2.22,14.58-5.73,20-7,6.39,8.35,12.11,16.72,17.21,25-8.41-6.7-24.81-17.39-36.13-9.64a7.94,7.94,0,0,0-2.51,10.06,13.66,13.66,0,0,0,6.28,5.42,21.64,21.64,0,0,0,13.43,1.63c6.07-1.16,16.24-2.94,21.64-3a309.58,309.58,0,0,1,15,28.45C716.32,977.91,700.8,967.45,689.36,973.05Z" transform="translate(0 5)"/><path class="cls-9" d="M1124.64,1067c-13.66-97.19-54.76-195.31-54.76-195.31l-275.72-4.1S749,957.06,734.26,1067Z" transform="translate(0 5)"/><path class="cls-10" d="M1028.64,1045.23c-104.91-35.31-188-101.52-234.52-177.62-1.37,2.74-45.38,91.18-59.86,199.34h388.58A488.21,488.21,0,0,1,1028.64,1045.23Z" transform="translate(0 5)"/><path class="cls-9" d="M767.64,505.81s-62.74-36.49-52.12-114.39a117.09,117.09,0,0,1,13.6-39.89c5.69-10.46,14.23-26.36,23.65-44.6a164.21,164.21,0,0,0,10-23.64c10-30,36-107.75,44.15-123.77,0,0,32.22-79.84,87.47-67.48,0,0,45.11-48.48,121.53,23.76,0,0,73.65,71.28,63.52,203.39,0,0-5.52,38,3.69,73.19,0,0,17.79,63.53-19.32,79.95L1022.22,463,853,466.45s-47.24,14.8-83.78,39.95Z" transform="translate(0 5)"/><path class="cls-11" d="M1028.86,300.48s11,53.47-27.39,92.54a44.92,44.92,0,0,0-10.75,45.56,39.46,39.46,0,0,0,18,22.21c29.64,17.13-37.93-1.22-37.93-1.22L940,393.48l13-26.92Z" transform="translate(0 5)"/><path class="cls-11" d="M855.79,167.49s-64,45.1-46.2,156.09a22.79,22.79,0,0,0,.5,3.41c4.6,14.28,9.86,57,64.66,85.26,0,0,6.33,40.79-9.48,55.48s64.81,11.42,64.81,11.42l17.38-66.9L862.11,289.87Z" transform="translate(0 5)"/><path class="cls-12" d="M1111,993.44c4.15-17.13-2.24-88.64-5.23-119a281.51,281.51,0,0,1-.28-53.13,405.27,405.27,0,0,1,17.44-85.13l16.39-45.25-100.57,11.35L1023,828.8l46.75,43.4s11,23.92,24,65.29l16.5,57.58Z" transform="translate(0 5)"/><path class="cls-12" d="M737.15,736.17a405.27,405.27,0,0,1,17.44,85.13,281.51,281.51,0,0,1-.28,53.13c-3,30.37-9.38,101.88-5.23,119,0,0,17.8-73.8,47.65-127.33,0,0,7.86-97.33,12.57-103.82s-62.85-90.84-62.85-90.84l-26.71,24.34Z" transform="translate(0 5)"/><path class="cls-13" d="M1077.1,738.91c59.07,0,90.23-15.42,92.11-16.38a.13.13,0,0,0,.06-.15c-18.53-54.76-17.2-155.9-17.2-155.9-8-73.9-66.28-89-66.28-89l-59.64-13.71-109,13.38L853.2,466.35l-12.37,4.56s-123.56,36.73-127.54,120.2c0,0-4,80.74-21.17,121.82a.14.14,0,0,0,0,.14c1.21,1.2,21.28,20.63,66.22,25.94l15.91,1.37S799.46,795,794.16,867.54c0,0,81.3,82.56,277.49,4.1,0,0-21.14-30.67-7.78-86.64l11-38.93Z" transform="translate(0 5)"/><path class="cls-14" d="M1152.07,566.48c-8-73.9-66.28-89-66.28-89l-59.64-13.71-109,13.38L853.2,466.35l-12.37,4.56S792.22,485.36,755,516.74c26.55,99.92,92.75,195.83,191.26,262.55a479.77,479.77,0,0,0,114.13,57.11c-1.67-13.5-1.45-30.72,3.49-51.4l11-38.93,2.23-7.16c59.07,0,90.23-15.42,92.11-16.38a.13.13,0,0,0,.06-.15C1150.74,667.62,1152.07,566.48,1152.07,566.48Z" transform="translate(0 5)"/><path class="cls-12" d="M974.3,409.07s-.59,32.85,23.57,43.19l29.66,11.86c-10.61,42-93.35,42.61-93.35,42.61-72.47-5.48-81.3-40.15-81.3-40.15l18.06-6.49a28,28,0,0,0,13.75-10.51,28.47,28.47,0,0,0,4.75-13.14v-29.2l30.06,6.09,18.85,2.43Z" transform="translate(0 5)"/><path class="cls-15" d="M778.17,600.3a2.08,2.08,0,0,0-2.95.47c-9.28,13.1-15.19,28.66-17.58,46.27a158.9,158.9,0,0,0,1,45.56,207.56,207.56,0,0,0,13.76,48.69,2.1,2.1,0,0,0,1.91,1.26,2,2,0,0,0,.89-.2,2.19,2.19,0,0,0,1-2.89,206.69,206.69,0,0,1-13.41-47.55c-3.87-24.74-4.26-60.19,15.85-88.56A2.23,2.23,0,0,0,778.17,600.3Z" transform="translate(0 5)"/><path class="cls-15" d="M1091.26,644.6A217.19,217.19,0,0,0,1075.74,597a2.08,2.08,0,0,0-2.84-1,2.2,2.2,0,0,0-.92,2.92,211.77,211.77,0,0,1,15.15,46.55c4.9,24.32,7,59.34-10.9,88a2.22,2.22,0,0,0,.64,3,2.07,2.07,0,0,0,2.91-.66c8.25-13.25,13.16-28.83,14.6-46.31A161.93,161.93,0,0,0,1091.26,644.6Z" transform="translate(0 5)"/><path class="cls-16" d="M974.3,409.07s.2-8.19.61-18c-23.71,15.78-46.1,19.43-46.1,19.43a123.74,123.74,0,0,1-40.15-13.05l.78,15.29S921,448.27,987,444.62A59.59,59.59,0,0,1,974.3,409.07Z" transform="translate(0 5)"/><path class="cls-12" d="M1027.46,301.46l-1,12.81c-17.78,83.21-97.64,96.21-97.64,96.21-81.41-12.44-95.12-84.73-95.12-84.73-.93-3.33-1.77-6.29-2.52-8.94a196.8,196.8,0,0,1-5.27-85.55c3.74-22.95,12-47.23,29.23-63.91,0,0,38.45,129.55,149.8,132.28Z" transform="translate(0 5)"/><path class="cls-8" d="M794.16,867.54h0s-6,12-14.44,32.55c28.06,14,151.47,66.94,301.56,1.25-5.82-16-10.1-26.56-11.15-29.09C875,949.67,794.16,867.54,794.16,867.54Z" transform="translate(0 5)"/><path class="cls-11" d="M877.07,128.85s86.7-20.81,139.13,64.53c0,0,36.29,60.37,34.28,106.16,0,0,18.15-85.34-60.49-154C990,145.51,946.3,105.26,877.07,128.85Z" transform="translate(0 5)"/><path class="cls-17" d="M893.77,296.22s-23.32,16.77-37.13-2.73a6.89,6.89,0,0,1-7.15,1s1.27,2.69,6.32,2.33c0,0-3.25,2.59-6,2.49,0,0,2.56,1.94,7.68.36C857.48,299.67,872.17,318.26,893.77,296.22Z" transform="translate(0 5)"/><path class="cls-17" d="M887.84,264.51s-19.18-5.34-47.81,13.24c0,0,9.67-18.08,37.94-23.26,0,0,9.92-2.53,13.89,3.5C891.86,258,896.4,265.78,887.84,264.51Z" transform="translate(0 5)"/><path class="cls-16" d="M925.11,304.14s-.29,6.05-8.5,10.88a3.72,3.72,0,0,0-1.05.89c-1,1.2-2.67,4.21-.74,9a4.27,4.27,0,0,0,.78,1.27c1.31,1.44,5.11,4.19,14.09,2.12,0,0-8.21,1.6-11.7-4.21a6.13,6.13,0,0,1,.41-7,8.3,8.3,0,0,1,2.85-2.12S927.53,311,925.11,304.14Z" transform="translate(0 5)"/><path class="cls-17" d="M961.24,296.22s23.33,16.77,37.14-2.73a6.87,6.87,0,0,0,7.14,1s-1.26,2.69-6.32,2.33c0,0,3.26,2.59,6,2.49,0,0-2.55,1.94-7.68.36C997.53,299.67,982.84,318.26,961.24,296.22Z" transform="translate(0 5)"/><path class="cls-17" d="M967.18,264.51s19.18-5.34,47.8,13.24c0,0-9.66-18.08-37.93-23.26,0,0-9.93-2.53-13.89,3.5C963.16,258,958.62,265.78,967.18,264.51Z" transform="translate(0 5)"/><path class="cls-9" d="M855.13,167.35s52.38,144.42,172.33,134.11l5.56-34.83L924,182Z" transform="translate(0 5)"/><path class="cls-18" d="M1166.71,1006.43c.94.43,2.56,1.23,4.56,2.37l.45-.92A22.54,22.54,0,0,1,1166.71,1006.43Z" transform="translate(0 5)"/><path class="cls-19" d="M1198.3,968a10.94,10.94,0,0,0,2.92,2.36l.17.09a15.1,15.1,0,0,1,2.06.84,27.7,27.7,0,0,1,2.23-4.69,2.71,2.71,0,0,1,3.79-.92,2.9,2.9,0,0,1,.89,3.91,21.46,21.46,0,0,0-2.26,5.24,9.48,9.48,0,0,1,1.83,8.89c7-5.77,13.92-11,20.49-15.55.27-4,1.52-16.14,6.89-26.91a2.72,2.72,0,0,1,3.71-1.22,2.88,2.88,0,0,1,1.18,3.82,66.83,66.83,0,0,0-5.82,20.24,301.14,301.14,0,0,1,37.93-21.85,2.71,2.71,0,0,1,3.62,1.47,2.87,2.87,0,0,1-1.42,3.73,294.82,294.82,0,0,0-37.08,21.35c18.64,5.49,31.68.28,31.9.19a2.72,2.72,0,0,1,3.58,1.55,2.87,2.87,0,0,1-1.5,3.7c-.63.27-13.93,5.73-33.36.62-2.09-.55-4.26-1.25-6.48-2.06-7.31,5.1-15.08,11-22.9,17.56,15.31,6.76,31.28,2.52,31.45,2.47a2.74,2.74,0,0,1,3.37,2,2.86,2.86,0,0,1-1.94,3.48,58.08,58.08,0,0,1-27.75-.17,47.44,47.44,0,0,1-9.79-3.77c-6.09,5.36-12.15,11.16-18,17.39,13.73,4.62,22.75,3,22.85,3a2.75,2.75,0,0,1,3.2,2.26,2.83,2.83,0,0,1-2.19,3.31c-.4.08-8.3,1.54-20.69-1.71-2.29-.6-4.74-1.38-7.32-2.34l-.87,1c6.42,6,12.18,14.25,12.15,24.83,93.52-23.5,128.88-135,128.88-135C1262.3,913.58,1223,939.94,1198.3,968Z" transform="translate(0 5)"/><path class="cls-19" d="M1185.6,1006.21l-1.33.47c0,.28.07.55.1.81Z" transform="translate(0 5)"/><path class="cls-19" d="M1178.88,1007.94a23.89,23.89,0,0,1-7.16-.06l-.45.92a68.61,68.61,0,0,1,7.43,4.91l1.14-1.3A27.13,27.13,0,0,1,1178.88,1007.94Z" transform="translate(0 5)"/><path class="cls-20" d="M1185.6,1006.21l-1.23,1.28c0-.26-.07-.53-.1-.81a30.4,30.4,0,0,1-5.39,1.26,27.13,27.13,0,0,0,1,4.47l-1.14,1.3c1.42,1.08,2.86,2.27,4.27,3.58l.87-1c2.58,1,5,1.74,7.32,2.34,12.39,3.25,20.29,1.79,20.69,1.71A2.83,2.83,0,0,0,1214,1017a2.75,2.75,0,0,0-3.2-2.26c-.1,0-9.12,1.62-22.85-3,5.87-6.23,11.93-12,18-17.39a47.44,47.44,0,0,0,9.79,3.77,58.08,58.08,0,0,0,27.75.17,2.86,2.86,0,0,0,1.94-3.48,2.74,2.74,0,0,0-3.37-2c-.17,0-16.14,4.29-31.45-2.47,7.82-6.59,15.59-12.46,22.9-17.56,2.22.81,4.39,1.51,6.48,2.06,19.43,5.11,32.73-.35,33.36-.62a2.87,2.87,0,0,0,1.5-3.7,2.72,2.72,0,0,0-3.58-1.55c-.22.09-13.26,5.3-31.9-.19a294.82,294.82,0,0,1,37.08-21.35,2.87,2.87,0,0,0,1.42-3.73,2.71,2.71,0,0,0-3.62-1.47,301.14,301.14,0,0,0-37.93,21.85,66.83,66.83,0,0,1,5.82-20.24,2.88,2.88,0,0,0-1.18-3.82,2.72,2.72,0,0,0-3.71,1.22c-5.37,10.77-6.62,22.92-6.89,26.91-6.57,4.59-13.49,9.78-20.49,15.55-.74,2.87-2.61,6.29-6.22,10.35C1203.71,994.08,1196,1002.33,1185.6,1006.21Z" transform="translate(0 5)"/><path class="cls-20" d="M1208.1,974.84a21.46,21.46,0,0,1,2.26-5.24,2.9,2.9,0,0,0-.89-3.91,2.71,2.71,0,0,0-3.79.92,27.7,27.7,0,0,0-2.23,4.69A14.4,14.4,0,0,1,1208.1,974.84Z" transform="translate(0 5)"/><path class="cls-8" d="M1165.87,884.75a8.86,8.86,0,0,0,1.27,5.9c6.48,9.81,26.86-1.62,26.86-1.62a28.37,28.37,0,0,0-4.78,9.77c-1.87,7.74,4.44,15.29,12.09,14.16,4.14-.62,8.06-3.85,8-13.92l-.63-9.19s5,10.06,13,12.3a10.48,10.48,0,0,0,13-9c.5-4.44-1.91-14.13-21.41-14.38,5.48-2.82,9.06-5.64,11.28-8.34,8.25-10-6-23.49-15-14.15-5,5.26-5.88,13.08-5.88,13.08-5.66-29.74-20.44-17.59-20.44-17.59-8.07,8.65,3.64,17.5,3.64,17.5a35.89,35.89,0,0,0,7.55,6.37C1170.69,865.91,1166.56,878.83,1165.87,884.75Zm38.45,9.13a.41.41,0,0,1-.23.53.4.4,0,0,1-.52-.24,15.34,15.34,0,0,1-.61-6.71,2,2,0,0,1-1.3-.23c-4.1,7.54-2.68,13.39-2.66,13.46a.43.43,0,0,1-.29.51.41.41,0,0,1-.49-.3c-.07-.27-1.56-6.35,2.84-14.27a1.62,1.62,0,0,1-.24-.66,26.35,26.35,0,0,0-5.23,5.71.4.4,0,0,1-.56.11.43.43,0,0,1-.11-.58,25.48,25.48,0,0,1,6-6.29,1.91,1.91,0,0,1,3.69.54,1.81,1.81,0,0,1-.75,1.67A14.8,14.8,0,0,0,1204.32,893.88Zm13.7-12.44a.44.44,0,0,1,.29.51.39.39,0,0,1-.48.3,17.21,17.21,0,0,0-9.06.51,2.09,2.09,0,0,1,.22.8,2.24,2.24,0,0,1-.08.71c2,1.17,6.31,3.33,10.6,3.16a.39.39,0,0,1,.33.15.42.42,0,0,1,.09.25.41.41,0,0,1-.39.43c-4.54.18-9-2-11-3.26a1.86,1.86,0,0,1-.67.44c3.46,4.61,6.5,5.74,6.54,5.75a.38.38,0,0,1,.18.13.46.46,0,0,1,.07.4.41.41,0,0,1-.51.26c-.15-.06-3.46-1.26-7.19-6.4a1.78,1.78,0,0,1-1.73-1.74,1.91,1.91,0,0,1,2.93-1.75A18.08,18.08,0,0,1,1218,881.44Zm.44-10.89a.4.4,0,0,1,.57-.08l.07.07a.43.43,0,0,1,0,.51,18.74,18.74,0,0,1-7.38,6,.4.4,0,0,1-.52-.24.43.43,0,0,1,.22-.54A18,18,0,0,0,1218.46,870.55Zm-3.9-4.89a.36.36,0,0,1,.11.1.41.41,0,0,1,0,.47,46,46,0,0,1-5.77,8.08.4.4,0,0,1-.57,0,.43.43,0,0,1,0-.59,45.18,45.18,0,0,0,5.65-7.92A.4.4,0,0,1,1214.56,865.66Zm-5.16-4.95a.4.4,0,0,1,.57-.07l.06.07a.42.42,0,0,1,0,.51,21.86,21.86,0,0,0-4.37,11.06.4.4,0,0,1-.41.4.41.41,0,0,1-.39-.43A22.23,22.23,0,0,1,1209.4,860.71Zm-.74,15.79a1.9,1.9,0,0,1-3.79.28A1.9,1.9,0,0,1,1208.66,876.5Zm-3.42,4.19a1.9,1.9,0,0,1-3.78.28A1.9,1.9,0,0,1,1205.24,880.69Zm-15.34-11.77a.43.43,0,0,1,0-.59.39.39,0,0,1,.57,0,87.68,87.68,0,0,0,8.08,7.41,1.8,1.8,0,0,1,.58-.48A35,35,0,0,1,1193,861.7a.42.42,0,0,1,.32-.49.4.4,0,0,1,.39.15.49.49,0,0,1,.08.18A34.52,34.52,0,0,0,1200,875a1.94,1.94,0,0,1,.76.09,36.8,36.8,0,0,1-1.67-9.68.41.41,0,0,1,.39-.43.39.39,0,0,1,.32.16.38.38,0,0,1,.09.25,37.38,37.38,0,0,0,1.88,10.2.42.42,0,0,1,0,.31,1.93,1.93,0,0,1,.24.84,1.9,1.9,0,0,1-3.78.28,1.85,1.85,0,0,1,0-.53A89.89,89.89,0,0,1,1189.9,868.92Zm-6.53,15.22c6.26-3.53,11.4-3.1,13.72-2.62a1.22,1.22,0,0,1,.18-.36,19.59,19.59,0,0,1-7.19-3.84.41.41,0,0,1-.07-.58.4.4,0,0,1,.57-.07,18.63,18.63,0,0,0,7.47,3.83,1.87,1.87,0,0,1,2.72,1.57,1.91,1.91,0,0,1-3,1.73,18.91,18.91,0,0,0-7.3,4.14.39.39,0,0,1-.57-.05.42.42,0,0,1,0-.58,20.06,20.06,0,0,1,7.21-4.2,1.88,1.88,0,0,1-.2-.75c-2.16-.44-7.19-.89-13.23,2.51a.39.39,0,0,1-.55-.17A.43.43,0,0,1,1183.37,884.14Z" transform="translate(0 5)"/><path class="cls-21" d="M1201.06,886.63c-4.4,7.92-2.91,14-2.84,14.27a.41.41,0,0,0,.49.3.43.43,0,0,0,.29-.51c0-.07-1.44-5.92,2.66-13.46A1.64,1.64,0,0,1,1201.06,886.63Z" transform="translate(0 5)"/><path class="cls-21" d="M1203,887.46a15.34,15.34,0,0,0,.61,6.71.4.4,0,0,0,.52.24.41.41,0,0,0,.23-.53,14.8,14.8,0,0,1-.5-6.75A1.89,1.89,0,0,1,1203,887.46Z" transform="translate(0 5)"/><path class="cls-21" d="M1200.88,884.92a25.48,25.48,0,0,0-6,6.29.43.43,0,0,0,.11.58.4.4,0,0,0,.56-.11,26.35,26.35,0,0,1,5.23-5.71c0-.07,0-.15,0-.23A2.13,2.13,0,0,1,1200.88,884.92Z" transform="translate(0 5)"/><path class="cls-21" d="M1197.19,883.11a20.06,20.06,0,0,0-7.21,4.2.42.42,0,0,0,0,.58.39.39,0,0,0,.57.05,18.91,18.91,0,0,1,7.3-4.14A1.6,1.6,0,0,1,1197.19,883.11Z" transform="translate(0 5)"/><path class="cls-21" d="M1183.76,884.87c6-3.4,11.07-3,13.23-2.51h0a1.85,1.85,0,0,1,.1-.83c-2.32-.48-7.46-.91-13.72,2.62a.43.43,0,0,0-.16.56A.39.39,0,0,0,1183.76,884.87Z" transform="translate(0 5)"/><path class="cls-21" d="M1198.05,880.5a18.63,18.63,0,0,1-7.47-3.83.4.4,0,0,0-.57.07.41.41,0,0,0,.07.58,19.59,19.59,0,0,0,7.19,3.84A1.73,1.73,0,0,1,1198.05,880.5Z" transform="translate(0 5)"/><path class="cls-21" d="M1198.56,875.75a87.68,87.68,0,0,1-8.08-7.41.39.39,0,0,0-.57,0,.43.43,0,0,0,0,.59,89.89,89.89,0,0,0,8.32,7.61A1.84,1.84,0,0,1,1198.56,875.75Z" transform="translate(0 5)"/><path class="cls-21" d="M1200,875a34.52,34.52,0,0,1-6.23-13.5.49.49,0,0,0-.08-.18.4.4,0,0,0-.39-.15.42.42,0,0,0-.32.49,35,35,0,0,0,6.19,13.57A2,2,0,0,1,1200,875Z" transform="translate(0 5)"/><path class="cls-21" d="M1201.73,875.94a.42.42,0,0,0,0-.31,37.38,37.38,0,0,1-1.88-10.2.38.38,0,0,0-.09-.25.39.39,0,0,0-.32-.16.41.41,0,0,0-.39.43,36.8,36.8,0,0,0,1.67,9.68A1.73,1.73,0,0,1,1201.73,875.94Z" transform="translate(0 5)"/><path class="cls-21" d="M1206.93,885.58c3.73,5.14,7,6.34,7.19,6.4a.41.41,0,0,0,.51-.26.46.46,0,0,0-.07-.4.38.38,0,0,0-.18-.13s-3.08-1.14-6.54-5.75A2.15,2.15,0,0,1,1206.93,885.58Z" transform="translate(0 5)"/><path class="cls-21" d="M1219.54,888.26a.41.41,0,0,0,.39-.43.42.42,0,0,0-.09-.25.39.39,0,0,0-.33-.15c-4.29.17-8.61-2-10.6-3.16a1.72,1.72,0,0,1-.4.73C1210.57,886.22,1215,888.44,1219.54,888.26Z" transform="translate(0 5)"/><path class="cls-21" d="M1208.77,882.76a17.21,17.21,0,0,1,9.06-.51.39.39,0,0,0,.48-.3.44.44,0,0,0-.29-.51,18.08,18.08,0,0,0-9.89.65A1.66,1.66,0,0,1,1208.77,882.76Z" transform="translate(0 5)"/><path class="cls-21" d="M1211.21,876.76a.4.4,0,0,0,.52.24,18.74,18.74,0,0,0,7.38-6,.43.43,0,0,0,0-.51l-.07-.07a.4.4,0,0,0-.57.08,18,18,0,0,1-7,5.67A.43.43,0,0,0,1211.21,876.76Z" transform="translate(0 5)"/><path class="cls-21" d="M1205.26,872.68a.4.4,0,0,0,.41-.4,21.86,21.86,0,0,1,4.37-11.06.42.42,0,0,0,0-.51l-.06-.07a.4.4,0,0,0-.57.07,22.23,22.23,0,0,0-4.53,11.54A.41.41,0,0,0,1205.26,872.68Z" transform="translate(0 5)"/><path class="cls-21" d="M1208.37,874.32a.4.4,0,0,0,.57,0,46,46,0,0,0,5.77-8.08.41.41,0,0,0,0-.47.36.36,0,0,0-.11-.1.4.4,0,0,0-.55.15,45.18,45.18,0,0,1-5.65,7.92A.43.43,0,0,0,1208.37,874.32Z" transform="translate(0 5)"/><path class="cls-22" d="M1197,882.36a1.88,1.88,0,0,0,.2.75,1.6,1.6,0,0,0,.62.69,1.91,1.91,0,0,0,3-1.73,1.87,1.87,0,0,0-2.72-1.57,1.73,1.73,0,0,0-.78.66,1.22,1.22,0,0,0-.18.36,1.85,1.85,0,0,0-.1.83Z" transform="translate(0 5)"/><path class="cls-22" d="M1198.19,877.06a1.9,1.9,0,0,0,3.78-.28,1.93,1.93,0,0,0-.24-.84,1.73,1.73,0,0,0-1-.81,1.94,1.94,0,0,0-.76-.09,2,2,0,0,0-.83.23,1.8,1.8,0,0,0-.58.48,2,2,0,0,0-.37,1.31Z" transform="translate(0 5)"/><path class="cls-22" d="M1204.57,885.46a1.91,1.91,0,0,0-3.69-.54,2.13,2.13,0,0,0-.1.82c0,.08,0,.16,0,.23a1.62,1.62,0,0,0,.24.66,1.64,1.64,0,0,0,.6.6,2,2,0,0,0,1.3.23,1.89,1.89,0,0,0,.86-.33A1.81,1.81,0,0,0,1204.57,885.46Z" transform="translate(0 5)"/><path class="cls-22" d="M1208.66,876.5a1.9,1.9,0,0,0-3.79.28A1.9,1.9,0,0,0,1208.66,876.5Z" transform="translate(0 5)"/><path class="cls-22" d="M1208.13,882.09a1.91,1.91,0,0,0-2.93,1.75,1.78,1.78,0,0,0,1.73,1.74,2.15,2.15,0,0,0,.91-.14,1.86,1.86,0,0,0,.67-.44,1.72,1.72,0,0,0,.4-.73,2.24,2.24,0,0,0,.08-.71,2.09,2.09,0,0,0-.22-.8A1.66,1.66,0,0,0,1208.13,882.09Z" transform="translate(0 5)"/><path class="cls-22" d="M1201.46,881a1.9,1.9,0,0,0,3.78-.28A1.9,1.9,0,0,0,1201.46,881Z" transform="translate(0 5)"/><path class="cls-19" d="M721.57,1032a75.86,75.86,0,0,1-7.12,3c-12.08,4.29-20.07,3.5-20.48,3.46a2.81,2.81,0,0,1-2.44-3.12,2.77,2.77,0,0,1,3-2.53c.1,0,9.21.85,22.54-4.91-6.35-5.72-12.85-11-19.35-15.81a48.05,48.05,0,0,1-9.46,4.59,58,58,0,0,1-27.63,2.5,2.82,2.82,0,0,1-2.21-3.3,2.75,2.75,0,0,1,3.19-2.28c.18,0,16.43,2.92,31.16-5.11-8.32-5.91-16.53-11.1-24.22-15.57-2.15,1-4.26,1.88-6.3,2.6-19,6.73-32.65,2.41-33.29,2.2a2.86,2.86,0,0,1-1.79-3.56,2.73,2.73,0,0,1,3.44-1.85c.23.07,13.64,4.16,31.78-2.88-21.88-12.11-38.28-18-38.64-18.15a2.86,2.86,0,0,1-1.72-3.6,2.73,2.73,0,0,1,3.49-1.77,297.26,297.26,0,0,1,39.54,18.58,66.8,66.8,0,0,0-7.4-19.69,2.88,2.88,0,0,1,.87-3.9,2.71,2.71,0,0,1,3.79.9c6.21,10.27,8.42,22.29,9,26.24,7.75,4.51,16,9.74,24.39,15.69a26.89,26.89,0,0,0-2.67-13.3c-.62-.23-1.24-.48-1.84-.77a13.67,13.67,0,0,1-6.28-5.43,8,8,0,0,1,2.54-10.07,18.89,18.89,0,0,1,1.88-1.08c-26.57-20.58-64-37-116.13-38,0,0,54.55,133.81,173.16,125.08A204,204,0,0,0,721.57,1032Z" transform="translate(0 5)"/><path class="cls-19" d="M699.58,991.66a34.79,34.79,0,0,1,1.33,15.79c6.52,4.84,13.05,10.12,19.43,15.85a42.58,42.58,0,0,0-.25-7.5,2.81,2.81,0,0,1,2.42-3.14,2.76,2.76,0,0,1,3,2.49c.72,6.42.21,10.46-.31,12.67a214.76,214.76,0,0,1,21.7,23.8,182,182,0,0,0-38.26-61.1l-4,.74A23.05,23.05,0,0,1,699.58,991.66Z" transform="translate(0 5)"/><path class="cls-20" d="M725.24,1027.82c.52-2.21,1-6.25.31-12.67a2.76,2.76,0,0,0-3-2.49,2.81,2.81,0,0,0-2.42,3.14,42.58,42.58,0,0,1,.25,7.5c-6.38-5.73-12.91-11-19.43-15.85a34.79,34.79,0,0,0-1.33-15.79,21.42,21.42,0,0,1-6.52-1.26,26.89,26.89,0,0,1,2.67,13.3c-8.38-6-16.64-11.18-24.39-15.69-.59-4-2.8-16-9-26.24a2.71,2.71,0,0,0-3.79-.9,2.88,2.88,0,0,0-.87,3.9,66.8,66.8,0,0,1,7.4,19.69,297.26,297.26,0,0,0-39.54-18.58,2.73,2.73,0,0,0-3.49,1.77,2.86,2.86,0,0,0,1.72,3.6c.36.12,16.76,6,38.64,18.15-18.14,7-31.55,3-31.78,2.88a2.73,2.73,0,0,0-3.44,1.85,2.86,2.86,0,0,0,1.79,3.56c.64.21,14.33,4.53,33.29-2.2,2-.72,4.15-1.61,6.3-2.6,7.69,4.47,15.9,9.66,24.22,15.57-14.73,8-31,5.15-31.16,5.11a2.75,2.75,0,0,0-3.19,2.28,2.82,2.82,0,0,0,2.21,3.3,58,58,0,0,0,27.63-2.5,48.05,48.05,0,0,0,9.46-4.59c6.5,4.82,13,10.09,19.35,15.81-13.33,5.76-22.44,4.92-22.54,4.91a2.77,2.77,0,0,0-3,2.53,2.81,2.81,0,0,0,2.44,3.12c.41,0,8.4.83,20.48-3.46a75.86,75.86,0,0,0,7.12-3,204,204,0,0,1,24.82,28.13l1,1.4a2.69,2.69,0,0,0,3.11,1,2.87,2.87,0,0,0,.73-.39,2.9,2.9,0,0,0,.59-4c-1.58-2.24-3.23-4.42-4.91-6.58A214.76,214.76,0,0,0,725.24,1027.82Z" transform="translate(0 5)"/><path class="cls-23" d="M1183,1017.29c-1.41-1.31-2.85-2.5-4.27-3.58a68.61,68.61,0,0,0-7.43-4.91c-2-1.14-3.62-1.94-4.56-2.37a22.54,22.54,0,0,0,5,1.45,23.89,23.89,0,0,0,7.16.06,30.4,30.4,0,0,0,5.39-1.26l1.33-.47c10.36-3.88,18.11-12.13,18.11-12.13,3.61-4.06,5.48-7.48,6.22-10.35a9.48,9.48,0,0,0-1.83-8.89,14.4,14.4,0,0,0-4.65-3.54,15.1,15.1,0,0,0-2.06-.84l-.17-.09a10.94,10.94,0,0,1-2.92-2.36,11.21,11.21,0,0,1-2.74-8.52,15.69,15.69,0,0,0-.39-5.52,9.23,9.23,0,0,0-3.16-4.86c-20.61-16.69-40.56,10.91-43.47,15.19,12.31-18.12,9.68-34.3,9.68-34.3-.76-20.33-17.39-13.57-17.39-13.57C1131.67,921.21,1128,915,1128,915q-.18-.4-.36-.78a10.51,10.51,0,0,0-15.41-3.84c-22.21,15.38-9.35,46.11-6.73,51.76-9.07-18-36-15.22-36-15.22-23.63,3.11-13,19.59-13,19.59l.09.23a11.33,11.33,0,0,1-2.5,12,1.14,1.14,0,0,0-.11.11,13,13,0,0,0-3,12.84c7.47,25.27,42.66,14.53,42.66,14.53l11-2.1-11.4,5.33a41.1,41.1,0,0,0-21.23,29.45c-3.83,18,9.76,20.12,9.76,20.12,5.3,0,8,1.89,9.43,3.76h34.9c7.4-12.94,7-29.49,7-29.49l.32-.49c-1.1,12.31,6.35,24.34,10.49,30h25.41c4-7.29,9.74-5.35,9.74-5.35a11.22,11.22,0,0,0,11.18-.62,6.74,6.74,0,0,0,2.83-3.45,32.83,32.83,0,0,0,2.11-11.23C1195.15,1031.54,1189.39,1023.24,1183,1017.29Zm-89.71-31a36.16,36.16,0,0,0-9.78,3.34c-3.57,1.84-6.67-3.71-3.09-5.57a41.8,41.8,0,0,1,11.27-4C1095.57,979.37,1097.2,985.57,1093.26,986.33Zm1.12-12.57-13.32-1.16c-4-.34-4-6.76,0-6.41l13.32,1.16C1098.32,967.69,1098.37,974.11,1094.38,973.76Zm84.76,1c4-.13,4,6.28,0,6.42a12.6,12.6,0,0,0-5.88,1.68c-3.5,2-6.59-3.57-3.09-5.57A19.37,19.37,0,0,1,1179.14,974.77Zm-17.91-5a81.76,81.76,0,0,1,10.46-7c3.51-2,6.61,3.6,3.09,5.57a80.39,80.39,0,0,0-10.46,7c-1.34,1.05-3.51.17-4.25-1.19A3.39,3.39,0,0,1,1161.23,969.73Zm1.88,45.21,5.49,5.63c2.84,2.91-1.55,7.46-4.38,4.55l-5.49-5.62C1155.89,1016.58,1160.27,1012,1163.11,1014.94Zm-33.64-65.74a55.48,55.48,0,0,0,4.61-12.08c1-4,7-2.38,6,1.61a62.19,62.19,0,0,1-5.21,13.62C1133,956,1127.57,952.83,1129.47,949.2Zm-12.38-15.66a3.19,3.19,0,0,1,3.8,2.27,28.67,28.67,0,0,1,1.69,11.76c-.27,4.11-6.48,4.15-6.21,0a24.1,24.1,0,0,0-1.49-10.13A3.25,3.25,0,0,1,1117.09,933.54Zm-9.68,89.49-4.29,8.48c-1.86,3.67-7.26.49-5.41-3.15l4.29-8.48C1103.86,1016.21,1109.26,1019.39,1107.41,1023Zm7.57,19.32a3.25,3.25,0,0,1-3.12-3.19q-.55-5.85-1.1-11.7a3.17,3.17,0,0,1,3.09-3.22,3.24,3.24,0,0,1,3.12,3.2l1.11,11.7A3.18,3.18,0,0,1,1115,1042.35Zm23.64-35.81,0,0c.3.51,3.85,6.58.84,11.86a1.76,1.76,0,0,1-2.61.56c-1.44-1.08-3.35-3.81-4.07-10.65-.15,3.77-.91,7.6-3.24,9.09a1.75,1.75,0,0,1-2,0c-1-.67-2.16-2.39-2-6.68a14.25,14.25,0,0,1,0-1.87c-.76,2-3,6.69-7.79,7.63a1.81,1.81,0,0,1-2.13-1.65,9,9,0,0,1,1.24-4.84,3.85,3.85,0,0,1-1.62.08,1.93,1.93,0,0,1-1.39-1.18,3.89,3.89,0,0,1-.3-1.8,2.84,2.84,0,0,1-1.46-2.91c-5.47,1.77-6.64-1-6.64-1-.92-4.67,9.24-6.57,9.24-6.57-3.36.31-5-.24-5.75-.86a1.6,1.6,0,0,1-.3-2c.08-.11.17-.2.25-.31a4.08,4.08,0,0,1-1-1.13,2,2,0,0,1-.06-1.86c1.61-3.46,6.62-2.35,6.62-2.35-9.9-3.81-8-8-8-8,2.79-3.8,10.88,2.83,10.88,2.83-2.44-2.4-3.11-4-3.16-5a1.49,1.49,0,0,1,.26-.9c-1.89-4.41.21-5.3.21-5.3,2.61-1.69,6.43,4.92,6.43,4.92-2.14-4.35-2.3-6.76-1.93-8.08a2,2,0,0,1,2.73-1.25c2.89,1.4,4.27,7.17,4.27,7.17-.41-2.82,0-4.31.56-5.09a1.69,1.69,0,0,1,2.09-.58,4.74,4.74,0,0,1,2.17,2.19c2.09-5.74,4.47-4.53,4.47-4.53,2.94.91.66,8.24.66,8.24,1.75-4.54,3.4-6.25,4.61-6.84a2,2,0,0,1,2.71,1.3c.89,3.16-2.39,8-2.39,8,1.77-2.18,3.14-2.82,4.06-2.92a1.53,1.53,0,0,1,.7.1,5.46,5.46,0,0,1,2.5-.33,2.24,2.24,0,0,1,1.73,2.7c-.28,1.41-1.37,3.76-5.16,6.41,0,0,9.1-4.95,10.89-1,0,0,2.49,4.38-8.29,6.51,0,0,5.17-.9,7.11,1.73a2,2,0,0,1,0,2.33,5,5,0,0,1,1.39,1.4,2.28,2.28,0,0,1-.81,3.12c-1.22.72-3.65,1.42-8.08.23,0,0,9.61,3.79,7.93,7.77,0,0-1.5,4.62-9.77-1.81l.28.35c1.14,1.15,3.18,3.61,2.72,6a1.92,1.92,0,0,1-.78,1.2,1.7,1.7,0,0,1-.87.55C1145.21,1011.72,1142.59,1011.39,1138.62,1006.54Zm11,28.12q-1.07-4.07-2.15-8.12c-1.06-4,5-5.64,6-1.65l2.15,8.12C1156.65,1037,1150.64,1038.65,1149.58,1034.66Z" transform="translate(0 5)"/><path class="cls-22" d="M1148.18,1009.62c.46-2.36-1.58-4.82-2.72-6l-.28-.35c8.27,6.43,9.77,1.81,9.77,1.81,1.68-4-7.93-7.77-7.93-7.77,4.43,1.19,6.86.49,8.08-.23a2.28,2.28,0,0,0,.81-3.12,5,5,0,0,0-1.39-1.4,2,2,0,0,0,0-2.33c-1.94-2.63-7.11-1.73-7.11-1.73,10.78-2.13,8.29-6.51,8.29-6.51-1.79-3.92-10.89,1-10.89,1,3.79-2.65,4.88-5,5.16-6.41a2.24,2.24,0,0,0-1.73-2.7,5.46,5.46,0,0,0-2.5.33,1.53,1.53,0,0,0-.7-.1c-.92.1-2.29.74-4.06,2.92,0,0,3.28-4.88,2.39-8a2,2,0,0,0-2.71-1.3c-1.21.59-2.86,2.3-4.61,6.84,0,0,2.28-7.33-.66-8.24,0,0-2.38-1.21-4.47,4.53a4.74,4.74,0,0,0-2.17-2.19,1.69,1.69,0,0,0-2.09.58c-.53.78-1,2.27-.56,5.09,0,0-1.38-5.77-4.27-7.17a2,2,0,0,0-2.73,1.25c-.37,1.32-.21,3.73,1.93,8.08,0,0-3.82-6.61-6.43-4.92,0,0-2.1.89-.21,5.3a1.49,1.49,0,0,0-.26.9c0,1,.72,2.63,3.16,5,0,0-8.09-6.63-10.88-2.83,0,0-1.92,4.14,8,8,0,0-5-1.11-6.62,2.35a2,2,0,0,0,.06,1.86,4.08,4.08,0,0,0,1,1.13c-.08.11-.17.2-.25.31a1.6,1.6,0,0,0,.3,2c.78.62,2.39,1.17,5.75.86,0,0-10.16,1.9-9.24,6.57,0,0,1.17,2.81,6.64,1a2.84,2.84,0,0,0,1.46,2.91,3.89,3.89,0,0,0,.3,1.8,1.93,1.93,0,0,0,1.39,1.18,3.85,3.85,0,0,0,1.62-.08,9,9,0,0,0-1.24,4.84,1.81,1.81,0,0,0,2.13,1.65c4.77-.94,7-5.65,7.79-7.63a14.25,14.25,0,0,0,0,1.87c-.2,4.29,1,6,2,6.68a1.75,1.75,0,0,0,2,0c2.33-1.49,3.09-5.32,3.24-9.09.72,6.84,2.63,9.57,4.07,10.65a1.76,1.76,0,0,0,2.61-.56c3-5.28-.54-11.35-.84-11.86l0,0c4,4.85,6.59,5.18,7.91,4.83a1.7,1.7,0,0,0,.87-.55A1.92,1.92,0,0,0,1148.18,1009.62Z" transform="translate(0 5)"/><path class="cls-24" d="M1116.37,947.59c-.27,4.13,5.94,4.09,6.21,0a28.67,28.67,0,0,0-1.69-11.76,3.19,3.19,0,0,0-3.8-2.27,3.25,3.25,0,0,0-2.21,3.92A24.1,24.1,0,0,1,1116.37,947.59Z" transform="translate(0 5)"/><path class="cls-24" d="M1134.88,952.35a62.19,62.19,0,0,0,5.21-13.62c1-4-5-5.61-6-1.61a55.48,55.48,0,0,1-4.61,12.08C1127.57,952.83,1133,956,1134.88,952.35Z" transform="translate(0 5)"/><path class="cls-24" d="M1094.36,967.35,1081,966.19c-4-.35-3.94,6.07,0,6.41l13.32,1.16C1098.37,974.11,1098.32,967.69,1094.36,967.35Z" transform="translate(0 5)"/><path class="cls-24" d="M1091.66,980.13a41.8,41.8,0,0,0-11.27,4c-3.58,1.86-.48,7.41,3.09,5.57a36.16,36.16,0,0,1,9.78-3.34C1097.2,985.57,1095.57,979.37,1091.66,980.13Z" transform="translate(0 5)"/><path class="cls-24" d="M1164.32,975.3a80.39,80.39,0,0,1,10.46-7c3.52-2,.42-7.54-3.09-5.57a81.76,81.76,0,0,0-10.46,7,3.39,3.39,0,0,0-1.16,4.38C1160.81,975.47,1163,976.35,1164.32,975.3Z" transform="translate(0 5)"/><path class="cls-24" d="M1173.28,982.87a12.6,12.6,0,0,1,5.88-1.68c4-.14,4-6.55,0-6.42a19.37,19.37,0,0,0-9,2.53C1166.69,979.3,1169.78,984.87,1173.28,982.87Z" transform="translate(0 5)"/><path class="cls-24" d="M1164.22,1025.12c2.83,2.91,7.22-1.64,4.38-4.55l-5.49-5.63c-2.84-2.91-7.22,1.64-4.38,4.56Z" transform="translate(0 5)"/><path class="cls-24" d="M1155.59,1033l-2.15-8.12c-1.06-4-7.07-2.34-6,1.65q1.08,4.05,2.15,8.12C1150.64,1038.65,1156.65,1037,1155.59,1033Z" transform="translate(0 5)"/><path class="cls-24" d="M1102,1019.88l-4.29,8.48c-1.85,3.64,3.55,6.82,5.41,3.15l4.29-8.48C1109.26,1019.39,1103.86,1016.21,1102,1019.88Z" transform="translate(0 5)"/><path class="cls-24" d="M1117,1027.44a3.24,3.24,0,0,0-3.12-3.2,3.17,3.17,0,0,0-3.09,3.22q.54,5.85,1.1,11.7a3.25,3.25,0,0,0,3.12,3.19,3.18,3.18,0,0,0,3.1-3.21Z" transform="translate(0 5)"/><path class="cls-16" d="M913.7,364a36.14,36.14,0,0,1,24.64.58S929.38,354.19,913.7,364Z" transform="translate(0 5)"/><g class="cls-25"><path class="cls-8" d="M880.05,321.87a4.54,4.54,0,0,1-3.95,5,4.47,4.47,0,0,1-4.86-4.08,4.53,4.53,0,0,1,4-5A4.46,4.46,0,0,1,880.05,321.87Z" transform="translate(0 5)"/><ellipse class="cls-26" cx="866.69" cy="338.86" rx="20.62" ry="21.29"/></g><g class="cls-25"><ellipse class="cls-8" cx="987.14" cy="326.33" rx="4.43" ry="4.57"/><ellipse class="cls-26" cx="994.71" cy="338.86" rx="20.62" ry="21.29"/></g><g class="cls-27"><path class="cls-28" d="M689.48,390.82l134.85-7a7,7,0,0,0,6.49-5.79c1.6-8.68,7.19-26.44,26.83-44.4l24.66-25.19a3.81,3.81,0,0,1,6.35,1.41c1.75,4.92,2.71,12.93-3.6,22.15,0,0-11.14,14.78-9.94,27l52.2-11.64,29.95-6.22s15.84-4.76,23,2.16a4.06,4.06,0,0,1-1.31,6.65c-11.58,4.46-44.24,17.09-61.56,24.43l56.35-5.89s17-1.77,23.28,8.11a4,4,0,0,1-2.57,6.16l-43.7,7.86-30.3,2.67,32.09,3.4,20.88-.94s9.91-1.78,15.2,3.09a4,4,0,0,1-2.07,6.91L951,411.13l-30.85,3.22,24.39,4.26s14.6-.82,22.22,3.51a4,4,0,0,1-1,7.39L947,434a16.79,16.79,0,0,1-6.77.22l-28.63-4.88a19.33,19.33,0,0,0-7.54.2c-8.89,2-32.47,6.61-51.64,3.52a18.68,18.68,0,0,0-7.87.44l-147.54,40.7" transform="translate(0 5)"/></g><g class="cls-29"><path class="cls-30" d="M1114.32,491.36a9.26,9.26,0,0,0-6.32-6.68l-11.18-3.3-2.5-3.1a9,9,0,0,0-7.91-3.34l-6.39.66-2.73-3.07a8.91,8.91,0,0,0-8.41-2.89L1062.1,471l-2.55-2.63a8.93,8.93,0,0,0-7.34-2.7l-6.91.71-12.62-6.92a8.86,8.86,0,0,0-10,1l-17.27,14.34a4.58,4.58,0,0,0,.47,7.38c4.22,2.53,11.87,3.87,24.28-4.22l9-1.16-7.28,15a8.07,8.07,0,0,0,4.48,10.4s10.64,2.89,17.36-11.56c0,0-3.92,12.72,3.92,19.08,0,0,10.07,5.71,15.41-12.93-1.1,5.26-2.17,15.34,4.75,18.71,0,0,7.24,5.24,15.07-9.48a15.59,15.59,0,0,0-.25,11.14,4.29,4.29,0,0,0,7.22,1.36l13.8-15.16C1115.76,499.88,1115.24,495,1114.32,491.36Z" transform="translate(0 5)"/></g></g><g id="Layer_3" data-name="Layer 3"><path class="cls-6" d="M1896,19V1062H24V19H1896m24-24H0V1086H1920V-5Z" transform="translate(0 5)"/></g></svg>