<svg xmlns="http://www.w3.org/2000/svg" xmlns:xlink="http://www.w3.org/1999/xlink" viewBox="0 0 1920 1096"><defs><style>.cls-1{mask:url(#mask);filter:url(#luminosity-noclip-3);}.cls-2,.cls-4{mix-blend-mode:multiply;}.cls-2{fill:url(#linear-gradient);}.cls-3{mask:url(#mask-2);filter:url(#luminosity-noclip-4);}.cls-4{fill:url(#linear-gradient-2);}.cls-5{fill:#c9eff4;}.cls-6{fill:#322d63;}.cls-7{fill:#643d98;}.cls-25,.cls-8{fill:none;stroke:#643d98;stroke-miterlimit:10;}.cls-8{stroke-width:18px;}.cls-9{fill:#fd6041;}.cls-10{fill:#ea4e34;}.cls-11{fill:#f3b5aa;}.cls-12{fill:#7dc9d3;}.cls-13{fill:#8ad6e6;}.cls-14{fill:#54adbf;}.cls-15{fill:#ec919a;}.cls-16,.cls-26{fill:#fff;}.cls-17{fill:#a3784d;}.cls-18{fill:#19a4a7;}.cls-19{opacity:0.43;}.cls-20{fill:#ff9378;opacity:0.35;}.cls-21{mask:url(#mask-3);}.cls-22{fill:url(#linear-gradient-3);}.cls-23{mask:url(#mask-4);}.cls-24{fill:url(#linear-gradient-4);}.cls-25{stroke-width:14px;}.cls-26{font-size:45px;font-family:DejaVuSans-BoldOblique, DejaVu Sans;font-weight:700;font-style:oblique;}.cls-27{filter:url(#luminosity-noclip-2);}.cls-28{filter:url(#luminosity-noclip);}</style><filter id="luminosity-noclip" x="864.85" y="-8739" width="121.09" height="32766" filterUnits="userSpaceOnUse" color-interpolation-filters="sRGB"><feFlood flood-color="#fff" result="bg"/><feBlend in="SourceGraphic" in2="bg"/></filter><mask id="mask" x="864.85" y="-8739" width="121.09" height="32766" maskUnits="userSpaceOnUse"><g class="cls-28"/></mask><linearGradient id="linear-gradient" x1="973.19" y1="656.86" x2="751.97" y2="662.14" gradientTransform="translate(-47.05 105.63) rotate(-7.25)" gradientUnits="userSpaceOnUse"><stop offset="0" stop-color="#fff"/><stop offset="0.13" stop-color="#fbfbfb"/><stop offset="0.26" stop-color="#efefef"/><stop offset="0.38" stop-color="#dcdcdc"/><stop offset="0.5" stop-color="silver"/><stop offset="0.63" stop-color="#9d9d9d"/><stop offset="0.75" stop-color="#717171"/><stop offset="0.87" stop-color="#3d3d3d"/><stop offset="0.99" stop-color="#030303"/><stop offset="1"/></linearGradient><filter id="luminosity-noclip-2" x="988.35" y="-8739" width="43.75" height="32766" filterUnits="userSpaceOnUse" color-interpolation-filters="sRGB"><feFlood flood-color="#fff" result="bg"/><feBlend in="SourceGraphic" in2="bg"/></filter><mask id="mask-2" x="988.35" y="-8739" width="43.75" height="32766" maskUnits="userSpaceOnUse"><g class="cls-27"/></mask><linearGradient id="linear-gradient-2" x1="991.03" y1="684.89" x2="1079.92" y2="691.93" gradientTransform="matrix(1, 0, 0, 1, 0, 0)" xlink:href="#linear-gradient"/><filter id="luminosity-noclip-3" x="864.85" y="617.29" width="121.09" height="63.52" filterUnits="userSpaceOnUse" color-interpolation-filters="sRGB"><feFlood flood-color="#fff" result="bg"/><feBlend in="SourceGraphic" in2="bg"/></filter><mask id="mask-3" x="864.85" y="617.29" width="121.09" height="63.52" maskUnits="userSpaceOnUse"><g class="cls-1"><path class="cls-2" d="M864.85,649.09l53-2.66a2.72,2.72,0,0,0,2.55-2.2c.63-3.31,2.83-10.07,10.55-16.9l9.68-9.59a1.52,1.52,0,0,1,2.5.53,8.82,8.82,0,0,1-1.42,8.44s-4.37,5.62-3.9,10.28l20.51-4.43,11.77-2.37s6.22-1.81,9,.83a1.51,1.51,0,0,1-.52,2.52c-4.55,1.7-17.38,6.51-24.18,9.31l22.14-2.25s6.68-.67,9.14,3.09a1.52,1.52,0,0,1-1,2.34l-17.17,3-11.91,1,12.62,1.3,8.2-.36s3.89-.68,6,1.18a1.51,1.51,0,0,1-.81,2.62l-14,2L955.47,658l9.59,1.62s5.73-.31,8.73,1.34a1.52,1.52,0,0,1-.41,2.81l-7.32,1.7a7,7,0,0,1-2.66.09l-11.25-1.86a7.75,7.75,0,0,0-3,.07c-3.5.77-12.76,2.52-20.29,1.35a7.37,7.37,0,0,0-3.1.16l-58,15.49"/></g></mask><linearGradient id="linear-gradient-3" x1="973.19" y1="656.86" x2="751.97" y2="662.14" gradientTransform="translate(-47.05 105.63) rotate(-7.25)" gradientUnits="userSpaceOnUse"><stop offset="0" stop-color="#282844"/><stop offset="0.99" stop-color="#282844"/><stop offset="1" stop-color="#282844"/></linearGradient><filter id="luminosity-noclip-4" x="988.35" y="674.78" width="43.75" height="23.45" filterUnits="userSpaceOnUse" color-interpolation-filters="sRGB"><feFlood flood-color="#fff" result="bg"/><feBlend in="SourceGraphic" in2="bg"/></filter><mask id="mask-4" x="988.35" y="674.78" width="43.75" height="23.45" maskUnits="userSpaceOnUse"><g class="cls-3"><path class="cls-4" d="M1031.79,687.36a3.6,3.6,0,0,0-2.49-2.55l-4.39-1.25-1-1.18a3.56,3.56,0,0,0-3.11-1.27l-2.51.25-1.07-1.17a3.58,3.58,0,0,0-3.31-1.1l-2.66.51-1-1a3.57,3.57,0,0,0-2.89-1l-2.71.27-5-2.64a3.59,3.59,0,0,0-3.92.37L989,681a1.71,1.71,0,0,0,.19,2.81c1.65,1,4.66,1.48,9.54-1.6l3.52-.44-2.86,5.72a3,3,0,0,0,1.76,4s4.18,1.1,6.82-4.4c0,0-1.54,4.84,1.54,7.26,0,0,4,2.18,6-4.92-.43,2-.85,5.84,1.87,7.12,0,0,2.84,2,5.92-3.61a5.79,5.79,0,0,0-.1,4.24,1.71,1.71,0,0,0,2.84.52l5.42-5.77C1032.35,690.6,1032.15,688.76,1031.79,687.36Z"/></g></mask><linearGradient id="linear-gradient-4" x1="991.03" y1="684.89" x2="1079.92" y2="691.93" gradientTransform="matrix(1, 0, 0, 1, 0, 0)" xlink:href="#linear-gradient-3"/></defs><title>სექსუალური ძალადობა2 </title><g id="Layer_1" data-name="Layer 1"><g id="Layer_1-2" data-name="Layer 1"><rect class="cls-5" x="10" y="15" width="1900" height="1071"/><path class="cls-6" d="M1900,25V1076H20V25H1900m20-20H0V1096H1920Z"/></g><g id="Layer_3" data-name="Layer 3"><path class="cls-6" d="M1896,24V1067H24V24H1896m24-24H0V1091H1920Z"/></g><ellipse class="cls-7" cx="960" cy="553.64" rx="266.84" ry="272.68"/><ellipse class="cls-8" cx="960" cy="550.5" rx="266.84" ry="272.68"/></g><g id="Layer_3-2" data-name="Layer 3"><path class="cls-9" d="M967.3,831.43C947,831,926,831,906,830.54"/><path class="cls-9" d="M895.57,692.86S870.91,679,875.09,649.31a43.63,43.63,0,0,1,5.34-15.18c2.24-4,5.59-10,9.29-17a60.36,60.36,0,0,0,3.92-9c3.91-11.43,14.15-41,17.35-47.11,0,0,12.66-30.39,34.36-25.69,0,0,17.73-18.45,47.76,9,0,0,28.94,27.14,25,77.42,0,0-2.17,14.47,1.44,27.86,0,0,7,24.18-7.59,30.43l-16.32-3.55-66.49,1.32s-18.56,5.63-32.92,15.2Z"/><path class="cls-10" d="M998.21,614.7s4.3,20.35-10.76,35.23a16.69,16.69,0,0,0-4.23,17.33,15.15,15.15,0,0,0,7.07,8.46c11.64,6.52-14.91-.47-14.91-.47L963.27,650.1l5.13-10.25Z"/><path class="cls-10" d="M930.2,564.08s-25.13,17.17-18.15,59.41a8,8,0,0,0,.2,1.3c1.81,5.44,3.87,21.69,25.41,32.45,0,0,2.48,15.53-3.73,21.12s25.46,4.35,25.46,4.35l6.83-25.47-33.53-46.58Z"/><path class="cls-11" d="M1028,827.66a101.9,101.9,0,0,1,.31-14.72,149.58,149.58,0,0,1,6.85-32.4l6.44-17.22-39.52,4.32-6.17,48.16,13.25,11.92C1015.39,827.37,1021.69,827.45,1028,827.66Z"/><path class="cls-11" d="M907,830s3.09-37,4.94-39.52-24.7-34.57-24.7-34.57l-10.5,9.26,6.85,15.37a150.28,150.28,0,0,1,6.85,32.4,103.6,103.6,0,0,1-.11,20.23"/><path class="cls-12" d="M1046.62,716c-3.13-28.13-26-33.86-26-33.86l-23.44-5.22L954.31,682l-25.12-4.13-4.86,1.73s-48.55,14-50.12,45.76c0,0-1.56,30.73-8.32,46.36a.07.07,0,0,0,0,.06c.48.46,8.36,7.85,26,9.87l6.25.52s9.9,20.8,7.82,48.4c0,0,3.47,3.4,10.85,6.9h43.95a12.23,12.23,0,0,1,8.08,2.76,13.59,13.59,0,0,1,3.15-2.47c12.87-7.45,26.66-9.74,40.75-10.17-2-5.23-4.15-14.88-.81-28.43l4.32-14.82.88-2.73c23.21,0,35.45-5.87,36.19-6.23,0,0,0,0,0-.06C1046.1,754.45,1046.62,716,1046.62,716Z"/><path class="cls-13" d="M1046.62,716c-3.13-28.13-26-33.86-26-33.86l-23.44-5.22L954.31,682l-25.12-4.13-4.86,1.73s-19.11,5.5-33.73,17.45C901,735.05,927,771.56,965.75,797a191,191,0,0,0,44.84,21.74,53.36,53.36,0,0,1,1.37-19.56l4.32-14.82.88-2.73c23.21,0,35.45-5.87,36.19-6.23,0,0,0,0,0-.06C1046.1,754.45,1046.62,716,1046.62,716Z"/><path class="cls-11" d="M976.77,656s-.23,12.51,9.26,16.44L997.68,677C993.52,693,961,693.21,961,693.21c-28.47-2.09-31.94-15.28-31.94-15.28l7.1-2.47a11,11,0,0,0,5.4-4,10.6,10.6,0,0,0,1.87-5V655.34l11.81,2.31,7.4.93Z"/><path class="cls-14" d="M899.7,728.82a.82.82,0,0,0-1.15.18,38.47,38.47,0,0,0-6.91,17.61A58.23,58.23,0,0,0,892,764a77.12,77.12,0,0,0,5.4,18.53.83.83,0,0,0,.75.48.85.85,0,0,0,.35-.08.81.81,0,0,0,.4-1.1,77.5,77.5,0,0,1-5.27-18.1c-1.52-9.41-1.67-22.91,6.23-33.71A.83.83,0,0,0,899.7,728.82Z"/><path class="cls-14" d="M1022.72,745.69a80.88,80.88,0,0,0-6.09-18.14.84.84,0,0,0-1.12-.36.83.83,0,0,0-.36,1.12,78.9,78.9,0,0,1,6,17.71c1.93,9.26,2.75,22.59-4.28,33.52a.82.82,0,0,0,.25,1.14.82.82,0,0,0,1.15-.24,38.18,38.18,0,0,0,5.73-17.63A59.34,59.34,0,0,0,1022.72,745.69Z"/><path class="cls-15" d="M976.77,656s.08-3.11.24-6.85a52.29,52.29,0,0,1-18.11,7.39,49.65,49.65,0,0,1-15.78-5l.31,5.82s12.4,13.54,38.33,12.15A22.32,22.32,0,0,1,976.77,656Z"/><path class="cls-11" d="M997.66,615.07l-.4,4.88c-7,31.67-38.36,36.62-38.36,36.62-32-4.73-37.38-32.25-37.38-32.25-.37-1.27-.69-2.4-1-3.4a72.53,72.53,0,0,1-2.07-32.57c1.47-8.73,4.71-18,11.49-24.32,0,0,15.1,49.31,58.85,50.35Z"/><path class="cls-16" d="M916.84,837.44c-7.38-3.5-10.85-6.9-10.85-6.9s-1.29,2.48-3.28,6.9Z"/><path class="cls-10" d="M938.56,549.37s34.07-7.92,54.67,24.56c0,0,14.26,23,13.47,40.41,0,0,7.13-32.48-23.77-58.63C982.93,555.71,965.77,540.39,938.56,549.37Z"/><path class="cls-17" d="M945.13,613.08s-9.17,6.38-14.59-1a2.79,2.79,0,0,1-2.81.38s.5,1,2.48.89a4.67,4.67,0,0,1-2.36,1,3.53,3.53,0,0,0,3,.13S936.64,621.47,945.13,613.08Z"/><path class="cls-17" d="M942.8,601s-7.54-2-18.79,5c0,0,3.8-6.88,14.91-8.86,0,0,3.9-1,5.46,1.34C944.38,598.53,946.16,601.49,942.8,601Z"/><path class="cls-15" d="M957.44,616.09s-.11,2.31-3.34,4.14a1.49,1.49,0,0,0-.41.34,3.18,3.18,0,0,0-.29,3.42,1.37,1.37,0,0,0,.31.48c.51.56,2,1.6,5.53.81,0,0-3.23.61-4.59-1.6a2.27,2.27,0,0,1,.15-2.67,3.38,3.38,0,0,1,1.12-.81A3.52,3.52,0,0,0,957.44,616.09Z"/><path class="cls-17" d="M971.64,613.08s9.16,6.38,14.59-1a2.78,2.78,0,0,0,2.81.38s-.5,1-2.49.89a4.68,4.68,0,0,0,2.37,1,3.53,3.53,0,0,1-3,.13S980.13,621.47,971.64,613.08Z"/><path class="cls-17" d="M974,601s7.54-2,18.79,5c0,0-3.8-6.88-14.91-8.86,0,0-3.9-1-5.46,1.34C972.39,598.53,970.61,601.49,974,601Z"/><path class="cls-9" d="M930,564s20.57,55,67.71,51l2.18-13.25L957,569.59Z"/><path class="cls-18" d="M1114.18,845.62"/><path class="cls-15" d="M953,638.89a14.62,14.62,0,0,1,9.68.22S959.12,635.15,953,638.89Z"/><g class="cls-19"><path class="cls-16" d="M939.74,622.84a1.75,1.75,0,0,1-1.56,1.91,1.74,1.74,0,0,1-.35-3.46A1.75,1.75,0,0,1,939.74,622.84Z"/><circle class="cls-20" cx="934.48" cy="627.41" r="8.1" transform="translate(-15.98 24.48) rotate(-1.49)"/></g><g class="cls-19"><circle class="cls-16" cx="981.81" cy="622.64" r="1.74" transform="translate(357.41 1603.32) rotate(-89.9)"/><circle class="cls-20" cx="984.79" cy="627.41" r="8.1" transform="translate(352.56 1609.11) rotate(-89.72)"/></g><g class="cls-21"><path class="cls-22" d="M864.85,649.09l53-2.66a2.72,2.72,0,0,0,2.55-2.2c.63-3.31,2.83-10.07,10.55-16.9l9.68-9.59a1.52,1.52,0,0,1,2.5.53,8.82,8.82,0,0,1-1.42,8.44s-4.37,5.62-3.9,10.28l20.51-4.43,11.77-2.37s6.22-1.81,9,.83a1.51,1.51,0,0,1-.52,2.52c-4.55,1.7-17.38,6.51-24.18,9.31l22.14-2.25s6.68-.67,9.14,3.09a1.52,1.52,0,0,1-1,2.34l-17.17,3-11.91,1,12.62,1.3,8.2-.36s3.89-.68,6,1.18a1.51,1.51,0,0,1-.81,2.62l-14,2L955.47,658l9.59,1.62s5.73-.31,8.73,1.34a1.52,1.52,0,0,1-.41,2.81l-7.32,1.7a7,7,0,0,1-2.66.09l-11.25-1.86a7.75,7.75,0,0,0-3,.07c-3.5.77-12.76,2.52-20.29,1.35a7.37,7.37,0,0,0-3.1.16l-58,15.49"/></g><g class="cls-23"><path class="cls-24" d="M1031.79,687.36a3.6,3.6,0,0,0-2.49-2.55l-4.39-1.25-1-1.18a3.56,3.56,0,0,0-3.11-1.27l-2.51.25-1.07-1.17a3.58,3.58,0,0,0-3.31-1.1l-2.66.51-1-1a3.57,3.57,0,0,0-2.89-1l-2.71.27-5-2.64a3.59,3.59,0,0,0-3.92.37L989,681a1.71,1.71,0,0,0,.19,2.81c1.65,1,4.66,1.48,9.54-1.6l3.52-.44-2.86,5.72a3,3,0,0,0,1.76,4s4.18,1.1,6.82-4.4c0,0-1.54,4.84,1.54,7.26,0,0,4,2.18,6-4.92-.43,2-.85,5.84,1.87,7.12,0,0,2.84,2,5.92-3.61a5.79,5.79,0,0,0-.1,4.24,1.71,1.71,0,0,0,2.84.52l5.42-5.77C1032.35,690.6,1032.15,688.76,1031.79,687.36Z"/></g><ellipse class="cls-25" cx="960" cy="565.44" rx="266.84" ry="270.03"/></g><g id="Layer_2" data-name="Layer 2"><rect class="cls-7" x="676.03" y="162.72" width="542.72" height="2.34"/><rect class="cls-7" x="665.89" y="980.3" width="542.72" height="2.34"/><text class="cls-26" transform="translate(827.67 416.71) scale(1.02 1)">სექსუალურ<tspan x="-5.15" y="68.84">ძალადობას</tspan></text></g></svg>