<svg xmlns="http://www.w3.org/2000/svg" xmlns:xlink="http://www.w3.org/1999/xlink" viewBox="0 0 551.68 573.65"><defs><style>.cls-1{fill:#643d98;}.cls-16,.cls-2{fill:none;stroke:#643d98;stroke-miterlimit:10;}.cls-2{stroke-width:18px;}.cls-3{fill:#fd6041;}.cls-4{fill:#ea4e34;}.cls-5{fill:#f3b5aa;}.cls-6{fill:#7dc9d3;}.cls-7{fill:#8ad6e6;}.cls-8{fill:#54adbf;}.cls-9{fill:#ec919a;}.cls-10,.cls-18{fill:#fff;}.cls-11{fill:#a3784d;}.cls-12{opacity:0.43;}.cls-13{fill:#ff9378;opacity:0.35;}.cls-13,.cls-17,.cls-18{isolation:isolate;}.cls-14{fill:url(#linear-gradient);}.cls-15{fill:url(#linear-gradient-2);}.cls-16{stroke-width:14px;}.cls-18{font-size:45px;font-family:DejaVuSans, DejaVu Sans;}</style><linearGradient id="linear-gradient" x1="298.76" y1="228.02" x2="77.54" y2="222.74" gradientTransform="matrix(0.99, -0.13, -0.13, -0.99, 49.49, 629.47)" gradientUnits="userSpaceOnUse"><stop offset="0" stop-color="#282844"/><stop offset="0.99" stop-color="#282844"/><stop offset="1" stop-color="#282844"/></linearGradient><linearGradient id="linear-gradient-2" x1="306.87" y1="142.26" x2="395.76" y2="135.22" gradientTransform="matrix(1, 0, 0, -1, 0, 558.36)" xlink:href="#linear-gradient"/></defs><title>Asset 5</title><g id="Layer_2" data-name="Layer 2"><g id="Layer_1-2" data-name="Layer 1"><ellipse class="cls-1" cx="275.84" cy="284.82" rx="266.84" ry="272.68"/><ellipse class="cls-2" cx="275.84" cy="281.68" rx="266.84" ry="272.68"/><g id="Layer_3-2" data-name="Layer 3-2"><path class="cls-3" d="M283.14,562.61c-20.3-.43-41.3-.43-61.3-.89"/><path class="cls-3" d="M211.41,424s-24.66-13.86-20.48-43.55a43.49,43.49,0,0,1,5.34-15.18c2.24-4,5.59-10,9.29-17a60.36,60.36,0,0,0,3.92-9c3.91-11.43,14.15-41,17.35-47.11,0,0,12.66-30.39,34.36-25.69,0,0,17.73-18.45,47.76,9,0,0,28.94,27.14,25,77.42,0,0-2.17,14.47,1.44,27.86,0,0,7,24.18-7.59,30.43l-16.32-3.55L245,409s-18.56,5.63-32.92,15.2Z"/><path class="cls-4" d="M314.05,345.88s4.3,20.35-10.76,35.23a16.7,16.7,0,0,0-4.23,17.33,15.12,15.12,0,0,0,7.07,8.46c11.64,6.52-14.91-.47-14.91-.47l-12.11-25.15L284.24,371Z"/><path class="cls-4" d="M246,295.26s-25.13,17.17-18.15,59.41a8.17,8.17,0,0,0,.2,1.3c1.81,5.44,3.87,21.69,25.41,32.45,0,0,2.48,15.53-3.73,21.12s25.46,4.35,25.46,4.35l6.83-25.47-33.53-46.58Z"/><path class="cls-5" d="M343.84,558.84a101.87,101.87,0,0,1,.31-14.72,149.45,149.45,0,0,1,6.85-32.4l6.44-17.22-39.52,4.32L311.75,547,325,558.9C331.23,558.55,337.53,558.63,343.84,558.84Z"/><path class="cls-5" d="M222.84,561.18s3.09-37,4.94-39.52-24.7-34.57-24.7-34.57l-10.5,9.26,6.85,15.37a150,150,0,0,1,6.85,32.4,103.59,103.59,0,0,1-.11,20.23"/><path class="cls-6" d="M362.46,447.18c-3.13-28.13-26-33.86-26-33.86L313,408.1l-42.87,5.08L245,409.05l-4.86,1.73s-48.55,14-50.12,45.76c0,0-1.56,30.73-8.32,46.36a.06.06,0,0,0,0,.06c.48.46,8.36,7.85,26,9.87l6.25.52s9.9,20.8,7.82,48.4c0,0,3.47,3.4,10.85,6.9h44a12.23,12.23,0,0,1,8.08,2.76,13.49,13.49,0,0,1,3.15-2.47c12.87-7.45,26.66-9.74,40.75-10.17-2-5.23-4.15-14.88-.81-28.43l4.32-14.82.88-2.73c23.21,0,35.45-5.87,36.19-6.23v-.06C361.94,485.63,362.46,447.18,362.46,447.18Z"/><path class="cls-7" d="M362.46,447.18c-3.13-28.13-26-33.86-26-33.86L313,408.1l-42.87,5.08L245,409.05l-4.86,1.73s-19.11,5.5-33.73,17.45c10.4,38,36.4,74.51,75.15,99.95a191.23,191.23,0,0,0,44.84,21.74,53.28,53.28,0,0,1,1.37-19.56l4.32-14.82.88-2.73c23.21,0,35.45-5.87,36.19-6.23v-.06C361.94,485.63,362.46,447.18,362.46,447.18Z"/><path class="cls-5" d="M292.61,387.18s-.23,12.51,9.26,16.44l11.65,4.56c-4.16,16-36.68,16.21-36.68,16.21-28.47-2.09-31.94-15.28-31.94-15.28l7.1-2.47a11.06,11.06,0,0,0,5.4-4,10.63,10.63,0,0,0,1.87-5V386.52l11.81,2.31,7.4.93Z"/><path class="cls-8" d="M215.54,460a.83.83,0,0,0-1.15.17h0a38.49,38.49,0,0,0-6.91,17.61,58.28,58.28,0,0,0,.36,17.39,77.24,77.24,0,0,0,5.4,18.53.84.84,0,0,0,.75.48.85.85,0,0,0,.35-.08.81.81,0,0,0,.42-1.07l0,0a77.15,77.15,0,0,1-5.27-18.1C208,485.5,207.8,472,215.7,461.2a.83.83,0,0,0-.12-1.17Z"/><path class="cls-8" d="M338.56,476.87a81,81,0,0,0-6.09-18.14.83.83,0,1,0-1.48.76h0a79,79,0,0,1,6,17.71c1.93,9.26,2.75,22.59-4.28,33.52a.81.81,0,0,0,.24,1.13h0a.83.83,0,0,0,1.14-.22v0A38.15,38.15,0,0,0,339.84,494,59.32,59.32,0,0,0,338.56,476.87Z"/><path class="cls-9" d="M292.61,387.18s.08-3.11.24-6.85a52.25,52.25,0,0,1-18.11,7.39,49.55,49.55,0,0,1-15.78-5l.31,5.82s12.4,13.54,38.33,12.15A22.3,22.3,0,0,1,292.61,387.18Z"/><path class="cls-5" d="M313.5,346.25l-.4,4.88c-7,31.67-38.36,36.62-38.36,36.62-32-4.73-37.38-32.25-37.38-32.25-.37-1.27-.69-2.4-1-3.4a72.51,72.51,0,0,1-2.07-32.57c1.47-8.73,4.71-18,11.49-24.32,0,0,15.1,49.31,58.85,50.35Z"/><path class="cls-10" d="M232.68,568.62c-7.38-3.5-10.85-6.9-10.85-6.9s-1.29,2.48-3.28,6.9Z"/><path class="cls-4" d="M254.4,280.55s34.07-7.92,54.67,24.56c0,0,14.26,23,13.47,40.41,0,0,7.13-32.48-23.77-58.63C298.77,286.89,281.61,271.57,254.4,280.55Z"/><path class="cls-11" d="M261,344.26s-9.17,6.38-14.59-1a2.8,2.8,0,0,1-2.81.38s.5,1,2.48.89a4.7,4.7,0,0,1-2.36,1,3.51,3.51,0,0,0,3,.13S252.48,352.65,261,344.26Z"/><path class="cls-11" d="M258.64,332.18s-7.54-2-18.79,5c0,0,3.8-6.88,14.91-8.86,0,0,3.9-1,5.46,1.34C260.22,329.71,262,332.67,258.64,332.18Z"/><path class="cls-9" d="M273.28,347.27s-.11,2.31-3.34,4.14a1.49,1.49,0,0,0-.41.34,3.17,3.17,0,0,0-.29,3.42,1.37,1.37,0,0,0,.31.48c.51.56,2,1.6,5.53.81,0,0-3.23.61-4.59-1.6a2.27,2.27,0,0,1,.15-2.67,3.36,3.36,0,0,1,1.12-.81A3.52,3.52,0,0,0,273.28,347.27Z"/><path class="cls-11" d="M287.48,344.26s9.16,6.38,14.59-1a2.77,2.77,0,0,0,2.81.38s-.5,1-2.49.89a4.69,4.69,0,0,0,2.37,1,3.51,3.51,0,0,1-3,.13S296,352.65,287.48,344.26Z"/><path class="cls-11" d="M289.84,332.18s7.54-2,18.79,5c0,0-3.8-6.88-14.91-8.86,0,0-3.9-1-5.46,1.34C288.23,329.71,286.45,332.67,289.84,332.18Z"/><path class="cls-3" d="M245.84,295.18s20.57,55,67.71,51l2.18-13.25-42.89-32.16Z"/><path class="cls-9" d="M268.84,370.07a14.61,14.61,0,0,1,9.68.22S275,366.33,268.84,370.07Z"/><g class="cls-12"><path class="cls-10" d="M255.58,354a1.71,1.71,0,1,1-1.91-1.55A1.75,1.75,0,0,1,255.58,354Z"/><circle class="cls-13" cx="250.34" cy="358.56" r="8.1"/></g><g class="cls-12"><circle class="cls-10" cx="297.6" cy="353.78" r="1.74"/><circle class="cls-13" cx="300.62" cy="358.58" r="8.1"/></g><path class="cls-14" d="M180.69,380.27l53-2.66a2.73,2.73,0,0,0,2.55-2.2c.63-3.31,2.83-10.07,10.55-16.9l9.68-9.59a1.52,1.52,0,0,1,2.15,0,1.62,1.62,0,0,1,.35.54,8.83,8.83,0,0,1-1.42,8.44s-4.37,5.62-3.9,10.28l20.51-4.43,11.77-2.37s6.22-1.81,9,.83a1.5,1.5,0,0,1,.07,2.13,1.52,1.52,0,0,1-.59.39c-4.55,1.7-17.38,6.51-24.18,9.31l22.14-2.25s6.68-.67,9.14,3.09a1.52,1.52,0,0,1-.42,2.11,1.72,1.72,0,0,1-.58.23l-17.17,3-11.91,1,12.62,1.3,8.2-.36s3.89-.68,6,1.18a1.51,1.51,0,0,1-.81,2.62l-14,2-12.13,1.23,9.59,1.62s5.73-.31,8.73,1.34a1.52,1.52,0,0,1,.58,2.07,1.49,1.49,0,0,1-1,.74l-7.32,1.7a7,7,0,0,1-2.66.09L268,394.88a7.77,7.77,0,0,0-3,.07c-3.5.77-12.76,2.52-20.29,1.35a7.37,7.37,0,0,0-3.1.16L183.6,412"/><path class="cls-15" d="M347.63,418.54a3.6,3.6,0,0,0-2.49-2.55l-4.39-1.25-1-1.18a3.56,3.56,0,0,0-3.11-1.27l-2.51.25-1.07-1.17a3.58,3.58,0,0,0-3.31-1.1l-2.66.51-1-1a3.56,3.56,0,0,0-2.89-1l-2.71.27-5-2.64a3.59,3.59,0,0,0-3.92.37l-6.73,5.4a1.71,1.71,0,0,0-.28,2.4,1.68,1.68,0,0,0,.47.41c1.65,1,4.66,1.48,9.54-1.6l3.52-.44-2.86,5.72a3,3,0,0,0,1.59,3.93l.17.07s4.18,1.1,6.82-4.4c0,0-1.54,4.84,1.54,7.26,0,0,4,2.18,6-4.92-.43,2-.85,5.84,1.87,7.12,0,0,2.84,2,5.92-3.61a5.8,5.8,0,0,0-.1,4.24,1.71,1.71,0,0,0,2.84.52l5.42-5.77C348.19,421.78,348,419.94,347.63,418.54Z"/><ellipse class="cls-16" cx="275.84" cy="296.62" rx="266.84" ry="270.03"/></g><g class="cls-17"><text class="cls-18" transform="translate(143.51 147.89) scale(1.02 1)">სექსუალურ</text><text class="cls-18" transform="translate(138.26 216.73) scale(1.02 1)">ძალადობას</text></g></g></g></svg>