<svg id="Layer_1" data-name="Layer 1" xmlns="http://www.w3.org/2000/svg" viewBox="0 0 562.92 664"><defs><style>.cls-1{fill:#1b2535;}.cls-2{fill:#303e5c;}.cls-3{fill:#243047;}.cls-4{fill:#fff;}</style></defs><title>დახურული</title><rect class="cls-1" x="14.37" y="646.01" width="536.57" height="17.99"/><rect class="cls-2" y="626.1" width="562.92" height="22.18"/><polygon class="cls-2" points="471.78 316.29 287.56 316.29 287.56 68.42 276.22 68.42 276.22 316.29 93.53 316.29 93.53 328.85 276.22 328.85 276.22 556.04 287.56 556.04 287.56 328.85 471.78 328.85 471.78 316.29"/><path class="cls-2" d="M684.87,222.67H273V777.11H718.51V222.67Zm0,520.41H306.61V256.69H684.87Z" transform="translate(-213.08 -187)"/><path class="cls-3" d="M718.43,187H234V813.94H758V187Zm0,588.42H273.55V225.53H718.43Z" transform="translate(-213.08 -187)"/><path class="cls-4" d="M347.67,433.74a1.46,1.46,0,0,1-1.14.55,1.48,1.48,0,0,1-1.06-.46,1.85,1.85,0,0,1-.09-2.43" transform="translate(-213.08 -187)"/><path class="cls-4" d="M434.61,324.32a1.45,1.45,0,0,1,2-.24h0a1.07,1.07,0,0,1,.16.14,1.85,1.85,0,0,1,.09,2.43" transform="translate(-213.08 -187)"/><path class="cls-4" d="M363.06,450.76a1.46,1.46,0,0,1-2.2.1,1.85,1.85,0,0,1-.09-2.44" transform="translate(-213.08 -187)"/><path class="cls-4" d="M450,341.34a1.45,1.45,0,0,1,2-.24h0a1.07,1.07,0,0,1,.16.14,1.85,1.85,0,0,1,.09,2.43" transform="translate(-213.08 -187)"/></svg>