<svg id="Layer_1" data-name="Layer 1" xmlns="http://www.w3.org/2000/svg" viewBox="0 0 649.31 919.54"><defs><style>.cls-1{fill:#e84b45;}.cls-2{fill:#f5a133;}.cls-3{fill:#fcdb4e;}.cls-4{fill:#5cb36b;}.cls-5{fill:#0073b9;}.cls-6{fill:#985b9f;}.cls-7{fill:#f9c9b3;}.cls-8{fill:#a585bc;}.cls-9{fill:#967ab4;}</style></defs><title>ლგბტ</title><path class="cls-1" d="M1090,12.54h-41.46A355.79,355.79,0,0,0,1025.7,71c-24.46,80.72-7.36,142.13-12.05,196.64-3.08,54.58-27.9,102.23-99.48,157.13-24.74,20.13-50.65,37.64-76.49,55.09C808.42,499.58,779,519,750.14,539.7c-27.54,19.75-54.82,40.55-80.25,64.89-7.57,7.25-12.48,14.9-16.19,26.39-3.52,10.87-6.12,22.8-12.3,31.67,6.78-3.67,11.2-12.35,14.75-20.87,3.83-9.21,7.24-19,14.15-24.68,6.16-5,12.12-10.5,18.3-15.49,13.21-10.7,26.74-20.7,40.42-30.32,29.13-20.49,58.92-39.27,88.72-57.95,28.47-17.84,57-35.43,85-54.55,10.52-7.17,21-14.58,31.2-22.45,76.5-55.41,105-105.45,110.19-160.13,6.68-54.59-10.07-113.82,11.35-185.74C1062.26,65.93,1073.5,39.89,1090,12.54Z" transform="translate(-641.4 -12.54)"/><path class="cls-2" d="M1090,12.54c-16.46,27.35-27.71,53.39-34.46,77.93-21.45,71.93-4.8,131.17-11.5,185.77-5.15,54.67-33.57,104.7-110,160.11-17.81,13.69-36.2,26-54.67,38.06-29.24,19-58.83,37.06-88.19,55.72s-58.57,37.77-86.83,59.21c-12.33,9.36-25.56,18.64-36.74,30.36-3.16,3.31-5.32,7.76-7.33,12.31-1.09,2.44-2.24,4.83-3.35,7.24s-2.71,4.89-3.43,7.45a53.76,53.76,0,0,1-4.34,8.17,42.22,42.22,0,0,1-7.55,7.77c2.43,4.45,13.37-3.69,15.16-6.12,3.49-4.73,4.08-9.88,6.57-15.62,7.74-17.81,21.87-24,33.55-32.51,27.87-20.28,56.7-38.18,85.65-55.56,30.14-18.1,60.51-35.49,90.67-53.52,27-16.14,53.94-32.62,79.86-51.64,81.51-56.32,114.1-109.48,122.08-165.25,9.46-55.71-5.75-114,14.71-179.12,8.25-29,23.69-59.37,47.29-90.76Z" transform="translate(-641.4 -12.54)"/><path class="cls-3" d="M1137.07,12.54c-23.6,31.39-39,61.76-47.33,90.77-20.5,65.1-5.39,123.42-14.87,179.12-8,55.77-40.45,108.92-121.91,165.24-25.93,19-52.89,35.52-79.88,51.66-30.18,18.05-60.57,35.45-90.72,53.55-29,17.39-57.79,35.31-85.68,55.6-12.65,9.21-28.1,15.26-35.29,35.88-1.13,3.25-2.23,7.48-4,10.22a20.16,20.16,0,0,1-14.53,9.13,10.78,10.78,0,0,0,6.73,3.07c11,.05,17.21-11.83,21.74-23.4,3.46-8.83,10.26-12.14,16.58-16.57s12.88-8.82,19.39-13c13.93-9.06,28-17.64,42.22-26,30.36-17.83,61.07-34.54,91.73-51.41,29.85-16.42,59.7-32.89,89.05-50.85C944,477.14,957.65,468.42,971,459c86.58-57.49,123.71-114.37,135.38-172,13.15-57.56.76-115.85,23-175.42,11-32.71,32.55-65.81,66-99.08Z" transform="translate(-641.4 -12.54)"/><path class="cls-4" d="M1195.28,12.54c-33.41,33.27-54.93,66.37-66,99.08-22.24,59.57-10,117.86-23.12,175.42-11.65,57.6-48.68,114.48-135.21,172C958.3,468,945.4,476.26,932.4,484.25c-14.24,8.76-28.62,17.14-43,25.34-15.18,8.63-30.42,17.07-45.67,25.47-15.49,8.52-31,17-46.44,25.6-15.17,8.42-30.31,17-45.36,25.76-14.24,8.33-28.41,16.9-42.4,25.94q-9.82,6.35-19.52,13c-5.89,4.09-13.19,7.56-17.25,14.78-3.53,6.29-5.62,14-10,19.46-5,6.18-12.59,8.21-18.93,5a13.43,13.43,0,0,0,14.32,3.58c5.79-2,10.44-6.44,13.88-12.88,1.71-3.19,3.24-6.57,5.18-9.54s4.19-3.73,6.72-5.38q4.59-3,9.22-5.93,9.69-6.12,19.49-11.89c14-8.28,28.15-16.16,42.35-23.85,15.09-8.18,30.25-16.13,45.43-24,15.59-8.09,31.2-16.1,46.8-24.16s31-16.1,46.44-24.36c14.85-8,29.66-16.09,44.36-24.57,13.65-7.88,27.2-16.07,40.56-24.81q4.59-3,9.16-6.11c91.7-58.74,133.86-119.67,150.21-179.41,17.88-59.74,9.87-118.3,37.07-172.4,17.28-37.4,51.26-72.69,105.28-106.42Z" transform="translate(-641.4 -12.54)"/><path class="cls-5" d="M1290.71,12.54h-10.43c-54,33.73-88,69-105.32,106.42-27.24,54.1-19.34,112.65-37.24,172.39-16.32,59.74-58.38,120.68-150,179.42-12.93,8.81-26.09,17-39.36,24.87-14.42,8.54-29,16.69-43.58,24.63-15.31,8.32-30.69,16.4-46.09,24.41-15.61,8.11-31.25,16.14-46.87,24.22-15.34,7.92-30.67,15.89-45.94,24-14.49,7.74-28.94,15.64-43.27,23.89-13.09,7.55-26.09,15.37-38.89,23.77-1.68,1.11-3.55,1.81-5.13,3.17A21.55,21.55,0,0,0,674,650c-1.88,3.51-3.42,7.39-5.7,10.45-3.75,5-9.11,7.34-14.36,8.45a6.24,6.24,0,0,1-4.22-.16,7.35,7.35,0,0,0,7.13,4.77c5.57-.06,10.55-4.57,14.69-9.54,3.15-3.78,6.07-7.95,9.53-11.24,2.84-2.71,6.26-4.18,9.46-6q9.44-5.49,19-10.69c13.74-7.51,27.6-14.68,41.5-21.67,14.93-7.52,29.92-14.84,44.93-22.11,15.58-7.54,31.18-15,46.77-22.56s31.39-15.23,47-23c15.29-7.64,30.54-15.44,45.69-23.55,14.36-7.69,28.64-15.65,42.76-24.09,8.31-5,16.56-10.1,24.72-15.47,96.82-59.78,144.56-124.72,166.72-186.3,23.8-61.6,22-119.85,58-166.81,14.13-19.69,34.8-37.42,63.14-53.49Z" transform="translate(-641.4 -12.54)"/><path class="cls-6" d="M1290.71,76.86c-28.35,16.06-49,33.8-63.17,53.48-36.06,47-34.31,105.19-58.13,166.8-22.14,61.57-69.79,126.53-166.55,186.32q-10.26,6.74-20.66,13c-14,8.47-28.14,16.45-42.38,24.15-15.07,8.14-30.24,16-45.46,23.6-15.61,7.85-31.28,15.51-47,23.1S816.14,582.4,800.52,590c-15.09,7.29-30.16,14.63-45.19,22.15-14,7-28,14.2-41.91,21.72q-9.66,5.22-19.23,10.71c-3.46,2-7.24,3.1-10.5,5.67-6,4.74-10.51,12.35-16.34,17.51a21.23,21.23,0,0,1-6.86,4.27c-2.39.86-4.58.22-6.91.52a32.68,32.68,0,0,0,.44,3.81c7.25,2.71,15.4.74,21.47-5.19,5.14-5,8.76-11.3,14.84-14.5q7.38-3.87,14.79-7.58c13.43-6.74,26.93-13.15,40.48-19.43,14.72-6.83,29.49-13.49,44.27-20.1q23.28-10.43,46.58-20.81c15.83-7.09,31.64-14.23,47.41-21.54s31.23-14.64,46.75-22.32c15-7.4,29.84-15.05,44.6-23.12,13.8-7.55,27.49-15.46,41-24,101.88-60.25,155.84-128.67,185.11-191,31.08-62.32,37.41-118.56,86.35-154.52,1-.78,2-1.54,3.07-2.3Z" transform="translate(-641.4 -12.54)"/><path class="cls-7" d="M755.15,612.57c-2.91-2.55-6.94-3.32-10.24-4.62q-9.82-3.9-19.65-7.9a10.78,10.78,0,0,0-5-1.19,3.58,3.58,0,0,0-1.91.7c-4.12,3.23-1.72,11.57.4,15.36a33,33,0,0,0,9,9.79,61.34,61.34,0,0,0,5.24,3.57c1.94,1.18,4.33,3.62,6.53,3.41-1.86,2.33-6,2.88-8.45,3.91q-5,2.11-9.88,4.45c-14.7,7-30.94,13.33-42.82,27.41a2.73,2.73,0,0,0-.64,1.1c-.43,1.9,3.44,7.9,4.13,9.67a38.24,38.24,0,0,1,2.92,13.46c0,9.15-.8,18.45-.31,27.64,13.33.76,36.85,1.13,46.55.14,3.07-.36.94-14.15,1-16.52a47,47,0,0,1,4.39-19.59c3.4-7.05,9.06-11.38,12.68-18.19a54.68,54.68,0,0,0,4.44-13,184.57,184.57,0,0,0,3.95-23C758.1,623.72,759.24,616.15,755.15,612.57Z" transform="translate(-641.4 -12.54)"/><path class="cls-8" d="M742.72,932.08c-.17-9.73-.94-19.5-1.17-29.34-.24-10.28-.44-20.57-.68-30.85-.9-40.66-.64-81-1.44-121.63q-.24-12.06-.55-24.11c0-1.82.2-5.11.23-8.43,0-3.82-.23-7.67-1.57-9.32a3,3,0,0,0-2.14-.91A159.88,159.88,0,0,0,687.18,709c-4,.74-8.52,2.09-10.53,6.76a21.69,21.69,0,0,0-1.3,5.64c-2.77,20.24-3.84,41.08-6.21,61.45q-8.7,74.51-17,149.22Z" transform="translate(-641.4 -12.54)"/><path class="cls-9" d="M742.72,932.08c-.17-9.73-.94-19.5-1.17-29.34-.24-10.28-.44-20.57-.68-30.85-.9-40.66-.64-81-1.44-121.63q-.24-12.06-.55-24.11c0-1.82.2-5.11.23-8.43,0-3.74-.23-7.49-1.49-9.19-4.31,56.61.11,113.84-5.66,170.33-1.68,16.48-4.4,37.27-11,53.22Z" transform="translate(-641.4 -12.54)"/></svg>