<svg id="Layer_1" data-name="Layer 1" xmlns="http://www.w3.org/2000/svg" viewBox="0 0 5577.71 1300.27"><defs><style>.cls-1{fill:#1b2535;}.cls-2{fill:#303e5c;}.cls-3{fill:#243047;}.cls-4{fill:#fff;}</style></defs><title>ფანჯარა</title><rect class="cls-1" x="12.53" y="561.36" width="467.9" height="15.63"/><rect class="cls-2" y="544.06" width="490.88" height="19.27"/><polygon class="cls-2" points="411.4 274.84 250.76 274.84 250.76 59.45 240.87 59.45 240.87 274.84 81.56 274.84 81.56 285.75 240.87 285.75 240.87 483.18 250.76 483.18 250.76 285.75 411.4 285.75 411.4 274.84"/><path class="cls-2" d="M434.53,104H75.34V585.79H463.87V104Zm0,452.22H104.68V133.56H434.53Z" transform="translate(-23.12 -73.01)"/><path class="cls-3" d="M463.78,73H41.35V617.8H498.28V73Zm0,511.32H75.85V106.48H463.78Z" transform="translate(-23.12 -73.01)"/><path class="cls-4" d="M140.49,287.41a1.31,1.31,0,0,1-1,.48,1.27,1.27,0,0,1-.92-.4,1.6,1.6,0,0,1-.08-2.11" transform="translate(-23.12 -73.01)"/><path class="cls-4" d="M216.3,192.33a1.27,1.27,0,0,1,1.92-.08,1.6,1.6,0,0,1,.08,2.11" transform="translate(-23.12 -73.01)"/><path class="cls-4" d="M153.91,302.2a1.31,1.31,0,0,1-1,.48,1.3,1.3,0,0,1-.92-.39,1.61,1.61,0,0,1-.08-2.12" transform="translate(-23.12 -73.01)"/><path class="cls-4" d="M229.72,207.12a1.27,1.27,0,0,1,1.92-.08,1.6,1.6,0,0,1,.08,2.11" transform="translate(-23.12 -73.01)"/><rect class="cls-1" x="1636.51" y="565.28" width="467.9" height="15.63"/><rect class="cls-2" x="1623.98" y="547.98" width="490.88" height="19.27"/><polygon class="cls-2" points="2035.38 255.81 1874.74 255.81 1874.74 52.99 1864.85 52.99 1864.85 255.81 1705.54 255.81 1705.54 266.08 1864.85 266.08 1864.85 451.99 1874.74 451.99 1874.74 266.08 2035.38 266.08 2035.38 255.81"/><path class="cls-2" d="M2058.51,107.88H1699.32V544h388.53V107.88Zm0,409.32H1728.66V134.67h329.85Z" transform="translate(-23.12 -73.01)"/><path class="cls-3" d="M2087.76,76.93H1665.33V621.72h456.93V76.93Zm0,511.32H1699.83V110.4h387.93Z" transform="translate(-23.12 -73.01)"/><path class="cls-4" d="M765.28,240.25a1.27,1.27,0,0,1,1.92-.08,1.6,1.6,0,0,1,.08,2.11" transform="translate(-23.12 -73.01)"/><path class="cls-4" d="M702.89,350.12a1.31,1.31,0,0,1-1,.48,1.3,1.3,0,0,1-.92-.39,1.61,1.61,0,0,1-.08-2.12" transform="translate(-23.12 -73.01)"/><rect class="cls-1" x="2793.61" y="565.7" width="467.9" height="15.63"/><rect class="cls-2" x="2781.08" y="548.4" width="490.88" height="19.27"/><polygon class="cls-2" points="3192.48 235.69 3031.84 235.69 3031.84 53.41 3021.95 53.41 3021.95 235.69 2862.64 235.69 2862.64 244.91 3021.95 244.91 3021.95 411.99 3031.84 411.99 3031.84 244.91 3192.48 244.91 3192.48 235.69"/><path class="cls-2" d="M3215.6,108.29H2856.42V510h388.52V108.29Zm0,377H2885.76V133H3215.6Z" transform="translate(-23.12 -73.01)"/><path class="cls-3" d="M3244.86,77.34H2822.42v544.8h456.94V77.34Zm0,511.33H2856.93V110.82h387.93Z" transform="translate(-23.12 -73.01)"/><rect class="cls-1" x="3934.91" y="571.45" width="467.9" height="15.63"/><rect class="cls-2" x="3922.38" y="554.15" width="490.88" height="19.27"/><polygon class="cls-2" points="4333.79 224.79 4173.14 224.79 4173.14 59.16 4163.25 59.16 4163.25 224.79 4003.94 224.79 4003.94 233.18 4163.25 233.18 4163.25 384.99 4173.14 384.99 4173.14 233.18 4333.79 233.18 4333.79 224.79"/><path class="cls-2" d="M4356.91,114.05H3997.73V458h388.52V114.05Zm0,322.82H4027.07V135.18h329.84Z" transform="translate(-23.12 -73.01)"/><path class="cls-3" d="M4386.16,83.1H3963.73V627.89h456.93V83.1Zm0,511.32H3998.23V116.57h387.93Z" transform="translate(-23.12 -73.01)"/><rect class="cls-1" x="4489.5" y="571.4" width="467.9" height="15.63"/><rect class="cls-2" x="4476.97" y="554.09" width="490.88" height="19.27"/><polygon class="cls-2" points="4888.37 203.41 4727.73 203.41 4727.73 59.11 4717.84 59.11 4717.84 203.41 4558.53 203.41 4558.53 210.72 4717.84 210.72 4717.84 342.99 4727.73 342.99 4727.73 210.72 4888.37 210.72 4888.37 203.41"/><path class="cls-2" d="M4911.5,114H4552.31V429h388.53V114Zm0,295.65H4581.65V133.35H4911.5Z" transform="translate(-23.12 -73.01)"/><path class="cls-3" d="M4940.75,83H4518.32V627.83h456.93V83Zm0,511.32H4552.82V116.51h387.93Z" transform="translate(-23.12 -73.01)"/><rect class="cls-1" x="30.28" y="1276.47" width="467.9" height="15.63"/><rect class="cls-2" x="17.75" y="1259.17" width="490.88" height="19.27"/><polygon class="cls-2" points="429.15 901.84 268.51 901.84 268.51 764.18 258.61 764.18 258.61 901.84 99.31 901.84 99.31 908.81 258.61 908.81 258.61 1034.99 268.51 1034.99 268.51 908.81 429.15 908.81 429.15 901.84"/><path class="cls-2" d="M452.27,819.06H93.09V1108H481.61V819.06Zm0,271.19H122.43V836.82H452.27Z" transform="translate(-23.12 -73.01)"/><path class="cls-3" d="M481.53,788.11H59.09V1332.9H516V788.11Zm0,511.33H93.6V821.59H481.53Z" transform="translate(-23.12 -73.01)"/><rect class="cls-1" x="557.96" y="1279.15" width="467.9" height="15.63"/><rect class="cls-2" x="545.42" y="1261.85" width="490.88" height="19.27"/><polygon class="cls-2" points="956.83 881.63 796.19 881.63 796.19 750.99 786.29 750.99 786.29 881.63 626.98 881.63 626.98 888.25 786.29 888.25 786.29 1007.99 796.19 1007.99 796.19 888.25 956.83 888.25 956.83 881.63"/><path class="cls-2" d="M980,821.74H620.77V1081h388.52V821.74Zm0,243.33H650.11V837.67H980Z" transform="translate(-23.12 -73.01)"/><path class="cls-3" d="M1009.2,790.79H586.77v544.79h456.94V790.79Zm0,511.33H621.27V824.27H1009.2Z" transform="translate(-23.12 -73.01)"/><rect class="cls-1" x="1698.58" y="1281.28" width="467.9" height="15.63"/><rect class="cls-2" x="1686.05" y="1263.98" width="490.88" height="19.27"/><polygon class="cls-2" points="2097.45 857.32 1936.81 857.32 1936.81 745.99 1926.91 745.99 1926.91 857.32 1767.61 857.32 1767.61 862.95 1926.91 862.95 1926.91 964.99 1936.81 964.99 1936.81 862.95 2097.45 862.95 2097.45 857.32"/><path class="cls-2" d="M2120.58,823.88H1761.39V1038h388.52V823.88Zm0,201H1790.73V837h329.85Z" transform="translate(-23.12 -73.01)"/><path class="cls-3" d="M2149.83,792.93H1727.39v544.79h456.94V792.93Zm0,511.32H1761.9V826.4h387.93Z" transform="translate(-23.12 -73.01)"/><rect class="cls-1" x="2277.59" y="1280.44" width="467.9" height="15.63"/><rect class="cls-2" x="2265.06" y="1263.14" width="490.88" height="19.27"/><polygon class="cls-2" points="2676.46 840.07 2515.82 840.07 2515.82 743.99 2505.93 743.99 2505.93 840.07 2346.62 840.07 2346.62 844.93 2505.93 844.93 2505.93 932.99 2515.82 932.99 2515.82 844.93 2676.46 844.93 2676.46 840.07"/><path class="cls-2" d="M2699.59,823H2340.4v195h388.52V823Zm0,183H2369.74V835h329.85Z" transform="translate(-23.12 -73.01)"/><path class="cls-3" d="M2728.84,792.09H2306.4v544.79h456.94V792.09Zm0,511.32H2340.91V825.56h387.93Z" transform="translate(-23.12 -73.01)"/><rect class="cls-1" x="5099.36" y="1260.43" width="467.9" height="15.63"/><rect class="cls-2" x="5086.83" y="1243.12" width="490.88" height="19.27"/><path class="cls-3" d="M5550.61,772.07H5128.18v544.79h456.93V772.07Zm0,511.32H5162.68V805.54h387.93Z" transform="translate(-23.12 -73.01)"/><rect class="cls-1" x="532.94" y="565.39" width="467.9" height="15.63"/><rect class="cls-2" x="520.41" y="548.09" width="490.88" height="19.27"/><polygon class="cls-2" points="931.81 264.51 771.17 264.51 771.17 53.1 761.28 53.1 761.28 264.51 601.97 264.51 601.97 275.21 761.28 275.21 761.28 468.99 771.17 468.99 771.17 275.21 931.81 275.21 931.81 264.51"/><path class="cls-2" d="M954.94,108H595.75V569H984.28V108Zm0,432.69H625.09V136.31H954.94Z" transform="translate(-23.12 -73.01)"/><path class="cls-3" d="M984.19,77H561.76v544.8h456.93V77Zm0,511.33H596.26V110.51H984.19Z" transform="translate(-23.12 -73.01)"/><rect class="cls-1" x="1078.38" y="563.39" width="467.9" height="15.63"/><rect class="cls-2" x="1065.84" y="546.08" width="490.88" height="19.27"/><polygon class="cls-2" points="1477.25 263.52 1316.61 263.52 1316.61 51.1 1306.71 51.1 1306.71 263.52 1147.4 263.52 1147.4 274.28 1306.71 274.28 1306.71 468.99 1316.61 468.99 1316.61 274.28 1477.25 274.28 1477.25 263.52"/><path class="cls-2" d="M1500.37,106H1141.19V553h388.52V106Zm0,419.55H1170.53V133.45h329.84Z" transform="translate(-23.12 -73.01)"/><path class="cls-3" d="M1529.62,75H1107.19V619.82h456.94V75Zm0,511.32H1141.69V108.5h387.93Z" transform="translate(-23.12 -73.01)"/><rect class="cls-1" x="2218.79" y="563.45" width="467.9" height="15.63"/><rect class="cls-2" x="2206.26" y="546.15" width="490.88" height="19.27"/><polygon class="cls-2" points="2617.66 253.98 2457.02 253.98 2457.02 51.16 2447.13 51.16 2447.13 253.98 2287.82 253.98 2287.82 264.25 2447.13 264.25 2447.13 450.16 2457.02 450.16 2457.02 264.25 2617.66 264.25 2617.66 253.98"/><path class="cls-2" d="M2640.79,106H2281.6V523h388.53V106Zm0,391.34H2310.94V131.66h329.85Z" transform="translate(-23.12 -73.01)"/><path class="cls-3" d="M2670,75.09H2247.61v544.8h456.93V75.09Zm0,511.33H2282.11V108.57H2670Z" transform="translate(-23.12 -73.01)"/><rect class="cls-1" x="3368.05" y="571.4" width="467.9" height="15.63"/><rect class="cls-2" x="3355.51" y="554.1" width="490.88" height="19.27"/><polygon class="cls-2" points="3766.92 238.49 3606.28 238.49 3606.28 59.11 3596.38 59.11 3596.38 238.49 3437.07 238.49 3437.07 247.57 3596.38 247.57 3596.38 411.99 3606.28 411.99 3606.28 247.57 3766.92 247.57 3766.92 238.49"/><path class="cls-2" d="M3790,114H3430.86V485h388.52V114Zm0,348.2H3460.2V136.79H3790Z" transform="translate(-23.12 -73.01)"/><path class="cls-3" d="M3819.29,83.05H3396.86V627.84H3853.8V83.05Zm0,511.32H3431.37V116.52h387.92Z" transform="translate(-23.12 -73.01)"/><rect class="cls-1" x="5081.26" y="571.64" width="467.9" height="15.63"/><rect class="cls-2" x="5068.73" y="554.34" width="490.88" height="19.27"/><polygon class="cls-2" points="5480.13 188.28 5319.49 188.28 5319.49 59.35 5309.59 59.35 5309.59 188.28 5150.29 188.28 5150.29 194.81 5309.59 194.81 5309.59 312.99 5319.49 312.99 5319.49 194.81 5480.13 194.81 5480.13 188.28"/><path class="cls-2" d="M5503.25,114.23H5144.07V404h388.52V114.23Zm0,272H5173.41V132h329.84Z" transform="translate(-23.12 -73.01)"/><path class="cls-3" d="M5532.51,83.28H5110.07V628.07H5567V83.28Zm0,511.33H5144.58V116.76h387.93Z" transform="translate(-23.12 -73.01)"/><rect class="cls-1" x="1138.14" y="1281.19" width="467.9" height="15.63"/><rect class="cls-2" x="1125.61" y="1263.89" width="490.88" height="19.27"/><polygon class="cls-2" points="1537.01 864.84 1376.37 864.84 1376.37 753.03 1366.48 753.03 1366.48 864.84 1207.17 864.84 1207.17 870.5 1366.48 870.5 1366.48 972.99 1376.37 972.99 1376.37 870.5 1537.01 870.5 1537.01 864.84"/><path class="cls-2" d="M1560.14,823.78H1201V1061h388.53V823.78Zm0,222.64H1230.29V838.36h329.85Z" transform="translate(-23.12 -73.01)"/><path class="cls-3" d="M1589.39,792.83H1167v544.79h456.93V792.83Zm0,511.32H1201.46V826.31h387.93Z" transform="translate(-23.12 -73.01)"/><rect class="cls-1" x="2840.02" y="1281.47" width="467.9" height="15.63"/><rect class="cls-2" x="2827.48" y="1264.17" width="490.88" height="19.27"/><polygon class="cls-2" points="3238.89 822.78 3078.25 822.78 3078.25 745.02 3068.35 745.02 3068.35 822.78 2909.05 822.78 2909.05 826.72 3068.35 826.72 3068.35 897.99 3078.25 897.99 3078.25 826.72 3238.89 826.72 3238.89 822.78"/><path class="cls-2" d="M3262,824.06H2902.83V981h388.52V824.06Zm0,147.3H2932.17V833.7H3262Z" transform="translate(-23.12 -73.01)"/><path class="cls-3" d="M3291.26,793.11H2868.83V1337.9h456.94V793.11Zm0,511.32H2903.34V826.59h387.92Z" transform="translate(-23.12 -73.01)"/><rect class="cls-1" x="3420.77" y="1283.46" width="467.9" height="15.63"/><rect class="cls-2" x="3408.24" y="1266.16" width="490.88" height="19.27"/><polygon class="cls-2" points="3819.64 812.07 3659 812.07 3659 747.01 3649.11 747.01 3649.11 812.07 3489.8 812.07 3489.8 815.36 3649.11 815.36 3649.11 874.99 3659 874.99 3659 815.36 3819.64 815.36 3819.64 812.07"/><path class="cls-2" d="M3842.77,826.05H3483.58V956h388.53v-130Zm0,122H3512.92V834h329.85Z" transform="translate(-23.12 -73.01)"/><path class="cls-3" d="M3872,795.1H3449.59v544.79h456.93V795.1Zm0,511.32H3484.09V828.58H3872Z" transform="translate(-23.12 -73.01)"/><rect class="cls-1" x="3987.4" y="1284.64" width="467.9" height="15.63"/><rect class="cls-2" x="3974.86" y="1267.34" width="490.88" height="19.27"/><polygon class="cls-2" points="4386.27 805.02 4225.63 805.02 4225.63 748.19 4215.73 748.19 4215.73 805.02 4056.42 805.02 4056.42 807.9 4215.73 807.9 4215.73 859.99 4225.63 859.99 4225.63 807.9 4386.27 807.9 4386.27 805.02"/><path class="cls-2" d="M4409.39,827.23H4050.21V933h388.52V827.23Zm0,99.27H4079.55V833.73h329.84Z" transform="translate(-23.12 -73.01)"/><path class="cls-3" d="M4438.64,796.28H4016.21v544.8h456.94V796.28Zm0,511.33H4050.71V829.76h387.93Z" transform="translate(-23.12 -73.01)"/><rect class="cls-1" x="4541.89" y="1252.81" width="467.9" height="15.63"/><rect class="cls-2" x="4529.35" y="1235.51" width="490.88" height="19.27"/><polygon class="cls-2" points="4940.76 817.62 4780.12 817.62 4780.12 760.36 4770.22 760.36 4770.22 817.62 4610.91 817.62 4610.91 820.51 4770.22 820.51 4770.22 872.99 4780.12 872.99 4780.12 820.51 4940.76 820.51 4940.76 817.62"/><path class="cls-2" d="M4963.88,839.41H4604.7V946h388.52V839.41Zm0,100H4634V846h329.84Z" transform="translate(-23.12 -73.01)"/><path class="cls-3" d="M4993.13,808.46H4570.7v544.79h456.94V808.46Zm0,511.32H4605.21V841.93h387.92Z" transform="translate(-23.12 -73.01)"/></svg>