<svg id="Layer_1" data-name="Layer 1" xmlns="http://www.w3.org/2000/svg" xmlns:xlink="http://www.w3.org/1999/xlink" viewBox="0 0 674.8 600.69"><defs><style>.cls-1{fill:#f2dcd5;}.cls-2{fill:#8f5139;}.cls-3{fill:url(#linear-gradient);}.cls-4{fill:#854930;}.cls-12,.cls-5{fill:#703d29;}.cls-13,.cls-6{fill:#210315;}.cls-7{clip-path:url(#clip-path);}.cls-8{fill:#9c6000;stroke:#402800;stroke-miterlimit:10;stroke-width:5.36px;}.cls-9{fill:#e8d0c5;opacity:0.8;}.cls-10{fill:#26140d;}.cls-11{clip-path:url(#clip-path-2);}.cls-12,.cls-13{fill-rule:evenodd;}.cls-14{fill:#5c3222;}.cls-15{fill:#f39bbd;}</style><linearGradient id="linear-gradient" x1="959.54" y1="927.36" x2="959.54" y2="712.23" gradientUnits="userSpaceOnUse"><stop offset="0.18" stop-color="#f39bbd"/><stop offset="0.4" stop-color="#f39bbd"/><stop offset="0.4" stop-color="#da8700"/><stop offset="0.6" stop-color="#da8700"/><stop offset="0.6" stop-color="#e8421e"/><stop offset="0.8" stop-color="#e8421e"/><stop offset="0.8" stop-color="#474090"/><stop offset="1" stop-color="#4e458f"/></linearGradient><clipPath id="clip-path" transform="translate(-622.14 -240.08)"><path class="cls-1" d="M932.18,408.79A80.46,80.46,0,0,1,904,413.44c-14.79-.51-26.3-8.67-26.3-8.67,4.76-2.28,15.41-10,27.93-9.72C917.08,395.28,929.34,401.86,932.18,408.79Z"/></clipPath><clipPath id="clip-path-2" transform="translate(-622.14 -240.08)"><path class="cls-1" d="M1013.79,395.1c12.48-.25,23.09,7.41,27.83,9.68,0,0-11.47,8.12-26.2,8.63a79.89,79.89,0,0,1-28.06-4.63C990.19,401.88,1002.41,395.32,1013.79,395.1Z"/></clipPath></defs><title>ეთნიკ</title><path class="cls-2" d="M1182.59,697c-6.77,56.39-223.22,118.15-223.22,118.15-9.5-2.69-216.1-61.76-222.87-118.15-1.4-11.63,53.72-26.76,76.81-37,6.82-3,26-10,40.17-17.42,8.22-4.27,14.8-8.66,16.44-12.49,4.52-10.56,7.91-32.56,10.22-52.74,2.55-22.28,3.79-42.34,3.79-42.34h151.22s1.24,20.06,3.8,42.34c2.31,20.18,5.7,42.18,10.22,52.74,1.66,3.89,8.59,8.36,17.2,12.68,14.49,7.3,33.73,14.17,40.49,17.16C1130,670.19,1184,685.39,1182.59,697Z" transform="translate(-622.14 -240.08)"/><path class="cls-3" d="M1216.93,690c1.08.4,2.12.8,3.1,1.18-1-.38-2-.78-3.1-1.18-36-13.29-125.22-33.65-125.34-32.64-1.49,13.26-27.72,49.1-132,49.1s-130.56-35.84-132-49.1c-.11-1-89.38,19.35-125.33,32.64-1.09.4-2.13.8-3.11,1.18,1-.38,2-.78,3.11-1.18-59.11,18-75.76,91.32-80,150.81h674.8C1292.69,781.28,1276,707.94,1216.93,690Z" transform="translate(-622.14 -240.08)"/><path class="cls-4" d="M845.37,423c-.2-9.86,1.84-33.47-11.49-37.23-6.55-1.84-15.12,4.13-16.59,10.17-4.07,16.67,12.83,52.55,12.69,60.55,0,10.82-3.25,28.73,14.71,20.5C859,470.45,845.37,423,845.37,423Z" transform="translate(-622.14 -240.08)"/><path class="cls-5" d="M822.64,399a1.49,1.49,0,0,1-1-2.57c4.65-4.09,19.46-1.92,18,26.87a.48.48,0,0,1-1,.07,117.28,117.28,0,0,0-3.13-12.64C833.06,401.14,826.26,399.26,822.64,399Z" transform="translate(-622.14 -240.08)"/><path class="cls-5" d="M837.05,442.75c1.42,4,2.79,9.74.8,13.79-.64,1.3-2.73,2.85-3.82,1.06-1.44-2.39,1.28-5,1.69-7.24a66.58,66.58,0,0,0,1-7.57A.19.19,0,0,1,837.05,442.75Z" transform="translate(-622.14 -240.08)"/><path class="cls-4" d="M1073.3,422.83c.4-9.86-1.19-33.53,12.23-37.07,6.59-1.73,15.06,4.4,16.41,10.47,3.75,16.76-13.86,52.38-13.87,60.39-.18,10.83,2.69,28.82-15.12,20.27C1058.72,470.05,1073.3,422.83,1073.3,422.83Z" transform="translate(-622.14 -240.08)"/><path class="cls-5" d="M1096.53,399.12a1.49,1.49,0,0,0,1-2.55c-4.57-4.18-19.44-2.26-18.5,26.58a.48.48,0,0,0,1,.09,115.75,115.75,0,0,1,3.38-12.6C1086.06,401.13,1092.89,399.36,1096.53,399.12Z" transform="translate(-622.14 -240.08)"/><path class="cls-5" d="M1081.25,442.7c-1.5,4-3,9.7-1.06,13.79.61,1.32,2.68,2.91,3.8,1.13,1.49-2.36-1.19-5-1.55-7.27a66.2,66.2,0,0,1-.83-7.6A.19.19,0,0,0,1081.25,442.7Z" transform="translate(-622.14 -240.08)"/><path class="cls-5" d="M1039,582.19c-8.41,7-17.05,13.33-23.66,22.88-7.09,10.25-14.16,22.51-55.75,22.51s-48.65-12.26-55.74-22.51c-6.62-9.55-15.26-15.92-23.66-22.88,2.55-22.27,3.79-42.34,3.79-42.34h151.22S1036.39,559.92,1039,582.19Z" transform="translate(-622.14 -240.08)"/><path class="cls-2" d="M1077.79,372c0-62.44-53.49-120.47-118.25-120.47S841.3,309.58,841.3,372c0,26.94,6.41,38.24,2.63,51.64-6.59,23.32,6.94,97.29,21.71,115.6,11.72,14.54,27.54,21.66,38.16,37,7.09,10.24,14.16,22.51,55.74,22.51s48.66-12.27,55.75-22.51c10.61-15.34,26.44-22.46,38.16-37,14.76-18.31,28.29-92.28,21.7-115.6C1071.37,410.26,1077.79,399,1077.79,372Z" transform="translate(-622.14 -240.08)"/><path class="cls-6" d="M973.22,255c-.07-8.28-6.05-15-13.42-15h0c-7.37,0-13.35,6.69-13.42,15a2.28,2.28,0,0,0,0,.26L956,312.06c.7,4.19,6,4.24,6.78.07l10.47-56.81A2.64,2.64,0,0,0,973.22,255Z" transform="translate(-622.14 -240.08)"/><path class="cls-6" d="M1000.9,262.06a13.52,13.52,0,0,0-10.15-16,13.37,13.37,0,0,0-16,10,.85.85,0,0,0,0,.23l-1.83,51.46a3.46,3.46,0,0,0,6.61,1.58l21.34-47A1.35,1.35,0,0,0,1000.9,262.06Z" transform="translate(-622.14 -240.08)"/><path class="cls-6" d="M1044.22,284.4c2.12-5.13-1-11.36-7-14s-12.62-.59-14.85,4.49a1.09,1.09,0,0,0,0,.17l-7.14,38.4c-.53,2.83,3.78,4.74,5.5,2.44l23.44-31.36A.56.56,0,0,0,1044.22,284.4Z" transform="translate(-622.14 -240.08)"/><path class="cls-6" d="M1022.93,272.77c1.62-6-2.12-12.26-8.4-14.06s-12.73,1.56-14.46,7.51a1.06,1.06,0,0,0,0,.19l-3.36,43.22c-.25,3.18,4.27,4.52,5.77,1.7L1022.86,273A.62.62,0,0,0,1022.93,272.77Z" transform="translate(-622.14 -240.08)"/><path class="cls-6" d="M1059,301c2.62-4.08,1.15-9.78-3.31-12.77s-10.24-2.15-12.94,1.88a.42.42,0,0,0-.07.13l-12.49,31.67c-.92,2.34,2.28,4.53,4.09,2.79l24.61-23.57A.69.69,0,0,0,1059,301Z" transform="translate(-622.14 -240.08)"/><path class="cls-6" d="M1069.34,319.83c2.69-2.37,2.08-7.61-1.38-11.73s-8.47-5.59-11.23-3.29a.22.22,0,0,0-.07.09l-14.22,21.35c-1,1.57,1.43,4.56,3.17,3.81l23.62-10.17A.39.39,0,0,0,1069.34,319.83Z" transform="translate(-622.14 -240.08)"/><path class="cls-6" d="M1076.81,340.61c3.09-1.63,3.65-6.83,1.25-11.66s-6.88-7.46-10-5.91a.15.15,0,0,0-.09.06l-18.24,17.14c-1.34,1.27.37,4.76,2.19,4.46l24.79-4.05Z" transform="translate(-622.14 -240.08)"/><path class="cls-6" d="M1077.67,362.05c2.37-.43,3.65-5.06,2.85-10.41s-3.37-9.38-5.76-9.06l-.08,0-15.29,9.47c-1.13.7-.57,4.56.72,4.93l17.47,5Z" transform="translate(-622.14 -240.08)"/><path class="cls-6" d="M1082.12,387.11c-.12-4.41-1.48-7.95-3-7.94h0l-10.54,6c-.78.44-.7,3.62.1,4.06l10.88,5.95s0,0,0,0C1081.08,395.13,1082.24,391.52,1082.12,387.11Z" transform="translate(-622.14 -240.08)"/><path class="cls-6" d="M1079.28,378.27c1.89-.34,2.9-3.95,2.26-8.1s-2.68-7.29-4.58-7l0,0-12.16,7.4c-.9.55-.45,3.55.57,3.83l13.89,3.87Z" transform="translate(-622.14 -240.08)"/><path class="cls-6" d="M944.54,256.05a13.37,13.37,0,0,0-16-10,13.51,13.51,0,0,0-10.15,16,.84.84,0,0,0,.07.24l21.34,47a3.46,3.46,0,0,0,6.61-1.58l-1.83-51.46A.85.85,0,0,0,944.54,256.05Z" transform="translate(-622.14 -240.08)"/><path class="cls-6" d="M896.94,275.09a1.09,1.09,0,0,0-.05-.17c-2.23-5.08-8.85-7.1-14.85-4.49s-9.11,8.84-7,14a1,1,0,0,0,.1.17l23.43,31.36c1.72,2.3,6,.39,5.51-2.44Z" transform="translate(-622.14 -240.08)"/><path class="cls-6" d="M919.21,266.22c-1.73-6-8.19-9.31-14.47-7.51s-10,8.08-8.4,14.06a.64.64,0,0,0,.08.19l20.41,38.37c1.5,2.82,6,1.48,5.77-1.7l-3.36-43.22A1.08,1.08,0,0,0,919.21,266.22Z" transform="translate(-622.14 -240.08)"/><path class="cls-6" d="M876.61,290.23a.83.83,0,0,0-.07-.13c-2.71-4-8.48-4.88-12.94-1.88s-5.94,8.69-3.31,12.77a.64.64,0,0,0,.1.13L885,324.69c1.81,1.74,5-.45,4.09-2.79Z" transform="translate(-622.14 -240.08)"/><path class="cls-6" d="M862.62,304.9a.24.24,0,0,0-.08-.09c-2.76-2.3-7.77-.84-11.23,3.29s-4.07,9.36-1.37,11.73a.33.33,0,0,0,.1.06l23.63,10.17c1.73.75,4.21-2.24,3.16-3.81Z" transform="translate(-622.14 -240.08)"/><path class="cls-6" d="M851.32,323.1l-.09-.06c-3.14-1.55-7.61,1.08-10,5.91s-1.84,10,1.25,11.66l.11,0,24.79,4.05c1.82.3,3.54-3.19,2.19-4.46Z" transform="translate(-622.14 -240.08)"/><path class="cls-6" d="M859.88,352.08l-15.29-9.47-.07,0c-2.39-.32-5,3.72-5.76,9.06s.47,10,2.85,10.41h.08l17.48-5C860.45,356.64,861,352.78,859.88,352.08Z" transform="translate(-622.14 -240.08)"/><path class="cls-6" d="M850.78,385.19l-10.53-6h0c-1.56,0-2.92,3.53-3.05,7.94s1,8,2.6,8.1a0,0,0,0,0,0,0l10.88-5.95C851.48,388.81,851.56,385.63,850.78,385.19Z" transform="translate(-622.14 -240.08)"/><path class="cls-6" d="M854.52,370.56l-12.15-7.4-.06,0c-1.9-.26-3.94,2.87-4.58,7s.38,7.76,2.26,8.1h.07L854,374.39C855,374.11,855.42,371.11,854.52,370.56Z" transform="translate(-622.14 -240.08)"/><path class="cls-5" d="M932.33,410.47s-14.05,9.7-29.74,8.35-22.7-6.26-26-13.74" transform="translate(-622.14 -240.08)"/><path class="cls-1" d="M932.18,408.79A80.46,80.46,0,0,1,904,413.44c-14.79-.51-26.3-8.67-26.3-8.67,4.76-2.28,15.41-10,27.93-9.72C917.08,395.28,929.34,401.86,932.18,408.79Z" transform="translate(-622.14 -240.08)"/><g class="cls-7"><path class="cls-8" d="M894.4,403.53a11,11,0,1,0,11.38-10.07A10.69,10.69,0,0,0,894.4,403.53Z" transform="translate(-622.14 -240.08)"/><path d="M899.85,403.72a5.55,5.55,0,1,0,5.74-5.08A5.39,5.39,0,0,0,899.85,403.72Z" transform="translate(-622.14 -240.08)"/><path class="cls-9" d="M899.18,402.29a1.55,1.55,0,1,0,1.61-1.42A1.52,1.52,0,0,0,899.18,402.29Z" transform="translate(-622.14 -240.08)"/></g><path class="cls-5" d="M875.38,405.15a20.85,20.85,0,0,1,2.4-3.75,30.15,30.15,0,0,1,2.94-3.24,33.63,33.63,0,0,1,3.35-2.83,34.19,34.19,0,0,1,3.7-2.43,38.06,38.06,0,0,1,8.38-3.53,38.66,38.66,0,0,1,4.62-1l1.18-.17,1.21-.11c.4,0,.8-.07,1.21-.09l.61,0h.66a30.74,30.74,0,0,1,10,1.56,31.89,31.89,0,0,1,8.49,4.26,27.31,27.31,0,0,1,3.58,3c.55.56,1.08,1.12,1.59,1.72s1,1.24,1.41,1.89.83,1.34,1.19,2a16.12,16.12,0,0,1,.9,2.2,9.39,9.39,0,0,1,.45,4.69l0,.22a.42.42,0,0,1-.49.33.44.44,0,0,1-.31-.23,16,16,0,0,0-4.93-5.62,33.71,33.71,0,0,0-6.66-3.95,36.65,36.65,0,0,0-15.09-3.51,50.36,50.36,0,0,0-15.44,2.77,69.07,69.07,0,0,0-7.34,2.9,76.08,76.08,0,0,0-7,3.6.44.44,0,0,1-.58-.14.35.35,0,0,1,0-.37Z" transform="translate(-622.14 -240.08)"/><path class="cls-10" d="M875.63,406.45a46.62,46.62,0,0,1,6.53-4.63,54.78,54.78,0,0,1,7.28-3.61,45.17,45.17,0,0,1,16.22-3.44,31.65,31.65,0,0,1,8.44,1.14,36.76,36.76,0,0,1,7.75,3.09,30.22,30.22,0,0,1,6.67,4.77,19.36,19.36,0,0,1,2.63,3.1,10.91,10.91,0,0,1,1.63,3.6,18.48,18.48,0,0,0-5.57-5.22,40,40,0,0,0-6.79-3.51,45.89,45.89,0,0,0-7.29-2.27,35.06,35.06,0,0,0-7.45-.87A57.28,57.28,0,0,0,890.5,401,121,121,0,0,0,875.63,406.45Z" transform="translate(-622.14 -240.08)"/><path class="cls-5" d="M987.21,410.46s14,9.67,29.64,8.32,22.61-6.24,25.92-13.7" transform="translate(-622.14 -240.08)"/><path class="cls-1" d="M1013.79,395.1c12.48-.25,23.09,7.41,27.83,9.68,0,0-11.47,8.12-26.2,8.63a79.89,79.89,0,0,1-28.06-4.63C990.19,401.88,1002.41,395.32,1013.79,395.1Z" transform="translate(-622.14 -240.08)"/><g class="cls-11"><path class="cls-8" d="M1025,403.54a11,11,0,1,1-11.34-10A10.65,10.65,0,0,1,1025,403.54Z" transform="translate(-622.14 -240.08)"/><path d="M1019.58,403.73a5.54,5.54,0,1,1-5.73-5.06A5.37,5.37,0,0,1,1019.58,403.73Z" transform="translate(-622.14 -240.08)"/><path class="cls-9" d="M1010.66,403a1.55,1.55,0,1,1-1.61-1.41A1.51,1.51,0,0,1,1010.66,403Z" transform="translate(-622.14 -240.08)"/></g><path class="cls-5" d="M1043.46,405.86c-2.27-1.3-4.6-2.52-7-3.59a71.77,71.77,0,0,0-7.32-2.89,50.33,50.33,0,0,0-15.38-2.76,36.77,36.77,0,0,0-15,3.5,33.73,33.73,0,0,0-6.63,3.94,16,16,0,0,0-4.91,5.59.41.41,0,0,1-.56.2.39.39,0,0,1-.24-.29l0-.22a9.38,9.38,0,0,1,.43-4.69,15.5,15.5,0,0,1,.9-2.19,21.88,21.88,0,0,1,1.19-2c.44-.64.91-1.27,1.4-1.88s1-1.17,1.58-1.73a28.65,28.65,0,0,1,3.57-3,32,32,0,0,1,8.47-4.25,31.14,31.14,0,0,1,9.92-1.54h.66l.61,0c.4,0,.81.05,1.21.09l1.2.12,1.18.16a38.35,38.35,0,0,1,4.6,1,37.8,37.8,0,0,1,8.35,3.52,36.71,36.71,0,0,1,3.69,2.43,33.29,33.29,0,0,1,3.33,2.82,29,29,0,0,1,2.93,3.23,21.33,21.33,0,0,1,2.4,3.72l.1.21a.4.4,0,0,1-.21.54A.44.44,0,0,1,1043.46,405.86Z" transform="translate(-622.14 -240.08)"/><path class="cls-10" d="M1043.71,406.46a120.78,120.78,0,0,0-14.82-5.43,56.56,56.56,0,0,0-15.13-2.39,33.55,33.55,0,0,0-7.42.87,46.52,46.52,0,0,0-7.26,2.25,40.17,40.17,0,0,0-6.77,3.5,18.46,18.46,0,0,0-5.55,5.2,10.89,10.89,0,0,1,1.62-3.6,20.14,20.14,0,0,1,2.62-3.08,30.38,30.38,0,0,1,6.65-4.76,36.46,36.46,0,0,1,7.72-3.07,31.43,31.43,0,0,1,8.41-1.14,44.64,44.64,0,0,1,16.17,3.43,54.36,54.36,0,0,1,7.25,3.6A46.12,46.12,0,0,1,1043.71,406.46Z" transform="translate(-622.14 -240.08)"/><path class="cls-12" d="M981.21,466.78c6.61-1.11,19.47,5.73,14.24,8s-11.36,1-17.34,2.31c-9.45,2.14-8.75,5.29-18.18,5.49s-8.26-4-16.1-5.74c-6-1.35-14.73.19-20-2.06s4.61-9.31,15.56-7.73c16,2.32,24.54,2.64,41.79-.25Z" transform="translate(-622.14 -240.08)"/><path class="cls-13" d="M987.9,474.5s2.62-2.17-.37-3-8.24-.26-10.85.27-4.87,3.27-4.87,3.27,10.1.81,16.09-.55Z" transform="translate(-622.14 -240.08)"/><path class="cls-13" d="M931.41,474.5s-2.62-2.17.38-3,8.23-.26,10.84.27,4.87,3.27,4.87,3.27-10.1.81-16.09-.55Z" transform="translate(-622.14 -240.08)"/><path class="cls-5" d="M993.49,510.58c-9.34-5.15-14.77-5.05-19.8-4.18-3.11.54-8.58,3.05-11.15,4.37a7.66,7.66,0,0,1-2.79.88,8.66,8.66,0,0,1-3.21-.88c-2.57-1.32-8-3.83-11.15-4.37-5-.87-10.46-1-19.8,4.18-3.73,2.05-14.22,8.18-14.22,8.18S926.43,536,938.7,541.82a56.71,56.71,0,0,0,41.69,0c12.27-5.81,27.33-23.06,27.33-23.06S997.22,512.63,993.49,510.58Z" transform="translate(-622.14 -240.08)"/><path class="cls-14" d="M993.49,510c-9.34-5.15-14.77-5-19.8-4.17-3.11.53-8.58,3-11.15,4.36a9.07,9.07,0,0,1-3,.88,9.22,9.22,0,0,1-3-.88c-2.57-1.32-8-3.83-11.15-4.36-5-.87-10.46-1-19.8,4.17-3.73,2-14.22,8.77-14.22,8.77s7.89,6.13,20.52,5.08c8.23-.68,15.16,3.66,27.65,3.66s19.43-4.34,27.66-3.66c12.63,1,20.52-5.08,20.52-5.08S997.22,512,993.49,510Z" transform="translate(-622.14 -240.08)"/><path class="cls-6" d="M1055,390.56a73.81,73.81,0,0,0-51.17-5.43c-5.85,1.52-12.21,3.86-17.93.74-3.06-1.68-7.27-5.83-7.17-9.51.14-5.3,6.58-4.23,10.71-4.49C1031.44,369.2,1037.37,365.61,1055,390.56Z" transform="translate(-622.14 -240.08)"/><path class="cls-6" d="M864.08,390.56a73.82,73.82,0,0,1,51.17-5.43c5.86,1.52,12.22,3.86,17.93.74,3.07-1.68,7.27-5.83,7.17-9.51-.13-5.3-6.57-4.23-10.71-4.49C887.64,369.2,881.72,365.61,864.08,390.56Z" transform="translate(-622.14 -240.08)"/><path class="cls-15" d="M1106.86,659.49a200.39,200.39,0,0,1-31.1,23.76c-34.06,21.12-74.08,32.29-115.71,32.29s-81.65-11.17-115.72-32.29a200.41,200.41,0,0,1-31-23.69c6.82-3,26-10,40.17-17.42q6.21,4.75,12.93,8.93c27.48,17,59.86,26,93.64,26s66.15-9,93.63-26q6.58-4.1,12.69-8.74C1080.86,649.63,1100.1,656.5,1106.86,659.49Z" transform="translate(-622.14 -240.08)"/></svg>