<svg xmlns="http://www.w3.org/2000/svg" viewBox="0 0 381.23 1018.69"><defs><style>.cls-1{isolation:isolate;}.cls-2{fill:#ffbf93;}.cls-11,.cls-3,.cls-8{mix-blend-mode:multiply;}.cls-4{fill:#d6d6d6;}.cls-5{fill:#fff;}.cls-6{fill:#8dafed;}.cls-11,.cls-7{fill:#2c3063;}.cls-11,.cls-8{opacity:0.5;}.cls-9{fill:#4246c8;}.cls-10{fill:#5d5d5d;}.cls-12{fill:#b00020;}.cls-13{fill:#f68454;}.cls-14{fill:#ff95b3;}.cls-15{fill:#ff9795;}</style></defs><title>ჩადრი</title><g class="cls-1"><g id="Layer_1" data-name="Layer 1"><path class="cls-2" d="M1014.43,1015.45s102-483.28,16.44-537.37H876.76s-28.93,27.05-28.16,102.77-2.68,412.36-4.48,421.37-30,26.14-31.79,36.06,66.35,0,66.35,0-.15-11.59-1.79-18.93c0,0,76.14-357.37,85-406.05,0,0,7.09-67.21,19.63,398.84l-3.31,25.24s74.11,7.21,69.59.9S1014.43,1015.45,1014.43,1015.45Z" transform="translate(-777 -24)"/><g class="cls-3"><path class="cls-4" d="M1061.23,559.71c-7.12-38.05-16.86-64.28-30-72H877.13s-12.53,5.43-25.46,50.64a243.4,243.4,0,0,0-3.07,42.48c.77,75.72-2.68,412.36-4.48,421.37-.41,2.1-2.27,4.64-4.89,7.42h38.92c9.45-72.38,75.58-351.55,83.71-396.34,0,0,7-67.59,19.56,396.34h33.84C1022.64,957.11,1083.38,736.75,1061.23,559.71Z" transform="translate(-777 -24)"/></g><path class="cls-5" d="M1102.09,408.74c-11.7-76.55-18-131.59-43.45-163.55-45.87-57.61-104.73-45.65-104.73-45.65s-56.93-8.58-102.8,49c-25.45,32-30.24,67.67-42.36,149.51-11.28,76.16,30.14,100.4,43.14,12.35S874,306.78,874,306.78c11.41,42,9.27,141.31,2.85,175.36H1031c-6.42-34.05-8.56-133.33,2.86-175.36,0,0,12.09,15.61,25.09,103.65S1113.72,484.85,1102.09,408.74Z" transform="translate(-777 -24)"/><path class="cls-6" d="M1009.42,1029c-13.7-4.13-22.59-10.32-29.11-7.93l-2.13,16.27s74.11,7.21,69.59.9c-2.16-3-8-7.56-17.37-13.15h0C1036,1028.8,1025.12,1033.77,1009.42,1029Z" transform="translate(-777 -24)"/><path class="cls-6" d="M877.47,1022.52c-8.58-1.29-22.4,4.15-34.89,8-15.33,4.73-25.6.1-21.27-4.33h0c-4.68,4.46-8.38,8.7-9,12.09-1.76,9.92,66.35,0,66.35,0A135.57,135.57,0,0,0,877.47,1022.52Z" transform="translate(-777 -24)"/><path class="cls-7" d="M1063,1000s43.2-477.79-32.1-521.92H876.76S822.12,509.3,828.19,1000Z" transform="translate(-777 -24)"/><g class="cls-8"><path class="cls-7" d="M1067.09,724.39c-.46-61.41-2.64-117.66-7.34-162.4-5.58-40.54-14.69-69.7-28.73-79.85H950.35c-1.53,17.45-3,35.24-4.26,53.22-.81-18-1.73-35.75-2.77-53.22h-66.4s-35.58,85.8-49.2,469.66c43.06,38.05,96.67,19,112.92-58.43.48,4.43,1,8.57,1.58,12.36,8.9,59.15,72.25,65.84,123.84,48.18C1071.21,883.47,1066.35,803.71,1067.09,724.39Z" transform="translate(-777 -24)"/></g><path class="cls-9" d="M859.18,507.1h186.94c-4.28-12.19-9.28-20.75-15.1-25H876.92S869.27,482.71,859.18,507.1Z" transform="translate(-777 -24)"/><path class="cls-6" d="M1146.77,748.81c-45-102.6-79.39-198.18-97.32-285,7.54,5.05,16.79,10.9,26.36,16.14,21.41,11.71,30.46-24.53,28.3-59.75-.19-3.15-4.6-205-101-220.09-24.29-3.8-45.33,143.66-57,304.63C938.8,342.37,922,191.28,898,199.53c-95.43,32.83-92,224.36-92,224.36-2.39,33.73,8.43,66.72,29,55.48,6.37-3.48,12.6-7.24,18.28-10.86-21,86.2-53.66,187.79-73.75,322.59-24.27,162.79,135,195.93,161.13,71.61.48,4.43,1,8.57,1.58,12.36C962.47,1009.63,1214.24,902.65,1146.77,748.81ZM865.68,410.7a130.13,130.13,0,0,0-13.79-.8L873.24,334C873.24,358.73,870.42,384.1,865.68,410.7Zm170-70.37,23.27,70.1a137.4,137.4,0,0,0-18.32,1.36A547,547,0,0,1,1035.64,340.33Z" transform="translate(-777 -24)"/><g class="cls-3"><path class="cls-4" d="M818.24,421.1l33.65-11.2,2.58-9.18C842.83,402.61,818.24,421.1,818.24,421.1Z" transform="translate(-777 -24)"/></g><g class="cls-3"><path class="cls-4" d="M1035.64,340.33v-59s-19.13,61.54.82,87.06Q1035.65,354.18,1035.64,340.33Z" transform="translate(-777 -24)"/></g><g class="cls-3"><path class="cls-4" d="M917.18,347.36S949.49,321,998.94,330Z" transform="translate(-777 -24)"/></g><g class="cls-3"><path class="cls-4" d="M1043,220.37c-11.14-10.56-24.31-17.87-39.88-20.31-2.18-.34-4.33.55-6.45,2.54-24.29-6.81-42.75-3.06-42.75-3.06s-19.92-3-45.7,6.48c-3.25-5.38-6.67-7.72-10.25-6.49-4.67,1.61-3,.51-7.16,2.84,3.41,48.15,9.87,74.68,29,100.83,28.54,39.12,77.67-8,97.27-27.14C1038.21,255.38,1044.17,237.65,1043,220.37Z" transform="translate(-777 -24)"/></g><g class="cls-3"><path class="cls-4" d="M886.51,260.73l-13.27,73.75a393.12,393.12,0,0,1-3.67,51.82C891.28,351.55,886.51,260.73,886.51,260.73Z" transform="translate(-777 -24)"/></g><path class="cls-9" d="M952.94,733.71h-1.37V519.79h2.73V730.72c6.26-2,12.81-17.52,17.78-42.39,5.94-29.8,9.22-70.81,9.22-115.47H984C984,663.06,970.37,733.71,952.94,733.71Z" transform="translate(-777 -24)"/><path class="cls-7" d="M1013.52,260.73c58.55-61.13-7.24-96.48-2.08-170.31C1016.64,16,900-13.66,891.71,96.87c-9,118.81,4.21,151.88,30.89,191S995.2,279.86,1013.52,260.73Z" transform="translate(-777 -24)"/><path class="cls-2" d="M998.6,101.59c0-49.06-43.2-53.5-43.2-53.5s-43.91,2.15-43.91,51.21A138.71,138.71,0,0,0,909,123.81s3.21,49.64,46.38,49.64,46.37-49.64,46.37-49.64C1001.77,114.92,998.6,101.59,998.6,101.59Z" transform="translate(-777 -24)"/><path class="cls-5" d="M920.9,110.54s14.2-13,24.54,1.91C945.44,112.45,935,115.09,920.9,110.54Z" transform="translate(-777 -24)"/><path class="cls-7" d="M938.92,113.18a5.68,5.68,0,0,0,1.07-6.07,12.8,12.8,0,0,0-9.51-1.51,5.77,5.77,0,0,0-.21,7.09A51.42,51.42,0,0,0,938.92,113.18Z" transform="translate(-777 -24)"/><path class="cls-5" d="M989.74,110.54s-14.21-13-24.55,1.91C965.19,112.45,975.63,115.09,989.74,110.54Z" transform="translate(-777 -24)"/><path class="cls-7" d="M971.71,113.18a5.69,5.69,0,0,1-1.48-3.23,5.64,5.64,0,0,1,.42-2.84,12.77,12.77,0,0,1,9.5-1.51,5.77,5.77,0,0,1,.21,7.09A51.37,51.37,0,0,1,971.71,113.18Z" transform="translate(-777 -24)"/><path class="cls-2" d="M869.5,411.69c-6.63,14.29,1.13,32.15,8.76,40.16l.8-.6s49.36-9.85,49.36-17.91C928.42,426.7,898,415.44,869.5,411.69Z" transform="translate(-777 -24)"/><path class="cls-10" d="M880.18,434.48c3.47-.33,7-.56,10.44-.77s7-.35,10.45-.53,7-.24,10.45-.31l5.24-.08c1.74,0,3.49,0,5.23,0-1.74.17-3.48.28-5.22.43l-5.22.34c-3.48.21-7,.35-10.45.52s-7,.25-10.46.31S883.67,434.53,880.18,434.48Z" transform="translate(-777 -24)"/><path class="cls-10" d="M883.56,425.49c2.81,0,5.62.06,8.42.15s5.61.25,8.42.4,5.6.36,8.39.62l4.2.38c1.39.16,2.79.29,4.19.48-1.41,0-2.81,0-4.22,0l-4.21-.13c-2.8-.08-5.61-.24-8.41-.4s-5.6-.36-8.4-.61S886.35,425.85,883.56,425.49Z" transform="translate(-777 -24)"/><path class="cls-10" d="M883.56,444.26c2.84-.69,5.7-1.29,8.56-1.87s5.72-1.11,8.59-1.62,5.75-1,8.64-1.42l4.33-.63c1.45-.18,2.89-.39,4.34-.54-1.41.36-2.84.65-4.27,1l-4.28.89c-2.86.59-5.73,1.11-8.6,1.62s-5.75,1-8.63,1.42S886.46,443.94,883.56,444.26Z" transform="translate(-777 -24)"/><path class="cls-11" d="M1007.27,173.45s-17.49,36.5-45.89,48.11c0,0,21.52-4,34.06-14.33S1007.27,173.45,1007.27,173.45Z" transform="translate(-777 -24)"/><path class="cls-11" d="M912.37,168.12s11.09,27.73,41.6,34.13c0,0-25-1.63-34.6-13C912.16,180.68,912.37,168.12,912.37,168.12Z" transform="translate(-777 -24)"/><path class="cls-11" d="M1027.38,191.44s-9,36.46-14.23,47.56S960,284.44,940.77,288.14c0,0,55.13-11.72,77-47.13C1027.38,226,1027.38,191.44,1027.38,191.44Z" transform="translate(-777 -24)"/><path class="cls-12" d="M949.85,145.73s9-2.33,15.34,0c0,0-.88,13.08-7.67,13.08S949.85,145.73,949.85,145.73Z" transform="translate(-777 -24)"/><path class="cls-13" d="M957.29,113.27c1.41,2,2.68,4.08,3.92,6.2a42.89,42.89,0,0,1,3.19,6.73,17.57,17.57,0,0,1,.57,1.9,6.52,6.52,0,0,1,.18,2.28,3.16,3.16,0,0,1-.18.72,2.71,2.71,0,0,1-.43.77,4.52,4.52,0,0,1-.5.49,2.5,2.5,0,0,1-.51.38,5.54,5.54,0,0,1-2.15.77,10.12,10.12,0,0,1-4-.27,12.06,12.06,0,0,1-3.5-1.45.16.16,0,0,1,0-.2.14.14,0,0,1,.12-.07l3.59-.22a15.62,15.62,0,0,0,3.23-.5,3.93,3.93,0,0,0,.66-.23,3.88,3.88,0,0,0,.54-.27,1,1,0,0,0,.22-.16s.17-.12.16-.12.05,0,.09-.16a3.55,3.55,0,0,0,.08-1.36,12.73,12.73,0,0,0-.27-1.66,52.54,52.54,0,0,0-2.33-6.76c-.89-2.25-1.9-4.46-2.92-6.67a.14.14,0,0,1,.06-.19A.13.13,0,0,1,957.29,113.27Z" transform="translate(-777 -24)"/><path class="cls-14" d="M950.22,148.52c.68,3.83,2.53,10.29,7.3,10.29,3.17,0,5.05-2.85,6.16-5.89C960.54,149.5,953.38,148.7,950.22,148.52Z" transform="translate(-777 -24)"/><path class="cls-15" d="M994.39,124.88c0,1.52-3.44,2.75-7.68,2.75S979,126.4,979,124.88s3.44-2.75,7.68-2.75S994.39,123.36,994.39,124.88Z" transform="translate(-777 -24)"/><path class="cls-15" d="M931.75,124.88c0,1.52-3.43,2.75-7.67,2.75s-7.68-1.23-7.68-2.75,3.43-2.75,7.68-2.75S931.75,123.36,931.75,124.88Z" transform="translate(-777 -24)"/><path class="cls-2" d="M1023.21,411.69c6.63,14.29-1.13,32.15-8.77,40.16l-.79-.6s-49.37-9.85-49.37-17.91C964.28,426.7,994.74,415.44,1023.21,411.69Z" transform="translate(-777 -24)"/><path class="cls-10" d="M1011.24,434.11c-3.48-.33-7-.56-10.44-.78s-7-.34-10.45-.52-7-.25-10.46-.31l-5.23-.09c-1.75,0-3.49,0-5.24,0,1.74.18,3.48.29,5.22.44l5.22.33c3.48.22,7,.35,10.45.53s7,.25,10.46.31S1007.75,434.16,1011.24,434.11Z" transform="translate(-777 -24)"/><path class="cls-10" d="M1007.85,425.12c-2.81,0-5.61.06-8.42.15s-5.61.24-8.41.4-5.6.36-8.4.61l-4.19.38c-1.4.16-2.8.29-4.19.48,1.4,0,2.81,0,4.21,0l4.21-.12c2.81-.09,5.61-.24,8.41-.4s5.6-.36,8.4-.61S1005.06,425.48,1007.85,425.12Z" transform="translate(-777 -24)"/><path class="cls-10" d="M1007.85,443.89c-2.84-.7-5.69-1.29-8.55-1.87s-5.73-1.11-8.6-1.63-5.75-1-8.63-1.41l-4.33-.64c-1.45-.17-2.9-.38-4.35-.53,1.42.35,2.85.65,4.27,1l4.29.89c2.85.58,5.72,1.1,8.59,1.62s5.75,1,8.64,1.41S1005,443.57,1007.85,443.89Z" transform="translate(-777 -24)"/></g></g></svg>